<?xml version="1.0" standalone="no"?>
<!DOCTYPE svg PUBLIC "-//W3C//DTD SVG 1.1//EN" "http://www.w3.org/Graphics/SVG/1.1/DTD/svg11.dtd">
<svg width="584" height="80" version="1.1" xmlns="http://www.w3.org/2000/svg">
 <desc>Zint Generated Symbol</desc>
 <g id="barcode" fill="#000000">
  <rect x="0" y="0" width="584" height="80" fill="#FFFFFF"/>
  <path d="M0 0h8v50.4h-8ZM48 0h8v80h-8ZM64 0h8v80h-8ZM112 0h8v80h-8ZM176 0h8v50.4h-8ZM208 0h8v80h-8ZM224 0h8v50.4h-8ZM256 0h8v50.4h-8ZM272 0h8v50.4h-8ZM288 0h8v50.4h-8ZM304 0h8v80h-8ZM320 0h8v80h-8ZM368 0h8v50.4h-8ZM384 0h8v50.4h-8ZM400 0h8v50.4h-8ZM416 0h8v50.4h-8ZM432 0h8v80h-8ZM464 0h8v80h-8ZM496 0h8v50.4h-8ZM512 0h8v50.4h-8ZM544 0h8v80h-8ZM560 0h8v50.4h-8ZM16 29.6h8v20.8h-8ZM32 29.6h8v20.8h-8ZM80 29.6h8v50.4h-8ZM96 29.6h8v20.8h-8ZM128 29.6h8v50.4h-8ZM144 29.6h8v50.4h-8ZM160 29.6h8v50.4h-8ZM192 29.6h8v50.4h-8ZM240 29.6h8v50.4h-8ZM336 29.6h8v50.4h-8ZM352 29.6h8v20.8h-8ZM448 29.6h8v50.4h-8ZM480 29.6h8v50.4h-8ZM528 29.6h8v50.4h-8ZM576 29.6h8v20.8h-8Z"/>
 </g>
</svg>
