<?xml version="1.0" standalone="no"?>
<!DOCTYPE svg PUBLIC "-//W3C//DTD SVG 1.1//EN" "http://www.w3.org/Graphics/SVG/1.1/DTD/svg11.dtd">
<svg width="88" height="88" version="1.1" xmlns="http://www.w3.org/2000/svg">
 <desc>Zint Generated Symbol</desc>
 <g id="barcode" fill="#000000">
  <rect x="0" y="0" width="88" height="88" fill="#FFFFFF"/>
  <path d="M0 0h32v8h-32ZM40 0h8v8h-8ZM56 0h16v8h-16ZM80 0h8v8h-8ZM0 8h88v8h-88ZM0 16h16v16h-16ZM72 16h16v16h-16ZM24 24h40v8h-40ZM8 32h8v32h-8ZM24 32h8v24h-8ZM56 32h8v24h-8ZM72 32h8v16h-8ZM40 40h8v8h-8ZM72 48h16v16h-16ZM24 56h40v8h-40ZM0 64h16v8h-16ZM72 64h8v8h-8ZM8 72h80v8h-80ZM16 80h32v8h-32ZM56 80h8v8h-8Z"/>
 </g>
</svg>
