<?xml version="1.0" standalone="no"?>
<!DOCTYPE svg PUBLIC "-//W3C//DTD SVG 1.1//EN" "http://www.w3.org/Graphics/SVG/1.1/DTD/svg11.dtd">
<svg width="184" height="184" version="1.1" xmlns="http://www.w3.org/2000/svg">
 <desc>Zint Generated Symbol</desc>
 <g id="barcode" fill="#000000">
  <rect x="0" y="0" width="184" height="184" fill="#FFFFFF"/>
  <path d="M72 0h8v8h-8ZM88 0h16v8h-16ZM120 0h32v8h-32ZM160 0h8v8h-8ZM24 8h8v8h-8ZM96 8h16v8h-16ZM128 8h8v8h-8ZM152 8h32v8h-32ZM16 16h8v8h-8ZM32 16h8v8h-8ZM56 16h24v8h-24ZM96 16h24v8h-24ZM136 16h8v8h-8ZM152 16h24v8h-24ZM8 24h8v8h-8ZM32 24h16v8h-16ZM88 24h8v16h-8ZM128 24h24v8h-24ZM160 24h24v8h-24ZM24 32h56v8h-56ZM104 32h8v8h-8ZM136 32h8v8h-8ZM152 32h16v16h-16ZM176 32h8v8h-8ZM24 40h8v8h-8ZM40 40h8v8h-8ZM56 40h8v8h-8ZM120 40h24v8h-24ZM8 48h24v8h-24ZM40 48h32v8h-32ZM88 48h16v8h-16ZM112 48h8v8h-8ZM128 48h8v8h-8ZM144 48h8v8h-8ZM160 48h8v8h-8ZM0 56h8v8h-8ZM16 56h16v8h-16ZM40 56h104v8h-104ZM160 56h24v8h-24ZM0 64h16v8h-16ZM40 64h24v8h-24ZM120 64h40v8h-40ZM168 64h8v16h-8ZM0 72h24v8h-24ZM48 72h16v16h-16ZM72 72h40v8h-40ZM120 72h8v8h-8ZM144 72h8v8h-8ZM0 80h16v8h-16ZM24 80h8v8h-8ZM72 80h8v24h-8ZM104 80h8v24h-8ZM120 80h24v8h-24ZM176 80h8v8h-8ZM0 88h8v8h-8ZM56 88h8v8h-8ZM88 88h8v8h-8ZM120 88h16v8h-16ZM144 88h16v16h-16ZM168 88h16v16h-16ZM16 96h8v8h-8ZM32 96h8v8h-8ZM48 96h16v8h-16ZM120 96h8v8h-8ZM0 104h24v8h-24ZM40 104h24v8h-24ZM72 104h40v8h-40ZM120 104h56v8h-56ZM0 112h40v8h-40ZM48 112h16v8h-16ZM120 112h40v8h-40ZM176 112h8v8h-8ZM0 120h8v8h-8ZM24 120h16v8h-16ZM56 120h80v8h-80ZM144 120h8v8h-8ZM168 120h8v8h-8ZM8 128h16v8h-16ZM32 128h8v8h-8ZM136 128h8v8h-8ZM152 128h16v8h-16ZM8 136h24v8h-24ZM40 136h8v8h-8ZM64 136h8v8h-8ZM88 136h32v8h-32ZM128 136h8v8h-8ZM144 136h8v8h-8ZM160 136h16v8h-16ZM8 144h8v8h-8ZM24 144h8v8h-8ZM48 144h8v8h-8ZM88 144h8v8h-8ZM120 144h24v8h-24ZM160 144h8v8h-8ZM0 152h16v8h-16ZM24 152h24v8h-24ZM56 152h8v8h-8ZM72 152h24v8h-24ZM112 152h24v8h-24ZM144 152h24v16h-24ZM32 160h24v8h-24ZM64 160h48v8h-48ZM8 168h8v8h-8ZM24 168h24v8h-24ZM64 168h8v8h-8ZM80 168h8v8h-8ZM96 168h24v8h-24ZM128 168h24v8h-24ZM160 168h8v8h-8ZM0 176h72v8h-72ZM80 176h16v8h-16ZM112 176h24v8h-24ZM144 176h40v8h-40Z"/>
 </g>
</svg>
