<?xml version="1.0" standalone="no"?>
<!DOCTYPE svg PUBLIC "-//W3C//DTD SVG 1.1//EN"
   "http://www.w3.org/Graphics/SVG/1.1/DTD/svg11.dtd">
<svg width="490" height="126" version="1.1"
   xmlns="http://www.w3.org/2000/svg">
   <desc>Zint Generated Symbol
   </desc>

   <g id="barcode" fill="#000000">
      <rect x="0" y="0" width="490" height="126" fill="#FFFFFF" />
      <rect x="0.00" y="0.00" width="4.80" height="80.00" />
      <rect x="14.40" y="0.00" width="4.80" height="80.00" />
      <rect x="24.00" y="0.00" width="4.80" height="80.00" />
      <rect x="43.20" y="0.00" width="4.80" height="80.00" />
      <rect x="57.60" y="0.00" width="4.80" height="80.00" />
      <rect x="72.00" y="0.00" width="4.80" height="80.00" />
      <rect x="91.20" y="0.00" width="4.80" height="80.00" />
      <rect x="100.80" y="0.00" width="4.80" height="80.00" />
      <rect x="110.40" y="0.00" width="4.80" height="80.00" />
      <rect x="129.60" y="0.00" width="4.80" height="80.00" />
      <rect x="148.80" y="0.00" width="4.80" height="80.00" />
      <rect x="158.40" y="0.00" width="4.80" height="80.00" />
      <rect x="168.00" y="0.00" width="4.80" height="80.00" />
      <rect x="187.20" y="0.00" width="4.80" height="80.00" />
      <rect x="196.80" y="0.00" width="4.80" height="80.00" />
      <rect x="206.40" y="0.00" width="4.80" height="80.00" />
      <rect x="235.20" y="0.00" width="4.80" height="80.00" />
      <rect x="244.80" y="0.00" width="4.80" height="80.00" />
      <rect x="254.40" y="0.00" width="4.80" height="80.00" />
      <rect x="268.80" y="0.00" width="4.80" height="80.00" />
      <rect x="278.40" y="0.00" width="4.80" height="80.00" />
      <rect x="302.40" y="0.00" width="4.80" height="80.00" />
      <rect x="312.00" y="0.00" width="4.80" height="80.00" />
      <rect x="326.40" y="0.00" width="4.80" height="80.00" />
      <rect x="340.80" y="0.00" width="4.80" height="80.00" />
      <rect x="360.00" y="0.00" width="4.80" height="80.00" />
      <rect x="369.60" y="0.00" width="4.80" height="80.00" />
      <rect x="384.00" y="0.00" width="4.80" height="80.00" />
      <rect x="403.20" y="0.00" width="4.80" height="80.00" />
      <rect x="417.60" y="0.00" width="4.80" height="80.00" />
      <rect x="427.20" y="0.00" width="4.80" height="80.00" />
      <rect x="436.80" y="0.00" width="4.80" height="80.00" />
      <rect x="446.40" y="0.00" width="4.80" height="80.00" />
      <rect x="475.20" y="0.00" width="4.80" height="80.00" />
      <rect x="484.80" y="0.00" width="4.80" height="80.00" />
      <text x="244.80" y="113.60" text-anchor="middle"
         font-family="Helvetica, sans-serif" font-size="33.6" >
         AQQ45670
      </text>
   </g>
</svg>
