<?xml version="1.0" standalone="no"?>
<!DOCTYPE svg PUBLIC "-//W3C//DTD SVG 1.1//EN" "http://www.w3.org/Graphics/SVG/1.1/DTD/svg11.dtd">
<svg width="716" height="280" version="1.1" xmlns="http://www.w3.org/2000/svg">
 <desc>Zint Generated Symbol</desc>
 <g id="barcode" fill="#000000">
  <rect x="0" y="0" width="716" height="280" fill="#FFFFFF"/>
  <path d="M0 0h4.8v240h-4.8ZM9.6 0h4.8v240h-4.8ZM19.2 0h4.8v240h-4.8ZM28.8 0h14.4v240h-14.4ZM48 0h4.8v240h-4.8ZM57.6 0h14.4v240h-14.4ZM76.8 0h4.8v240h-4.8ZM86.4 0h4.8v240h-4.8ZM96 0h14.4v240h-14.4ZM115.2 0h4.8v240h-4.8ZM124.8 0h4.8v240h-4.8ZM134.4 0h14.4v240h-14.4ZM153.6 0h14.4v240h-14.4ZM172.8 0h4.8v240h-4.8ZM182.4 0h4.8v240h-4.8ZM192 0h4.8v240h-4.8ZM201.6 0h14.4v240h-14.4ZM220.8 0h4.8v240h-4.8ZM230.4 0h14.4v240h-14.4ZM249.6 0h4.8v240h-4.8ZM259.2 0h4.8v240h-4.8ZM268.8 0h14.4v240h-14.4ZM288 0h14.4v240h-14.4ZM307.2 0h14.4v240h-14.4ZM326.4 0h4.8v240h-4.8ZM336 0h4.8v240h-4.8ZM345.6 0h4.8v240h-4.8ZM355.2 0h4.8v240h-4.8ZM364.8 0h14.4v240h-14.4ZM384 0h4.8v240h-4.8ZM393.6 0h4.8v240h-4.8ZM403.2 0h14.4v240h-14.4ZM422.4 0h4.8v240h-4.8ZM432 0h4.8v240h-4.8ZM441.6 0h14.4v240h-14.4ZM460.8 0h14.4v240h-14.4ZM480 0h4.8v240h-4.8ZM489.6 0h4.8v240h-4.8ZM499.2 0h14.4v240h-14.4ZM518.4 0h4.8v240h-4.8ZM528 0h14.4v240h-14.4ZM547.2 0h4.8v240h-4.8ZM556.8 0h4.8v240h-4.8ZM566.4 0h14.4v240h-14.4ZM585.6 0h14.4v240h-14.4ZM604.8 0h4.8v240h-4.8ZM614.4 0h4.8v240h-4.8ZM624 0h4.8v240h-4.8ZM633.6 0h4.8v240h-4.8ZM643.2 0h4.8v240h-4.8ZM652.8 0h14.4v240h-14.4ZM672 0h14.4v240h-14.4ZM691.2 0h14.4v240h-14.4ZM710.4 0h4.8v240h-4.8Z"/>
  <text x="357.6" y="272.03" text-anchor="middle" font-family="Arimo, Arial, sans-serif" font-size="33.6">
   9212320967
  </text>
 </g>
</svg>
