<?xml version="1.0" standalone="no"?>
<!DOCTYPE svg PUBLIC "-//W3C//DTD SVG 1.1//EN"
   "http://www.w3.org/Graphics/SVG/1.1/DTD/svg11.dtd">
<svg width="764" height="286" version="1.1"
   xmlns="http://www.w3.org/2000/svg">
   <desc>Zint Generated Symbol
   </desc>

   <g id="barcode" fill="#000000">
      <rect x="0" y="0" width="764" height="286" fill="#FFFFFF" />
      <rect x="0.00" y="0.00" width="14.40" height="240.00" />
      <rect x="19.20" y="0.00" width="14.40" height="240.00" />
      <rect x="38.40" y="0.00" width="4.80" height="240.00" />
      <rect x="48.00" y="0.00" width="4.80" height="240.00" />
      <rect x="57.60" y="0.00" width="14.40" height="240.00" />
      <rect x="76.80" y="0.00" width="4.80" height="240.00" />
      <rect x="86.40" y="0.00" width="14.40" height="240.00" />
      <rect x="105.60" y="0.00" width="4.80" height="240.00" />
      <rect x="115.20" y="0.00" width="4.80" height="240.00" />
      <rect x="124.80" y="0.00" width="14.40" height="240.00" />
      <rect x="144.00" y="0.00" width="4.80" height="240.00" />
      <rect x="153.60" y="0.00" width="4.80" height="240.00" />
      <rect x="163.20" y="0.00" width="14.40" height="240.00" />
      <rect x="182.40" y="0.00" width="14.40" height="240.00" />
      <rect x="201.60" y="0.00" width="4.80" height="240.00" />
      <rect x="211.20" y="0.00" width="4.80" height="240.00" />
      <rect x="220.80" y="0.00" width="4.80" height="240.00" />
      <rect x="230.40" y="0.00" width="14.40" height="240.00" />
      <rect x="249.60" y="0.00" width="4.80" height="240.00" />
      <rect x="259.20" y="0.00" width="14.40" height="240.00" />
      <rect x="278.40" y="0.00" width="4.80" height="240.00" />
      <rect x="288.00" y="0.00" width="4.80" height="240.00" />
      <rect x="297.60" y="0.00" width="14.40" height="240.00" />
      <rect x="316.80" y="0.00" width="14.40" height="240.00" />
      <rect x="336.00" y="0.00" width="14.40" height="240.00" />
      <rect x="355.20" y="0.00" width="4.80" height="240.00" />
      <rect x="364.80" y="0.00" width="4.80" height="240.00" />
      <rect x="374.40" y="0.00" width="4.80" height="240.00" />
      <rect x="384.00" y="0.00" width="4.80" height="240.00" />
      <rect x="393.60" y="0.00" width="14.40" height="240.00" />
      <rect x="412.80" y="0.00" width="4.80" height="240.00" />
      <rect x="422.40" y="0.00" width="4.80" height="240.00" />
      <rect x="432.00" y="0.00" width="14.40" height="240.00" />
      <rect x="451.20" y="0.00" width="4.80" height="240.00" />
      <rect x="460.80" y="0.00" width="4.80" height="240.00" />
      <rect x="470.40" y="0.00" width="14.40" height="240.00" />
      <rect x="489.60" y="0.00" width="14.40" height="240.00" />
      <rect x="508.80" y="0.00" width="4.80" height="240.00" />
      <rect x="518.40" y="0.00" width="4.80" height="240.00" />
      <rect x="528.00" y="0.00" width="14.40" height="240.00" />
      <rect x="547.20" y="0.00" width="4.80" height="240.00" />
      <rect x="556.80" y="0.00" width="14.40" height="240.00" />
      <rect x="576.00" y="0.00" width="4.80" height="240.00" />
      <rect x="585.60" y="0.00" width="4.80" height="240.00" />
      <rect x="595.20" y="0.00" width="14.40" height="240.00" />
      <rect x="614.40" y="0.00" width="14.40" height="240.00" />
      <rect x="633.60" y="0.00" width="4.80" height="240.00" />
      <rect x="643.20" y="0.00" width="4.80" height="240.00" />
      <rect x="652.80" y="0.00" width="4.80" height="240.00" />
      <rect x="662.40" y="0.00" width="4.80" height="240.00" />
      <rect x="672.00" y="0.00" width="4.80" height="240.00" />
      <rect x="681.60" y="0.00" width="14.40" height="240.00" />
      <rect x="700.80" y="0.00" width="14.40" height="240.00" />
      <rect x="720.00" y="0.00" width="14.40" height="240.00" />
      <rect x="739.20" y="0.00" width="4.80" height="240.00" />
      <rect x="748.80" y="0.00" width="14.40" height="240.00" />
      <text x="381.60" y="273.60" text-anchor="middle"
         font-family="Helvetica, sans-serif" font-size="33.6" >
         9212320967
      </text>
   </g>
</svg>
