<?xml version="1.0" standalone="no"?>
<!DOCTYPE svg PUBLIC "-//W3C//DTD SVG 1.1//EN"
   "http://www.w3.org/Graphics/SVG/1.1/DTD/svg11.dtd">
<svg width="191" height="72" version="1.1"
   xmlns="http://www.w3.org/2000/svg">
   <desc>Zint Generated Symbol
   </desc>

   <g id="barcode" fill="#000000">
      <rect x="0" y="0" width="191" height="72" fill="#FFFFFF" />
      <rect x="0.00" y="0.00" width="3.60" height="60.00" />
      <rect x="4.80" y="0.00" width="3.60" height="60.00" />
      <rect x="9.60" y="0.00" width="1.20" height="60.00" />
      <rect x="12.00" y="0.00" width="1.20" height="60.00" />
      <rect x="14.40" y="0.00" width="3.60" height="60.00" />
      <rect x="19.20" y="0.00" width="1.20" height="60.00" />
      <rect x="21.60" y="0.00" width="3.60" height="60.00" />
      <rect x="26.40" y="0.00" width="1.20" height="60.00" />
      <rect x="28.80" y="0.00" width="1.20" height="60.00" />
      <rect x="31.20" y="0.00" width="3.60" height="60.00" />
      <rect x="36.00" y="0.00" width="1.20" height="60.00" />
      <rect x="38.40" y="0.00" width="1.20" height="60.00" />
      <rect x="40.80" y="0.00" width="3.60" height="60.00" />
      <rect x="45.60" y="0.00" width="3.60" height="60.00" />
      <rect x="50.40" y="0.00" width="1.20" height="60.00" />
      <rect x="52.80" y="0.00" width="1.20" height="60.00" />
      <rect x="55.20" y="0.00" width="1.20" height="60.00" />
      <rect x="57.60" y="0.00" width="3.60" height="60.00" />
      <rect x="62.40" y="0.00" width="1.20" height="60.00" />
      <rect x="64.80" y="0.00" width="3.60" height="60.00" />
      <rect x="69.60" y="0.00" width="1.20" height="60.00" />
      <rect x="72.00" y="0.00" width="1.20" height="60.00" />
      <rect x="74.40" y="0.00" width="3.60" height="60.00" />
      <rect x="79.20" y="0.00" width="3.60" height="60.00" />
      <rect x="84.00" y="0.00" width="3.60" height="60.00" />
      <rect x="88.80" y="0.00" width="1.20" height="60.00" />
      <rect x="91.20" y="0.00" width="1.20" height="60.00" />
      <rect x="93.60" y="0.00" width="1.20" height="60.00" />
      <rect x="96.00" y="0.00" width="1.20" height="60.00" />
      <rect x="98.40" y="0.00" width="3.60" height="60.00" />
      <rect x="103.20" y="0.00" width="1.20" height="60.00" />
      <rect x="105.60" y="0.00" width="1.20" height="60.00" />
      <rect x="108.00" y="0.00" width="3.60" height="60.00" />
      <rect x="112.80" y="0.00" width="1.20" height="60.00" />
      <rect x="115.20" y="0.00" width="1.20" height="60.00" />
      <rect x="117.60" y="0.00" width="3.60" height="60.00" />
      <rect x="122.40" y="0.00" width="3.60" height="60.00" />
      <rect x="127.20" y="0.00" width="1.20" height="60.00" />
      <rect x="129.60" y="0.00" width="1.20" height="60.00" />
      <rect x="132.00" y="0.00" width="3.60" height="60.00" />
      <rect x="136.80" y="0.00" width="1.20" height="60.00" />
      <rect x="139.20" y="0.00" width="3.60" height="60.00" />
      <rect x="144.00" y="0.00" width="1.20" height="60.00" />
      <rect x="146.40" y="0.00" width="1.20" height="60.00" />
      <rect x="148.80" y="0.00" width="3.60" height="60.00" />
      <rect x="153.60" y="0.00" width="3.60" height="60.00" />
      <rect x="158.40" y="0.00" width="1.20" height="60.00" />
      <rect x="160.80" y="0.00" width="1.20" height="60.00" />
      <rect x="163.20" y="0.00" width="1.20" height="60.00" />
      <rect x="165.60" y="0.00" width="1.20" height="60.00" />
      <rect x="168.00" y="0.00" width="1.20" height="60.00" />
      <rect x="170.40" y="0.00" width="3.60" height="60.00" />
      <rect x="175.20" y="0.00" width="3.60" height="60.00" />
      <rect x="180.00" y="0.00" width="3.60" height="60.00" />
      <rect x="184.80" y="0.00" width="1.20" height="60.00" />
      <rect x="187.20" y="0.00" width="3.60" height="60.00" />
      <text x="95.40" y="69.24" text-anchor="middle"
         font-family="Helvetica, sans-serif" font-size="8.4" >
         9212320967
      </text>
   </g>
</svg>
