<?xml version="1.0" standalone="no"?>
<!DOCTYPE svg PUBLIC "-//W3C//DTD SVG 1.1//EN"
   "http://www.w3.org/Graphics/SVG/1.1/DTD/svg11.dtd">
<svg width="141" height="72" version="1.1"
   xmlns="http://www.w3.org/2000/svg">
   <desc>Zint Generated Symbol
   </desc>

   <g id="barcode" fill="#000000">
      <rect x="0" y="0" width="141" height="72" fill="#FFFFFF" />
      <rect x="0.00" y="0.00" width="4.80" height="60.00" />
      <rect x="6.00" y="0.00" width="1.20" height="60.00" />
      <rect x="8.40" y="0.00" width="1.20" height="60.00" />
      <rect x="10.80" y="0.00" width="1.20" height="60.00" />
      <rect x="15.60" y="0.00" width="1.20" height="60.00" />
      <rect x="20.40" y="0.00" width="1.20" height="60.00" />
      <rect x="22.80" y="0.00" width="1.20" height="60.00" />
      <rect x="27.60" y="0.00" width="1.20" height="60.00" />
      <rect x="30.00" y="0.00" width="3.60" height="60.00" />
      <rect x="34.80" y="0.00" width="3.60" height="60.00" />
      <rect x="39.60" y="0.00" width="1.20" height="60.00" />
      <rect x="42.00" y="0.00" width="3.60" height="60.00" />
      <rect x="46.80" y="0.00" width="1.20" height="60.00" />
      <rect x="51.60" y="0.00" width="1.20" height="60.00" />
      <rect x="54.00" y="0.00" width="3.60" height="60.00" />
      <rect x="58.80" y="0.00" width="3.60" height="60.00" />
      <rect x="66.00" y="0.00" width="1.20" height="60.00" />
      <rect x="68.40" y="0.00" width="1.20" height="60.00" />
      <rect x="70.80" y="0.00" width="1.20" height="60.00" />
      <rect x="75.60" y="0.00" width="1.20" height="60.00" />
      <rect x="78.00" y="0.00" width="3.60" height="60.00" />
      <rect x="82.80" y="0.00" width="1.20" height="60.00" />
      <rect x="85.20" y="0.00" width="3.60" height="60.00" />
      <rect x="92.40" y="0.00" width="1.20" height="60.00" />
      <rect x="94.80" y="0.00" width="1.20" height="60.00" />
      <rect x="99.60" y="0.00" width="1.20" height="60.00" />
      <rect x="104.40" y="0.00" width="1.20" height="60.00" />
      <rect x="106.80" y="0.00" width="1.20" height="60.00" />
      <rect x="111.60" y="0.00" width="3.60" height="60.00" />
      <rect x="116.40" y="0.00" width="1.20" height="60.00" />
      <rect x="118.80" y="0.00" width="1.20" height="60.00" />
      <rect x="121.20" y="0.00" width="1.20" height="60.00" />
      <rect x="126.00" y="0.00" width="3.60" height="60.00" />
      <rect x="130.80" y="0.00" width="4.80" height="60.00" />
      <rect x="136.80" y="0.00" width="1.20" height="60.00" />
      <rect x="139.20" y="0.00" width="1.20" height="60.00" />
      <text x="70.20" y="69.24" text-anchor="middle"
         font-family="Helvetica, sans-serif" font-size="8.4" >
         9212320967
      </text>
   </g>
</svg>
