<?xml version="1.0" standalone="no"?>
<!DOCTYPE svg PUBLIC "-//W3C//DTD SVG 1.1//EN"
   "http://www.w3.org/Graphics/SVG/1.1/DTD/svg11.dtd">
<svg width="199" height="39" version="1.1"
   xmlns="http://www.w3.org/2000/svg">
   <desc>Zint Generated Symbol
   </desc>

   <g id="barcode" fill="#000000">
      <rect x="0" y="0" width="199" height="39" fill="#FFFFFF" />
      <rect x="12.00" y="1.20" width="2.40" height="36.00" />
      <rect x="15.60" y="1.20" width="1.20" height="36.00" />
      <rect x="21.60" y="1.20" width="1.20" height="36.00" />
      <rect x="25.20" y="1.20" width="1.20" height="11.40" />
      <rect x="27.60" y="1.20" width="4.80" height="11.40" />
      <rect x="33.60" y="1.20" width="3.60" height="11.40" />
      <rect x="38.40" y="1.20" width="1.20" height="11.40" />
      <rect x="42.00" y="1.20" width="1.20" height="11.40" />
      <rect x="44.40" y="1.20" width="2.40" height="11.40" />
      <rect x="51.60" y="1.20" width="1.20" height="11.40" />
      <rect x="56.40" y="1.20" width="1.20" height="11.40" />
      <rect x="61.20" y="1.20" width="2.40" height="11.40" />
      <rect x="64.80" y="1.20" width="1.20" height="11.40" />
      <rect x="69.60" y="1.20" width="3.60" height="11.40" />
      <rect x="74.40" y="1.20" width="2.40" height="11.40" />
      <rect x="78.00" y="1.20" width="1.20" height="11.40" />
      <rect x="80.40" y="1.20" width="2.40" height="11.40" />
      <rect x="86.40" y="1.20" width="1.20" height="11.40" />
      <rect x="91.20" y="1.20" width="1.20" height="11.40" />
      <rect x="93.60" y="1.20" width="1.20" height="11.40" />
      <rect x="98.40" y="1.20" width="2.40" height="11.40" />
      <rect x="104.40" y="1.20" width="1.20" height="11.40" />
      <rect x="109.20" y="1.20" width="1.20" height="11.40" />
      <rect x="111.60" y="1.20" width="2.40" height="11.40" />
      <rect x="117.60" y="1.20" width="1.20" height="11.40" />
      <rect x="122.40" y="1.20" width="2.40" height="11.40" />
      <rect x="126.00" y="1.20" width="3.60" height="11.40" />
      <rect x="130.80" y="1.20" width="1.20" height="11.40" />
      <rect x="135.60" y="1.20" width="3.60" height="11.40" />
      <rect x="140.40" y="1.20" width="2.40" height="11.40" />
      <rect x="144.00" y="1.20" width="1.20" height="11.40" />
      <rect x="148.80" y="1.20" width="1.20" height="11.40" />
      <rect x="153.60" y="1.20" width="2.40" height="11.40" />
      <rect x="157.20" y="1.20" width="3.60" height="11.40" />
      <rect x="162.00" y="1.20" width="1.20" height="11.40" />
      <rect x="164.40" y="1.20" width="4.80" height="11.40" />
      <rect x="170.40" y="1.20" width="2.40" height="36.00" />
      <rect x="176.40" y="1.20" width="3.60" height="36.00" />
      <rect x="181.20" y="1.20" width="1.20" height="36.00" />
      <rect x="183.60" y="1.20" width="2.40" height="36.00" />
      <rect x="25.20" y="13.80" width="1.20" height="10.80" />
      <rect x="27.60" y="13.80" width="4.80" height="10.80" />
      <rect x="33.60" y="13.80" width="3.60" height="10.80" />
      <rect x="38.40" y="13.80" width="2.40" height="10.80" />
      <rect x="44.40" y="13.80" width="1.20" height="10.80" />
      <rect x="48.00" y="13.80" width="1.20" height="10.80" />
      <rect x="51.60" y="13.80" width="1.20" height="10.80" />
      <rect x="54.00" y="13.80" width="2.40" height="10.80" />
      <rect x="60.00" y="13.80" width="3.60" height="10.80" />
      <rect x="64.80" y="13.80" width="2.40" height="10.80" />
      <rect x="68.40" y="13.80" width="2.40" height="10.80" />
      <rect x="73.20" y="13.80" width="2.40" height="10.80" />
      <rect x="78.00" y="13.80" width="1.20" height="10.80" />
      <rect x="82.80" y="13.80" width="2.40" height="10.80" />
      <rect x="88.80" y="13.80" width="1.20" height="10.80" />
      <rect x="91.20" y="13.80" width="2.40" height="10.80" />
      <rect x="94.80" y="13.80" width="2.40" height="10.80" />
      <rect x="99.60" y="13.80" width="2.40" height="10.80" />
      <rect x="104.40" y="13.80" width="2.40" height="10.80" />
      <rect x="108.00" y="13.80" width="3.60" height="10.80" />
      <rect x="112.80" y="13.80" width="1.20" height="10.80" />
      <rect x="117.60" y="13.80" width="2.40" height="10.80" />
      <rect x="121.20" y="13.80" width="2.40" height="10.80" />
      <rect x="124.80" y="13.80" width="4.80" height="10.80" />
      <rect x="130.80" y="13.80" width="4.80" height="10.80" />
      <rect x="136.80" y="13.80" width="3.60" height="10.80" />
      <rect x="141.60" y="13.80" width="1.20" height="10.80" />
      <rect x="144.00" y="13.80" width="1.20" height="10.80" />
      <rect x="147.60" y="13.80" width="1.20" height="10.80" />
      <rect x="153.60" y="13.80" width="2.40" height="10.80" />
      <rect x="157.20" y="13.80" width="1.20" height="10.80" />
      <rect x="160.80" y="13.80" width="1.20" height="10.80" />
      <rect x="164.40" y="13.80" width="4.80" height="10.80" />
      <rect x="25.20" y="25.80" width="1.20" height="11.40" />
      <rect x="27.60" y="25.80" width="4.80" height="11.40" />
      <rect x="33.60" y="25.80" width="3.60" height="11.40" />
      <rect x="38.40" y="25.80" width="1.20" height="11.40" />
      <rect x="40.80" y="25.80" width="2.40" height="11.40" />
      <rect x="45.60" y="25.80" width="3.60" height="11.40" />
      <rect x="51.60" y="25.80" width="1.20" height="11.40" />
      <rect x="56.40" y="25.80" width="4.80" height="11.40" />
      <rect x="62.40" y="25.80" width="1.20" height="11.40" />
      <rect x="64.80" y="25.80" width="2.40" height="11.40" />
      <rect x="69.60" y="25.80" width="1.20" height="11.40" />
      <rect x="72.00" y="25.80" width="1.20" height="11.40" />
      <rect x="78.00" y="25.80" width="1.20" height="11.40" />
      <rect x="82.80" y="25.80" width="4.80" height="11.40" />
      <rect x="88.80" y="25.80" width="1.20" height="11.40" />
      <rect x="91.20" y="25.80" width="1.20" height="11.40" />
      <rect x="94.80" y="25.80" width="2.40" height="11.40" />
      <rect x="98.40" y="25.80" width="1.20" height="11.40" />
      <rect x="104.40" y="25.80" width="2.40" height="11.40" />
      <rect x="108.00" y="25.80" width="2.40" height="11.40" />
      <rect x="111.60" y="25.80" width="4.80" height="11.40" />
      <rect x="117.60" y="25.80" width="1.20" height="11.40" />
      <rect x="120.00" y="25.80" width="3.60" height="11.40" />
      <rect x="124.80" y="25.80" width="4.80" height="11.40" />
      <rect x="130.80" y="25.80" width="1.20" height="11.40" />
      <rect x="136.80" y="25.80" width="2.40" height="11.40" />
      <rect x="141.60" y="25.80" width="1.20" height="11.40" />
      <rect x="144.00" y="25.80" width="2.40" height="11.40" />
      <rect x="147.60" y="25.80" width="3.60" height="11.40" />
      <rect x="152.40" y="25.80" width="3.60" height="11.40" />
      <rect x="157.20" y="25.80" width="1.20" height="11.40" />
      <rect x="159.60" y="25.80" width="1.20" height="11.40" />
      <rect x="163.20" y="25.80" width="4.80" height="11.40" />
      <rect x="25.20" y="12.60" width="145.20" height="1.20" />
      <rect x="25.20" y="24.60" width="145.20" height="1.20" />
      <rect x="12.00" y="0.00" width="174.00" height="1.20" />
      <rect x="12.00" y="37.20" width="174.00" height="1.20" />
   </g>
</svg>
