<?xml version="1.0" standalone="no"?>
<!DOCTYPE svg PUBLIC "-//W3C//DTD SVG 1.1//EN"
   "http://www.w3.org/Graphics/SVG/1.1/DTD/svg11.dtd">
<svg width="793" height="154" version="1.1"
   xmlns="http://www.w3.org/2000/svg">
   <desc>Zint Generated Symbol
   </desc>

   <g id="barcode" fill="#000000">
      <rect x="0" y="0" width="793" height="154" fill="#FFFFFF" />
      <rect x="48.00" y="4.80" width="9.60" height="144.00" />
      <rect x="62.40" y="4.80" width="4.80" height="144.00" />
      <rect x="86.40" y="4.80" width="4.80" height="144.00" />
      <rect x="100.80" y="4.80" width="4.80" height="45.60" />
      <rect x="110.40" y="4.80" width="19.20" height="45.60" />
      <rect x="134.40" y="4.80" width="14.40" height="45.60" />
      <rect x="153.60" y="4.80" width="4.80" height="45.60" />
      <rect x="168.00" y="4.80" width="4.80" height="45.60" />
      <rect x="177.60" y="4.80" width="9.60" height="45.60" />
      <rect x="206.40" y="4.80" width="4.80" height="45.60" />
      <rect x="225.60" y="4.80" width="4.80" height="45.60" />
      <rect x="244.80" y="4.80" width="9.60" height="45.60" />
      <rect x="259.20" y="4.80" width="4.80" height="45.60" />
      <rect x="278.40" y="4.80" width="14.40" height="45.60" />
      <rect x="297.60" y="4.80" width="9.60" height="45.60" />
      <rect x="312.00" y="4.80" width="4.80" height="45.60" />
      <rect x="321.60" y="4.80" width="9.60" height="45.60" />
      <rect x="345.60" y="4.80" width="4.80" height="45.60" />
      <rect x="364.80" y="4.80" width="4.80" height="45.60" />
      <rect x="374.40" y="4.80" width="4.80" height="45.60" />
      <rect x="393.60" y="4.80" width="9.60" height="45.60" />
      <rect x="417.60" y="4.80" width="4.80" height="45.60" />
      <rect x="436.80" y="4.80" width="4.80" height="45.60" />
      <rect x="446.40" y="4.80" width="9.60" height="45.60" />
      <rect x="470.40" y="4.80" width="4.80" height="45.60" />
      <rect x="489.60" y="4.80" width="9.60" height="45.60" />
      <rect x="504.00" y="4.80" width="14.40" height="45.60" />
      <rect x="523.20" y="4.80" width="4.80" height="45.60" />
      <rect x="542.40" y="4.80" width="14.40" height="45.60" />
      <rect x="561.60" y="4.80" width="9.60" height="45.60" />
      <rect x="576.00" y="4.80" width="4.80" height="45.60" />
      <rect x="595.20" y="4.80" width="4.80" height="45.60" />
      <rect x="614.40" y="4.80" width="9.60" height="45.60" />
      <rect x="628.80" y="4.80" width="14.40" height="45.60" />
      <rect x="648.00" y="4.80" width="4.80" height="45.60" />
      <rect x="657.60" y="4.80" width="19.20" height="45.60" />
      <rect x="681.60" y="4.80" width="9.60" height="144.00" />
      <rect x="705.60" y="4.80" width="14.40" height="144.00" />
      <rect x="724.80" y="4.80" width="4.80" height="144.00" />
      <rect x="734.40" y="4.80" width="9.60" height="144.00" />
      <rect x="100.80" y="55.20" width="4.80" height="43.20" />
      <rect x="110.40" y="55.20" width="19.20" height="43.20" />
      <rect x="134.40" y="55.20" width="14.40" height="43.20" />
      <rect x="153.60" y="55.20" width="9.60" height="43.20" />
      <rect x="177.60" y="55.20" width="4.80" height="43.20" />
      <rect x="192.00" y="55.20" width="4.80" height="43.20" />
      <rect x="206.40" y="55.20" width="4.80" height="43.20" />
      <rect x="216.00" y="55.20" width="9.60" height="43.20" />
      <rect x="240.00" y="55.20" width="14.40" height="43.20" />
      <rect x="259.20" y="55.20" width="9.60" height="43.20" />
      <rect x="273.60" y="55.20" width="9.60" height="43.20" />
      <rect x="292.80" y="55.20" width="9.60" height="43.20" />
      <rect x="312.00" y="55.20" width="4.80" height="43.20" />
      <rect x="331.20" y="55.20" width="9.60" height="43.20" />
      <rect x="355.20" y="55.20" width="4.80" height="43.20" />
      <rect x="364.80" y="55.20" width="9.60" height="43.20" />
      <rect x="379.20" y="55.20" width="9.60" height="43.20" />
      <rect x="398.40" y="55.20" width="9.60" height="43.20" />
      <rect x="417.60" y="55.20" width="9.60" height="43.20" />
      <rect x="432.00" y="55.20" width="14.40" height="43.20" />
      <rect x="451.20" y="55.20" width="4.80" height="43.20" />
      <rect x="470.40" y="55.20" width="9.60" height="43.20" />
      <rect x="484.80" y="55.20" width="9.60" height="43.20" />
      <rect x="499.20" y="55.20" width="19.20" height="43.20" />
      <rect x="523.20" y="55.20" width="19.20" height="43.20" />
      <rect x="547.20" y="55.20" width="14.40" height="43.20" />
      <rect x="566.40" y="55.20" width="4.80" height="43.20" />
      <rect x="576.00" y="55.20" width="4.80" height="43.20" />
      <rect x="590.40" y="55.20" width="4.80" height="43.20" />
      <rect x="614.40" y="55.20" width="9.60" height="43.20" />
      <rect x="628.80" y="55.20" width="4.80" height="43.20" />
      <rect x="643.20" y="55.20" width="4.80" height="43.20" />
      <rect x="657.60" y="55.20" width="19.20" height="43.20" />
      <rect x="100.80" y="103.20" width="4.80" height="45.60" />
      <rect x="110.40" y="103.20" width="19.20" height="45.60" />
      <rect x="134.40" y="103.20" width="14.40" height="45.60" />
      <rect x="153.60" y="103.20" width="4.80" height="45.60" />
      <rect x="163.20" y="103.20" width="9.60" height="45.60" />
      <rect x="182.40" y="103.20" width="14.40" height="45.60" />
      <rect x="206.40" y="103.20" width="4.80" height="45.60" />
      <rect x="225.60" y="103.20" width="19.20" height="45.60" />
      <rect x="249.60" y="103.20" width="4.80" height="45.60" />
      <rect x="259.20" y="103.20" width="9.60" height="45.60" />
      <rect x="278.40" y="103.20" width="4.80" height="45.60" />
      <rect x="288.00" y="103.20" width="4.80" height="45.60" />
      <rect x="312.00" y="103.20" width="4.80" height="45.60" />
      <rect x="331.20" y="103.20" width="19.20" height="45.60" />
      <rect x="355.20" y="103.20" width="4.80" height="45.60" />
      <rect x="364.80" y="103.20" width="4.80" height="45.60" />
      <rect x="379.20" y="103.20" width="9.60" height="45.60" />
      <rect x="393.60" y="103.20" width="4.80" height="45.60" />
      <rect x="417.60" y="103.20" width="9.60" height="45.60" />
      <rect x="432.00" y="103.20" width="9.60" height="45.60" />
      <rect x="446.40" y="103.20" width="19.20" height="45.60" />
      <rect x="470.40" y="103.20" width="4.80" height="45.60" />
      <rect x="480.00" y="103.20" width="14.40" height="45.60" />
      <rect x="499.20" y="103.20" width="19.20" height="45.60" />
      <rect x="523.20" y="103.20" width="4.80" height="45.60" />
      <rect x="547.20" y="103.20" width="9.60" height="45.60" />
      <rect x="566.40" y="103.20" width="4.80" height="45.60" />
      <rect x="576.00" y="103.20" width="9.60" height="45.60" />
      <rect x="590.40" y="103.20" width="14.40" height="45.60" />
      <rect x="609.60" y="103.20" width="14.40" height="45.60" />
      <rect x="628.80" y="103.20" width="4.80" height="45.60" />
      <rect x="638.40" y="103.20" width="4.80" height="45.60" />
      <rect x="652.80" y="103.20" width="19.20" height="45.60" />
      <rect x="100.80" y="50.40" width="580.80" height="4.80" />
      <rect x="100.80" y="98.40" width="580.80" height="4.80" />
      <rect x="48.00" y="0.00" width="696.00" height="4.80" />
      <rect x="48.00" y="148.80" width="696.00" height="4.80" />
   </g>
</svg>
