<?xml version="1.0" standalone="no"?>
<!DOCTYPE svg PUBLIC "-//W3C//DTD SVG 1.1//EN" "http://www.w3.org/Graphics/SVG/1.1/DTD/svg11.dtd">
<svg width="793" height="154" version="1.1" xmlns="http://www.w3.org/2000/svg">
 <desc>Zint Generated Symbol</desc>
 <g id="barcode" fill="#000000">
  <rect x="0" y="0" width="793" height="154" fill="#FFFFFF"/>
  <path d="M48 4.8h9.6v144h-9.6ZM62.4 4.8h4.8v144h-4.8ZM86.4 4.8h4.8v144h-4.8ZM100.8 4.8h4.8v45.6h-4.8ZM110.4 4.8h19.2v45.6h-19.2ZM134.4 4.8h14.4v45.6h-14.4ZM153.6 4.8h4.8v45.6h-4.8ZM168 4.8h4.8v45.6h-4.8ZM177.6 4.8h9.6v45.6h-9.6ZM206.4 4.8h4.8v45.6h-4.8ZM225.6 4.8h4.8v45.6h-4.8ZM244.8 4.8h9.6v45.6h-9.6ZM259.2 4.8h4.8v45.6h-4.8ZM278.4 4.8h14.4v45.6h-14.4ZM297.6 4.8h9.6v45.6h-9.6ZM312 4.8h4.8v45.6h-4.8ZM321.6 4.8h9.6v45.6h-9.6ZM345.6 4.8h4.8v45.6h-4.8ZM364.8 4.8h4.8v45.6h-4.8ZM374.4 4.8h4.8v45.6h-4.8ZM393.6 4.8h9.6v45.6h-9.6ZM417.6 4.8h4.8v45.6h-4.8ZM436.8 4.8h4.8v45.6h-4.8ZM446.4 4.8h9.6v45.6h-9.6ZM470.4 4.8h4.8v45.6h-4.8ZM489.6 4.8h9.6v45.6h-9.6ZM504 4.8h14.4v45.6h-14.4ZM523.2 4.8h4.8v45.6h-4.8ZM542.4 4.8h14.4v45.6h-14.4ZM561.6 4.8h9.6v45.6h-9.6ZM576 4.8h4.8v45.6h-4.8ZM595.2 4.8h4.8v45.6h-4.8ZM614.4 4.8h9.6v45.6h-9.6ZM628.8 4.8h14.4v45.6h-14.4ZM648 4.8h4.8v45.6h-4.8ZM657.6 4.8h19.2v45.6h-19.2ZM681.6 4.8h9.6v144h-9.6ZM705.6 4.8h14.4v144h-14.4ZM724.8 4.8h4.8v144h-4.8ZM734.4 4.8h9.6v144h-9.6ZM100.8 55.2h4.8v43.2h-4.8ZM110.4 55.2h19.2v43.2h-19.2ZM134.4 55.2h14.4v43.2h-14.4ZM153.6 55.2h9.6v43.2h-9.6ZM177.6 55.2h4.8v43.2h-4.8ZM192 55.2h4.8v43.2h-4.8ZM206.4 55.2h4.8v43.2h-4.8ZM216 55.2h9.6v43.2h-9.6ZM240 55.2h14.4v43.2h-14.4ZM259.2 55.2h9.6v43.2h-9.6ZM273.6 55.2h9.6v43.2h-9.6ZM292.8 55.2h9.6v43.2h-9.6ZM312 55.2h4.8v43.2h-4.8ZM331.2 55.2h9.6v43.2h-9.6ZM355.2 55.2h4.8v43.2h-4.8ZM364.8 55.2h9.6v43.2h-9.6ZM379.2 55.2h9.6v43.2h-9.6ZM398.4 55.2h9.6v43.2h-9.6ZM417.6 55.2h9.6v43.2h-9.6ZM432 55.2h14.4v43.2h-14.4ZM451.2 55.2h4.8v43.2h-4.8ZM470.4 55.2h9.6v43.2h-9.6ZM484.8 55.2h9.6v43.2h-9.6ZM499.2 55.2h19.2v43.2h-19.2ZM523.2 55.2h19.2v43.2h-19.2ZM547.2 55.2h14.4v43.2h-14.4ZM566.4 55.2h4.8v43.2h-4.8ZM576 55.2h4.8v43.2h-4.8ZM590.4 55.2h4.8v43.2h-4.8ZM614.4 55.2h9.6v43.2h-9.6ZM628.8 55.2h4.8v43.2h-4.8ZM643.2 55.2h4.8v43.2h-4.8ZM657.6 55.2h19.2v43.2h-19.2ZM100.8 103.2h4.8v45.6h-4.8ZM110.4 103.2h19.2v45.6h-19.2ZM134.4 103.2h14.4v45.6h-14.4ZM153.6 103.2h4.8v45.6h-4.8ZM163.2 103.2h9.6v45.6h-9.6ZM182.4 103.2h14.4v45.6h-14.4ZM206.4 103.2h4.8v45.6h-4.8ZM225.6 103.2h19.2v45.6h-19.2ZM249.6 103.2h4.8v45.6h-4.8ZM259.2 103.2h9.6v45.6h-9.6ZM278.4 103.2h4.8v45.6h-4.8ZM288 103.2h4.8v45.6h-4.8ZM312 103.2h4.8v45.6h-4.8ZM331.2 103.2h19.2v45.6h-19.2ZM355.2 103.2h4.8v45.6h-4.8ZM364.8 103.2h4.8v45.6h-4.8ZM379.2 103.2h9.6v45.6h-9.6ZM393.6 103.2h4.8v45.6h-4.8ZM417.6 103.2h9.6v45.6h-9.6ZM432 103.2h9.6v45.6h-9.6ZM446.4 103.2h19.2v45.6h-19.2ZM470.4 103.2h4.8v45.6h-4.8ZM480 103.2h14.4v45.6h-14.4ZM499.2 103.2h19.2v45.6h-19.2ZM523.2 103.2h4.8v45.6h-4.8ZM547.2 103.2h9.6v45.6h-9.6ZM566.4 103.2h4.8v45.6h-4.8ZM576 103.2h9.6v45.6h-9.6ZM590.4 103.2h14.4v45.6h-14.4ZM609.6 103.2h14.4v45.6h-14.4ZM628.8 103.2h4.8v45.6h-4.8ZM638.4 103.2h4.8v45.6h-4.8ZM652.8 103.2h19.2v45.6h-19.2ZM100.8 50.4h580.8v4.8h-580.8ZM100.8 98.4h580.8v4.8h-580.8ZM48 0h696v4.8h-696ZM48 148.8h696v4.8h-696Z"/>
 </g>
</svg>
