<?xml version="1.0" standalone="no"?>
<!DOCTYPE svg PUBLIC "-//W3C//DTD SVG 1.1//EN"
   "http://www.w3.org/Graphics/SVG/1.1/DTD/svg11.dtd">
<svg width="129" height="72" version="1.1"
   xmlns="http://www.w3.org/2000/svg">
   <desc>Zint Generated Symbol
   </desc>

   <g id="barcode" fill="#000000">
      <rect x="0" y="0" width="129" height="72" fill="#FFFFFF" />
      <rect x="0.00" y="0.00" width="1.20" height="60.00" />
      <rect x="2.40" y="0.00" width="2.40" height="60.00" />
      <rect x="7.20" y="0.00" width="1.20" height="60.00" />
      <rect x="9.60" y="0.00" width="2.40" height="60.00" />
      <rect x="13.20" y="0.00" width="1.20" height="60.00" />
      <rect x="15.60" y="0.00" width="1.20" height="60.00" />
      <rect x="18.00" y="0.00" width="1.20" height="60.00" />
      <rect x="21.60" y="0.00" width="1.20" height="60.00" />
      <rect x="24.00" y="0.00" width="2.40" height="60.00" />
      <rect x="27.60" y="0.00" width="2.40" height="60.00" />
      <rect x="31.20" y="0.00" width="1.20" height="60.00" />
      <rect x="33.60" y="0.00" width="2.40" height="60.00" />
      <rect x="37.20" y="0.00" width="1.20" height="60.00" />
      <rect x="40.80" y="0.00" width="1.20" height="60.00" />
      <rect x="43.20" y="0.00" width="2.40" height="60.00" />
      <rect x="46.80" y="0.00" width="2.40" height="60.00" />
      <rect x="51.60" y="0.00" width="1.20" height="60.00" />
      <rect x="54.00" y="0.00" width="1.20" height="60.00" />
      <rect x="56.40" y="0.00" width="1.20" height="60.00" />
      <rect x="60.00" y="0.00" width="1.20" height="60.00" />
      <rect x="62.40" y="0.00" width="2.40" height="60.00" />
      <rect x="66.00" y="0.00" width="1.20" height="60.00" />
      <rect x="68.40" y="0.00" width="1.20" height="60.00" />
      <rect x="70.80" y="0.00" width="2.40" height="60.00" />
      <rect x="74.40" y="0.00" width="2.40" height="60.00" />
      <rect x="78.00" y="0.00" width="1.20" height="60.00" />
      <rect x="80.40" y="0.00" width="1.20" height="60.00" />
      <rect x="82.80" y="0.00" width="1.20" height="60.00" />
      <rect x="86.40" y="0.00" width="2.40" height="60.00" />
      <rect x="90.00" y="0.00" width="1.20" height="60.00" />
      <rect x="92.40" y="0.00" width="1.20" height="60.00" />
      <rect x="94.80" y="0.00" width="1.20" height="60.00" />
      <rect x="98.40" y="0.00" width="2.40" height="60.00" />
      <rect x="102.00" y="0.00" width="1.20" height="60.00" />
      <rect x="105.60" y="0.00" width="2.40" height="60.00" />
      <rect x="109.20" y="0.00" width="1.20" height="60.00" />
      <rect x="111.60" y="0.00" width="2.40" height="60.00" />
      <rect x="115.20" y="0.00" width="1.20" height="60.00" />
      <rect x="117.60" y="0.00" width="1.20" height="60.00" />
      <rect x="120.00" y="0.00" width="1.20" height="60.00" />
      <rect x="122.40" y="0.00" width="2.40" height="60.00" />
      <rect x="127.20" y="0.00" width="1.20" height="60.00" />
      <text x="64.20" y="69.24" text-anchor="middle"
         font-family="Helvetica, sans-serif" font-size="8.4" >
         921232096769
      </text>
   </g>
</svg>
