<?xml version="1.0" standalone="no"?>
<!DOCTYPE svg PUBLIC "-//W3C//DTD SVG 1.1//EN"
   "http://www.w3.org/Graphics/SVG/1.1/DTD/svg11.dtd">
<svg width="696" height="286" version="1.1"
   xmlns="http://www.w3.org/2000/svg">
   <desc>Zint Generated Symbol
   </desc>

   <g id="barcode" fill="#000000">
      <rect x="0" y="0" width="696" height="286" fill="#FFFFFF" />
      <rect x="0.00" y="0.00" width="9.60" height="240.00" />
      <rect x="14.40" y="0.00" width="4.80" height="240.00" />
      <rect x="28.80" y="0.00" width="4.80" height="240.00" />
      <rect x="52.80" y="0.00" width="4.80" height="240.00" />
      <rect x="67.20" y="0.00" width="14.40" height="240.00" />
      <rect x="91.20" y="0.00" width="9.60" height="240.00" />
      <rect x="105.60" y="0.00" width="9.60" height="240.00" />
      <rect x="124.80" y="0.00" width="4.80" height="240.00" />
      <rect x="134.40" y="0.00" width="14.40" height="240.00" />
      <rect x="158.40" y="0.00" width="4.80" height="240.00" />
      <rect x="172.80" y="0.00" width="14.40" height="240.00" />
      <rect x="192.00" y="0.00" width="9.60" height="240.00" />
      <rect x="211.20" y="0.00" width="4.80" height="240.00" />
      <rect x="225.60" y="0.00" width="14.40" height="240.00" />
      <rect x="249.60" y="0.00" width="9.60" height="240.00" />
      <rect x="264.00" y="0.00" width="14.40" height="240.00" />
      <rect x="283.20" y="0.00" width="9.60" height="240.00" />
      <rect x="297.60" y="0.00" width="14.40" height="240.00" />
      <rect x="316.80" y="0.00" width="4.80" height="240.00" />
      <rect x="331.20" y="0.00" width="14.40" height="240.00" />
      <rect x="350.40" y="0.00" width="9.60" height="240.00" />
      <rect x="369.60" y="0.00" width="14.40" height="240.00" />
      <rect x="398.40" y="0.00" width="4.80" height="240.00" />
      <rect x="408.00" y="0.00" width="9.60" height="240.00" />
      <rect x="422.40" y="0.00" width="4.80" height="240.00" />
      <rect x="436.80" y="0.00" width="14.40" height="240.00" />
      <rect x="460.80" y="0.00" width="9.60" height="240.00" />
      <rect x="475.20" y="0.00" width="14.40" height="240.00" />
      <rect x="494.40" y="0.00" width="9.60" height="240.00" />
      <rect x="508.80" y="0.00" width="14.40" height="240.00" />
      <rect x="528.00" y="0.00" width="14.40" height="240.00" />
      <rect x="547.20" y="0.00" width="4.80" height="240.00" />
      <rect x="561.60" y="0.00" width="9.60" height="240.00" />
      <rect x="580.80" y="0.00" width="9.60" height="240.00" />
      <rect x="600.00" y="0.00" width="4.80" height="240.00" />
      <rect x="609.60" y="0.00" width="14.40" height="240.00" />
      <rect x="633.60" y="0.00" width="9.60" height="240.00" />
      <rect x="657.60" y="0.00" width="14.40" height="240.00" />
      <rect x="676.80" y="0.00" width="4.80" height="240.00" />
      <rect x="686.40" y="0.00" width="9.60" height="240.00" />
      <text x="348.00" y="273.60" text-anchor="middle"
         font-family="Helvetica, sans-serif" font-size="33.6" >
         130170X178
      </text>
   </g>
</svg>
