<?xml version="1.0" standalone="no"?>
<!DOCTYPE svg PUBLIC "-//W3C//DTD SVG 1.1//EN" "http://www.w3.org/Graphics/SVG/1.1/DTD/svg11.dtd">
<svg width="380" height="241" version="1.1" xmlns="http://www.w3.org/2000/svg">
 <desc>Zint Generated Symbol</desc>
 <g id="barcode" fill="#000000">
  <rect x="0" y="0" width="380" height="241" fill="#FFFFFF"/>
  <path d="M0 0h9.6v115.2h-9.6ZM14.4 0h4.8v115.2h-4.8ZM28.8 0h4.8v115.2h-4.8ZM52.8 0h9.6v115.2h-9.6ZM67.2 0h14.4v115.2h-14.4ZM96 0h4.8v115.2h-4.8ZM105.6 0h4.8v115.2h-4.8ZM120 0h9.6v115.2h-9.6ZM148.8 0h4.8v115.2h-4.8ZM158.4 0h4.8v115.2h-4.8ZM182.4 0h9.6v115.2h-9.6ZM196.8 0h4.8v115.2h-4.8ZM211.2 0h4.8v115.2h-4.8ZM220.8 0h19.2v115.2h-19.2ZM249.6 0h4.8v115.2h-4.8ZM264 0h14.4v115.2h-14.4ZM283.2 0h9.6v115.2h-9.6ZM302.4 0h4.8v115.2h-4.8ZM316.8 0h9.6v115.2h-9.6ZM340.8 0h14.4v115.2h-14.4ZM360 0h4.8v115.2h-4.8ZM369.6 0h9.6v115.2h-9.6ZM0 124.8h9.6v115.2h-9.6ZM14.4 124.8h4.8v115.2h-4.8ZM28.8 124.8h4.8v115.2h-4.8ZM52.8 124.8h9.6v115.2h-9.6ZM67.2 124.8h14.4v115.2h-14.4ZM96 124.8h4.8v115.2h-4.8ZM105.6 124.8h4.8v115.2h-4.8ZM120 124.8h9.6v115.2h-9.6ZM148.8 124.8h4.8v115.2h-4.8ZM158.4 124.8h4.8v115.2h-4.8ZM172.8 124.8h4.8v115.2h-4.8ZM182.4 124.8h9.6v115.2h-9.6ZM211.2 124.8h4.8v115.2h-4.8ZM225.6 124.8h19.2v115.2h-19.2ZM249.6 124.8h4.8v115.2h-4.8ZM264 124.8h4.8v115.2h-4.8ZM278.4 124.8h9.6v115.2h-9.6ZM302.4 124.8h4.8v115.2h-4.8ZM316.8 124.8h9.6v115.2h-9.6ZM340.8 124.8h14.4v115.2h-14.4ZM360 124.8h4.8v115.2h-4.8ZM369.6 124.8h9.6v115.2h-9.6ZM0 115.2h379.2v9.6h-379.2Z"/>
 </g>
</svg>
