<?xml version="1.0" standalone="no"?>
<!DOCTYPE svg PUBLIC "-//W3C//DTD SVG 1.1//EN" "http://www.w3.org/Graphics/SVG/1.1/DTD/svg11.dtd">
<svg width="308" height="280" version="1.1" xmlns="http://www.w3.org/2000/svg">
 <desc>Zint Generated Symbol</desc>
 <g id="barcode" fill="#000000">
  <rect x="0" y="0" width="308" height="280" fill="#FFFFFF"/>
  <path d="M0 0h4.8v240h-4.8ZM14.4 0h4.8v240h-4.8ZM24 0h9.6v240h-9.6ZM38.4 0h9.6v240h-9.6ZM52.8 0h4.8v240h-4.8ZM62.4 0h9.6v240h-9.6ZM76.8 0h4.8v240h-4.8ZM91.2 0h4.8v240h-4.8ZM100.8 0h4.8v240h-4.8ZM110.4 0h9.6v240h-9.6ZM124.8 0h9.6v240h-9.6ZM139.2 0h4.8v240h-4.8ZM148.8 0h4.8v240h-4.8ZM163.2 0h4.8v240h-4.8ZM172.8 0h9.6v240h-9.6ZM187.2 0h4.8v240h-4.8ZM196.8 0h9.6v240h-9.6ZM211.2 0h4.8v240h-4.8ZM225.6 0h4.8v240h-4.8ZM235.2 0h9.6v240h-9.6ZM249.6 0h4.8v240h-4.8ZM264 0h4.8v240h-4.8ZM273.6 0h9.6v240h-9.6ZM288 0h9.6v240h-9.6ZM302.4 0h4.8v240h-4.8Z"/>
  <text x="153.6" y="272.03" text-anchor="middle" font-family="Arimo, Arial, sans-serif" font-size="33.6">
   *1AB*
  </text>
 </g>
</svg>
