<?xml version="1.0" standalone="no"?>
<!DOCTYPE svg PUBLIC "-//W3C//DTD SVG 1.1//EN"
   "http://www.w3.org/Graphics/SVG/1.1/DTD/svg11.dtd">
<svg width="380" height="286" version="1.1"
   xmlns="http://www.w3.org/2000/svg">
   <desc>Zint Generated Symbol
   </desc>

   <g id="barcode" fill="#000000">
      <rect x="0" y="0" width="380" height="286" fill="#FFFFFF" />
      <rect x="0.00" y="0.00" width="9.60" height="240.00" />
      <rect x="14.40" y="0.00" width="4.80" height="240.00" />
      <rect x="28.80" y="0.00" width="4.80" height="240.00" />
      <rect x="52.80" y="0.00" width="9.60" height="240.00" />
      <rect x="67.20" y="0.00" width="14.40" height="240.00" />
      <rect x="96.00" y="0.00" width="4.80" height="240.00" />
      <rect x="105.60" y="0.00" width="4.80" height="240.00" />
      <rect x="120.00" y="0.00" width="9.60" height="240.00" />
      <rect x="148.80" y="0.00" width="4.80" height="240.00" />
      <rect x="158.40" y="0.00" width="4.80" height="240.00" />
      <rect x="182.40" y="0.00" width="9.60" height="240.00" />
      <rect x="196.80" y="0.00" width="4.80" height="120.00" />
      <rect x="211.20" y="0.00" width="4.80" height="240.00" />
      <rect x="220.80" y="0.00" width="19.20" height="120.00" />
      <rect x="249.60" y="0.00" width="4.80" height="240.00" />
      <rect x="264.00" y="0.00" width="14.40" height="120.00" />
      <rect x="283.20" y="0.00" width="9.60" height="120.00" />
      <rect x="302.40" y="0.00" width="4.80" height="240.00" />
      <rect x="316.80" y="0.00" width="9.60" height="240.00" />
      <rect x="340.80" y="0.00" width="14.40" height="240.00" />
      <rect x="360.00" y="0.00" width="4.80" height="240.00" />
      <rect x="369.60" y="0.00" width="9.60" height="240.00" />
      <rect x="172.80" y="120.00" width="4.80" height="120.00" />
      <rect x="225.60" y="120.00" width="19.20" height="120.00" />
      <rect x="264.00" y="120.00" width="4.80" height="120.00" />
      <rect x="278.40" y="120.00" width="9.60" height="120.00" />
      <text x="189.60" y="273.60" text-anchor="middle"
         font-family="Helvetica, sans-serif" font-size="33.6" >
         That
      </text>
   </g>
</svg>
