<?xml version="1.0" standalone="no"?>
<!DOCTYPE svg PUBLIC "-//W3C//DTD SVG 1.1//EN"
   "http://www.w3.org/Graphics/SVG/1.1/DTD/svg11.dtd">
<svg width="591" height="286" version="1.1"
   xmlns="http://www.w3.org/2000/svg">
   <desc>Zint Generated Symbol
   </desc>

   <g id="barcode" fill="#000000">
      <rect x="0" y="0" width="591" height="286" fill="#FFFFFF" />
      <rect x="0.00" y="0.00" width="9.60" height="240.00" />
      <rect x="14.40" y="0.00" width="4.80" height="240.00" />
      <rect x="28.80" y="0.00" width="14.40" height="240.00" />
      <rect x="52.80" y="0.00" width="4.80" height="240.00" />
      <rect x="67.20" y="0.00" width="9.60" height="240.00" />
      <rect x="81.60" y="0.00" width="14.40" height="240.00" />
      <rect x="105.60" y="0.00" width="9.60" height="240.00" />
      <rect x="124.80" y="0.00" width="9.60" height="240.00" />
      <rect x="139.20" y="0.00" width="9.60" height="240.00" />
      <rect x="158.40" y="0.00" width="4.80" height="240.00" />
      <rect x="168.00" y="0.00" width="9.60" height="240.00" />
      <rect x="196.80" y="0.00" width="4.80" height="240.00" />
      <rect x="211.20" y="0.00" width="4.80" height="240.00" />
      <rect x="220.80" y="0.00" width="19.20" height="240.00" />
      <rect x="244.80" y="0.00" width="14.40" height="240.00" />
      <rect x="264.00" y="0.00" width="14.40" height="240.00" />
      <rect x="292.80" y="0.00" width="4.80" height="240.00" />
      <rect x="302.40" y="0.00" width="9.60" height="240.00" />
      <rect x="316.80" y="0.00" width="4.80" height="240.00" />
      <rect x="331.20" y="0.00" width="14.40" height="240.00" />
      <rect x="355.20" y="0.00" width="9.60" height="240.00" />
      <rect x="369.60" y="0.00" width="14.40" height="240.00" />
      <rect x="388.80" y="0.00" width="9.60" height="240.00" />
      <rect x="403.20" y="0.00" width="14.40" height="240.00" />
      <rect x="422.40" y="0.00" width="14.40" height="240.00" />
      <rect x="441.60" y="0.00" width="4.80" height="240.00" />
      <rect x="456.00" y="0.00" width="9.60" height="240.00" />
      <rect x="475.20" y="0.00" width="14.40" height="240.00" />
      <rect x="494.40" y="0.00" width="9.60" height="240.00" />
      <rect x="508.80" y="0.00" width="14.40" height="240.00" />
      <rect x="528.00" y="0.00" width="9.60" height="240.00" />
      <rect x="552.00" y="0.00" width="14.40" height="240.00" />
      <rect x="571.20" y="0.00" width="4.80" height="240.00" />
      <rect x="580.80" y="0.00" width="9.60" height="240.00" />
      <text x="295.20" y="273.60" text-anchor="middle"
         font-family="Helvetica, sans-serif" font-size="33.6" >
         130170X178
      </text>
   </g>
</svg>
