<?xml version="1.0" standalone="no"?>
<!DOCTYPE svg PUBLIC "-//W3C//DTD SVG 1.1//EN" "http://www.w3.org/Graphics/SVG/1.1/DTD/svg11.dtd">
<svg width="591" height="280" version="1.1" xmlns="http://www.w3.org/2000/svg">
 <desc>Zint Generated Symbol</desc>
 <g id="barcode" fill="#000000">
  <rect x="0" y="0" width="591" height="280" fill="#FFFFFF"/>
  <path d="M0 0h9.6v240h-9.6ZM14.4 0h4.8v240h-4.8ZM28.8 0h14.4v240h-14.4ZM52.8 0h4.8v240h-4.8ZM67.2 0h9.6v240h-9.6ZM81.6 0h14.4v240h-14.4ZM105.6 0h9.6v240h-9.6ZM124.8 0h9.6v240h-9.6ZM139.2 0h9.6v240h-9.6ZM158.4 0h4.8v240h-4.8ZM168 0h9.6v240h-9.6ZM196.8 0h4.8v240h-4.8ZM211.2 0h4.8v240h-4.8ZM220.8 0h19.2v240h-19.2ZM244.8 0h14.4v240h-14.4ZM264 0h14.4v240h-14.4ZM292.8 0h4.8v240h-4.8ZM302.4 0h9.6v240h-9.6ZM316.8 0h4.8v240h-4.8ZM331.2 0h14.4v240h-14.4ZM355.2 0h9.6v240h-9.6ZM369.6 0h4.8v240h-4.8ZM379.2 0h14.4v240h-14.4ZM398.4 0h19.2v240h-19.2ZM422.4 0h9.6v240h-9.6ZM451.2 0h4.8v240h-4.8ZM460.8 0h4.8v240h-4.8ZM475.2 0h14.4v240h-14.4ZM494.4 0h19.2v240h-19.2ZM518.4 0h4.8v240h-4.8ZM528 0h9.6v240h-9.6ZM552 0h14.4v240h-14.4ZM571.2 0h4.8v240h-4.8ZM580.8 0h9.6v240h-9.6Z"/>
  <text x="295.2" y="272.03" text-anchor="middle" font-family="Arimo, Arial, sans-serif" font-size="33.6">
   130170X178
  </text>
 </g>
</svg>
