<?xml version="1.0" standalone="no"?>
<!DOCTYPE svg PUBLIC "-//W3C//DTD SVG 1.1//EN"
   "http://www.w3.org/Graphics/SVG/1.1/DTD/svg11.dtd">
<svg width="98" height="68" version="1.1"
   xmlns="http://www.w3.org/2000/svg">
   <desc>Zint Generated Symbol
   </desc>

   <g id="barcode" fill="#000000">
      <rect x="0" y="0" width="98" height="68" fill="#FFFFFF" />
      <rect x="12.00" y="1.20" width="1.20" height="12.36" />
      <rect x="14.40" y="1.20" width="6.00" height="12.36" />
      <rect x="21.60" y="1.20" width="2.40" height="12.36" />
      <rect x="26.40" y="1.20" width="1.20" height="12.36" />
      <rect x="28.80" y="1.20" width="3.60" height="12.36" />
      <rect x="33.60" y="1.20" width="1.20" height="12.36" />
      <rect x="36.00" y="1.20" width="3.60" height="12.36" />
      <rect x="42.00" y="1.20" width="2.40" height="12.36" />
      <rect x="49.20" y="1.20" width="2.40" height="12.36" />
      <rect x="52.80" y="1.20" width="4.80" height="12.36" />
      <rect x="58.80" y="1.20" width="1.20" height="12.36" />
      <rect x="61.20" y="1.20" width="2.40" height="12.36" />
      <rect x="64.80" y="1.20" width="6.00" height="12.36" />
      <rect x="72.00" y="1.20" width="1.20" height="12.36" />
      <rect x="74.40" y="1.20" width="4.80" height="12.36" />
      <rect x="80.40" y="1.20" width="1.20" height="12.36" />
      <rect x="85.20" y="1.20" width="1.20" height="12.36" />
      <rect x="91.20" y="1.20" width="4.80" height="12.36" />
      <rect x="12.00" y="14.76" width="1.20" height="11.76" />
      <rect x="14.40" y="14.76" width="1.20" height="11.76" />
      <rect x="16.80" y="14.76" width="1.20" height="11.76" />
      <rect x="22.80" y="14.76" width="1.20" height="11.76" />
      <rect x="28.80" y="14.76" width="1.20" height="11.76" />
      <rect x="33.60" y="14.76" width="1.20" height="11.76" />
      <rect x="37.20" y="14.76" width="4.80" height="11.76" />
      <rect x="45.60" y="14.76" width="1.20" height="11.76" />
      <rect x="48.00" y="14.76" width="3.60" height="11.76" />
      <rect x="52.80" y="14.76" width="1.20" height="11.76" />
      <rect x="56.40" y="14.76" width="2.40" height="11.76" />
      <rect x="62.40" y="14.76" width="4.80" height="11.76" />
      <rect x="68.40" y="14.76" width="1.20" height="11.76" />
      <rect x="72.00" y="14.76" width="1.20" height="11.76" />
      <rect x="76.80" y="14.76" width="1.20" height="11.76" />
      <rect x="79.20" y="14.76" width="3.60" height="11.76" />
      <rect x="86.40" y="14.76" width="2.40" height="11.76" />
      <rect x="91.20" y="14.76" width="4.80" height="11.76" />
      <rect x="12.00" y="27.72" width="1.20" height="11.76" />
      <rect x="14.40" y="27.72" width="2.40" height="11.76" />
      <rect x="19.20" y="27.72" width="2.40" height="11.76" />
      <rect x="27.60" y="27.72" width="1.20" height="11.76" />
      <rect x="30.00" y="27.72" width="2.40" height="11.76" />
      <rect x="33.60" y="27.72" width="2.40" height="11.76" />
      <rect x="37.20" y="27.72" width="3.60" height="11.76" />
      <rect x="42.00" y="27.72" width="3.60" height="11.76" />
      <rect x="50.40" y="27.72" width="1.20" height="11.76" />
      <rect x="52.80" y="27.72" width="2.40" height="11.76" />
      <rect x="57.60" y="27.72" width="1.20" height="11.76" />
      <rect x="60.00" y="27.72" width="2.40" height="11.76" />
      <rect x="67.20" y="27.72" width="3.60" height="11.76" />
      <rect x="72.00" y="27.72" width="3.60" height="11.76" />
      <rect x="76.80" y="27.72" width="1.20" height="11.76" />
      <rect x="79.20" y="27.72" width="4.80" height="11.76" />
      <rect x="87.60" y="27.72" width="2.40" height="11.76" />
      <rect x="91.20" y="27.72" width="4.80" height="11.76" />
      <rect x="12.00" y="40.68" width="1.20" height="11.76" />
      <rect x="14.40" y="40.68" width="1.20" height="11.76" />
      <rect x="18.00" y="40.68" width="2.40" height="11.76" />
      <rect x="22.80" y="40.68" width="2.40" height="11.76" />
      <rect x="27.60" y="40.68" width="1.20" height="11.76" />
      <rect x="33.60" y="40.68" width="4.80" height="11.76" />
      <rect x="39.60" y="40.68" width="1.20" height="11.76" />
      <rect x="43.20" y="40.68" width="1.20" height="11.76" />
      <rect x="48.00" y="40.68" width="2.40" height="11.76" />
      <rect x="52.80" y="40.68" width="1.20" height="11.76" />
      <rect x="55.20" y="40.68" width="1.20" height="11.76" />
      <rect x="57.60" y="40.68" width="3.60" height="11.76" />
      <rect x="62.40" y="40.68" width="7.20" height="11.76" />
      <rect x="72.00" y="40.68" width="2.40" height="11.76" />
      <rect x="75.60" y="40.68" width="1.20" height="11.76" />
      <rect x="80.40" y="40.68" width="1.20" height="11.76" />
      <rect x="84.00" y="40.68" width="6.00" height="11.76" />
      <rect x="91.20" y="40.68" width="4.80" height="11.76" />
      <rect x="12.00" y="53.64" width="1.20" height="12.36" />
      <rect x="14.40" y="53.64" width="2.40" height="12.36" />
      <rect x="19.20" y="53.64" width="4.80" height="12.36" />
      <rect x="26.40" y="53.64" width="1.20" height="12.36" />
      <rect x="28.80" y="53.64" width="3.60" height="12.36" />
      <rect x="33.60" y="53.64" width="1.20" height="12.36" />
      <rect x="42.00" y="53.64" width="1.20" height="12.36" />
      <rect x="44.40" y="53.64" width="1.20" height="12.36" />
      <rect x="48.00" y="53.64" width="3.60" height="12.36" />
      <rect x="52.80" y="53.64" width="6.00" height="12.36" />
      <rect x="60.00" y="53.64" width="3.60" height="12.36" />
      <rect x="64.80" y="53.64" width="1.20" height="12.36" />
      <rect x="69.60" y="53.64" width="1.20" height="12.36" />
      <rect x="72.00" y="53.64" width="2.40" height="12.36" />
      <rect x="75.60" y="53.64" width="1.20" height="12.36" />
      <rect x="80.40" y="53.64" width="2.40" height="12.36" />
      <rect x="84.00" y="53.64" width="6.00" height="12.36" />
      <rect x="91.20" y="53.64" width="4.80" height="12.36" />
      <rect x="12.00" y="13.56" width="84.00" height="1.20" />
      <rect x="12.00" y="26.52" width="84.00" height="1.20" />
      <rect x="12.00" y="39.48" width="84.00" height="1.20" />
      <rect x="12.00" y="52.44" width="84.00" height="1.20" />
      <rect x="0.00" y="0.00" width="97.20" height="1.20" />
      <rect x="0.00" y="66.00" width="97.20" height="1.20" />
   </g>
</svg>
