<?xml version="1.0" standalone="no"?>
<!DOCTYPE svg PUBLIC "-//W3C//DTD SVG 1.1//EN"
   "http://www.w3.org/Graphics/SVG/1.1/DTD/svg11.dtd">
<svg width="124" height="36" version="1.1"
   xmlns="http://www.w3.org/2000/svg">
   <desc>Zint Generated Symbol
   </desc>

   <g id="barcode" fill="#000000">
      <rect x="0" y="0" width="124" height="36" fill="#FFFFFF" />
      <rect x="0.00" y="0.00" width="1.20" height="24.00" />
      <rect x="3.60" y="0.00" width="1.20" height="24.00" />
      <rect x="6.00" y="0.00" width="2.40" height="24.00" />
      <rect x="9.60" y="0.00" width="2.40" height="24.00" />
      <rect x="13.20" y="0.00" width="1.20" height="24.00" />
      <rect x="15.60" y="0.00" width="1.20" height="24.00" />
      <rect x="18.00" y="0.00" width="1.20" height="24.00" />
      <rect x="21.60" y="0.00" width="2.40" height="24.00" />
      <rect x="25.20" y="0.00" width="1.20" height="24.00" />
      <rect x="27.60" y="0.00" width="2.40" height="24.00" />
      <rect x="31.20" y="0.00" width="2.40" height="24.00" />
      <rect x="34.80" y="0.00" width="1.20" height="24.00" />
      <rect x="38.40" y="0.00" width="1.20" height="24.00" />
      <rect x="40.80" y="0.00" width="2.40" height="24.00" />
      <rect x="44.40" y="0.00" width="1.20" height="24.00" />
      <rect x="46.80" y="0.00" width="1.20" height="24.00" />
      <rect x="50.40" y="0.00" width="2.40" height="24.00" />
      <rect x="54.00" y="0.00" width="1.20" height="24.00" />
      <rect x="56.40" y="0.00" width="1.20" height="24.00" />
      <rect x="58.80" y="0.00" width="2.40" height="24.00" />
      <rect x="62.40" y="0.00" width="1.20" height="24.00" />
      <rect x="66.00" y="0.00" width="2.40" height="24.00" />
      <rect x="69.60" y="0.00" width="2.40" height="24.00" />
      <rect x="73.20" y="0.00" width="1.20" height="24.00" />
      <rect x="75.60" y="0.00" width="1.20" height="24.00" />
      <rect x="78.00" y="0.00" width="1.20" height="24.00" />
      <rect x="80.40" y="0.00" width="2.40" height="24.00" />
      <rect x="85.20" y="0.00" width="1.20" height="24.00" />
      <rect x="87.60" y="0.00" width="2.40" height="24.00" />
      <rect x="91.20" y="0.00" width="1.20" height="24.00" />
      <rect x="93.60" y="0.00" width="1.20" height="24.00" />
      <rect x="96.00" y="0.00" width="1.20" height="24.00" />
      <rect x="98.40" y="0.00" width="1.20" height="24.00" />
      <rect x="100.80" y="0.00" width="2.40" height="24.00" />
      <rect x="105.60" y="0.00" width="2.40" height="24.00" />
      <rect x="109.20" y="0.00" width="1.20" height="24.00" />
      <rect x="112.80" y="0.00" width="1.20" height="24.00" />
      <rect x="115.20" y="0.00" width="2.40" height="24.00" />
      <rect x="118.80" y="0.00" width="2.40" height="24.00" />
      <rect x="122.40" y="0.00" width="1.20" height="24.00" />
      <text x="61.80" y="33.24" text-anchor="middle"
         font-family="Helvetica, sans-serif" font-size="8.4" >
         A143523126
      </text>
   </g>
</svg>
