<?xml version="1.0" standalone="no"?>
<!DOCTYPE svg PUBLIC "-//W3C//DTD SVG 1.1//EN"
   "http://www.w3.org/Graphics/SVG/1.1/DTD/svg11.dtd">
<svg width="514" height="286" version="1.1"
   xmlns="http://www.w3.org/2000/svg">
   <desc>Zint Generated Symbol
   </desc>

   <g id="barcode" fill="#000000">
      <rect x="0" y="0" width="514" height="286" fill="#FFFFFF" />
      <rect x="0.00" y="0.00" width="4.80" height="240.00" />
      <rect x="9.60" y="0.00" width="9.60" height="240.00" />
      <rect x="28.80" y="0.00" width="4.80" height="240.00" />
      <rect x="38.40" y="0.00" width="9.60" height="240.00" />
      <rect x="52.80" y="0.00" width="4.80" height="240.00" />
      <rect x="62.40" y="0.00" width="4.80" height="240.00" />
      <rect x="72.00" y="0.00" width="4.80" height="240.00" />
      <rect x="86.40" y="0.00" width="4.80" height="240.00" />
      <rect x="96.00" y="0.00" width="9.60" height="240.00" />
      <rect x="110.40" y="0.00" width="9.60" height="240.00" />
      <rect x="124.80" y="0.00" width="4.80" height="240.00" />
      <rect x="134.40" y="0.00" width="9.60" height="240.00" />
      <rect x="148.80" y="0.00" width="4.80" height="240.00" />
      <rect x="163.20" y="0.00" width="4.80" height="240.00" />
      <rect x="172.80" y="0.00" width="9.60" height="240.00" />
      <rect x="187.20" y="0.00" width="9.60" height="240.00" />
      <rect x="206.40" y="0.00" width="4.80" height="240.00" />
      <rect x="216.00" y="0.00" width="4.80" height="240.00" />
      <rect x="225.60" y="0.00" width="4.80" height="240.00" />
      <rect x="240.00" y="0.00" width="4.80" height="240.00" />
      <rect x="249.60" y="0.00" width="9.60" height="240.00" />
      <rect x="264.00" y="0.00" width="4.80" height="240.00" />
      <rect x="273.60" y="0.00" width="4.80" height="240.00" />
      <rect x="283.20" y="0.00" width="9.60" height="240.00" />
      <rect x="297.60" y="0.00" width="9.60" height="240.00" />
      <rect x="312.00" y="0.00" width="4.80" height="240.00" />
      <rect x="321.60" y="0.00" width="4.80" height="240.00" />
      <rect x="331.20" y="0.00" width="4.80" height="240.00" />
      <rect x="345.60" y="0.00" width="9.60" height="240.00" />
      <rect x="360.00" y="0.00" width="4.80" height="240.00" />
      <rect x="369.60" y="0.00" width="4.80" height="240.00" />
      <rect x="379.20" y="0.00" width="4.80" height="240.00" />
      <rect x="393.60" y="0.00" width="9.60" height="240.00" />
      <rect x="408.00" y="0.00" width="4.80" height="240.00" />
      <rect x="422.40" y="0.00" width="9.60" height="240.00" />
      <rect x="436.80" y="0.00" width="4.80" height="240.00" />
      <rect x="446.40" y="0.00" width="9.60" height="240.00" />
      <rect x="460.80" y="0.00" width="4.80" height="240.00" />
      <rect x="470.40" y="0.00" width="4.80" height="240.00" />
      <rect x="480.00" y="0.00" width="4.80" height="240.00" />
      <rect x="489.60" y="0.00" width="9.60" height="240.00" />
      <rect x="508.80" y="0.00" width="4.80" height="240.00" />
      <text x="256.80" y="273.60" text-anchor="middle"
         font-family="Helvetica, sans-serif" font-size="33.6" >
         921232096769
      </text>
   </g>
</svg>
