<?xml version="1.0" standalone="no"?>
<!DOCTYPE svg PUBLIC "-//W3C//DTD SVG 1.1//EN" "http://www.w3.org/Graphics/SVG/1.1/DTD/svg11.dtd">
<svg width="389" height="269" version="1.1" xmlns="http://www.w3.org/2000/svg">
 <desc>Zint Generated Symbol</desc>
 <g id="barcode" fill="#000000">
  <rect x="0" y="0" width="389" height="269" fill="#FFFFFF"/>
  <path d="M48 4.8h4.8v49.44h-4.8ZM57.6 4.8h24v49.44h-24ZM86.4 4.8h9.6v49.44h-9.6ZM105.6 4.8h4.8v49.44h-4.8ZM115.2 4.8h14.4v49.44h-14.4ZM134.4 4.8h4.8v49.44h-4.8ZM144 4.8h14.4v49.44h-14.4ZM168 4.8h9.6v49.44h-9.6ZM196.8 4.8h9.6v49.44h-9.6ZM211.2 4.8h19.2v49.44h-19.2ZM235.2 4.8h4.8v49.44h-4.8ZM244.8 4.8h9.6v49.44h-9.6ZM259.2 4.8h24v49.44h-24ZM288 4.8h4.8v49.44h-4.8ZM297.6 4.8h19.2v49.44h-19.2ZM321.6 4.8h4.8v49.44h-4.8ZM340.8 4.8h4.8v49.44h-4.8ZM364.8 4.8h19.2v49.44h-19.2ZM48 59.04h4.8v47.04h-4.8ZM57.6 59.04h4.8v47.04h-4.8ZM67.2 59.04h4.8v47.04h-4.8ZM91.2 59.04h4.8v47.04h-4.8ZM115.2 59.04h4.8v47.04h-4.8ZM134.4 59.04h4.8v47.04h-4.8ZM148.8 59.04h19.2v47.04h-19.2ZM182.4 59.04h4.8v47.04h-4.8ZM192 59.04h14.4v47.04h-14.4ZM211.2 59.04h4.8v47.04h-4.8ZM225.6 59.04h9.6v47.04h-9.6ZM249.6 59.04h19.2v47.04h-19.2ZM273.6 59.04h4.8v47.04h-4.8ZM288 59.04h4.8v47.04h-4.8ZM307.2 59.04h4.8v47.04h-4.8ZM316.8 59.04h14.4v47.04h-14.4ZM345.6 59.04h9.6v47.04h-9.6ZM364.8 59.04h19.2v47.04h-19.2ZM48 110.88h4.8v47.04h-4.8ZM57.6 110.88h9.6v47.04h-9.6ZM76.8 110.88h9.6v47.04h-9.6ZM110.4 110.88h4.8v47.04h-4.8ZM120 110.88h9.6v47.04h-9.6ZM134.4 110.88h9.6v47.04h-9.6ZM148.8 110.88h14.4v47.04h-14.4ZM168 110.88h14.4v47.04h-14.4ZM201.6 110.88h4.8v47.04h-4.8ZM211.2 110.88h9.6v47.04h-9.6ZM230.4 110.88h4.8v47.04h-4.8ZM240 110.88h9.6v47.04h-9.6ZM268.8 110.88h14.4v47.04h-14.4ZM288 110.88h14.4v47.04h-14.4ZM307.2 110.88h4.8v47.04h-4.8ZM316.8 110.88h19.2v47.04h-19.2ZM350.4 110.88h9.6v47.04h-9.6ZM364.8 110.88h19.2v47.04h-19.2ZM48 162.72h4.8v47.04h-4.8ZM57.6 162.72h4.8v47.04h-4.8ZM72 162.72h9.6v47.04h-9.6ZM91.2 162.72h9.6v47.04h-9.6ZM110.4 162.72h4.8v47.04h-4.8ZM134.4 162.72h19.2v47.04h-19.2ZM158.4 162.72h4.8v47.04h-4.8ZM172.8 162.72h4.8v47.04h-4.8ZM192 162.72h9.6v47.04h-9.6ZM211.2 162.72h4.8v47.04h-4.8ZM220.8 162.72h4.8v47.04h-4.8ZM230.4 162.72h14.4v47.04h-14.4ZM249.6 162.72h28.8v47.04h-28.8ZM288 162.72h9.6v47.04h-9.6ZM302.4 162.72h4.8v47.04h-4.8ZM321.6 162.72h4.8v47.04h-4.8ZM336 162.72h24v47.04h-24ZM364.8 162.72h19.2v47.04h-19.2ZM48 214.56h4.8v49.44h-4.8ZM57.6 214.56h9.6v49.44h-9.6ZM76.8 214.56h19.2v49.44h-19.2ZM105.6 214.56h4.8v49.44h-4.8ZM115.2 214.56h14.4v49.44h-14.4ZM134.4 214.56h4.8v49.44h-4.8ZM168 214.56h4.8v49.44h-4.8ZM177.6 214.56h4.8v49.44h-4.8ZM192 214.56h14.4v49.44h-14.4ZM211.2 214.56h24v49.44h-24ZM240 214.56h14.4v49.44h-14.4ZM259.2 214.56h4.8v49.44h-4.8ZM278.4 214.56h4.8v49.44h-4.8ZM288 214.56h9.6v49.44h-9.6ZM302.4 214.56h4.8v49.44h-4.8ZM321.6 214.56h9.6v49.44h-9.6ZM336 214.56h24v49.44h-24ZM364.8 214.56h19.2v49.44h-19.2ZM48 54.24h336v4.8h-336ZM48 106.08h336v4.8h-336ZM48 157.92h336v4.8h-336ZM48 209.76h336v4.8h-336ZM0 0h388.8v4.8h-388.8ZM0 264h388.8v4.8h-388.8Z"/>
 </g>
</svg>
