<?xml version="1.0" standalone="no"?>
<!DOCTYPE svg PUBLIC "-//W3C//DTD SVG 1.1//EN"
   "http://www.w3.org/Graphics/SVG/1.1/DTD/svg11.dtd">
<svg width="389" height="269" version="1.1"
   xmlns="http://www.w3.org/2000/svg">
   <desc>Zint Generated Symbol
   </desc>

   <g id="barcode" fill="#000000">
      <rect x="0" y="0" width="389" height="269" fill="#FFFFFF" />
      <rect x="48.00" y="4.80" width="4.80" height="49.44" />
      <rect x="57.60" y="4.80" width="24.00" height="49.44" />
      <rect x="86.40" y="4.80" width="9.60" height="49.44" />
      <rect x="105.60" y="4.80" width="4.80" height="49.44" />
      <rect x="115.20" y="4.80" width="14.40" height="49.44" />
      <rect x="134.40" y="4.80" width="4.80" height="49.44" />
      <rect x="144.00" y="4.80" width="14.40" height="49.44" />
      <rect x="168.00" y="4.80" width="9.60" height="49.44" />
      <rect x="196.80" y="4.80" width="9.60" height="49.44" />
      <rect x="211.20" y="4.80" width="19.20" height="49.44" />
      <rect x="235.20" y="4.80" width="4.80" height="49.44" />
      <rect x="244.80" y="4.80" width="9.60" height="49.44" />
      <rect x="259.20" y="4.80" width="24.00" height="49.44" />
      <rect x="288.00" y="4.80" width="4.80" height="49.44" />
      <rect x="297.60" y="4.80" width="19.20" height="49.44" />
      <rect x="321.60" y="4.80" width="4.80" height="49.44" />
      <rect x="340.80" y="4.80" width="4.80" height="49.44" />
      <rect x="364.80" y="4.80" width="19.20" height="49.44" />
      <rect x="48.00" y="59.04" width="4.80" height="47.04" />
      <rect x="57.60" y="59.04" width="4.80" height="47.04" />
      <rect x="67.20" y="59.04" width="4.80" height="47.04" />
      <rect x="91.20" y="59.04" width="4.80" height="47.04" />
      <rect x="115.20" y="59.04" width="4.80" height="47.04" />
      <rect x="134.40" y="59.04" width="4.80" height="47.04" />
      <rect x="148.80" y="59.04" width="19.20" height="47.04" />
      <rect x="182.40" y="59.04" width="4.80" height="47.04" />
      <rect x="192.00" y="59.04" width="14.40" height="47.04" />
      <rect x="211.20" y="59.04" width="4.80" height="47.04" />
      <rect x="225.60" y="59.04" width="9.60" height="47.04" />
      <rect x="249.60" y="59.04" width="19.20" height="47.04" />
      <rect x="273.60" y="59.04" width="4.80" height="47.04" />
      <rect x="288.00" y="59.04" width="4.80" height="47.04" />
      <rect x="307.20" y="59.04" width="4.80" height="47.04" />
      <rect x="316.80" y="59.04" width="14.40" height="47.04" />
      <rect x="345.60" y="59.04" width="9.60" height="47.04" />
      <rect x="364.80" y="59.04" width="19.20" height="47.04" />
      <rect x="48.00" y="110.88" width="4.80" height="47.04" />
      <rect x="57.60" y="110.88" width="9.60" height="47.04" />
      <rect x="76.80" y="110.88" width="9.60" height="47.04" />
      <rect x="110.40" y="110.88" width="4.80" height="47.04" />
      <rect x="120.00" y="110.88" width="9.60" height="47.04" />
      <rect x="134.40" y="110.88" width="9.60" height="47.04" />
      <rect x="148.80" y="110.88" width="14.40" height="47.04" />
      <rect x="168.00" y="110.88" width="14.40" height="47.04" />
      <rect x="201.60" y="110.88" width="4.80" height="47.04" />
      <rect x="211.20" y="110.88" width="9.60" height="47.04" />
      <rect x="230.40" y="110.88" width="4.80" height="47.04" />
      <rect x="240.00" y="110.88" width="9.60" height="47.04" />
      <rect x="268.80" y="110.88" width="14.40" height="47.04" />
      <rect x="288.00" y="110.88" width="14.40" height="47.04" />
      <rect x="307.20" y="110.88" width="4.80" height="47.04" />
      <rect x="316.80" y="110.88" width="19.20" height="47.04" />
      <rect x="350.40" y="110.88" width="9.60" height="47.04" />
      <rect x="364.80" y="110.88" width="19.20" height="47.04" />
      <rect x="48.00" y="162.72" width="4.80" height="47.04" />
      <rect x="57.60" y="162.72" width="4.80" height="47.04" />
      <rect x="72.00" y="162.72" width="9.60" height="47.04" />
      <rect x="91.20" y="162.72" width="9.60" height="47.04" />
      <rect x="110.40" y="162.72" width="4.80" height="47.04" />
      <rect x="134.40" y="162.72" width="19.20" height="47.04" />
      <rect x="158.40" y="162.72" width="4.80" height="47.04" />
      <rect x="172.80" y="162.72" width="4.80" height="47.04" />
      <rect x="192.00" y="162.72" width="9.60" height="47.04" />
      <rect x="211.20" y="162.72" width="4.80" height="47.04" />
      <rect x="220.80" y="162.72" width="4.80" height="47.04" />
      <rect x="230.40" y="162.72" width="14.40" height="47.04" />
      <rect x="249.60" y="162.72" width="28.80" height="47.04" />
      <rect x="288.00" y="162.72" width="9.60" height="47.04" />
      <rect x="302.40" y="162.72" width="4.80" height="47.04" />
      <rect x="321.60" y="162.72" width="4.80" height="47.04" />
      <rect x="336.00" y="162.72" width="24.00" height="47.04" />
      <rect x="364.80" y="162.72" width="19.20" height="47.04" />
      <rect x="48.00" y="214.56" width="4.80" height="49.44" />
      <rect x="57.60" y="214.56" width="9.60" height="49.44" />
      <rect x="76.80" y="214.56" width="19.20" height="49.44" />
      <rect x="105.60" y="214.56" width="4.80" height="49.44" />
      <rect x="115.20" y="214.56" width="14.40" height="49.44" />
      <rect x="134.40" y="214.56" width="4.80" height="49.44" />
      <rect x="168.00" y="214.56" width="4.80" height="49.44" />
      <rect x="177.60" y="214.56" width="4.80" height="49.44" />
      <rect x="192.00" y="214.56" width="14.40" height="49.44" />
      <rect x="211.20" y="214.56" width="24.00" height="49.44" />
      <rect x="240.00" y="214.56" width="14.40" height="49.44" />
      <rect x="259.20" y="214.56" width="4.80" height="49.44" />
      <rect x="278.40" y="214.56" width="4.80" height="49.44" />
      <rect x="288.00" y="214.56" width="9.60" height="49.44" />
      <rect x="302.40" y="214.56" width="4.80" height="49.44" />
      <rect x="321.60" y="214.56" width="9.60" height="49.44" />
      <rect x="336.00" y="214.56" width="24.00" height="49.44" />
      <rect x="364.80" y="214.56" width="19.20" height="49.44" />
      <rect x="48.00" y="54.24" width="336.00" height="4.80" />
      <rect x="48.00" y="106.08" width="336.00" height="4.80" />
      <rect x="48.00" y="157.92" width="336.00" height="4.80" />
      <rect x="48.00" y="209.76" width="336.00" height="4.80" />
      <rect x="0.00" y="0.00" width="388.80" height="4.80" />
      <rect x="0.00" y="264.00" width="388.80" height="4.80" />
   </g>
</svg>
