<?xml version="1.0" standalone="no"?>
<!DOCTYPE svg PUBLIC "-//W3C//DTD SVG 1.1//EN"
   "http://www.w3.org/Graphics/SVG/1.1/DTD/svg11.dtd">
<svg width="77" height="72" version="1.1"
   xmlns="http://www.w3.org/2000/svg">
   <desc>Zint Generated Symbol
   </desc>

   <g id="barcode" fill="#000000">
      <rect x="0" y="0" width="77" height="72" fill="#FFFFFF" />
      <rect x="0.00" y="0.00" width="1.20" height="60.00" />
      <rect x="3.60" y="0.00" width="1.20" height="60.00" />
      <rect x="6.00" y="0.00" width="2.40" height="60.00" />
      <rect x="9.60" y="0.00" width="2.40" height="60.00" />
      <rect x="13.20" y="0.00" width="1.20" height="60.00" />
      <rect x="15.60" y="0.00" width="2.40" height="60.00" />
      <rect x="19.20" y="0.00" width="1.20" height="60.00" />
      <rect x="22.80" y="0.00" width="1.20" height="60.00" />
      <rect x="25.20" y="0.00" width="1.20" height="60.00" />
      <rect x="27.60" y="0.00" width="2.40" height="60.00" />
      <rect x="31.20" y="0.00" width="2.40" height="60.00" />
      <rect x="34.80" y="0.00" width="1.20" height="60.00" />
      <rect x="37.20" y="0.00" width="1.20" height="60.00" />
      <rect x="40.80" y="0.00" width="1.20" height="60.00" />
      <rect x="43.20" y="0.00" width="2.40" height="60.00" />
      <rect x="46.80" y="0.00" width="1.20" height="60.00" />
      <rect x="49.20" y="0.00" width="2.40" height="60.00" />
      <rect x="52.80" y="0.00" width="1.20" height="60.00" />
      <rect x="56.40" y="0.00" width="1.20" height="60.00" />
      <rect x="58.80" y="0.00" width="2.40" height="60.00" />
      <rect x="62.40" y="0.00" width="1.20" height="60.00" />
      <rect x="66.00" y="0.00" width="1.20" height="60.00" />
      <rect x="68.40" y="0.00" width="2.40" height="60.00" />
      <rect x="72.00" y="0.00" width="2.40" height="60.00" />
      <rect x="75.60" y="0.00" width="1.20" height="60.00" />
      <text x="38.40" y="69.24" text-anchor="middle"
         font-family="Helvetica, sans-serif" font-size="8.4" >
         *1AB*
      </text>
   </g>
</svg>
