<?xml version="1.0" standalone="no"?>
<!DOCTYPE svg PUBLIC "-//W3C//DTD SVG 1.1//EN"
   "http://www.w3.org/Graphics/SVG/1.1/DTD/svg11.dtd">
<svg width="538" height="283" version="1.1"
   xmlns="http://www.w3.org/2000/svg">
   <desc>Zint Generated Symbol
   </desc>

   <g id="barcode" fill="#000000">
      <rect x="0" y="0" width="538" height="283" fill="#FFFFFF" />
      <rect x="0.00" y="0.00" width="9.60" height="240.00" />
      <rect x="14.40" y="0.00" width="4.80" height="240.00" />
      <rect x="28.80" y="0.00" width="4.80" height="240.00" />
      <rect x="52.80" y="0.00" width="4.80" height="240.00" />
      <rect x="62.40" y="0.00" width="19.20" height="240.00" />
      <rect x="86.40" y="0.00" width="14.40" height="240.00" />
      <rect x="105.60" y="0.00" width="4.80" height="240.00" />
      <rect x="115.20" y="0.00" width="4.80" height="240.00" />
      <rect x="134.40" y="0.00" width="9.60" height="240.00" />
      <rect x="158.40" y="0.00" width="4.80" height="240.00" />
      <rect x="182.40" y="0.00" width="4.80" height="240.00" />
      <rect x="192.00" y="0.00" width="9.60" height="240.00" />
      <rect x="211.20" y="0.00" width="4.80" height="240.00" />
      <rect x="235.20" y="0.00" width="4.80" height="240.00" />
      <rect x="244.80" y="0.00" width="9.60" height="240.00" />
      <rect x="264.00" y="0.00" width="4.80" height="240.00" />
      <rect x="273.60" y="0.00" width="9.60" height="240.00" />
      <rect x="292.80" y="0.00" width="4.80" height="240.00" />
      <rect x="316.80" y="0.00" width="9.60" height="240.00" />
      <rect x="345.60" y="0.00" width="4.80" height="240.00" />
      <rect x="355.20" y="0.00" width="4.80" height="240.00" />
      <rect x="369.60" y="0.00" width="4.80" height="240.00" />
      <rect x="384.00" y="0.00" width="19.20" height="240.00" />
      <rect x="408.00" y="0.00" width="4.80" height="240.00" />
      <rect x="422.40" y="0.00" width="4.80" height="240.00" />
      <rect x="432.00" y="0.00" width="4.80" height="240.00" />
      <rect x="446.40" y="0.00" width="19.20" height="240.00" />
      <rect x="475.20" y="0.00" width="9.60" height="240.00" />
      <rect x="499.20" y="0.00" width="14.40" height="240.00" />
      <rect x="518.40" y="0.00" width="4.80" height="240.00" />
      <rect x="528.00" y="0.00" width="9.60" height="240.00" />
      <text x="268.80" y="270.72" text-anchor="middle"
         font-family="Helvetica, sans-serif" font-size="33.6" >
         Ãccent
      </text>
   </g>
</svg>
