<?xml version="1.0" standalone="no"?>
<!DOCTYPE svg PUBLIC "-//W3C//DTD SVG 1.1//EN"
   "http://www.w3.org/Graphics/SVG/1.1/DTD/svg11.dtd">
<svg width="98" height="28" version="1.1"
   xmlns="http://www.w3.org/2000/svg">
   <desc>Zint Generated Symbol
   </desc>

   <g id="barcode" fill="#000000">
      <rect x="0" y="0" width="98" height="28" fill="#FFFFFF" />
      <rect x="12.00" y="1.20" width="3.60" height="12.00" />
      <rect x="18.00" y="1.20" width="1.20" height="12.00" />
      <rect x="20.40" y="1.20" width="1.20" height="12.00" />
      <rect x="22.80" y="1.20" width="2.40" height="12.00" />
      <rect x="27.60" y="1.20" width="2.40" height="12.00" />
      <rect x="31.20" y="1.20" width="3.60" height="12.00" />
      <rect x="36.00" y="1.20" width="2.40" height="12.00" />
      <rect x="39.60" y="1.20" width="1.20" height="12.00" />
      <rect x="43.20" y="1.20" width="4.80" height="12.00" />
      <rect x="49.20" y="1.20" width="2.40" height="12.00" />
      <rect x="52.80" y="1.20" width="4.80" height="12.00" />
      <rect x="60.00" y="1.20" width="1.20" height="12.00" />
      <rect x="63.60" y="1.20" width="2.40" height="12.00" />
      <rect x="68.40" y="1.20" width="1.20" height="12.00" />
      <rect x="72.00" y="1.20" width="2.40" height="12.00" />
      <rect x="78.00" y="1.20" width="1.20" height="12.00" />
      <rect x="81.60" y="1.20" width="1.20" height="12.00" />
      <rect x="86.40" y="1.20" width="1.20" height="12.00" />
      <rect x="91.20" y="1.20" width="2.40" height="12.00" />
      <rect x="94.80" y="1.20" width="1.20" height="12.00" />
      <rect x="12.00" y="14.40" width="2.40" height="12.00" />
      <rect x="16.80" y="14.40" width="2.40" height="12.00" />
      <rect x="20.40" y="14.40" width="1.20" height="12.00" />
      <rect x="22.80" y="14.40" width="1.20" height="12.00" />
      <rect x="27.60" y="14.40" width="1.20" height="12.00" />
      <rect x="31.20" y="14.40" width="3.60" height="12.00" />
      <rect x="36.00" y="14.40" width="4.80" height="12.00" />
      <rect x="42.00" y="14.40" width="1.20" height="12.00" />
      <rect x="45.60" y="14.40" width="2.40" height="12.00" />
      <rect x="50.40" y="14.40" width="1.20" height="12.00" />
      <rect x="54.00" y="14.40" width="1.20" height="12.00" />
      <rect x="60.00" y="14.40" width="1.20" height="12.00" />
      <rect x="63.60" y="14.40" width="2.40" height="12.00" />
      <rect x="67.20" y="14.40" width="1.20" height="12.00" />
      <rect x="72.00" y="14.40" width="2.40" height="12.00" />
      <rect x="75.60" y="14.40" width="1.20" height="12.00" />
      <rect x="79.20" y="14.40" width="1.20" height="12.00" />
      <rect x="84.00" y="14.40" width="3.60" height="12.00" />
      <rect x="90.00" y="14.40" width="2.40" height="12.00" />
      <rect x="94.80" y="14.40" width="1.20" height="12.00" />
      <rect x="12.00" y="13.20" width="84.00" height="1.20" />
      <rect x="0.00" y="0.00" width="97.20" height="1.20" />
      <rect x="0.00" y="26.40" width="97.20" height="1.20" />
   </g>
</svg>
