<?xml version="1.0" standalone="no"?>
<!DOCTYPE svg PUBLIC "-//W3C//DTD SVG 1.1//EN"
   "http://www.w3.org/Graphics/SVG/1.1/DTD/svg11.dtd">
<svg width="124" height="32" version="1.1"
   xmlns="http://www.w3.org/2000/svg">
   <desc>Zint Generated Symbol
   </desc>

   <g id="barcode" fill="#000000">
      <rect x="0" y="0" width="124" height="32" fill="#FFFFFF" />
      <circle cx="18.00" cy="2.00" r="1.60" />
      <circle cx="22.00" cy="2.00" r="1.60" />
      <circle cx="30.00" cy="2.00" r="1.60" />
      <circle cx="34.00" cy="2.00" r="1.60" />
      <circle cx="38.00" cy="2.00" r="1.60" />
      <circle cx="46.00" cy="2.00" r="1.60" />
      <circle cx="58.00" cy="2.00" r="1.60" />
      <circle cx="62.00" cy="2.00" r="1.60" />
      <circle cx="66.00" cy="2.00" r="1.60" />
      <circle cx="98.00" cy="2.00" r="1.60" />
      <circle cx="102.00" cy="2.00" r="1.60" />
      <circle cx="106.00" cy="2.00" r="1.60" />
      <circle cx="110.00" cy="2.00" r="1.60" />
      <circle cx="122.00" cy="2.00" r="1.60" />
      <circle cx="2.00" cy="6.00" r="1.60" />
      <circle cx="6.00" cy="6.00" r="1.60" />
      <circle cx="10.00" cy="6.00" r="1.60" />
      <circle cx="18.00" cy="6.00" r="1.60" />
      <circle cx="34.00" cy="6.00" r="1.60" />
      <circle cx="38.00" cy="6.00" r="1.60" />
      <circle cx="46.00" cy="6.00" r="1.60" />
      <circle cx="50.00" cy="6.00" r="1.60" />
      <circle cx="54.00" cy="6.00" r="1.60" />
      <circle cx="66.00" cy="6.00" r="1.60" />
      <circle cx="70.00" cy="6.00" r="1.60" />
      <circle cx="78.00" cy="6.00" r="1.60" />
      <circle cx="82.00" cy="6.00" r="1.60" />
      <circle cx="90.00" cy="6.00" r="1.60" />
      <circle cx="94.00" cy="6.00" r="1.60" />
      <circle cx="106.00" cy="6.00" r="1.60" />
      <circle cx="114.00" cy="6.00" r="1.60" />
      <circle cx="118.00" cy="6.00" r="1.60" />
      <circle cx="122.00" cy="6.00" r="1.60" />
      <circle cx="2.00" cy="10.00" r="1.60" />
      <circle cx="6.00" cy="10.00" r="1.60" />
      <circle cx="10.00" cy="10.00" r="1.60" />
      <circle cx="14.00" cy="10.00" r="1.60" />
      <circle cx="18.00" cy="10.00" r="1.60" />
      <circle cx="34.00" cy="10.00" r="1.60" />
      <circle cx="46.00" cy="10.00" r="1.60" />
      <circle cx="54.00" cy="10.00" r="1.60" />
      <circle cx="66.00" cy="10.00" r="1.60" />
      <circle cx="70.00" cy="10.00" r="1.60" />
      <circle cx="74.00" cy="10.00" r="1.60" />
      <circle cx="94.00" cy="10.00" r="1.60" />
      <circle cx="98.00" cy="10.00" r="1.60" />
      <circle cx="110.00" cy="10.00" r="1.60" />
      <circle cx="118.00" cy="10.00" r="1.60" />
      <circle cx="2.00" cy="14.00" r="1.60" />
      <circle cx="6.00" cy="14.00" r="1.60" />
      <circle cx="14.00" cy="14.00" r="1.60" />
      <circle cx="18.00" cy="14.00" r="1.60" />
      <circle cx="46.00" cy="14.00" r="1.60" />
      <circle cx="58.00" cy="14.00" r="1.60" />
      <circle cx="70.00" cy="14.00" r="1.60" />
      <circle cx="78.00" cy="14.00" r="1.60" />
      <circle cx="82.00" cy="14.00" r="1.60" />
      <circle cx="86.00" cy="14.00" r="1.60" />
      <circle cx="90.00" cy="14.00" r="1.60" />
      <circle cx="94.00" cy="14.00" r="1.60" />
      <circle cx="110.00" cy="14.00" r="1.60" />
      <circle cx="114.00" cy="14.00" r="1.60" />
      <circle cx="118.00" cy="14.00" r="1.60" />
      <circle cx="62.00" cy="18.00" r="1.60" />
      <circle cx="2.00" cy="22.00" r="1.60" />
      <circle cx="6.00" cy="22.00" r="1.60" />
      <circle cx="10.00" cy="22.00" r="1.60" />
      <circle cx="14.00" cy="22.00" r="1.60" />
      <circle cx="18.00" cy="22.00" r="1.60" />
      <circle cx="22.00" cy="22.00" r="1.60" />
      <circle cx="26.00" cy="22.00" r="1.60" />
      <circle cx="30.00" cy="22.00" r="1.60" />
      <circle cx="34.00" cy="22.00" r="1.60" />
      <circle cx="38.00" cy="22.00" r="1.60" />
      <circle cx="42.00" cy="22.00" r="1.60" />
      <circle cx="46.00" cy="22.00" r="1.60" />
      <circle cx="50.00" cy="22.00" r="1.60" />
      <circle cx="54.00" cy="22.00" r="1.60" />
      <circle cx="58.00" cy="22.00" r="1.60" />
      <circle cx="62.00" cy="22.00" r="1.60" />
      <circle cx="66.00" cy="22.00" r="1.60" />
      <circle cx="70.00" cy="22.00" r="1.60" />
      <circle cx="74.00" cy="22.00" r="1.60" />
      <circle cx="78.00" cy="22.00" r="1.60" />
      <circle cx="82.00" cy="22.00" r="1.60" />
      <circle cx="86.00" cy="22.00" r="1.60" />
      <circle cx="90.00" cy="22.00" r="1.60" />
      <circle cx="94.00" cy="22.00" r="1.60" />
      <circle cx="98.00" cy="22.00" r="1.60" />
      <circle cx="102.00" cy="22.00" r="1.60" />
      <circle cx="106.00" cy="22.00" r="1.60" />
      <circle cx="110.00" cy="22.00" r="1.60" />
      <circle cx="114.00" cy="22.00" r="1.60" />
      <circle cx="118.00" cy="22.00" r="1.60" />
      <circle cx="122.00" cy="22.00" r="1.60" />
      <circle cx="2.00" cy="26.00" r="1.60" />
      <circle cx="62.00" cy="26.00" r="1.60" />
      <circle cx="122.00" cy="26.00" r="1.60" />
      <circle cx="2.00" cy="30.00" r="1.60" />
      <circle cx="10.00" cy="30.00" r="1.60" />
      <circle cx="14.00" cy="30.00" r="1.60" />
      <circle cx="18.00" cy="30.00" r="1.60" />
      <circle cx="22.00" cy="30.00" r="1.60" />
      <circle cx="26.00" cy="30.00" r="1.60" />
      <circle cx="30.00" cy="30.00" r="1.60" />
      <circle cx="34.00" cy="30.00" r="1.60" />
      <circle cx="38.00" cy="30.00" r="1.60" />
      <circle cx="42.00" cy="30.00" r="1.60" />
      <circle cx="46.00" cy="30.00" r="1.60" />
      <circle cx="50.00" cy="30.00" r="1.60" />
      <circle cx="54.00" cy="30.00" r="1.60" />
      <circle cx="58.00" cy="30.00" r="1.60" />
      <circle cx="62.00" cy="30.00" r="1.60" />
      <circle cx="66.00" cy="30.00" r="1.60" />
      <circle cx="70.00" cy="30.00" r="1.60" />
      <circle cx="74.00" cy="30.00" r="1.60" />
      <circle cx="78.00" cy="30.00" r="1.60" />
      <circle cx="82.00" cy="30.00" r="1.60" />
      <circle cx="86.00" cy="30.00" r="1.60" />
      <circle cx="90.00" cy="30.00" r="1.60" />
      <circle cx="94.00" cy="30.00" r="1.60" />
      <circle cx="98.00" cy="30.00" r="1.60" />
      <circle cx="102.00" cy="30.00" r="1.60" />
      <circle cx="106.00" cy="30.00" r="1.60" />
      <circle cx="110.00" cy="30.00" r="1.60" />
      <circle cx="114.00" cy="30.00" r="1.60" />
      <circle cx="122.00" cy="30.00" r="1.60" />
   </g>
</svg>
