<?xml version="1.0" standalone="no"?>
<!DOCTYPE svg PUBLIC "-//W3C//DTD SVG 1.1//EN" "http://www.w3.org/Graphics/SVG/1.1/DTD/svg11.dtd">
<svg width="280" height="644" version="1.1" xmlns="http://www.w3.org/2000/svg">
 <desc>Zint Generated Symbol</desc>
 <g id="barcode" fill="#000000">
  <rect x="0" y="0" width="280" height="644" fill="#FFFFFF"/>
  <path d="M39.07 0h240v9.6h-240ZM39.07 14.4h240v4.8h-240ZM39.07 28.8h240v4.8h-240ZM39.07 52.8h240v9.6h-240ZM39.07 67.2h240v14.4h-240ZM39.07 96h240v4.8h-240ZM39.07 105.6h240v4.8h-240ZM39.07 120h240v9.6h-240ZM39.07 148.8h240v4.8h-240ZM39.07 158.4h240v4.8h-240ZM39.07 182.4h240v9.6h-240ZM39.07 196.8h240v4.8h-240ZM39.07 211.2h240v4.8h-240ZM39.07 220.8h240v19.2h-240ZM39.07 249.6h240v4.8h-240ZM39.07 264h240v9.6h-240ZM39.07 278.4h240v9.6h-240ZM39.07 297.6h240v9.6h-240ZM39.07 316.8h240v9.6h-240ZM39.07 331.2h240v14.4h-240ZM39.07 360h240v4.8h-240ZM39.07 369.6h240v4.8h-240ZM39.07 379.2h240v9.6h-240ZM39.07 398.4h240v4.8h-240ZM39.07 422.4h240v19.2h-240ZM39.07 451.2h240v4.8h-240ZM39.07 465.6h240v4.8h-240ZM39.07 475.2h240v4.8h-240ZM39.07 489.6h240v19.2h-240ZM39.07 513.6h240v4.8h-240ZM39.07 528h240v4.8h-240ZM39.07 542.4h240v14.4h-240ZM39.07 561.6h240v9.6h-240ZM39.07 580.8h240v9.6h-240ZM39.07 604.8h240v14.4h-240ZM39.07 624h240v4.8h-240ZM39.07 633.6h240v9.6h-240Z"/>
  <text x="7.05" y="321.6" text-anchor="middle" font-family="Arimo, Arial, sans-serif" font-size="33.6" transform="rotate(90,7.05,321.6)">
   This Text
  </text>
 </g>
</svg>
