<?xml version="1.0" standalone="no"?>
<!DOCTYPE svg PUBLIC "-//W3C//DTD SVG 1.1//EN"
   "http://www.w3.org/Graphics/SVG/1.1/DTD/svg11.dtd">
<svg width="77" height="60" version="1.1"
   xmlns="http://www.w3.org/2000/svg">
   <desc>Zint Generated Symbol
   </desc>

   <g id="barcode" fill="#000000">
      <rect x="0" y="0" width="77" height="60" fill="#FFFFFF" />
      <rect x="0.00" y="0.00" width="1.20" height="48.00" />
      <rect x="2.40" y="0.00" width="1.20" height="48.00" />
      <rect x="4.80" y="0.00" width="4.80" height="48.00" />
      <rect x="10.80" y="0.00" width="2.40" height="48.00" />
      <rect x="14.40" y="0.00" width="1.20" height="48.00" />
      <rect x="19.20" y="0.00" width="1.20" height="48.00" />
      <rect x="21.60" y="0.00" width="1.20" height="48.00" />
      <rect x="27.60" y="0.00" width="1.20" height="48.00" />
      <rect x="30.00" y="0.00" width="1.20" height="48.00" />
      <rect x="32.40" y="0.00" width="1.20" height="48.00" />
      <rect x="34.80" y="0.00" width="1.20" height="48.00" />
      <rect x="40.80" y="0.00" width="1.20" height="48.00" />
      <rect x="43.20" y="0.00" width="2.40" height="48.00" />
      <rect x="46.80" y="0.00" width="1.20" height="48.00" />
      <rect x="49.20" y="0.00" width="1.20" height="48.00" />
      <rect x="54.00" y="0.00" width="3.60" height="48.00" />
      <rect x="58.80" y="0.00" width="2.40" height="48.00" />
      <rect x="62.40" y="0.00" width="1.20" height="48.00" />
      <rect x="64.80" y="0.00" width="1.20" height="48.00" />
      <rect x="67.20" y="0.00" width="1.20" height="48.00" />
      <rect x="69.60" y="0.00" width="4.80" height="48.00" />
      <rect x="75.60" y="0.00" width="1.20" height="48.00" />
      <text x="38.40" y="57.24" text-anchor="middle"
         font-family="Helvetica, sans-serif" font-size="8.4" >
         C93
      </text>
   </g>
</svg>
