<?xml version="1.0" standalone="no"?>
<!DOCTYPE svg PUBLIC "-//W3C//DTD SVG 1.1//EN"
   "http://www.w3.org/Graphics/SVG/1.1/DTD/svg11.dtd">
<svg width="144" height="128" version="1.1"
   xmlns="http://www.w3.org/2000/svg">
   <desc>Zint Generated Symbol
   </desc>

   <g id="barcode" fill="#000000">
      <rect x="0" y="0" width="144" height="128" fill="#FFFFFF" />
      <rect x="0.00" y="0.00" width="96.00" height="8.00" />
      <rect x="112.00" y="0.00" width="16.00" height="8.00" />
      <rect x="24.00" y="8.00" width="16.00" height="8.00" />
      <rect x="72.00" y="8.00" width="16.00" height="8.00" />
      <rect x="104.00" y="8.00" width="8.00" height="8.00" />
      <rect x="120.00" y="8.00" width="8.00" height="8.00" />
      <rect x="136.00" y="8.00" width="8.00" height="8.00" />
      <rect x="0.00" y="16.00" width="8.00" height="8.00" />
      <rect x="32.00" y="16.00" width="8.00" height="32.00" />
      <rect x="48.00" y="16.00" width="16.00" height="8.00" />
      <rect x="72.00" y="16.00" width="8.00" height="8.00" />
      <rect x="88.00" y="16.00" width="16.00" height="8.00" />
      <rect x="112.00" y="16.00" width="8.00" height="8.00" />
      <rect x="128.00" y="16.00" width="8.00" height="8.00" />
      <rect x="56.00" y="24.00" width="8.00" height="8.00" />
      <rect x="72.00" y="24.00" width="16.00" height="8.00" />
      <rect x="96.00" y="24.00" width="8.00" height="24.00" />
      <rect x="120.00" y="24.00" width="24.00" height="8.00" />
      <rect x="0.00" y="32.00" width="24.00" height="8.00" />
      <rect x="48.00" y="32.00" width="8.00" height="8.00" />
      <rect x="80.00" y="32.00" width="8.00" height="8.00" />
      <rect x="112.00" y="32.00" width="16.00" height="8.00" />
      <rect x="0.00" y="48.00" width="144.00" height="8.00" />
      <rect x="8.00" y="64.00" width="128.00" height="8.00" />
      <rect x="8.00" y="72.00" width="8.00" height="8.00" />
      <rect x="128.00" y="72.00" width="8.00" height="8.00" />
      <rect x="8.00" y="80.00" width="128.00" height="8.00" />
      <rect x="24.00" y="88.00" width="24.00" height="8.00" />
      <rect x="56.00" y="88.00" width="16.00" height="8.00" />
      <rect x="88.00" y="88.00" width="16.00" height="8.00" />
      <rect x="112.00" y="88.00" width="24.00" height="8.00" />
      <rect x="8.00" y="96.00" width="8.00" height="8.00" />
      <rect x="24.00" y="96.00" width="16.00" height="8.00" />
      <rect x="56.00" y="96.00" width="32.00" height="8.00" />
      <rect x="96.00" y="96.00" width="8.00" height="8.00" />
      <rect x="112.00" y="96.00" width="32.00" height="8.00" />
      <rect x="0.00" y="104.00" width="8.00" height="24.00" />
      <rect x="16.00" y="104.00" width="8.00" height="8.00" />
      <rect x="56.00" y="104.00" width="8.00" height="8.00" />
      <rect x="88.00" y="104.00" width="16.00" height="16.00" />
      <rect x="112.00" y="104.00" width="8.00" height="8.00" />
      <rect x="24.00" y="112.00" width="24.00" height="8.00" />
      <rect x="16.00" y="120.00" width="8.00" height="8.00" />
      <rect x="64.00" y="120.00" width="8.00" height="8.00" />
      <rect x="80.00" y="120.00" width="8.00" height="8.00" />
      <rect x="96.00" y="120.00" width="32.00" height="8.00" />
      <rect x="136.00" y="120.00" width="8.00" height="8.00" />
   </g>
</svg>
