<?xml version="1.0" standalone="no"?>
<!DOCTYPE svg PUBLIC "-//W3C//DTD SVG 1.1//EN"
   "http://www.w3.org/Graphics/SVG/1.1/DTD/svg11.dtd">
<svg width="495" height="142" version="1.1"
   xmlns="http://www.w3.org/2000/svg">
   <desc>Zint Generated Symbol
   </desc>

   <g id="barcode" fill="#000000">
      <rect x="0" y="0" width="495" height="142" fill="#FFFFFF" />
      <rect x="0.00" y="0.00" width="4.80" height="96.00" />
      <rect x="14.40" y="0.00" width="4.80" height="96.00" />
      <rect x="24.00" y="0.00" width="9.60" height="96.00" />
      <rect x="38.40" y="0.00" width="9.60" height="96.00" />
      <rect x="52.80" y="0.00" width="4.80" height="96.00" />
      <rect x="62.40" y="0.00" width="4.80" height="96.00" />
      <rect x="72.00" y="0.00" width="4.80" height="96.00" />
      <rect x="86.40" y="0.00" width="9.60" height="96.00" />
      <rect x="100.80" y="0.00" width="4.80" height="96.00" />
      <rect x="110.40" y="0.00" width="9.60" height="96.00" />
      <rect x="124.80" y="0.00" width="9.60" height="96.00" />
      <rect x="139.20" y="0.00" width="4.80" height="96.00" />
      <rect x="153.60" y="0.00" width="4.80" height="96.00" />
      <rect x="163.20" y="0.00" width="9.60" height="96.00" />
      <rect x="177.60" y="0.00" width="4.80" height="96.00" />
      <rect x="187.20" y="0.00" width="4.80" height="96.00" />
      <rect x="201.60" y="0.00" width="9.60" height="96.00" />
      <rect x="216.00" y="0.00" width="4.80" height="96.00" />
      <rect x="225.60" y="0.00" width="4.80" height="96.00" />
      <rect x="235.20" y="0.00" width="9.60" height="96.00" />
      <rect x="249.60" y="0.00" width="4.80" height="96.00" />
      <rect x="264.00" y="0.00" width="9.60" height="96.00" />
      <rect x="278.40" y="0.00" width="9.60" height="96.00" />
      <rect x="292.80" y="0.00" width="4.80" height="96.00" />
      <rect x="302.40" y="0.00" width="4.80" height="96.00" />
      <rect x="312.00" y="0.00" width="4.80" height="96.00" />
      <rect x="321.60" y="0.00" width="9.60" height="96.00" />
      <rect x="340.80" y="0.00" width="4.80" height="96.00" />
      <rect x="350.40" y="0.00" width="9.60" height="96.00" />
      <rect x="364.80" y="0.00" width="4.80" height="96.00" />
      <rect x="374.40" y="0.00" width="4.80" height="96.00" />
      <rect x="384.00" y="0.00" width="4.80" height="96.00" />
      <rect x="393.60" y="0.00" width="4.80" height="96.00" />
      <rect x="403.20" y="0.00" width="9.60" height="96.00" />
      <rect x="422.40" y="0.00" width="9.60" height="96.00" />
      <rect x="436.80" y="0.00" width="4.80" height="96.00" />
      <rect x="451.20" y="0.00" width="4.80" height="96.00" />
      <rect x="460.80" y="0.00" width="9.60" height="96.00" />
      <rect x="475.20" y="0.00" width="9.60" height="96.00" />
      <rect x="489.60" y="0.00" width="4.80" height="96.00" />
      <text x="247.20" y="129.60" text-anchor="middle"
         font-family="Helvetica, sans-serif" font-size="33.6" >
         A143523126
      </text>
   </g>
</svg>
