<?xml version="1.0" standalone="no"?>
<!DOCTYPE svg PUBLIC "-//W3C//DTD SVG 1.1//EN" "http://www.w3.org/Graphics/SVG/1.1/DTD/svg11.dtd">
<svg width="96" height="96" version="1.1" xmlns="http://www.w3.org/2000/svg">
 <desc>Zint Generated Symbol</desc>
 <g id="barcode" fill="#000000">
  <rect x="0" y="0" width="96" height="96" fill="#FFFFFF"/>
  <path d="M0 0h8v40h-8ZM16 0h8v8h-8ZM32 0h8v8h-8ZM48 0h8v8h-8ZM64 0h8v8h-8ZM80 0h8v8h-8ZM32 8h24v8h-24ZM72 8h24v8h-24ZM16 16h8v16h-8ZM32 16h8v8h-8ZM48 16h8v8h-8ZM64 16h24v8h-24ZM56 24h8v8h-8ZM88 24h8v8h-8ZM24 32h8v8h-8ZM48 32h16v8h-16ZM72 32h8v8h-8ZM0 40h16v8h-16ZM32 40h8v8h-8ZM56 40h8v8h-8ZM88 40h8v8h-8ZM0 48h8v16h-8ZM24 48h8v8h-8ZM40 48h16v8h-16ZM64 48h16v8h-16ZM16 56h16v8h-16ZM56 56h16v8h-16ZM88 56h8v8h-8ZM0 64h16v8h-16ZM40 64h8v8h-8ZM72 64h16v8h-16ZM0 72h32v8h-32ZM48 72h8v8h-8ZM64 72h16v8h-16ZM88 72h8v8h-8ZM0 80h16v8h-16ZM24 80h8v8h-8ZM48 80h16v8h-16ZM80 80h8v8h-8ZM0 88h96v8h-96Z"/>
 </g>
</svg>
