<?xml version="1.0" standalone="no"?>
<!DOCTYPE svg PUBLIC "-//W3C//DTD SVG 1.1//EN"
   "http://www.w3.org/Graphics/SVG/1.1/DTD/svg11.dtd">
<svg width="380" height="94" version="1.1"
   xmlns="http://www.w3.org/2000/svg">
   <desc>Zint Generated Symbol
   </desc>

   <g id="barcode" fill="#000000">
      <rect x="0" y="0" width="380" height="94" fill="#FFFFFF" />
      <rect x="4.80" y="0.00" width="4.80" height="48.00" />
      <rect x="14.40" y="0.00" width="9.60" height="48.00" />
      <rect x="43.20" y="0.00" width="9.60" height="48.00" />
      <rect x="62.40" y="0.00" width="19.20" height="48.00" />
      <rect x="86.40" y="0.00" width="9.60" height="48.00" />
      <rect x="100.80" y="0.00" width="4.80" height="48.00" />
      <rect x="110.40" y="0.00" width="4.80" height="48.00" />
      <rect x="129.60" y="0.00" width="4.80" height="48.00" />
      <rect x="139.20" y="0.00" width="9.60" height="48.00" />
      <rect x="153.60" y="0.00" width="4.80" height="48.00" />
      <rect x="163.20" y="0.00" width="4.80" height="48.00" />
      <rect x="172.80" y="0.00" width="9.60" height="48.00" />
      <rect x="192.00" y="0.00" width="4.80" height="48.00" />
      <rect x="206.40" y="0.00" width="4.80" height="48.00" />
      <rect x="216.00" y="0.00" width="4.80" height="48.00" />
      <rect x="230.40" y="0.00" width="4.80" height="48.00" />
      <rect x="249.60" y="0.00" width="4.80" height="48.00" />
      <rect x="259.20" y="0.00" width="9.60" height="48.00" />
      <rect x="273.60" y="0.00" width="9.60" height="48.00" />
      <rect x="292.80" y="0.00" width="4.80" height="48.00" />
      <rect x="307.20" y="0.00" width="19.20" height="48.00" />
      <rect x="336.00" y="0.00" width="9.60" height="48.00" />
      <rect x="350.40" y="0.00" width="4.80" height="48.00" />
      <text x="189.60" y="81.60" text-anchor="middle"
         font-family="Helvetica, sans-serif" font-size="33.6" >
         (01)09501101530010
      </text>
   </g>
</svg>
