<?xml version="1.0" standalone="no"?>
<!DOCTYPE svg PUBLIC "-//W3C//DTD SVG 1.1//EN"
   "http://www.w3.org/Graphics/SVG/1.1/DTD/svg11.dtd">
<svg width="461" height="204" version="1.1"
   xmlns="http://www.w3.org/2000/svg">
   <desc>Zint Generated Symbol
   </desc>

   <g id="barcode" fill="#000000">
      <rect x="0" y="0" width="461" height="204" fill="#FFFFFF" />
      <rect x="4.80" y="0.00" width="4.80" height="158.40" />
      <rect x="33.60" y="0.00" width="4.80" height="158.40" />
      <rect x="43.20" y="0.00" width="4.80" height="158.40" />
      <rect x="72.00" y="0.00" width="4.80" height="158.40" />
      <rect x="81.60" y="0.00" width="4.80" height="158.40" />
      <rect x="100.80" y="0.00" width="24.00" height="158.40" />
      <rect x="148.80" y="0.00" width="4.80" height="158.40" />
      <rect x="158.40" y="0.00" width="19.20" height="158.40" />
      <rect x="182.40" y="0.00" width="9.60" height="158.40" />
      <rect x="196.80" y="0.00" width="4.80" height="158.40" />
      <rect x="206.40" y="0.00" width="14.40" height="158.40" />
      <rect x="230.40" y="0.00" width="4.80" height="158.40" />
      <rect x="249.60" y="0.00" width="9.60" height="158.40" />
      <rect x="264.00" y="0.00" width="14.40" height="158.40" />
      <rect x="283.20" y="0.00" width="4.80" height="158.40" />
      <rect x="302.40" y="0.00" width="4.80" height="158.40" />
      <rect x="312.00" y="0.00" width="9.60" height="158.40" />
      <rect x="360.00" y="0.00" width="14.40" height="158.40" />
      <rect x="384.00" y="0.00" width="14.40" height="158.40" />
      <rect x="403.20" y="0.00" width="9.60" height="158.40" />
      <rect x="417.60" y="0.00" width="14.40" height="158.40" />
      <rect x="441.60" y="0.00" width="9.60" height="158.40" />
      <rect x="456.00" y="0.00" width="4.80" height="158.40" />
      <text x="230.40" y="192.00" text-anchor="middle"
         font-family="Helvetica, sans-serif" font-size="33.6" >
         (01)09501101530010
      </text>
   </g>
</svg>
