<?xml version="1.0" standalone="no"?>
<!DOCTYPE svg PUBLIC "-//W3C//DTD SVG 1.1//EN"
   "http://www.w3.org/Graphics/SVG/1.1/DTD/svg11.dtd">
<svg width="123" height="86" version="1.1"
   xmlns="http://www.w3.org/2000/svg">
   <desc>Zint Generated Symbol
   </desc>

   <g id="barcode" fill="#000000">
      <rect x="0" y="0" width="123" height="86" fill="#FFFFFF" />
      <rect x="1.20" y="0.00" width="1.20" height="40.80" />
      <rect x="4.80" y="0.00" width="1.20" height="40.80" />
      <rect x="10.80" y="0.00" width="2.40" height="40.80" />
      <rect x="16.80" y="0.00" width="2.40" height="40.80" />
      <rect x="20.40" y="0.00" width="2.40" height="40.80" />
      <rect x="24.00" y="0.00" width="9.60" height="40.80" />
      <rect x="38.40" y="0.00" width="1.20" height="40.80" />
      <rect x="40.80" y="0.00" width="3.60" height="40.80" />
      <rect x="49.20" y="0.00" width="2.40" height="40.80" />
      <rect x="54.00" y="0.00" width="1.20" height="40.80" />
      <rect x="56.40" y="0.00" width="1.20" height="40.80" />
      <rect x="61.20" y="0.00" width="2.40" height="40.80" />
      <rect x="64.80" y="0.00" width="1.20" height="40.80" />
      <rect x="73.20" y="0.00" width="2.40" height="40.80" />
      <rect x="79.20" y="0.00" width="1.20" height="40.80" />
      <rect x="81.60" y="0.00" width="1.20" height="40.80" />
      <rect x="84.00" y="0.00" width="7.20" height="40.80" />
      <rect x="96.00" y="0.00" width="3.60" height="40.80" />
      <rect x="100.80" y="0.00" width="1.20" height="40.80" />
      <rect x="104.40" y="0.00" width="3.60" height="40.80" />
      <rect x="115.20" y="0.00" width="1.20" height="40.80" />
      <rect x="118.80" y="0.00" width="1.20" height="40.80" />
      <rect x="121.20" y="0.00" width="1.20" height="40.80" />
      <rect x="6.00" y="40.80" width="4.80" height="1.20" />
      <rect x="13.20" y="40.80" width="3.60" height="1.20" />
      <rect x="19.20" y="40.80" width="1.20" height="1.20" />
      <rect x="22.80" y="40.80" width="1.20" height="2.40" />
      <rect x="33.60" y="40.80" width="1.20" height="1.20" />
      <rect x="36.00" y="40.80" width="1.20" height="1.20" />
      <rect x="39.60" y="40.80" width="1.20" height="2.40" />
      <rect x="44.40" y="40.80" width="4.80" height="1.20" />
      <rect x="51.60" y="40.80" width="2.40" height="1.20" />
      <rect x="55.20" y="40.80" width="1.20" height="1.20" />
      <rect x="57.60" y="40.80" width="3.60" height="1.20" />
      <rect x="63.60" y="40.80" width="1.20" height="2.40" />
      <rect x="66.00" y="40.80" width="7.20" height="1.20" />
      <rect x="75.60" y="40.80" width="3.60" height="1.20" />
      <rect x="80.40" y="40.80" width="1.20" height="2.40" />
      <rect x="82.80" y="40.80" width="1.20" height="2.40" />
      <rect x="91.20" y="40.80" width="1.20" height="1.20" />
      <rect x="93.60" y="40.80" width="1.20" height="1.20" />
      <rect x="99.60" y="40.80" width="1.20" height="2.40" />
      <rect x="102.00" y="40.80" width="2.40" height="1.20" />
      <rect x="108.00" y="40.80" width="7.20" height="1.20" />
      <rect x="116.40" y="40.80" width="1.20" height="2.40" />
      <rect x="6.00" y="42.00" width="1.20" height="1.20" />
      <rect x="8.40" y="42.00" width="1.20" height="1.20" />
      <rect x="10.80" y="42.00" width="1.20" height="1.20" />
      <rect x="13.20" y="42.00" width="1.20" height="1.20" />
      <rect x="15.60" y="42.00" width="1.20" height="2.40" />
      <rect x="18.00" y="42.00" width="1.20" height="1.20" />
      <rect x="20.40" y="42.00" width="1.20" height="1.20" />
      <rect x="25.20" y="42.00" width="1.20" height="1.20" />
      <rect x="27.60" y="42.00" width="1.20" height="2.40" />
      <rect x="30.00" y="42.00" width="1.20" height="1.20" />
      <rect x="32.40" y="42.00" width="1.20" height="1.20" />
      <rect x="34.80" y="42.00" width="1.20" height="1.20" />
      <rect x="37.20" y="42.00" width="1.20" height="1.20" />
      <rect x="42.00" y="42.00" width="1.20" height="1.20" />
      <rect x="44.40" y="42.00" width="1.20" height="1.20" />
      <rect x="46.80" y="42.00" width="1.20" height="2.40" />
      <rect x="49.20" y="42.00" width="1.20" height="1.20" />
      <rect x="51.60" y="42.00" width="1.20" height="1.20" />
      <rect x="54.00" y="42.00" width="1.20" height="1.20" />
      <rect x="56.40" y="42.00" width="1.20" height="1.20" />
      <rect x="58.80" y="42.00" width="1.20" height="1.20" />
      <rect x="61.20" y="42.00" width="1.20" height="1.20" />
      <rect x="66.00" y="42.00" width="1.20" height="1.20" />
      <rect x="68.40" y="42.00" width="1.20" height="1.20" />
      <rect x="70.80" y="42.00" width="1.20" height="1.20" />
      <rect x="73.20" y="42.00" width="1.20" height="1.20" />
      <rect x="75.60" y="42.00" width="1.20" height="1.20" />
      <rect x="78.00" y="42.00" width="1.20" height="1.20" />
      <rect x="85.20" y="42.00" width="1.20" height="2.40" />
      <rect x="87.60" y="42.00" width="1.20" height="2.40" />
      <rect x="90.00" y="42.00" width="1.20" height="1.20" />
      <rect x="92.40" y="42.00" width="1.20" height="1.20" />
      <rect x="94.80" y="42.00" width="1.20" height="1.20" />
      <rect x="97.20" y="42.00" width="1.20" height="1.20" />
      <rect x="102.00" y="42.00" width="1.20" height="1.20" />
      <rect x="104.40" y="42.00" width="1.20" height="1.20" />
      <rect x="106.80" y="42.00" width="1.20" height="1.20" />
      <rect x="109.20" y="42.00" width="1.20" height="1.20" />
      <rect x="111.60" y="42.00" width="1.20" height="1.20" />
      <rect x="114.00" y="42.00" width="1.20" height="1.20" />
      <rect x="4.80" y="43.20" width="3.60" height="1.20" />
      <rect x="9.60" y="43.20" width="1.20" height="1.20" />
      <rect x="19.20" y="43.20" width="3.60" height="1.20" />
      <rect x="38.40" y="43.20" width="1.20" height="1.20" />
      <rect x="40.80" y="43.20" width="3.60" height="1.20" />
      <rect x="49.20" y="43.20" width="2.40" height="1.20" />
      <rect x="56.40" y="43.20" width="3.60" height="1.20" />
      <rect x="61.20" y="43.20" width="2.40" height="1.20" />
      <rect x="64.80" y="43.20" width="2.40" height="1.20" />
      <rect x="68.40" y="43.20" width="6.00" height="1.20" />
      <rect x="76.80" y="43.20" width="1.20" height="1.20" />
      <rect x="81.60" y="43.20" width="1.20" height="1.20" />
      <rect x="96.00" y="43.20" width="1.20" height="1.20" />
      <rect x="98.40" y="43.20" width="1.20" height="1.20" />
      <rect x="102.00" y="43.20" width="2.40" height="1.20" />
      <rect x="108.00" y="43.20" width="1.20" height="1.20" />
      <rect x="115.20" y="43.20" width="2.40" height="1.20" />
      <rect x="0.00" y="44.40" width="1.20" height="40.80" />
      <rect x="2.40" y="44.40" width="1.20" height="40.80" />
      <rect x="8.40" y="44.40" width="1.20" height="40.80" />
      <rect x="10.80" y="44.40" width="4.80" height="40.80" />
      <rect x="16.80" y="44.40" width="2.40" height="40.80" />
      <rect x="22.80" y="44.40" width="3.60" height="40.80" />
      <rect x="28.80" y="44.40" width="9.60" height="40.80" />
      <rect x="39.60" y="44.40" width="1.20" height="40.80" />
      <rect x="44.40" y="44.40" width="2.40" height="40.80" />
      <rect x="48.00" y="44.40" width="1.20" height="40.80" />
      <rect x="51.60" y="44.40" width="4.80" height="40.80" />
      <rect x="60.00" y="44.40" width="1.20" height="40.80" />
      <rect x="63.60" y="44.40" width="1.20" height="40.80" />
      <rect x="67.20" y="44.40" width="1.20" height="40.80" />
      <rect x="74.40" y="44.40" width="2.40" height="40.80" />
      <rect x="78.00" y="44.40" width="3.60" height="40.80" />
      <rect x="82.80" y="44.40" width="1.20" height="40.80" />
      <rect x="88.80" y="44.40" width="7.20" height="40.80" />
      <rect x="99.60" y="44.40" width="2.40" height="40.80" />
      <rect x="104.40" y="44.40" width="3.60" height="40.80" />
      <rect x="109.20" y="44.40" width="6.00" height="40.80" />
      <rect x="117.60" y="44.40" width="1.20" height="40.80" />
      <rect x="120.00" y="44.40" width="1.20" height="40.80" />
   </g>
</svg>
