<?xml version="1.0" standalone="no"?>
<!DOCTYPE svg PUBLIC "-//W3C//DTD SVG 1.1//EN"
   "http://www.w3.org/Graphics/SVG/1.1/DTD/svg11.dtd">
<svg width="490" height="341" version="1.1"
   xmlns="http://www.w3.org/2000/svg">
   <desc>Zint Generated Symbol
   </desc>

   <g id="barcode" fill="#000000">
      <rect x="0" y="0" width="490" height="341" fill="#FFFFFF" />
      <rect x="4.80" y="0.00" width="4.80" height="163.20" />
      <rect x="19.20" y="0.00" width="4.80" height="163.20" />
      <rect x="43.20" y="0.00" width="9.60" height="163.20" />
      <rect x="67.20" y="0.00" width="9.60" height="163.20" />
      <rect x="81.60" y="0.00" width="9.60" height="163.20" />
      <rect x="96.00" y="0.00" width="38.40" height="163.20" />
      <rect x="153.60" y="0.00" width="4.80" height="163.20" />
      <rect x="163.20" y="0.00" width="14.40" height="163.20" />
      <rect x="196.80" y="0.00" width="9.60" height="163.20" />
      <rect x="216.00" y="0.00" width="4.80" height="163.20" />
      <rect x="225.60" y="0.00" width="4.80" height="163.20" />
      <rect x="244.80" y="0.00" width="9.60" height="163.20" />
      <rect x="259.20" y="0.00" width="4.80" height="163.20" />
      <rect x="292.80" y="0.00" width="9.60" height="163.20" />
      <rect x="316.80" y="0.00" width="4.80" height="163.20" />
      <rect x="326.40" y="0.00" width="4.80" height="163.20" />
      <rect x="336.00" y="0.00" width="28.80" height="163.20" />
      <rect x="384.00" y="0.00" width="14.40" height="163.20" />
      <rect x="403.20" y="0.00" width="4.80" height="163.20" />
      <rect x="417.60" y="0.00" width="14.40" height="163.20" />
      <rect x="460.80" y="0.00" width="4.80" height="163.20" />
      <rect x="475.20" y="0.00" width="4.80" height="163.20" />
      <rect x="484.80" y="0.00" width="4.80" height="163.20" />
      <rect x="24.00" y="163.20" width="19.20" height="4.80" />
      <rect x="52.80" y="163.20" width="14.40" height="4.80" />
      <rect x="76.80" y="163.20" width="4.80" height="4.80" />
      <rect x="91.20" y="163.20" width="4.80" height="9.60" />
      <rect x="134.40" y="163.20" width="4.80" height="4.80" />
      <rect x="144.00" y="163.20" width="4.80" height="4.80" />
      <rect x="158.40" y="163.20" width="4.80" height="9.60" />
      <rect x="177.60" y="163.20" width="19.20" height="4.80" />
      <rect x="206.40" y="163.20" width="9.60" height="4.80" />
      <rect x="220.80" y="163.20" width="4.80" height="4.80" />
      <rect x="230.40" y="163.20" width="14.40" height="4.80" />
      <rect x="254.40" y="163.20" width="4.80" height="9.60" />
      <rect x="264.00" y="163.20" width="28.80" height="4.80" />
      <rect x="302.40" y="163.20" width="14.40" height="4.80" />
      <rect x="321.60" y="163.20" width="4.80" height="9.60" />
      <rect x="331.20" y="163.20" width="4.80" height="9.60" />
      <rect x="364.80" y="163.20" width="4.80" height="4.80" />
      <rect x="374.40" y="163.20" width="4.80" height="4.80" />
      <rect x="398.40" y="163.20" width="4.80" height="9.60" />
      <rect x="408.00" y="163.20" width="9.60" height="4.80" />
      <rect x="432.00" y="163.20" width="28.80" height="4.80" />
      <rect x="465.60" y="163.20" width="4.80" height="9.60" />
      <rect x="24.00" y="168.00" width="4.80" height="4.80" />
      <rect x="33.60" y="168.00" width="4.80" height="4.80" />
      <rect x="43.20" y="168.00" width="4.80" height="4.80" />
      <rect x="52.80" y="168.00" width="4.80" height="4.80" />
      <rect x="62.40" y="168.00" width="4.80" height="9.60" />
      <rect x="72.00" y="168.00" width="4.80" height="4.80" />
      <rect x="81.60" y="168.00" width="4.80" height="4.80" />
      <rect x="100.80" y="168.00" width="4.80" height="4.80" />
      <rect x="110.40" y="168.00" width="4.80" height="9.60" />
      <rect x="120.00" y="168.00" width="4.80" height="4.80" />
      <rect x="129.60" y="168.00" width="4.80" height="4.80" />
      <rect x="139.20" y="168.00" width="4.80" height="4.80" />
      <rect x="148.80" y="168.00" width="4.80" height="4.80" />
      <rect x="168.00" y="168.00" width="4.80" height="4.80" />
      <rect x="177.60" y="168.00" width="4.80" height="4.80" />
      <rect x="187.20" y="168.00" width="4.80" height="9.60" />
      <rect x="196.80" y="168.00" width="4.80" height="4.80" />
      <rect x="206.40" y="168.00" width="4.80" height="4.80" />
      <rect x="216.00" y="168.00" width="4.80" height="4.80" />
      <rect x="225.60" y="168.00" width="4.80" height="4.80" />
      <rect x="235.20" y="168.00" width="4.80" height="4.80" />
      <rect x="244.80" y="168.00" width="4.80" height="4.80" />
      <rect x="264.00" y="168.00" width="4.80" height="4.80" />
      <rect x="273.60" y="168.00" width="4.80" height="4.80" />
      <rect x="283.20" y="168.00" width="4.80" height="4.80" />
      <rect x="292.80" y="168.00" width="4.80" height="4.80" />
      <rect x="302.40" y="168.00" width="4.80" height="4.80" />
      <rect x="312.00" y="168.00" width="4.80" height="4.80" />
      <rect x="340.80" y="168.00" width="4.80" height="9.60" />
      <rect x="350.40" y="168.00" width="4.80" height="9.60" />
      <rect x="360.00" y="168.00" width="4.80" height="4.80" />
      <rect x="369.60" y="168.00" width="4.80" height="4.80" />
      <rect x="379.20" y="168.00" width="4.80" height="4.80" />
      <rect x="388.80" y="168.00" width="4.80" height="4.80" />
      <rect x="408.00" y="168.00" width="4.80" height="4.80" />
      <rect x="417.60" y="168.00" width="4.80" height="4.80" />
      <rect x="427.20" y="168.00" width="4.80" height="4.80" />
      <rect x="436.80" y="168.00" width="4.80" height="4.80" />
      <rect x="446.40" y="168.00" width="4.80" height="4.80" />
      <rect x="456.00" y="168.00" width="4.80" height="4.80" />
      <rect x="19.20" y="172.80" width="14.40" height="4.80" />
      <rect x="38.40" y="172.80" width="4.80" height="4.80" />
      <rect x="76.80" y="172.80" width="14.40" height="4.80" />
      <rect x="153.60" y="172.80" width="4.80" height="4.80" />
      <rect x="163.20" y="172.80" width="14.40" height="4.80" />
      <rect x="196.80" y="172.80" width="9.60" height="4.80" />
      <rect x="225.60" y="172.80" width="14.40" height="4.80" />
      <rect x="244.80" y="172.80" width="9.60" height="4.80" />
      <rect x="259.20" y="172.80" width="9.60" height="4.80" />
      <rect x="273.60" y="172.80" width="24.00" height="4.80" />
      <rect x="307.20" y="172.80" width="4.80" height="4.80" />
      <rect x="326.40" y="172.80" width="4.80" height="4.80" />
      <rect x="384.00" y="172.80" width="4.80" height="4.80" />
      <rect x="393.60" y="172.80" width="4.80" height="4.80" />
      <rect x="408.00" y="172.80" width="9.60" height="4.80" />
      <rect x="432.00" y="172.80" width="4.80" height="4.80" />
      <rect x="460.80" y="172.80" width="9.60" height="4.80" />
      <rect x="0.00" y="177.60" width="4.80" height="163.20" />
      <rect x="9.60" y="177.60" width="4.80" height="163.20" />
      <rect x="33.60" y="177.60" width="4.80" height="163.20" />
      <rect x="43.20" y="177.60" width="19.20" height="163.20" />
      <rect x="67.20" y="177.60" width="9.60" height="163.20" />
      <rect x="91.20" y="177.60" width="14.40" height="163.20" />
      <rect x="115.20" y="177.60" width="38.40" height="163.20" />
      <rect x="158.40" y="177.60" width="4.80" height="163.20" />
      <rect x="177.60" y="177.60" width="9.60" height="163.20" />
      <rect x="192.00" y="177.60" width="4.80" height="163.20" />
      <rect x="206.40" y="177.60" width="19.20" height="163.20" />
      <rect x="240.00" y="177.60" width="4.80" height="163.20" />
      <rect x="254.40" y="177.60" width="4.80" height="163.20" />
      <rect x="268.80" y="177.60" width="4.80" height="163.20" />
      <rect x="297.60" y="177.60" width="9.60" height="163.20" />
      <rect x="312.00" y="177.60" width="14.40" height="163.20" />
      <rect x="331.20" y="177.60" width="4.80" height="163.20" />
      <rect x="355.20" y="177.60" width="28.80" height="163.20" />
      <rect x="398.40" y="177.60" width="9.60" height="163.20" />
      <rect x="417.60" y="177.60" width="14.40" height="163.20" />
      <rect x="436.80" y="177.60" width="24.00" height="163.20" />
      <rect x="470.40" y="177.60" width="4.80" height="163.20" />
      <rect x="480.00" y="177.60" width="4.80" height="163.20" />
   </g>
</svg>
