<?xml version="1.0" standalone="no"?>
<!DOCTYPE svg PUBLIC "-//W3C//DTD SVG 1.1//EN" "http://www.w3.org/Graphics/SVG/1.1/DTD/svg11.dtd">
<svg width="490" height="341" version="1.1" xmlns="http://www.w3.org/2000/svg">
 <desc>Zint Generated Symbol</desc>
 <g id="barcode" fill="#000000">
  <rect x="0" y="0" width="490" height="341" fill="#FFFFFF"/>
  <path d="M4.8 0h4.8v163.2h-4.8ZM19.2 0h4.8v163.2h-4.8ZM43.2 0h9.6v163.2h-9.6ZM67.2 0h9.6v163.2h-9.6ZM81.6 0h9.6v163.2h-9.6ZM96 0h38.4v163.2h-38.4ZM153.6 0h4.8v163.2h-4.8ZM163.2 0h14.4v163.2h-14.4ZM196.8 0h9.6v163.2h-9.6ZM216 0h4.8v163.2h-4.8ZM225.6 0h4.8v163.2h-4.8ZM244.8 0h9.6v163.2h-9.6ZM259.2 0h4.8v163.2h-4.8ZM292.8 0h9.6v163.2h-9.6ZM316.8 0h4.8v163.2h-4.8ZM326.4 0h4.8v163.2h-4.8ZM336 0h28.8v163.2h-28.8ZM384 0h14.4v163.2h-14.4ZM403.2 0h4.8v163.2h-4.8ZM417.6 0h14.4v163.2h-14.4ZM460.8 0h4.8v163.2h-4.8ZM475.2 0h4.8v163.2h-4.8ZM484.8 0h4.8v163.2h-4.8ZM24 163.2h19.2v4.8h-19.2ZM52.8 163.2h14.4v4.8h-14.4ZM76.8 163.2h4.8v4.8h-4.8ZM91.2 163.2h4.8v9.6h-4.8ZM134.4 163.2h4.8v4.8h-4.8ZM144 163.2h4.8v4.8h-4.8ZM158.4 163.2h4.8v9.6h-4.8ZM177.6 163.2h19.2v4.8h-19.2ZM206.4 163.2h9.6v4.8h-9.6ZM220.8 163.2h4.8v4.8h-4.8ZM230.4 163.2h14.4v4.8h-14.4ZM254.4 163.2h4.8v9.6h-4.8ZM264 163.2h28.8v4.8h-28.8ZM302.4 163.2h14.4v4.8h-14.4ZM321.6 163.2h4.8v9.6h-4.8ZM331.2 163.2h4.8v9.6h-4.8ZM364.8 163.2h4.8v4.8h-4.8ZM374.4 163.2h4.8v4.8h-4.8ZM398.4 163.2h4.8v9.6h-4.8ZM408 163.2h9.6v4.8h-9.6ZM432 163.2h28.8v4.8h-28.8ZM465.6 163.2h4.8v9.6h-4.8ZM24 168h4.8v4.8h-4.8ZM33.6 168h4.8v4.8h-4.8ZM43.2 168h4.8v4.8h-4.8ZM52.8 168h4.8v4.8h-4.8ZM62.4 168h4.8v9.6h-4.8ZM72 168h4.8v4.8h-4.8ZM81.6 168h4.8v4.8h-4.8ZM100.8 168h4.8v4.8h-4.8ZM110.4 168h4.8v9.6h-4.8ZM120 168h4.8v4.8h-4.8ZM129.6 168h4.8v4.8h-4.8ZM139.2 168h4.8v4.8h-4.8ZM148.8 168h4.8v4.8h-4.8ZM168 168h4.8v4.8h-4.8ZM177.6 168h4.8v4.8h-4.8ZM187.2 168h4.8v9.6h-4.8ZM196.8 168h4.8v4.8h-4.8ZM206.4 168h4.8v4.8h-4.8ZM216 168h4.8v4.8h-4.8ZM225.6 168h4.8v4.8h-4.8ZM235.2 168h4.8v4.8h-4.8ZM244.8 168h4.8v4.8h-4.8ZM264 168h4.8v4.8h-4.8ZM273.6 168h4.8v4.8h-4.8ZM283.2 168h4.8v4.8h-4.8ZM292.8 168h4.8v4.8h-4.8ZM302.4 168h4.8v4.8h-4.8ZM312 168h4.8v4.8h-4.8ZM340.8 168h4.8v9.6h-4.8ZM350.4 168h4.8v9.6h-4.8ZM360 168h4.8v4.8h-4.8ZM369.6 168h4.8v4.8h-4.8ZM379.2 168h4.8v4.8h-4.8ZM388.8 168h4.8v4.8h-4.8ZM408 168h4.8v4.8h-4.8ZM417.6 168h4.8v4.8h-4.8ZM427.2 168h4.8v4.8h-4.8ZM436.8 168h4.8v4.8h-4.8ZM446.4 168h4.8v4.8h-4.8ZM456 168h4.8v4.8h-4.8ZM19.2 172.8h14.4v4.8h-14.4ZM38.4 172.8h4.8v4.8h-4.8ZM76.8 172.8h14.4v4.8h-14.4ZM153.6 172.8h4.8v4.8h-4.8ZM163.2 172.8h14.4v4.8h-14.4ZM196.8 172.8h9.6v4.8h-9.6ZM225.6 172.8h14.4v4.8h-14.4ZM244.8 172.8h9.6v4.8h-9.6ZM259.2 172.8h9.6v4.8h-9.6ZM273.6 172.8h24v4.8h-24ZM307.2 172.8h4.8v4.8h-4.8ZM326.4 172.8h4.8v4.8h-4.8ZM384 172.8h4.8v4.8h-4.8ZM393.6 172.8h4.8v4.8h-4.8ZM408 172.8h9.6v4.8h-9.6ZM432 172.8h4.8v4.8h-4.8ZM460.8 172.8h9.6v4.8h-9.6ZM0 177.6h4.8v163.2h-4.8ZM9.6 177.6h4.8v163.2h-4.8ZM33.6 177.6h4.8v163.2h-4.8ZM43.2 177.6h19.2v163.2h-19.2ZM67.2 177.6h9.6v163.2h-9.6ZM91.2 177.6h14.4v163.2h-14.4ZM115.2 177.6h38.4v163.2h-38.4ZM158.4 177.6h4.8v163.2h-4.8ZM177.6 177.6h9.6v163.2h-9.6ZM192 177.6h4.8v163.2h-4.8ZM206.4 177.6h19.2v163.2h-19.2ZM240 177.6h4.8v163.2h-4.8ZM254.4 177.6h4.8v163.2h-4.8ZM268.8 177.6h4.8v163.2h-4.8ZM297.6 177.6h9.6v163.2h-9.6ZM312 177.6h14.4v163.2h-14.4ZM331.2 177.6h4.8v163.2h-4.8ZM355.2 177.6h28.8v163.2h-28.8ZM398.4 177.6h9.6v163.2h-9.6ZM417.6 177.6h14.4v163.2h-14.4ZM436.8 177.6h24v163.2h-24ZM470.4 177.6h4.8v163.2h-4.8ZM480 177.6h4.8v163.2h-4.8Z"/>
 </g>
</svg>
