<?xml version="1.0" standalone="no"?>
<!DOCTYPE svg PUBLIC "-//W3C//DTD SVG 1.1//EN"
   "http://www.w3.org/Graphics/SVG/1.1/DTD/svg11.dtd">
<svg width="61" height="83" version="1.1"
   xmlns="http://www.w3.org/2000/svg">
   <desc>Zint Generated Symbol
   </desc>

   <g id="barcode" fill="#000000">
      <rect x="0" y="0" width="61" height="83" fill="#FFFFFF" />
      <rect x="1.20" y="0.00" width="1.20" height="39.60" />
      <rect x="3.60" y="0.00" width="3.60" height="39.60" />
      <rect x="12.00" y="0.00" width="3.60" height="39.60" />
      <rect x="18.00" y="0.00" width="1.20" height="39.60" />
      <rect x="20.40" y="0.00" width="1.20" height="39.60" />
      <rect x="25.20" y="0.00" width="9.60" height="39.60" />
      <rect x="37.20" y="0.00" width="1.20" height="39.60" />
      <rect x="39.60" y="0.00" width="1.20" height="39.60" />
      <rect x="42.00" y="0.00" width="1.20" height="39.60" />
      <rect x="48.00" y="0.00" width="1.20" height="39.60" />
      <rect x="52.80" y="0.00" width="3.60" height="39.60" />
      <rect x="57.60" y="0.00" width="1.20" height="39.60" />
      <rect x="7.20" y="39.60" width="4.80" height="1.20" />
      <rect x="15.60" y="39.60" width="2.40" height="1.20" />
      <rect x="19.20" y="39.60" width="1.20" height="1.20" />
      <rect x="21.60" y="39.60" width="1.20" height="1.20" />
      <rect x="24.00" y="39.60" width="1.20" height="1.20" />
      <rect x="34.80" y="39.60" width="1.20" height="2.40" />
      <rect x="38.40" y="39.60" width="1.20" height="1.20" />
      <rect x="40.80" y="39.60" width="1.20" height="1.20" />
      <rect x="43.20" y="39.60" width="4.80" height="1.20" />
      <rect x="49.20" y="39.60" width="3.60" height="1.20" />
      <rect x="6.00" y="40.80" width="1.20" height="1.20" />
      <rect x="8.40" y="40.80" width="1.20" height="1.20" />
      <rect x="10.80" y="40.80" width="1.20" height="1.20" />
      <rect x="13.20" y="40.80" width="1.20" height="1.20" />
      <rect x="15.60" y="40.80" width="1.20" height="1.20" />
      <rect x="18.00" y="40.80" width="1.20" height="1.20" />
      <rect x="20.40" y="40.80" width="1.20" height="1.20" />
      <rect x="22.80" y="40.80" width="1.20" height="1.20" />
      <rect x="25.20" y="40.80" width="1.20" height="2.40" />
      <rect x="27.60" y="40.80" width="1.20" height="2.40" />
      <rect x="30.00" y="40.80" width="1.20" height="2.40" />
      <rect x="32.40" y="40.80" width="1.20" height="2.40" />
      <rect x="37.20" y="40.80" width="1.20" height="1.20" />
      <rect x="39.60" y="40.80" width="1.20" height="1.20" />
      <rect x="42.00" y="40.80" width="1.20" height="1.20" />
      <rect x="44.40" y="40.80" width="1.20" height="2.40" />
      <rect x="46.80" y="40.80" width="1.20" height="1.20" />
      <rect x="49.20" y="40.80" width="1.20" height="1.20" />
      <rect x="51.60" y="40.80" width="1.20" height="1.20" />
      <rect x="54.00" y="40.80" width="1.20" height="1.20" />
      <rect x="4.80" y="42.00" width="1.20" height="1.20" />
      <rect x="7.20" y="42.00" width="2.40" height="1.20" />
      <rect x="10.80" y="42.00" width="2.40" height="1.20" />
      <rect x="15.60" y="42.00" width="4.80" height="1.20" />
      <rect x="21.60" y="42.00" width="1.20" height="1.20" />
      <rect x="38.40" y="42.00" width="1.20" height="1.20" />
      <rect x="40.80" y="42.00" width="1.20" height="1.20" />
      <rect x="48.00" y="42.00" width="3.60" height="1.20" />
      <rect x="0.00" y="43.20" width="1.20" height="39.60" />
      <rect x="2.40" y="43.20" width="1.20" height="39.60" />
      <rect x="6.00" y="43.20" width="1.20" height="39.60" />
      <rect x="9.60" y="43.20" width="1.20" height="39.60" />
      <rect x="13.20" y="43.20" width="2.40" height="39.60" />
      <rect x="20.40" y="43.20" width="1.20" height="39.60" />
      <rect x="22.80" y="43.20" width="2.40" height="39.60" />
      <rect x="34.80" y="43.20" width="3.60" height="39.60" />
      <rect x="39.60" y="43.20" width="1.20" height="39.60" />
      <rect x="42.00" y="43.20" width="2.40" height="39.60" />
      <rect x="45.60" y="43.20" width="2.40" height="39.60" />
      <rect x="51.60" y="43.20" width="6.00" height="39.60" />
      <rect x="58.80" y="43.20" width="1.20" height="39.60" />
   </g>
</svg>
