<?xml version="1.0" standalone="no"?>
<!DOCTYPE svg PUBLIC "-//W3C//DTD SVG 1.1//EN"
   "http://www.w3.org/Graphics/SVG/1.1/DTD/svg11.dtd">
<svg width="241" height="63" version="1.1"
   xmlns="http://www.w3.org/2000/svg">
   <desc>Zint Generated Symbol
   </desc>

   <g id="barcode" fill="#000000">
      <rect x="0" y="0" width="241" height="63" fill="#FFFFFF" />
      <rect x="4.80" y="0.00" width="4.80" height="24.00" />
      <rect x="14.40" y="0.00" width="14.40" height="24.00" />
      <rect x="48.00" y="0.00" width="14.40" height="24.00" />
      <rect x="72.00" y="0.00" width="4.80" height="24.00" />
      <rect x="81.60" y="0.00" width="4.80" height="24.00" />
      <rect x="100.80" y="0.00" width="38.40" height="24.00" />
      <rect x="148.80" y="0.00" width="4.80" height="24.00" />
      <rect x="158.40" y="0.00" width="4.80" height="24.00" />
      <rect x="168.00" y="0.00" width="4.80" height="24.00" />
      <rect x="192.00" y="0.00" width="4.80" height="24.00" />
      <rect x="211.20" y="0.00" width="14.40" height="24.00" />
      <rect x="230.40" y="0.00" width="4.80" height="24.00" />
      <rect x="28.80" y="24.00" width="9.60" height="4.80" />
      <rect x="43.20" y="24.00" width="4.80" height="4.80" />
      <rect x="62.40" y="24.00" width="9.60" height="4.80" />
      <rect x="76.80" y="24.00" width="4.80" height="4.80" />
      <rect x="86.40" y="24.00" width="4.80" height="4.80" />
      <rect x="96.00" y="24.00" width="4.80" height="4.80" />
      <rect x="105.60" y="24.00" width="4.80" height="4.80" />
      <rect x="115.20" y="24.00" width="4.80" height="4.80" />
      <rect x="124.80" y="24.00" width="4.80" height="4.80" />
      <rect x="134.40" y="24.00" width="4.80" height="4.80" />
      <rect x="144.00" y="24.00" width="4.80" height="4.80" />
      <rect x="153.60" y="24.00" width="4.80" height="4.80" />
      <rect x="163.20" y="24.00" width="4.80" height="4.80" />
      <rect x="172.80" y="24.00" width="9.60" height="4.80" />
      <rect x="187.20" y="24.00" width="4.80" height="4.80" />
      <rect x="196.80" y="24.00" width="9.60" height="4.80" />
      <rect x="0.00" y="28.80" width="4.80" height="33.60" />
      <rect x="9.60" y="28.80" width="4.80" height="33.60" />
      <rect x="24.00" y="28.80" width="4.80" height="33.60" />
      <rect x="38.40" y="28.80" width="4.80" height="33.60" />
      <rect x="52.80" y="28.80" width="9.60" height="33.60" />
      <rect x="81.60" y="28.80" width="4.80" height="33.60" />
      <rect x="91.20" y="28.80" width="9.60" height="33.60" />
      <rect x="139.20" y="28.80" width="14.40" height="33.60" />
      <rect x="158.40" y="28.80" width="4.80" height="33.60" />
      <rect x="168.00" y="28.80" width="9.60" height="33.60" />
      <rect x="182.40" y="28.80" width="9.60" height="33.60" />
      <rect x="206.40" y="28.80" width="24.00" height="33.60" />
      <rect x="235.20" y="28.80" width="4.80" height="33.60" />
   </g>
</svg>
