<?xml version="1.0" standalone="no"?>
<!DOCTYPE svg PUBLIC "-//W3C//DTD SVG 1.1//EN" "http://www.w3.org/Graphics/SVG/1.1/DTD/svg11.dtd">
<svg width="241" height="63" version="1.1" xmlns="http://www.w3.org/2000/svg">
 <desc>Zint Generated Symbol</desc>
 <g id="barcode" fill="#000000">
  <rect x="0" y="0" width="241" height="63" fill="#FFFFFF"/>
  <path d="M4.8 0h4.8v24h-4.8ZM14.4 0h14.4v24h-14.4ZM48 0h14.4v24h-14.4ZM72 0h4.8v24h-4.8ZM81.6 0h4.8v24h-4.8ZM100.8 0h38.4v24h-38.4ZM148.8 0h4.8v24h-4.8ZM158.4 0h4.8v24h-4.8ZM168 0h4.8v24h-4.8ZM192 0h4.8v24h-4.8ZM211.2 0h14.4v24h-14.4ZM230.4 0h4.8v24h-4.8ZM28.8 24h9.6v4.8h-9.6ZM43.2 24h4.8v4.8h-4.8ZM62.4 24h9.6v4.8h-9.6ZM76.8 24h4.8v4.8h-4.8ZM86.4 24h4.8v4.8h-4.8ZM96 24h4.8v4.8h-4.8ZM105.6 24h4.8v4.8h-4.8ZM115.2 24h4.8v4.8h-4.8ZM124.8 24h4.8v4.8h-4.8ZM134.4 24h4.8v4.8h-4.8ZM144 24h4.8v4.8h-4.8ZM153.6 24h4.8v4.8h-4.8ZM163.2 24h4.8v4.8h-4.8ZM172.8 24h9.6v4.8h-9.6ZM187.2 24h4.8v4.8h-4.8ZM196.8 24h9.6v4.8h-9.6ZM0 28.8h4.8v33.6h-4.8ZM9.6 28.8h4.8v33.6h-4.8ZM24 28.8h4.8v33.6h-4.8ZM38.4 28.8h4.8v33.6h-4.8ZM52.8 28.8h9.6v33.6h-9.6ZM81.6 28.8h4.8v33.6h-4.8ZM91.2 28.8h9.6v33.6h-9.6ZM139.2 28.8h14.4v33.6h-14.4ZM158.4 28.8h4.8v33.6h-4.8ZM168 28.8h9.6v33.6h-9.6ZM182.4 28.8h9.6v33.6h-9.6ZM206.4 28.8h24v33.6h-24ZM235.2 28.8h4.8v33.6h-4.8Z"/>
 </g>
</svg>
