<?xml version="1.0" standalone="no"?>
<!DOCTYPE svg PUBLIC "-//W3C//DTD SVG 1.1//EN"
   "http://www.w3.org/Graphics/SVG/1.1/DTD/svg11.dtd">
<svg width="232" height="160" version="1.1"
   xmlns="http://www.w3.org/2000/svg">
   <desc>Zint Generated Symbol
   </desc>

   <g id="barcode" fill="#000000">
      <rect x="0" y="0" width="232" height="160" fill="#FFFFFF" />
      <circle cx="4.00" cy="4.00" r="3.20" />
      <circle cx="20.00" cy="4.00" r="3.20" />
      <circle cx="36.00" cy="4.00" r="3.20" />
      <circle cx="68.00" cy="4.00" r="3.20" />
      <circle cx="84.00" cy="4.00" r="3.20" />
      <circle cx="100.00" cy="4.00" r="3.20" />
      <circle cx="116.00" cy="4.00" r="3.20" />
      <circle cx="148.00" cy="4.00" r="3.20" />
      <circle cx="164.00" cy="4.00" r="3.20" />
      <circle cx="180.00" cy="4.00" r="3.20" />
      <circle cx="212.00" cy="4.00" r="3.20" />
      <circle cx="228.00" cy="4.00" r="3.20" />
      <circle cx="28.00" cy="12.00" r="3.20" />
      <circle cx="44.00" cy="12.00" r="3.20" />
      <circle cx="76.00" cy="12.00" r="3.20" />
      <circle cx="92.00" cy="12.00" r="3.20" />
      <circle cx="124.00" cy="12.00" r="3.20" />
      <circle cx="140.00" cy="12.00" r="3.20" />
      <circle cx="204.00" cy="12.00" r="3.20" />
      <circle cx="220.00" cy="12.00" r="3.20" />
      <circle cx="36.00" cy="20.00" r="3.20" />
      <circle cx="52.00" cy="20.00" r="3.20" />
      <circle cx="68.00" cy="20.00" r="3.20" />
      <circle cx="100.00" cy="20.00" r="3.20" />
      <circle cx="164.00" cy="20.00" r="3.20" />
      <circle cx="180.00" cy="20.00" r="3.20" />
      <circle cx="196.00" cy="20.00" r="3.20" />
      <circle cx="12.00" cy="28.00" r="3.20" />
      <circle cx="60.00" cy="28.00" r="3.20" />
      <circle cx="76.00" cy="28.00" r="3.20" />
      <circle cx="92.00" cy="28.00" r="3.20" />
      <circle cx="108.00" cy="28.00" r="3.20" />
      <circle cx="124.00" cy="28.00" r="3.20" />
      <circle cx="140.00" cy="28.00" r="3.20" />
      <circle cx="156.00" cy="28.00" r="3.20" />
      <circle cx="172.00" cy="28.00" r="3.20" />
      <circle cx="188.00" cy="28.00" r="3.20" />
      <circle cx="204.00" cy="28.00" r="3.20" />
      <circle cx="4.00" cy="36.00" r="3.20" />
      <circle cx="20.00" cy="36.00" r="3.20" />
      <circle cx="36.00" cy="36.00" r="3.20" />
      <circle cx="52.00" cy="36.00" r="3.20" />
      <circle cx="68.00" cy="36.00" r="3.20" />
      <circle cx="148.00" cy="36.00" r="3.20" />
      <circle cx="164.00" cy="36.00" r="3.20" />
      <circle cx="196.00" cy="36.00" r="3.20" />
      <circle cx="212.00" cy="36.00" r="3.20" />
      <circle cx="228.00" cy="36.00" r="3.20" />
      <circle cx="12.00" cy="44.00" r="3.20" />
      <circle cx="44.00" cy="44.00" r="3.20" />
      <circle cx="140.00" cy="44.00" r="3.20" />
      <circle cx="156.00" cy="44.00" r="3.20" />
      <circle cx="172.00" cy="44.00" r="3.20" />
      <circle cx="188.00" cy="44.00" r="3.20" />
      <circle cx="204.00" cy="44.00" r="3.20" />
      <circle cx="220.00" cy="44.00" r="3.20" />
      <circle cx="20.00" cy="52.00" r="3.20" />
      <circle cx="52.00" cy="52.00" r="3.20" />
      <circle cx="84.00" cy="52.00" r="3.20" />
      <circle cx="100.00" cy="52.00" r="3.20" />
      <circle cx="116.00" cy="52.00" r="3.20" />
      <circle cx="132.00" cy="52.00" r="3.20" />
      <circle cx="164.00" cy="52.00" r="3.20" />
      <circle cx="212.00" cy="52.00" r="3.20" />
      <circle cx="228.00" cy="52.00" r="3.20" />
      <circle cx="44.00" cy="60.00" r="3.20" />
      <circle cx="60.00" cy="60.00" r="3.20" />
      <circle cx="76.00" cy="60.00" r="3.20" />
      <circle cx="156.00" cy="60.00" r="3.20" />
      <circle cx="172.00" cy="60.00" r="3.20" />
      <circle cx="220.00" cy="60.00" r="3.20" />
      <circle cx="4.00" cy="68.00" r="3.20" />
      <circle cx="36.00" cy="68.00" r="3.20" />
      <circle cx="52.00" cy="68.00" r="3.20" />
      <circle cx="68.00" cy="68.00" r="3.20" />
      <circle cx="100.00" cy="68.00" r="3.20" />
      <circle cx="116.00" cy="68.00" r="3.20" />
      <circle cx="132.00" cy="68.00" r="3.20" />
      <circle cx="148.00" cy="68.00" r="3.20" />
      <circle cx="180.00" cy="68.00" r="3.20" />
      <circle cx="196.00" cy="68.00" r="3.20" />
      <circle cx="212.00" cy="68.00" r="3.20" />
      <circle cx="12.00" cy="76.00" r="3.20" />
      <circle cx="28.00" cy="76.00" r="3.20" />
      <circle cx="124.00" cy="76.00" r="3.20" />
      <circle cx="188.00" cy="76.00" r="3.20" />
      <circle cx="220.00" cy="76.00" r="3.20" />
      <circle cx="20.00" cy="84.00" r="3.20" />
      <circle cx="100.00" cy="84.00" r="3.20" />
      <circle cx="116.00" cy="84.00" r="3.20" />
      <circle cx="164.00" cy="84.00" r="3.20" />
      <circle cx="28.00" cy="92.00" r="3.20" />
      <circle cx="92.00" cy="92.00" r="3.20" />
      <circle cx="108.00" cy="92.00" r="3.20" />
      <circle cx="156.00" cy="92.00" r="3.20" />
      <circle cx="204.00" cy="92.00" r="3.20" />
      <circle cx="4.00" cy="100.00" r="3.20" />
      <circle cx="20.00" cy="100.00" r="3.20" />
      <circle cx="36.00" cy="100.00" r="3.20" />
      <circle cx="68.00" cy="100.00" r="3.20" />
      <circle cx="84.00" cy="100.00" r="3.20" />
      <circle cx="132.00" cy="100.00" r="3.20" />
      <circle cx="148.00" cy="100.00" r="3.20" />
      <circle cx="180.00" cy="100.00" r="3.20" />
      <circle cx="196.00" cy="100.00" r="3.20" />
      <circle cx="228.00" cy="100.00" r="3.20" />
      <circle cx="12.00" cy="108.00" r="3.20" />
      <circle cx="28.00" cy="108.00" r="3.20" />
      <circle cx="60.00" cy="108.00" r="3.20" />
      <circle cx="76.00" cy="108.00" r="3.20" />
      <circle cx="108.00" cy="108.00" r="3.20" />
      <circle cx="124.00" cy="108.00" r="3.20" />
      <circle cx="140.00" cy="108.00" r="3.20" />
      <circle cx="156.00" cy="108.00" r="3.20" />
      <circle cx="220.00" cy="108.00" r="3.20" />
      <circle cx="36.00" cy="116.00" r="3.20" />
      <circle cx="84.00" cy="116.00" r="3.20" />
      <circle cx="100.00" cy="116.00" r="3.20" />
      <circle cx="132.00" cy="116.00" r="3.20" />
      <circle cx="148.00" cy="116.00" r="3.20" />
      <circle cx="164.00" cy="116.00" r="3.20" />
      <circle cx="212.00" cy="116.00" r="3.20" />
      <circle cx="228.00" cy="116.00" r="3.20" />
      <circle cx="12.00" cy="124.00" r="3.20" />
      <circle cx="44.00" cy="124.00" r="3.20" />
      <circle cx="76.00" cy="124.00" r="3.20" />
      <circle cx="92.00" cy="124.00" r="3.20" />
      <circle cx="172.00" cy="124.00" r="3.20" />
      <circle cx="188.00" cy="124.00" r="3.20" />
      <circle cx="220.00" cy="124.00" r="3.20" />
      <circle cx="4.00" cy="132.00" r="3.20" />
      <circle cx="20.00" cy="132.00" r="3.20" />
      <circle cx="52.00" cy="132.00" r="3.20" />
      <circle cx="100.00" cy="132.00" r="3.20" />
      <circle cx="116.00" cy="132.00" r="3.20" />
      <circle cx="132.00" cy="132.00" r="3.20" />
      <circle cx="164.00" cy="132.00" r="3.20" />
      <circle cx="180.00" cy="132.00" r="3.20" />
      <circle cx="196.00" cy="132.00" r="3.20" />
      <circle cx="228.00" cy="132.00" r="3.20" />
      <circle cx="28.00" cy="140.00" r="3.20" />
      <circle cx="44.00" cy="140.00" r="3.20" />
      <circle cx="60.00" cy="140.00" r="3.20" />
      <circle cx="108.00" cy="140.00" r="3.20" />
      <circle cx="124.00" cy="140.00" r="3.20" />
      <circle cx="140.00" cy="140.00" r="3.20" />
      <circle cx="172.00" cy="140.00" r="3.20" />
      <circle cx="188.00" cy="140.00" r="3.20" />
      <circle cx="220.00" cy="140.00" r="3.20" />
      <circle cx="4.00" cy="148.00" r="3.20" />
      <circle cx="52.00" cy="148.00" r="3.20" />
      <circle cx="68.00" cy="148.00" r="3.20" />
      <circle cx="84.00" cy="148.00" r="3.20" />
      <circle cx="116.00" cy="148.00" r="3.20" />
      <circle cx="180.00" cy="148.00" r="3.20" />
      <circle cx="228.00" cy="148.00" r="3.20" />
      <circle cx="12.00" cy="156.00" r="3.20" />
      <circle cx="44.00" cy="156.00" r="3.20" />
      <circle cx="76.00" cy="156.00" r="3.20" />
      <circle cx="92.00" cy="156.00" r="3.20" />
      <circle cx="108.00" cy="156.00" r="3.20" />
      <circle cx="124.00" cy="156.00" r="3.20" />
      <circle cx="188.00" cy="156.00" r="3.20" />
      <circle cx="204.00" cy="156.00" r="3.20" />
      <circle cx="220.00" cy="156.00" r="3.20" />
   </g>
</svg>
