<?xml version="1.0" standalone="no"?>
<!DOCTYPE svg PUBLIC "-//W3C//DTD SVG 1.1//EN"
   "http://www.w3.org/Graphics/SVG/1.1/DTD/svg11.dtd">
<svg width="1013" height="395" version="1.1"
   xmlns="http://www.w3.org/2000/svg">
   <desc>Zint Generated Symbol
   </desc>

   <g id="barcode" fill="#000000">
      <rect x="0" y="0" width="1013" height="395" fill="#FFFFFF" />
      <rect x="0.00" y="14.40" width="9.60" height="320.00" />
      <rect x="14.40" y="14.40" width="4.80" height="320.00" />
      <rect x="28.80" y="14.40" width="4.80" height="320.00" />
      <rect x="52.80" y="14.40" width="4.80" height="320.00" />
      <rect x="72.00" y="14.40" width="4.80" height="320.00" />
      <rect x="86.40" y="14.40" width="9.60" height="320.00" />
      <rect x="105.60" y="14.40" width="4.80" height="320.00" />
      <rect x="120.00" y="14.40" width="14.40" height="320.00" />
      <rect x="139.20" y="14.40" width="9.60" height="320.00" />
      <rect x="158.40" y="14.40" width="4.80" height="320.00" />
      <rect x="168.00" y="14.40" width="14.40" height="320.00" />
      <rect x="187.20" y="14.40" width="19.20" height="320.00" />
      <rect x="211.20" y="14.40" width="9.60" height="320.00" />
      <rect x="225.60" y="14.40" width="9.60" height="320.00" />
      <rect x="244.80" y="14.40" width="9.60" height="320.00" />
      <rect x="264.00" y="14.40" width="9.60" height="320.00" />
      <rect x="278.40" y="14.40" width="4.80" height="320.00" />
      <rect x="297.60" y="14.40" width="4.80" height="320.00" />
      <rect x="316.80" y="14.40" width="9.60" height="320.00" />
      <rect x="340.80" y="14.40" width="9.60" height="320.00" />
      <rect x="355.20" y="14.40" width="9.60" height="320.00" />
      <rect x="369.60" y="14.40" width="4.80" height="320.00" />
      <rect x="384.00" y="14.40" width="9.60" height="320.00" />
      <rect x="403.20" y="14.40" width="4.80" height="320.00" />
      <rect x="422.40" y="14.40" width="9.60" height="320.00" />
      <rect x="436.80" y="14.40" width="14.40" height="320.00" />
      <rect x="460.80" y="14.40" width="4.80" height="320.00" />
      <rect x="475.20" y="14.40" width="4.80" height="320.00" />
      <rect x="484.80" y="14.40" width="14.40" height="320.00" />
      <rect x="504.00" y="14.40" width="19.20" height="320.00" />
      <rect x="528.00" y="14.40" width="4.80" height="320.00" />
      <rect x="537.60" y="14.40" width="9.60" height="320.00" />
      <rect x="556.80" y="14.40" width="14.40" height="320.00" />
      <rect x="580.80" y="14.40" width="4.80" height="320.00" />
      <rect x="600.00" y="14.40" width="4.80" height="320.00" />
      <rect x="609.60" y="14.40" width="9.60" height="320.00" />
      <rect x="633.60" y="14.40" width="14.40" height="320.00" />
      <rect x="662.40" y="14.40" width="4.80" height="320.00" />
      <rect x="672.00" y="14.40" width="9.60" height="320.00" />
      <rect x="686.40" y="14.40" width="9.60" height="320.00" />
      <rect x="715.20" y="14.40" width="4.80" height="320.00" />
      <rect x="724.80" y="14.40" width="4.80" height="320.00" />
      <rect x="739.20" y="14.40" width="9.60" height="320.00" />
      <rect x="758.40" y="14.40" width="4.80" height="320.00" />
      <rect x="777.60" y="14.40" width="4.80" height="320.00" />
      <rect x="792.00" y="14.40" width="9.60" height="320.00" />
      <rect x="811.20" y="14.40" width="4.80" height="320.00" />
      <rect x="830.40" y="14.40" width="4.80" height="320.00" />
      <rect x="844.80" y="14.40" width="9.60" height="320.00" />
      <rect x="868.80" y="14.40" width="4.80" height="320.00" />
      <rect x="878.40" y="14.40" width="4.80" height="320.00" />
      <rect x="897.60" y="14.40" width="4.80" height="320.00" />
      <rect x="907.20" y="14.40" width="4.80" height="320.00" />
      <rect x="916.80" y="14.40" width="19.20" height="320.00" />
      <rect x="950.40" y="14.40" width="9.60" height="320.00" />
      <rect x="974.40" y="14.40" width="14.40" height="320.00" />
      <rect x="993.60" y="14.40" width="4.80" height="320.00" />
      <rect x="1003.20" y="14.40" width="9.60" height="320.00" />
      <rect x="0.00" y="0.00" width="1012.80" height="14.40" />
      <text x="506.40" y="368.00" text-anchor="middle"
         font-family="Helvetica, sans-serif" font-size="33.6" >
         0003 932 0621 9912 3456 78 101 040 9
      </text>
   </g>
</svg>
