<?xml version="1.0" standalone="no"?>
<!DOCTYPE svg PUBLIC "-//W3C//DTD SVG 1.1//EN"
   "http://www.w3.org/Graphics/SVG/1.1/DTD/svg11.dtd">
<svg width="254" height="92" version="1.1"
   xmlns="http://www.w3.org/2000/svg">
   <desc>Zint Generated Symbol
   </desc>

   <g id="barcode" fill="#000000">
      <rect x="0" y="0" width="254" height="92" fill="#FFFFFF" />
      <rect x="0.00" y="0.00" width="2.40" height="80.00" />
      <rect x="3.60" y="0.00" width="1.20" height="80.00" />
      <rect x="7.20" y="0.00" width="1.20" height="80.00" />
      <rect x="13.20" y="0.00" width="1.20" height="80.00" />
      <rect x="18.00" y="0.00" width="1.20" height="80.00" />
      <rect x="21.60" y="0.00" width="2.40" height="80.00" />
      <rect x="26.40" y="0.00" width="1.20" height="80.00" />
      <rect x="30.00" y="0.00" width="3.60" height="80.00" />
      <rect x="34.80" y="0.00" width="2.40" height="80.00" />
      <rect x="39.60" y="0.00" width="1.20" height="80.00" />
      <rect x="42.00" y="0.00" width="3.60" height="80.00" />
      <rect x="46.80" y="0.00" width="4.80" height="80.00" />
      <rect x="52.80" y="0.00" width="2.40" height="80.00" />
      <rect x="56.40" y="0.00" width="2.40" height="80.00" />
      <rect x="61.20" y="0.00" width="2.40" height="80.00" />
      <rect x="66.00" y="0.00" width="2.40" height="80.00" />
      <rect x="69.60" y="0.00" width="1.20" height="80.00" />
      <rect x="74.40" y="0.00" width="1.20" height="80.00" />
      <rect x="79.20" y="0.00" width="2.40" height="80.00" />
      <rect x="85.20" y="0.00" width="2.40" height="80.00" />
      <rect x="88.80" y="0.00" width="2.40" height="80.00" />
      <rect x="92.40" y="0.00" width="1.20" height="80.00" />
      <rect x="96.00" y="0.00" width="2.40" height="80.00" />
      <rect x="100.80" y="0.00" width="1.20" height="80.00" />
      <rect x="105.60" y="0.00" width="2.40" height="80.00" />
      <rect x="109.20" y="0.00" width="3.60" height="80.00" />
      <rect x="115.20" y="0.00" width="1.20" height="80.00" />
      <rect x="118.80" y="0.00" width="1.20" height="80.00" />
      <rect x="121.20" y="0.00" width="3.60" height="80.00" />
      <rect x="126.00" y="0.00" width="4.80" height="80.00" />
      <rect x="132.00" y="0.00" width="1.20" height="80.00" />
      <rect x="134.40" y="0.00" width="2.40" height="80.00" />
      <rect x="139.20" y="0.00" width="3.60" height="80.00" />
      <rect x="145.20" y="0.00" width="1.20" height="80.00" />
      <rect x="150.00" y="0.00" width="1.20" height="80.00" />
      <rect x="152.40" y="0.00" width="2.40" height="80.00" />
      <rect x="158.40" y="0.00" width="3.60" height="80.00" />
      <rect x="165.60" y="0.00" width="1.20" height="80.00" />
      <rect x="168.00" y="0.00" width="2.40" height="80.00" />
      <rect x="171.60" y="0.00" width="2.40" height="80.00" />
      <rect x="178.80" y="0.00" width="1.20" height="80.00" />
      <rect x="181.20" y="0.00" width="1.20" height="80.00" />
      <rect x="184.80" y="0.00" width="2.40" height="80.00" />
      <rect x="189.60" y="0.00" width="1.20" height="80.00" />
      <rect x="194.40" y="0.00" width="1.20" height="80.00" />
      <rect x="198.00" y="0.00" width="2.40" height="80.00" />
      <rect x="202.80" y="0.00" width="1.20" height="80.00" />
      <rect x="207.60" y="0.00" width="1.20" height="80.00" />
      <rect x="211.20" y="0.00" width="2.40" height="80.00" />
      <rect x="217.20" y="0.00" width="1.20" height="80.00" />
      <rect x="219.60" y="0.00" width="1.20" height="80.00" />
      <rect x="224.40" y="0.00" width="1.20" height="80.00" />
      <rect x="226.80" y="0.00" width="1.20" height="80.00" />
      <rect x="229.20" y="0.00" width="4.80" height="80.00" />
      <rect x="237.60" y="0.00" width="2.40" height="80.00" />
      <rect x="243.60" y="0.00" width="3.60" height="80.00" />
      <rect x="248.40" y="0.00" width="1.20" height="80.00" />
      <rect x="250.80" y="0.00" width="2.40" height="80.00" />
      <text x="126.60" y="89.24" text-anchor="middle"
         font-family="Helvetica, sans-serif" font-size="8.4" >
         0003 932 0621 9912 3456 78 101 040 9
      </text>
   </g>
</svg>
