<?xml version="1.0" standalone="no"?>
<!DOCTYPE svg PUBLIC "-//W3C//DTD SVG 1.1//EN" "http://www.w3.org/Graphics/SVG/1.1/DTD/svg11.dtd">
<svg width="1013" height="374" version="1.1" xmlns="http://www.w3.org/2000/svg">
 <desc>Zint Generated Symbol</desc>
 <g id="barcode" fill="#000000">
  <rect x="0" y="0" width="1013" height="374" fill="#FFFFFF"/>
  <path d="M0 14.4h9.6v320h-9.6ZM14.4 14.4h4.8v320h-4.8ZM28.8 14.4h4.8v320h-4.8ZM52.8 14.4h4.8v320h-4.8ZM72 14.4h4.8v320h-4.8ZM86.4 14.4h9.6v320h-9.6ZM105.6 14.4h4.8v320h-4.8ZM120 14.4h14.4v320h-14.4ZM139.2 14.4h9.6v320h-9.6ZM158.4 14.4h4.8v320h-4.8ZM168 14.4h14.4v320h-14.4ZM187.2 14.4h19.2v320h-19.2ZM211.2 14.4h9.6v320h-9.6ZM225.6 14.4h9.6v320h-9.6ZM244.8 14.4h9.6v320h-9.6ZM264 14.4h9.6v320h-9.6ZM278.4 14.4h4.8v320h-4.8ZM297.6 14.4h4.8v320h-4.8ZM316.8 14.4h9.6v320h-9.6ZM340.8 14.4h9.6v320h-9.6ZM355.2 14.4h9.6v320h-9.6ZM369.6 14.4h4.8v320h-4.8ZM384 14.4h9.6v320h-9.6ZM403.2 14.4h4.8v320h-4.8ZM422.4 14.4h9.6v320h-9.6ZM436.8 14.4h14.4v320h-14.4ZM460.8 14.4h4.8v320h-4.8ZM475.2 14.4h4.8v320h-4.8ZM484.8 14.4h14.4v320h-14.4ZM504 14.4h19.2v320h-19.2ZM528 14.4h4.8v320h-4.8ZM537.6 14.4h9.6v320h-9.6ZM556.8 14.4h14.4v320h-14.4ZM580.8 14.4h4.8v320h-4.8ZM600 14.4h4.8v320h-4.8ZM609.6 14.4h9.6v320h-9.6ZM633.6 14.4h14.4v320h-14.4ZM662.4 14.4h4.8v320h-4.8ZM672 14.4h9.6v320h-9.6ZM686.4 14.4h9.6v320h-9.6ZM715.2 14.4h4.8v320h-4.8ZM724.8 14.4h4.8v320h-4.8ZM739.2 14.4h9.6v320h-9.6ZM758.4 14.4h4.8v320h-4.8ZM777.6 14.4h4.8v320h-4.8ZM792 14.4h9.6v320h-9.6ZM811.2 14.4h4.8v320h-4.8ZM830.4 14.4h4.8v320h-4.8ZM844.8 14.4h9.6v320h-9.6ZM868.8 14.4h4.8v320h-4.8ZM878.4 14.4h4.8v320h-4.8ZM897.6 14.4h4.8v320h-4.8ZM907.2 14.4h4.8v320h-4.8ZM916.8 14.4h19.2v320h-19.2ZM950.4 14.4h9.6v320h-9.6ZM974.4 14.4h14.4v320h-14.4ZM993.6 14.4h4.8v320h-4.8ZM1003.2 14.4h9.6v320h-9.6ZM0 0h1012.8v14.4h-1012.8Z"/>
  <text x="506.4" y="366.43" text-anchor="middle" font-family="Arimo, Arial, sans-serif" font-size="33.6">
   0003 932 0621 9912 3456 78 101 040 9
  </text>
 </g>
</svg>
