<?xml version="1.0" standalone="no"?>
<!DOCTYPE svg PUBLIC "-//W3C//DTD SVG 1.1//EN"
   "http://www.w3.org/Graphics/SVG/1.1/DTD/svg11.dtd">
<svg width="562" height="391" version="1.1"
   xmlns="http://www.w3.org/2000/svg">
   <desc>Zint Generated Symbol
   </desc>

   <g id="barcode" fill="#000000">
      <rect x="0" y="0" width="562" height="391" fill="#FFFFFF" />
      <rect x="0.00" y="0.00" width="4.80" height="345.60" />
      <rect x="9.60" y="0.00" width="4.80" height="345.60" />
      <rect x="19.20" y="0.00" width="4.80" height="345.60" />
      <rect x="38.40" y="0.00" width="14.40" height="345.60" />
      <rect x="57.60" y="0.00" width="4.80" height="345.60" />
      <rect x="67.20" y="0.00" width="14.40" height="345.60" />
      <rect x="86.40" y="0.00" width="4.80" height="345.60" />
      <rect x="105.60" y="0.00" width="4.80" height="345.60" />
      <rect x="124.80" y="0.00" width="14.40" height="345.60" />
      <rect x="153.60" y="0.00" width="4.80" height="345.60" />
      <rect x="163.20" y="0.00" width="4.80" height="345.60" />
      <rect x="172.80" y="0.00" width="14.40" height="345.60" />
      <rect x="192.00" y="0.00" width="4.80" height="345.60" />
      <rect x="201.60" y="0.00" width="14.40" height="345.60" />
      <rect x="220.80" y="0.00" width="4.80" height="345.60" />
      <rect x="240.00" y="0.00" width="4.80" height="345.60" />
      <rect x="259.20" y="0.00" width="14.40" height="345.60" />
      <rect x="278.40" y="0.00" width="4.80" height="345.60" />
      <rect x="288.00" y="0.00" width="14.40" height="345.60" />
      <rect x="316.80" y="0.00" width="4.80" height="345.60" />
      <rect x="336.00" y="0.00" width="14.40" height="345.60" />
      <rect x="355.20" y="0.00" width="4.80" height="345.60" />
      <rect x="364.80" y="0.00" width="4.80" height="345.60" />
      <rect x="384.00" y="0.00" width="4.80" height="345.60" />
      <rect x="393.60" y="0.00" width="4.80" height="345.60" />
      <rect x="403.20" y="0.00" width="14.40" height="345.60" />
      <rect x="422.40" y="0.00" width="14.40" height="345.60" />
      <rect x="451.20" y="0.00" width="4.80" height="345.60" />
      <rect x="460.80" y="0.00" width="14.40" height="345.60" />
      <rect x="480.00" y="0.00" width="4.80" height="345.60" />
      <rect x="489.60" y="0.00" width="4.80" height="345.60" />
      <rect x="508.80" y="0.00" width="14.40" height="345.60" />
      <rect x="537.60" y="0.00" width="14.40" height="345.60" />
      <rect x="556.80" y="0.00" width="4.80" height="345.60" />
      <text x="280.80" y="379.20" text-anchor="middle"
         font-family="Helvetica, sans-serif" font-size="33.6" >
         91.23 2.096.712 7
      </text>
   </g>
</svg>
