<?xml version="1.0" standalone="no"?>
<!DOCTYPE svg PUBLIC "-//W3C//DTD SVG 1.1//EN" "http://www.w3.org/Graphics/SVG/1.1/DTD/svg11.dtd">
<svg width="562" height="385" version="1.1" xmlns="http://www.w3.org/2000/svg">
 <desc>Zint Generated Symbol</desc>
 <g id="barcode" fill="#000000">
  <rect x="0" y="0" width="562" height="385" fill="#FFFFFF"/>
  <path d="M0 0h4.8v345.6h-4.8ZM9.6 0h4.8v345.6h-4.8ZM19.2 0h4.8v345.6h-4.8ZM38.4 0h14.4v345.6h-14.4ZM57.6 0h4.8v345.6h-4.8ZM67.2 0h14.4v345.6h-14.4ZM86.4 0h4.8v345.6h-4.8ZM105.6 0h4.8v345.6h-4.8ZM124.8 0h14.4v345.6h-14.4ZM153.6 0h4.8v345.6h-4.8ZM163.2 0h4.8v345.6h-4.8ZM172.8 0h14.4v345.6h-14.4ZM192 0h4.8v345.6h-4.8ZM201.6 0h14.4v345.6h-14.4ZM220.8 0h4.8v345.6h-4.8ZM240 0h4.8v345.6h-4.8ZM259.2 0h14.4v345.6h-14.4ZM278.4 0h4.8v345.6h-4.8ZM288 0h14.4v345.6h-14.4ZM316.8 0h4.8v345.6h-4.8ZM336 0h14.4v345.6h-14.4ZM355.2 0h4.8v345.6h-4.8ZM364.8 0h4.8v345.6h-4.8ZM384 0h4.8v345.6h-4.8ZM393.6 0h4.8v345.6h-4.8ZM403.2 0h14.4v345.6h-14.4ZM422.4 0h14.4v345.6h-14.4ZM451.2 0h4.8v345.6h-4.8ZM460.8 0h14.4v345.6h-14.4ZM480 0h4.8v345.6h-4.8ZM489.6 0h4.8v345.6h-4.8ZM508.8 0h14.4v345.6h-14.4ZM537.6 0h14.4v345.6h-14.4ZM556.8 0h4.8v345.6h-4.8Z"/>
  <text x="280.8" y="377.63" text-anchor="middle" font-family="Arimo, Arial, sans-serif" font-size="33.6">
   91.23 2.096.712 7
  </text>
 </g>
</svg>
