<?xml version="1.0" standalone="no"?>
<!DOCTYPE svg PUBLIC "-//W3C//DTD SVG 1.1//EN" "http://www.w3.org/Graphics/SVG/1.1/DTD/svg11.dtd">
<svg width="324" height="257" version="1.1" xmlns="http://www.w3.org/2000/svg">
 <desc>Zint Generated Symbol</desc>
 <g id="barcode" fill="#000000">
  <rect x="0" y="0" width="324" height="257" fill="#FFFFFF"/>
  <path d="M28 0h4v240.97h-4ZM36 0h4v240.97h-4ZM52 0h4v220.97h-4ZM60 0h8v220.97h-8ZM72 0h8v220.97h-8ZM92 0h4v220.97h-4ZM104 0h4v220.97h-4ZM116 0h8v220.97h-8ZM136 0h8v220.97h-8ZM148 0h4v220.97h-4ZM156 0h4v240.97h-4ZM164 0h4v240.97h-4ZM172 0h12v220.97h-12ZM192 0h4v220.97h-4ZM200 0h12v220.97h-12ZM220 0h4v220.97h-4ZM228 0h12v220.97h-12ZM248 0h4v220.97h-4ZM256 0h8v220.97h-8ZM268 0h8v220.97h-8ZM284 0h4v240.97h-4ZM292 0h4v240.97h-4Z"/>
  <text x="98" y="255.37" text-anchor="middle" font-family="OCRB, monospace" font-size="40">
   9520
  </text>
  <text x="226" y="255.37" text-anchor="middle" font-family="OCRB, monospace" font-size="40">
   0002
  </text>
 </g>
</svg>
