<?xml version="1.0" standalone="no"?>
<!DOCTYPE svg PUBLIC "-//W3C//DTD SVG 1.1//EN"
   "http://www.w3.org/Graphics/SVG/1.1/DTD/svg11.dtd">
<svg width="468" height="383" version="1.1"
   xmlns="http://www.w3.org/2000/svg">
   <desc>Zint Generated Symbol
   </desc>

   <g id="barcode" fill="#000000">
      <rect x="0" y="0" width="468" height="383" fill="#FFFFFF" />
      <rect x="44.00" y="0.00" width="8.00" height="8.00" />
      <rect x="60.00" y="0.00" width="4.00" height="16.00" />
      <rect x="76.00" y="0.00" width="4.00" height="48.00" />
      <rect x="84.00" y="0.00" width="12.00" height="8.00" />
      <rect x="100.00" y="0.00" width="20.00" height="8.00" />
      <rect x="124.00" y="0.00" width="12.00" height="8.00" />
      <rect x="140.00" y="0.00" width="4.00" height="8.00" />
      <rect x="152.00" y="0.00" width="8.00" height="8.00" />
      <rect x="172.00" y="0.00" width="12.00" height="8.00" />
      <rect x="196.00" y="0.00" width="8.00" height="8.00" />
      <rect x="208.00" y="0.00" width="4.00" height="8.00" />
      <rect x="220.00" y="0.00" width="4.00" height="48.00" />
      <rect x="228.00" y="0.00" width="8.00" height="8.00" />
      <rect x="244.00" y="0.00" width="12.00" height="32.00" />
      <rect x="260.00" y="0.00" width="8.00" height="16.00" />
      <rect x="276.00" y="0.00" width="4.00" height="8.00" />
      <rect x="288.00" y="0.00" width="4.00" height="8.00" />
      <rect x="300.00" y="0.00" width="8.00" height="8.00" />
      <rect x="328.00" y="0.00" width="8.00" height="16.00" />
      <rect x="352.00" y="0.00" width="4.00" height="8.00" />
      <rect x="360.00" y="0.00" width="8.00" height="8.00" />
      <rect x="380.00" y="0.00" width="12.00" height="8.00" />
      <rect x="396.00" y="0.00" width="8.00" height="8.00" />
      <rect x="412.00" y="0.00" width="4.00" height="16.00" />
      <rect x="428.00" y="0.00" width="4.00" height="48.00" />
      <rect x="436.00" y="0.00" width="4.00" height="48.00" />
      <rect x="44.00" y="8.00" width="12.00" height="16.00" />
      <rect x="84.00" y="8.00" width="4.00" height="40.00" />
      <rect x="92.00" y="8.00" width="4.00" height="8.00" />
      <rect x="108.00" y="8.00" width="20.00" height="8.00" />
      <rect x="136.00" y="8.00" width="8.00" height="8.00" />
      <rect x="152.00" y="8.00" width="24.00" height="8.00" />
      <rect x="180.00" y="8.00" width="12.00" height="8.00" />
      <rect x="196.00" y="8.00" width="4.00" height="8.00" />
      <rect x="212.00" y="8.00" width="4.00" height="16.00" />
      <rect x="232.00" y="8.00" width="4.00" height="8.00" />
      <rect x="276.00" y="8.00" width="8.00" height="8.00" />
      <rect x="288.00" y="8.00" width="16.00" height="8.00" />
      <rect x="316.00" y="8.00" width="4.00" height="8.00" />
      <rect x="340.00" y="8.00" width="4.00" height="8.00" />
      <rect x="364.00" y="8.00" width="12.00" height="8.00" />
      <rect x="388.00" y="8.00" width="4.00" height="8.00" />
      <rect x="396.00" y="8.00" width="12.00" height="16.00" />
      <rect x="60.00" y="16.00" width="8.00" height="16.00" />
      <rect x="96.00" y="16.00" width="16.00" height="8.00" />
      <rect x="116.00" y="16.00" width="4.00" height="8.00" />
      <rect x="124.00" y="16.00" width="4.00" height="8.00" />
      <rect x="152.00" y="16.00" width="4.00" height="8.00" />
      <rect x="160.00" y="16.00" width="16.00" height="8.00" />
      <rect x="188.00" y="16.00" width="4.00" height="8.00" />
      <rect x="232.00" y="16.00" width="8.00" height="8.00" />
      <rect x="260.00" y="16.00" width="4.00" height="16.00" />
      <rect x="268.00" y="16.00" width="20.00" height="8.00" />
      <rect x="292.00" y="16.00" width="12.00" height="8.00" />
      <rect x="308.00" y="16.00" width="8.00" height="8.00" />
      <rect x="328.00" y="16.00" width="4.00" height="8.00" />
      <rect x="336.00" y="16.00" width="8.00" height="8.00" />
      <rect x="356.00" y="16.00" width="8.00" height="8.00" />
      <rect x="376.00" y="16.00" width="16.00" height="16.00" />
      <rect x="412.00" y="16.00" width="8.00" height="16.00" />
      <rect x="44.00" y="24.00" width="8.00" height="24.00" />
      <rect x="100.00" y="24.00" width="12.00" height="8.00" />
      <rect x="120.00" y="24.00" width="12.00" height="8.00" />
      <rect x="144.00" y="24.00" width="4.00" height="8.00" />
      <rect x="152.00" y="24.00" width="12.00" height="8.00" />
      <rect x="172.00" y="24.00" width="4.00" height="8.00" />
      <rect x="188.00" y="24.00" width="8.00" height="8.00" />
      <rect x="200.00" y="24.00" width="16.00" height="8.00" />
      <rect x="236.00" y="24.00" width="4.00" height="16.00" />
      <rect x="276.00" y="24.00" width="4.00" height="8.00" />
      <rect x="284.00" y="24.00" width="4.00" height="8.00" />
      <rect x="304.00" y="24.00" width="4.00" height="8.00" />
      <rect x="328.00" y="24.00" width="12.00" height="16.00" />
      <rect x="348.00" y="24.00" width="4.00" height="8.00" />
      <rect x="360.00" y="24.00" width="8.00" height="8.00" />
      <rect x="396.00" y="24.00" width="8.00" height="24.00" />
      <rect x="56.00" y="32.00" width="12.00" height="8.00" />
      <rect x="96.00" y="32.00" width="8.00" height="8.00" />
      <rect x="108.00" y="32.00" width="20.00" height="8.00" />
      <rect x="140.00" y="32.00" width="4.00" height="8.00" />
      <rect x="152.00" y="32.00" width="4.00" height="16.00" />
      <rect x="160.00" y="32.00" width="4.00" height="8.00" />
      <rect x="176.00" y="32.00" width="16.00" height="8.00" />
      <rect x="212.00" y="32.00" width="4.00" height="8.00" />
      <rect x="248.00" y="32.00" width="8.00" height="16.00" />
      <rect x="260.00" y="32.00" width="20.00" height="8.00" />
      <rect x="284.00" y="32.00" width="8.00" height="8.00" />
      <rect x="300.00" y="32.00" width="4.00" height="8.00" />
      <rect x="308.00" y="32.00" width="4.00" height="8.00" />
      <rect x="360.00" y="32.00" width="4.00" height="8.00" />
      <rect x="368.00" y="32.00" width="8.00" height="8.00" />
      <rect x="388.00" y="32.00" width="4.00" height="8.00" />
      <rect x="408.00" y="32.00" width="12.00" height="8.00" />
      <rect x="56.00" y="40.00" width="16.00" height="8.00" />
      <rect x="96.00" y="40.00" width="4.00" height="8.00" />
      <rect x="112.00" y="40.00" width="8.00" height="8.00" />
      <rect x="128.00" y="40.00" width="20.00" height="8.00" />
      <rect x="160.00" y="40.00" width="8.00" height="8.00" />
      <rect x="180.00" y="40.00" width="4.00" height="8.00" />
      <rect x="200.00" y="40.00" width="12.00" height="8.00" />
      <rect x="236.00" y="40.00" width="8.00" height="8.00" />
      <rect x="260.00" y="40.00" width="4.00" height="8.00" />
      <rect x="268.00" y="40.00" width="8.00" height="8.00" />
      <rect x="280.00" y="40.00" width="8.00" height="8.00" />
      <rect x="308.00" y="40.00" width="16.00" height="8.00" />
      <rect x="328.00" y="40.00" width="8.00" height="8.00" />
      <rect x="348.00" y="40.00" width="12.00" height="8.00" />
      <rect x="368.00" y="40.00" width="4.00" height="8.00" />
      <rect x="376.00" y="40.00" width="12.00" height="8.00" />
      <rect x="408.00" y="40.00" width="16.00" height="8.00" />
      <rect x="56.00" y="48.00" width="4.00" height="8.00" />
      <rect x="432.00" y="48.00" width="4.00" height="8.00" />
      <rect x="52.00" y="56.00" width="4.00" height="8.00" />
      <rect x="436.00" y="56.00" width="4.00" height="8.00" />
      <rect x="56.00" y="64.00" width="4.00" height="304.97" />
      <rect x="432.00" y="64.00" width="4.00" height="304.97" />
      <rect x="64.00" y="72.00" width="4.00" height="296.97" />
      <rect x="72.00" y="72.00" width="16.00" height="276.97" />
      <rect x="92.00" y="72.00" width="4.00" height="276.97" />
      <rect x="104.00" y="72.00" width="8.00" height="276.97" />
      <rect x="120.00" y="72.00" width="4.00" height="276.97" />
      <rect x="132.00" y="72.00" width="8.00" height="276.97" />
      <rect x="144.00" y="72.00" width="8.00" height="276.97" />
      <rect x="156.00" y="72.00" width="4.00" height="276.97" />
      <rect x="176.00" y="72.00" width="4.00" height="276.97" />
      <rect x="188.00" y="72.00" width="12.00" height="276.97" />
      <rect x="204.00" y="72.00" width="4.00" height="276.97" />
      <rect x="212.00" y="72.00" width="8.00" height="276.97" />
      <rect x="232.00" y="72.00" width="4.00" height="276.97" />
      <rect x="240.00" y="72.00" width="4.00" height="296.97" />
      <rect x="248.00" y="72.00" width="4.00" height="296.97" />
      <rect x="256.00" y="72.00" width="4.00" height="276.97" />
      <rect x="264.00" y="72.00" width="4.00" height="276.97" />
      <rect x="284.00" y="72.00" width="4.00" height="276.97" />
      <rect x="300.00" y="72.00" width="4.00" height="276.97" />
      <rect x="312.00" y="72.00" width="4.00" height="276.97" />
      <rect x="324.00" y="72.00" width="4.00" height="276.97" />
      <rect x="340.00" y="72.00" width="12.00" height="276.97" />
      <rect x="356.00" y="72.00" width="4.00" height="276.97" />
      <rect x="368.00" y="72.00" width="12.00" height="276.97" />
      <rect x="388.00" y="72.00" width="4.00" height="276.97" />
      <rect x="396.00" y="72.00" width="4.00" height="276.97" />
      <rect x="416.00" y="72.00" width="4.00" height="276.97" />
      <rect x="424.00" y="72.00" width="4.00" height="296.97" />
      <text x="36.40" y="381.17" text-anchor="end"
         font-family="Helvetica, sans-serif" font-size="40.0" >
         3
      </text>
      <text x="154.00" y="381.17" text-anchor="middle"
         font-family="Helvetica, sans-serif" font-size="40.0" >
         312345
      </text>
      <text x="338.00" y="381.17" text-anchor="middle"
         font-family="Helvetica, sans-serif" font-size="40.0" >
         678903
      </text>
   </g>
</svg>
