<?xml version="1.0" standalone="no"?>
<!DOCTYPE svg PUBLIC "-//W3C//DTD SVG 1.1//EN" "http://www.w3.org/Graphics/SVG/1.1/DTD/svg11.dtd">
<svg width="532" height="257" version="1.1" xmlns="http://www.w3.org/2000/svg">
 <desc>Zint Generated Symbol</desc>
 <g id="barcode" fill="#000000">
  <rect x="0" y="0" width="532" height="257" fill="#FFFFFF"/>
  <path d="M28 0h4v240.97h-4ZM36 0h4v240.97h-4ZM44 0h12v220.97h-12ZM60 0h8v220.97h-8ZM72 0h4v220.97h-4ZM88 0h8v220.97h-8ZM100 0h16v220.97h-16ZM120 0h4v220.97h-4ZM132 0h4v220.97h-4ZM144 0h8v220.97h-8ZM156 0h4v240.97h-4ZM164 0h4v240.97h-4ZM172 0h4v220.97h-4ZM192 0h4v220.97h-4ZM200 0h4v220.97h-4ZM208 0h4v220.97h-4ZM228 0h4v220.97h-4ZM240 0h12v220.97h-12ZM256 0h4v220.97h-4ZM264 0h12v220.97h-12ZM284 0h4v240.97h-4ZM292 0h4v240.97h-4ZM324 36h4v204.97h-4ZM332 36h8v204.97h-8ZM344 36h12v204.97h-12ZM364 36h4v204.97h-4ZM372 36h4v204.97h-4ZM380 36h4v204.97h-4ZM396 36h8v204.97h-8ZM408 36h4v204.97h-4ZM416 36h4v204.97h-4ZM436 36h4v204.97h-4ZM444 36h4v204.97h-4ZM456 36h4v204.97h-4ZM468 36h8v204.97h-8ZM480 36h4v204.97h-4ZM492 36h8v204.97h-8ZM508 36h4v204.97h-4Z"/>
  <text x="98" y="255.37" text-anchor="middle" font-family="OCRB, monospace" font-size="40">
   7432
  </text>
  <text x="226" y="255.37" text-anchor="middle" font-family="OCRB, monospace" font-size="40">
   3654
  </text>
  <text x="420" y="31.2" text-anchor="middle" font-family="OCRB, monospace" font-size="40">
   54321
  </text>
 </g>
</svg>
