<?xml version="1.0" standalone="no"?>
<!DOCTYPE svg PUBLIC "-//W3C//DTD SVG 1.1//EN"
   "http://www.w3.org/Graphics/SVG/1.1/DTD/svg11.dtd">
<svg width="113" height="78" version="1.1"
   xmlns="http://www.w3.org/2000/svg">
   <desc>Zint Generated Symbol
   </desc>

   <g id="barcode" fill="#000000">
      <rect x="0" y="0" width="113" height="78" fill="#FFFFFF" />
      <rect x="11.00" y="0.00" width="1.00" height="74.24" />
      <rect x="13.00" y="0.00" width="1.00" height="74.24" />
      <rect x="15.00" y="0.00" width="2.00" height="69.24" />
      <rect x="20.00" y="0.00" width="1.00" height="69.24" />
      <rect x="22.00" y="0.00" width="2.00" height="69.24" />
      <rect x="26.00" y="0.00" width="2.00" height="69.24" />
      <rect x="30.00" y="0.00" width="1.00" height="69.24" />
      <rect x="33.00" y="0.00" width="2.00" height="69.24" />
      <rect x="36.00" y="0.00" width="4.00" height="69.24" />
      <rect x="41.00" y="0.00" width="1.00" height="69.24" />
      <rect x="44.00" y="0.00" width="3.00" height="69.24" />
      <rect x="48.00" y="0.00" width="1.00" height="69.24" />
      <rect x="50.00" y="0.00" width="3.00" height="69.24" />
      <rect x="55.00" y="0.00" width="1.00" height="69.24" />
      <rect x="57.00" y="0.00" width="1.00" height="74.24" />
      <rect x="59.00" y="0.00" width="1.00" height="74.24" />
      <rect x="61.00" y="0.00" width="1.00" height="69.24" />
      <rect x="63.00" y="0.00" width="1.00" height="69.24" />
      <rect x="68.00" y="0.00" width="1.00" height="69.24" />
      <rect x="72.00" y="0.00" width="1.00" height="69.24" />
      <rect x="75.00" y="0.00" width="1.00" height="69.24" />
      <rect x="78.00" y="0.00" width="1.00" height="69.24" />
      <rect x="82.00" y="0.00" width="3.00" height="69.24" />
      <rect x="86.00" y="0.00" width="1.00" height="69.24" />
      <rect x="89.00" y="0.00" width="3.00" height="69.24" />
      <rect x="94.00" y="0.00" width="1.00" height="69.24" />
      <rect x="96.00" y="0.00" width="1.00" height="69.24" />
      <rect x="98.00" y="0.00" width="1.00" height="69.24" />
      <rect x="103.00" y="0.00" width="1.00" height="74.24" />
      <rect x="105.00" y="0.00" width="1.00" height="74.24" />
      <text x="6.00" y="77.24" text-anchor="end"
         font-family="Helvetica, sans-serif" font-size="10.0" >
         4
      </text>
      <text x="35.00" y="77.24" text-anchor="middle"
         font-family="Helvetica, sans-serif" font-size="10.0" >
         512345
      </text>
      <text x="82.00" y="77.24" text-anchor="middle"
         font-family="Helvetica, sans-serif" font-size="10.0" >
         678906
      </text>
   </g>
</svg>
