<?xml version="1.0" standalone="no"?>
<!DOCTYPE svg PUBLIC "-//W3C//DTD SVG 1.1//EN" "http://www.w3.org/Graphics/SVG/1.1/DTD/svg11.dtd">
<svg width="452" height="361" version="1.1" xmlns="http://www.w3.org/2000/svg">
 <desc>Zint Generated Symbol</desc>
 <g id="barcode" fill="#000000">
  <rect x="0" y="0" width="452" height="361" fill="#FFFFFF"/>
  <path d="M32 0h8v24h-8ZM44 0h8v24h-8ZM56 0h12v8h-12ZM72 0h12v16h-12ZM92 0h8v8h-8ZM104 0h12v8h-12ZM120 0h16v8h-16ZM140 0h4v8h-4ZM156 0h4v8h-4ZM164 0h4v8h-4ZM192 0h4v8h-4ZM208 0h4v24h-4ZM220 0h12v8h-12ZM236 0h4v16h-4ZM248 0h12v8h-12ZM264 0h8v8h-8ZM276 0h4v8h-4ZM284 0h8v8h-8ZM316 0h8v16h-8ZM332 0h8v8h-8ZM348 0h4v8h-4ZM368 0h4v8h-4ZM384 0h8v16h-8ZM396 0h8v8h-8ZM416 0h4v24h-4ZM424 0h4v24h-4ZM56 8h8v8h-8ZM96 8h4v8h-4ZM108 8h12v8h-12ZM124 8h8v8h-8ZM140 8h20v8h-20ZM172 8h4v8h-4ZM188 8h4v8h-4ZM196 8h8v8h-8ZM220 8h8v16h-8ZM248 8h4v16h-4ZM268 8h8v8h-8ZM280 8h4v8h-4ZM288 8h24v8h-24ZM328 8h4v8h-4ZM336 8h12v8h-12ZM360 8h4v8h-4ZM400 8h4v16h-4ZM56 16h4v8h-4ZM72 16h4v8h-4ZM88 16h4v8h-4ZM96 16h12v8h-12ZM112 16h24v8h-24ZM140 16h8v8h-8ZM156 16h12v8h-12ZM176 16h4v8h-4ZM192 16h12v8h-12ZM236 16h8v8h-8ZM276 16h12v8h-12ZM292 16h4v8h-4ZM300 16h8v8h-8ZM316 16h4v8h-4ZM324 16h16v8h-16ZM352 16h4v8h-4ZM364 16h4v8h-4ZM384 16h12v8h-12ZM44 24h4v8h-4ZM420 24h4v8h-4ZM40 32h4v8h-4ZM424 32h4v8h-4ZM44 40h4v304.97h-4ZM420 40h4v304.97h-4ZM52 48h4v296.97h-4ZM60 48h16v276.97h-16ZM80 48h4v276.97h-4ZM92 48h8v276.97h-8ZM108 48h4v276.97h-4ZM120 48h8v276.97h-8ZM132 48h8v276.97h-8ZM144 48h4v276.97h-4ZM164 48h4v276.97h-4ZM176 48h12v276.97h-12ZM192 48h4v276.97h-4ZM200 48h8v276.97h-8ZM220 48h4v276.97h-4ZM228 48h4v296.97h-4ZM236 48h4v296.97h-4ZM244 48h4v276.97h-4ZM252 48h4v276.97h-4ZM272 48h4v276.97h-4ZM288 48h4v276.97h-4ZM300 48h4v276.97h-4ZM312 48h4v276.97h-4ZM328 48h12v276.97h-12ZM344 48h4v276.97h-4ZM356 48h12v276.97h-12ZM376 48h4v276.97h-4ZM384 48h4v276.97h-4ZM404 48h4v276.97h-4ZM412 48h4v296.97h-4Z"/>
  <text x="24.4" y="359.37" text-anchor="end" font-family="OCRB, monospace" font-size="40">
   3
  </text>
  <text x="142" y="359.37" text-anchor="middle" font-family="OCRB, monospace" font-size="40">
   312345
  </text>
  <text x="326" y="359.37" text-anchor="middle" font-family="OCRB, monospace" font-size="40">
   678903
  </text>
 </g>
</svg>
