<?xml version="1.0" standalone="no"?>
<!DOCTYPE svg PUBLIC "-//W3C//DTD SVG 1.1//EN"
   "http://www.w3.org/Graphics/SVG/1.1/DTD/svg11.dtd">
<svg width="452" height="311" version="1.1"
   xmlns="http://www.w3.org/2000/svg">
   <desc>Zint Generated Symbol
   </desc>

   <g id="barcode" fill="#000000">
      <rect x="0" y="0" width="452" height="311" fill="#FFFFFF" />
      <rect x="44.00" y="0.00" width="4.00" height="296.97" />
      <rect x="52.00" y="0.00" width="4.00" height="296.97" />
      <rect x="60.00" y="0.00" width="8.00" height="276.97" />
      <rect x="80.00" y="0.00" width="4.00" height="276.97" />
      <rect x="88.00" y="0.00" width="8.00" height="276.97" />
      <rect x="104.00" y="0.00" width="8.00" height="276.97" />
      <rect x="120.00" y="0.00" width="4.00" height="276.97" />
      <rect x="132.00" y="0.00" width="8.00" height="276.97" />
      <rect x="144.00" y="0.00" width="16.00" height="276.97" />
      <rect x="164.00" y="0.00" width="4.00" height="276.97" />
      <rect x="176.00" y="0.00" width="12.00" height="276.97" />
      <rect x="192.00" y="0.00" width="4.00" height="276.97" />
      <rect x="200.00" y="0.00" width="12.00" height="276.97" />
      <rect x="220.00" y="0.00" width="4.00" height="276.97" />
      <rect x="228.00" y="0.00" width="4.00" height="296.97" />
      <rect x="236.00" y="0.00" width="4.00" height="296.97" />
      <rect x="244.00" y="0.00" width="4.00" height="276.97" />
      <rect x="252.00" y="0.00" width="4.00" height="276.97" />
      <rect x="272.00" y="0.00" width="4.00" height="276.97" />
      <rect x="288.00" y="0.00" width="4.00" height="276.97" />
      <rect x="300.00" y="0.00" width="4.00" height="276.97" />
      <rect x="312.00" y="0.00" width="4.00" height="276.97" />
      <rect x="328.00" y="0.00" width="12.00" height="276.97" />
      <rect x="344.00" y="0.00" width="4.00" height="276.97" />
      <rect x="356.00" y="0.00" width="12.00" height="276.97" />
      <rect x="376.00" y="0.00" width="4.00" height="276.97" />
      <rect x="384.00" y="0.00" width="4.00" height="276.97" />
      <rect x="392.00" y="0.00" width="4.00" height="276.97" />
      <rect x="412.00" y="0.00" width="4.00" height="296.97" />
      <rect x="420.00" y="0.00" width="4.00" height="296.97" />
      <text x="24.40" y="309.17" text-anchor="end"
         font-family="Helvetica, sans-serif" font-size="40.0" >
         4
      </text>
      <text x="142.00" y="309.17" text-anchor="middle"
         font-family="Helvetica, sans-serif" font-size="40.0" >
         512345
      </text>
      <text x="326.00" y="309.17" text-anchor="middle"
         font-family="Helvetica, sans-serif" font-size="40.0" >
         678906
      </text>
   </g>
</svg>
