<?xml version="1.0" standalone="no"?>
<!DOCTYPE svg PUBLIC "-//W3C//DTD SVG 1.1//EN" "http://www.w3.org/Graphics/SVG/1.1/DTD/svg11.dtd">
<svg width="994" height="280" version="1.1" xmlns="http://www.w3.org/2000/svg">
 <desc>Zint Generated Symbol</desc>
 <g id="barcode" fill="#000000">
  <rect x="0" y="0" width="994" height="280" fill="#FFFFFF"/>
  <path d="M0 0h4.8v240h-4.8ZM14.4 0h4.8v240h-4.8ZM24 0h9.6v240h-9.6ZM38.4 0h9.6v240h-9.6ZM52.8 0h4.8v240h-4.8ZM62.4 0h9.6v240h-9.6ZM76.8 0h4.8v240h-4.8ZM91.2 0h4.8v240h-4.8ZM100.8 0h4.8v240h-4.8ZM110.4 0h9.6v240h-9.6ZM124.8 0h4.8v240h-4.8ZM134.4 0h9.6v240h-9.6ZM153.6 0h4.8v240h-4.8ZM163.2 0h4.8v240h-4.8ZM172.8 0h9.6v240h-9.6ZM187.2 0h9.6v240h-9.6ZM201.6 0h9.6v240h-9.6ZM220.8 0h4.8v240h-4.8ZM230.4 0h4.8v240h-4.8ZM240 0h4.8v240h-4.8ZM249.6 0h9.6v240h-9.6ZM268.8 0h4.8v240h-4.8ZM278.4 0h4.8v240h-4.8ZM288 0h9.6v240h-9.6ZM302.4 0h4.8v240h-4.8ZM312 0h4.8v240h-4.8ZM321.6 0h4.8v240h-4.8ZM336 0h9.6v240h-9.6ZM350.4 0h4.8v240h-4.8ZM360 0h9.6v240h-9.6ZM374.4 0h9.6v240h-9.6ZM388.8 0h4.8v240h-4.8ZM403.2 0h9.6v240h-9.6ZM417.6 0h4.8v240h-4.8ZM427.2 0h4.8v240h-4.8ZM436.8 0h4.8v240h-4.8ZM451.2 0h4.8v240h-4.8ZM465.6 0h4.8v240h-4.8ZM475.2 0h4.8v240h-4.8ZM489.6 0h4.8v240h-4.8ZM499.2 0h9.6v240h-9.6ZM513.6 0h9.6v240h-9.6ZM528 0h4.8v240h-4.8ZM542.4 0h4.8v240h-4.8ZM552 0h4.8v240h-4.8ZM561.6 0h4.8v240h-4.8ZM571.2 0h4.8v240h-4.8ZM585.6 0h4.8v240h-4.8ZM600 0h4.8v240h-4.8ZM614.4 0h4.8v240h-4.8ZM624 0h4.8v240h-4.8ZM638.4 0h9.6v240h-9.6ZM652.8 0h4.8v240h-4.8ZM662.4 0h4.8v240h-4.8ZM672 0h9.6v240h-9.6ZM686.4 0h4.8v240h-4.8ZM700.8 0h4.8v240h-4.8ZM710.4 0h4.8v240h-4.8ZM724.8 0h4.8v240h-4.8ZM739.2 0h4.8v240h-4.8ZM748.8 0h4.8v240h-4.8ZM758.4 0h9.6v240h-9.6ZM772.8 0h9.6v240h-9.6ZM792 0h4.8v240h-4.8ZM801.6 0h4.8v240h-4.8ZM811.2 0h4.8v240h-4.8ZM825.6 0h4.8v240h-4.8ZM835.2 0h4.8v240h-4.8ZM849.6 0h4.8v240h-4.8ZM864 0h4.8v240h-4.8ZM873.6 0h4.8v240h-4.8ZM883.2 0h4.8v240h-4.8ZM892.8 0h9.6v240h-9.6ZM912 0h4.8v240h-4.8ZM921.6 0h9.6v240h-9.6ZM936 0h4.8v240h-4.8ZM950.4 0h4.8v240h-4.8ZM960 0h9.6v240h-9.6ZM974.4 0h9.6v240h-9.6ZM988.8 0h4.8v240h-4.8Z"/>
  <text x="496.8" y="272.03" text-anchor="middle" font-family="Arimo, Arial, sans-serif" font-size="33.6">
   123.45#@fd
  </text>
 </g>
</svg>
