<?xml version="1.0" standalone="no"?>
<!DOCTYPE svg PUBLIC "-//W3C//DTD SVG 1.1//EN"
   "http://www.w3.org/Graphics/SVG/1.1/DTD/svg11.dtd">
<svg width="744" height="286" version="1.1"
   xmlns="http://www.w3.org/2000/svg">
   <desc>Zint Generated Symbol
   </desc>

   <g id="barcode" fill="#000000">
      <rect x="0" y="0" width="744" height="286" fill="#FFFFFF" />
      <rect x="0.00" y="0.00" width="4.80" height="240.00" />
      <rect x="14.40" y="0.00" width="4.80" height="240.00" />
      <rect x="24.00" y="0.00" width="9.60" height="240.00" />
      <rect x="38.40" y="0.00" width="9.60" height="240.00" />
      <rect x="52.80" y="0.00" width="4.80" height="240.00" />
      <rect x="62.40" y="0.00" width="9.60" height="240.00" />
      <rect x="76.80" y="0.00" width="4.80" height="240.00" />
      <rect x="91.20" y="0.00" width="4.80" height="240.00" />
      <rect x="100.80" y="0.00" width="4.80" height="240.00" />
      <rect x="110.40" y="0.00" width="9.60" height="240.00" />
      <rect x="124.80" y="0.00" width="4.80" height="240.00" />
      <rect x="134.40" y="0.00" width="9.60" height="240.00" />
      <rect x="153.60" y="0.00" width="4.80" height="240.00" />
      <rect x="163.20" y="0.00" width="4.80" height="240.00" />
      <rect x="172.80" y="0.00" width="9.60" height="240.00" />
      <rect x="187.20" y="0.00" width="9.60" height="240.00" />
      <rect x="201.60" y="0.00" width="9.60" height="240.00" />
      <rect x="220.80" y="0.00" width="4.80" height="240.00" />
      <rect x="230.40" y="0.00" width="4.80" height="240.00" />
      <rect x="240.00" y="0.00" width="4.80" height="240.00" />
      <rect x="249.60" y="0.00" width="9.60" height="240.00" />
      <rect x="268.80" y="0.00" width="4.80" height="240.00" />
      <rect x="278.40" y="0.00" width="4.80" height="240.00" />
      <rect x="288.00" y="0.00" width="9.60" height="240.00" />
      <rect x="302.40" y="0.00" width="4.80" height="240.00" />
      <rect x="312.00" y="0.00" width="4.80" height="240.00" />
      <rect x="321.60" y="0.00" width="4.80" height="240.00" />
      <rect x="336.00" y="0.00" width="9.60" height="240.00" />
      <rect x="350.40" y="0.00" width="4.80" height="240.00" />
      <rect x="360.00" y="0.00" width="9.60" height="240.00" />
      <rect x="374.40" y="0.00" width="9.60" height="240.00" />
      <rect x="388.80" y="0.00" width="4.80" height="240.00" />
      <rect x="403.20" y="0.00" width="9.60" height="240.00" />
      <rect x="417.60" y="0.00" width="4.80" height="240.00" />
      <rect x="427.20" y="0.00" width="4.80" height="240.00" />
      <rect x="436.80" y="0.00" width="4.80" height="240.00" />
      <rect x="451.20" y="0.00" width="4.80" height="240.00" />
      <rect x="460.80" y="0.00" width="4.80" height="240.00" />
      <rect x="475.20" y="0.00" width="4.80" height="240.00" />
      <rect x="489.60" y="0.00" width="4.80" height="240.00" />
      <rect x="499.20" y="0.00" width="4.80" height="240.00" />
      <rect x="508.80" y="0.00" width="9.60" height="240.00" />
      <rect x="523.20" y="0.00" width="9.60" height="240.00" />
      <rect x="542.40" y="0.00" width="4.80" height="240.00" />
      <rect x="552.00" y="0.00" width="4.80" height="240.00" />
      <rect x="561.60" y="0.00" width="4.80" height="240.00" />
      <rect x="576.00" y="0.00" width="4.80" height="240.00" />
      <rect x="585.60" y="0.00" width="4.80" height="240.00" />
      <rect x="600.00" y="0.00" width="4.80" height="240.00" />
      <rect x="614.40" y="0.00" width="4.80" height="240.00" />
      <rect x="624.00" y="0.00" width="4.80" height="240.00" />
      <rect x="633.60" y="0.00" width="4.80" height="240.00" />
      <rect x="643.20" y="0.00" width="9.60" height="240.00" />
      <rect x="662.40" y="0.00" width="4.80" height="240.00" />
      <rect x="672.00" y="0.00" width="9.60" height="240.00" />
      <rect x="686.40" y="0.00" width="4.80" height="240.00" />
      <rect x="700.80" y="0.00" width="4.80" height="240.00" />
      <rect x="710.40" y="0.00" width="9.60" height="240.00" />
      <rect x="724.80" y="0.00" width="9.60" height="240.00" />
      <rect x="739.20" y="0.00" width="4.80" height="240.00" />
      <text x="372.00" y="273.60" text-anchor="middle"
         font-family="Helvetica, sans-serif" font-size="33.6" >
         123.45fd
      </text>
   </g>
</svg>
