<?xml version="1.0" standalone="no"?>
<!DOCTYPE svg PUBLIC "-//W3C//DTD SVG 1.1//EN" "http://www.w3.org/Graphics/SVG/1.1/DTD/svg11.dtd">
<svg width="432" height="432" version="1.1" xmlns="http://www.w3.org/2000/svg">
 <desc>Zint Generated Symbol</desc>
 <g id="barcode" fill="#000000">
  <rect x="0" y="0" width="432" height="432" fill="#FFFFFF"/>
  <path d="M0 0h48v8h-48ZM96 0h48v8h-48ZM192 0h48v8h-48ZM288 0h48v8h-48ZM384 0h48v8h-48ZM0 8h16v16h-16ZM24 8h24v8h-24ZM56 8h8v8h-8ZM96 8h16v8h-16ZM120 8h24v8h-24ZM152 8h8v8h-8ZM192 8h16v8h-16ZM216 8h24v8h-24ZM248 8h8v8h-8ZM288 8h16v8h-16ZM312 8h24v8h-24ZM344 8h8v8h-8ZM384 8h16v8h-16ZM408 8h24v8h-24ZM32 16h16v24h-16ZM96 16h48v8h-48ZM192 16h48v8h-48ZM288 16h48v8h-48ZM384 16h48v8h-48ZM0 24h8v8h-8ZM16 24h8v8h-8ZM64 24h24v8h-24ZM96 24h8v8h-8ZM112 24h16v8h-16ZM136 24h8v8h-8ZM160 24h24v8h-24ZM192 24h8v8h-8ZM208 24h32v8h-32ZM264 24h8v8h-8ZM288 24h8v8h-8ZM312 24h24v8h-24ZM352 24h24v8h-24ZM384 24h8v16h-8ZM400 24h8v8h-8ZM424 24h8v16h-8ZM0 32h24v8h-24ZM56 32h24v8h-24ZM96 32h48v16h-48ZM160 32h16v8h-16ZM192 32h24v8h-24ZM224 32h16v8h-16ZM248 32h16v8h-16ZM272 32h8v8h-8ZM288 32h16v8h-16ZM320 32h16v8h-16ZM344 32h8v8h-8ZM360 32h8v8h-8ZM400 32h16v8h-16ZM0 40h48v8h-48ZM192 40h48v8h-48ZM288 40h48v8h-48ZM384 40h48v8h-48ZM48 48h48v8h-48ZM144 48h48v8h-48ZM240 48h48v8h-48ZM336 48h48v8h-48ZM8 56h8v8h-8ZM48 56h8v8h-8ZM64 56h32v8h-32ZM112 56h8v8h-8ZM144 56h8v8h-8ZM160 56h32v8h-32ZM208 56h8v8h-8ZM240 56h8v8h-8ZM256 56h32v8h-32ZM304 56h8v8h-8ZM336 56h8v8h-8ZM352 56h32v8h-32ZM392 56h8v16h-8ZM408 56h16v16h-16ZM8 64h32v8h-32ZM48 64h48v8h-48ZM144 64h48v8h-48ZM240 64h48v8h-48ZM336 64h48v8h-48ZM16 72h16v8h-16ZM48 72h8v16h-8ZM64 72h8v16h-8ZM88 72h8v8h-8ZM120 72h16v16h-16ZM144 72h8v16h-8ZM176 72h16v8h-16ZM216 72h8v8h-8ZM240 72h8v8h-8ZM256 72h32v8h-32ZM304 72h8v8h-8ZM320 72h8v8h-8ZM336 72h8v8h-8ZM352 72h32v8h-32ZM408 72h8v8h-8ZM8 80h16v8h-16ZM80 80h16v8h-16ZM184 80h8v8h-8ZM200 80h8v8h-8ZM240 80h16v8h-16ZM272 80h16v8h-16ZM296 80h8v8h-8ZM312 80h8v8h-8ZM336 80h32v8h-32ZM376 80h8v8h-8ZM392 80h8v8h-8ZM416 80h8v8h-8ZM48 88h48v8h-48ZM144 88h48v8h-48ZM240 88h48v8h-48ZM336 88h48v8h-48ZM0 96h48v8h-48ZM96 96h48v8h-48ZM192 96h48v8h-48ZM288 96h48v8h-48ZM384 96h48v8h-48ZM0 104h16v16h-16ZM40 104h8v8h-8ZM64 104h8v8h-8ZM96 104h8v8h-8ZM120 104h24v8h-24ZM192 104h8v8h-8ZM216 104h24v8h-24ZM288 104h8v8h-8ZM312 104h24v8h-24ZM352 104h8v8h-8ZM384 104h16v8h-16ZM416 104h16v16h-16ZM32 112h16v24h-16ZM96 112h48v8h-48ZM192 112h48v8h-48ZM288 112h48v8h-48ZM384 112h24v16h-24ZM0 120h8v8h-8ZM16 120h8v8h-8ZM64 120h8v8h-8ZM96 120h8v8h-8ZM120 120h24v8h-24ZM160 120h24v16h-24ZM192 120h8v16h-8ZM208 120h32v8h-32ZM272 120h8v8h-8ZM288 120h8v8h-8ZM328 120h8v16h-8ZM352 120h24v8h-24ZM424 120h8v8h-8ZM0 128h24v8h-24ZM56 128h16v8h-16ZM96 128h48v16h-48ZM224 128h16v8h-16ZM256 128h16v8h-16ZM288 128h32v8h-32ZM344 128h32v8h-32ZM384 128h8v8h-8ZM400 128h32v8h-32ZM0 136h48v8h-48ZM192 136h48v8h-48ZM288 136h48v8h-48ZM384 136h48v8h-48ZM48 144h48v8h-48ZM144 144h48v24h-48ZM240 144h48v8h-48ZM336 144h48v8h-48ZM8 152h8v16h-8ZM24 152h8v8h-8ZM48 152h8v8h-8ZM64 152h32v8h-32ZM200 152h32v8h-32ZM240 152h32v8h-32ZM280 152h8v16h-8ZM336 152h8v8h-8ZM352 152h32v8h-32ZM392 152h8v8h-8ZM408 152h16v8h-16ZM48 160h48v8h-48ZM200 160h24v8h-24ZM240 160h16v8h-16ZM336 160h48v8h-48ZM400 160h24v16h-24ZM16 168h16v8h-16ZM48 168h8v8h-8ZM64 168h32v8h-32ZM112 168h8v16h-8ZM128 168h8v16h-8ZM144 168h8v8h-8ZM176 168h16v8h-16ZM200 168h8v8h-8ZM240 168h24v8h-24ZM272 168h16v8h-16ZM312 168h8v8h-8ZM336 168h8v8h-8ZM352 168h32v8h-32ZM8 176h8v8h-8ZM48 176h16v8h-16ZM72 176h8v8h-8ZM88 176h8v8h-8ZM144 176h16v8h-16ZM168 176h24v8h-24ZM200 176h24v8h-24ZM240 176h8v8h-8ZM256 176h8v8h-8ZM280 176h8v8h-8ZM304 176h8v8h-8ZM320 176h8v8h-8ZM336 176h16v8h-16ZM368 176h16v8h-16ZM392 176h32v8h-32ZM48 184h48v8h-48ZM144 184h48v8h-48ZM240 184h48v8h-48ZM336 184h48v8h-48ZM0 192h48v8h-48ZM96 192h48v8h-48ZM192 192h48v8h-48ZM288 192h48v8h-48ZM384 192h48v8h-48ZM0 200h16v8h-16ZM24 200h24v8h-24ZM64 200h8v8h-8ZM96 200h8v8h-8ZM120 200h24v8h-24ZM152 200h16v8h-16ZM192 200h16v8h-16ZM232 200h8v32h-8ZM248 200h16v8h-16ZM288 200h8v8h-8ZM312 200h24v8h-24ZM352 200h8v8h-8ZM384 200h16v8h-16ZM416 200h16v8h-16ZM0 208h8v8h-8ZM16 208h8v8h-8ZM40 208h8v8h-8ZM96 208h48v8h-48ZM192 208h24v8h-24ZM256 208h24v8h-24ZM288 208h48v8h-48ZM384 208h48v8h-48ZM0 216h48v8h-48ZM96 216h8v16h-8ZM128 216h16v8h-16ZM192 216h8v16h-8ZM208 216h16v8h-16ZM256 216h8v8h-8ZM272 216h8v16h-8ZM288 216h8v16h-8ZM304 216h16v8h-16ZM328 216h8v16h-8ZM368 216h8v8h-8ZM384 216h24v8h-24ZM416 216h16v8h-16ZM0 224h24v8h-24ZM40 224h8v8h-8ZM64 224h8v8h-8ZM136 224h8v8h-8ZM152 224h8v8h-8ZM168 224h8v8h-8ZM344 224h32v8h-32ZM384 224h48v16h-48ZM0 232h48v8h-48ZM96 232h48v8h-48ZM192 232h48v8h-48ZM288 232h48v8h-48ZM48 240h48v8h-48ZM144 240h48v8h-48ZM240 240h48v8h-48ZM336 240h48v8h-48ZM8 248h8v8h-8ZM24 248h16v8h-16ZM48 248h8v8h-8ZM64 248h32v8h-32ZM144 248h24v8h-24ZM176 248h16v8h-16ZM200 248h32v16h-32ZM240 248h24v8h-24ZM272 248h16v8h-16ZM336 248h8v8h-8ZM352 248h32v8h-32ZM392 248h8v8h-8ZM408 248h16v8h-16ZM24 256h8v8h-8ZM48 256h48v8h-48ZM144 256h8v24h-8ZM184 256h8v16h-8ZM240 256h8v24h-8ZM280 256h8v16h-8ZM336 256h48v8h-48ZM392 256h32v16h-32ZM8 264h8v16h-8ZM32 264h8v8h-8ZM48 264h8v16h-8ZM80 264h16v8h-16ZM112 264h8v8h-8ZM200 264h8v8h-8ZM216 264h8v8h-8ZM264 264h8v8h-8ZM304 264h8v8h-8ZM336 264h8v16h-8ZM376 264h8v16h-8ZM24 272h8v8h-8ZM72 272h8v8h-8ZM88 272h8v8h-8ZM112 272h16v8h-16ZM160 272h8v8h-8ZM176 272h16v8h-16ZM224 272h8v8h-8ZM256 272h32v8h-32ZM296 272h16v8h-16ZM360 272h8v8h-8ZM392 272h8v8h-8ZM48 280h48v8h-48ZM144 280h48v8h-48ZM240 280h48v8h-48ZM336 280h48v8h-48ZM0 288h48v8h-48ZM96 288h48v8h-48ZM192 288h48v8h-48ZM288 288h48v8h-48ZM384 288h48v8h-48ZM0 296h16v8h-16ZM24 296h24v8h-24ZM64 296h8v8h-8ZM96 296h8v8h-8ZM120 296h24v8h-24ZM192 296h8v8h-8ZM216 296h24v8h-24ZM288 296h8v8h-8ZM312 296h24v8h-24ZM352 296h8v8h-8ZM384 296h16v8h-16ZM408 296h8v8h-8ZM424 296h8v8h-8ZM0 304h32v8h-32ZM40 304h8v24h-8ZM96 304h48v8h-48ZM192 304h48v8h-48ZM288 304h48v8h-48ZM384 304h48v16h-48ZM0 312h8v8h-8ZM16 312h8v8h-8ZM80 312h8v8h-8ZM96 312h8v8h-8ZM112 312h32v8h-32ZM160 312h24v8h-24ZM192 312h8v16h-8ZM208 312h32v8h-32ZM264 312h16v8h-16ZM288 312h8v16h-8ZM312 312h8v8h-8ZM328 312h8v8h-8ZM0 320h32v8h-32ZM72 320h16v8h-16ZM96 320h32v8h-32ZM136 320h8v8h-8ZM152 320h16v8h-16ZM176 320h8v8h-8ZM208 320h8v8h-8ZM224 320h16v8h-16ZM320 320h16v8h-16ZM384 320h16v8h-16ZM408 320h24v8h-24ZM0 328h48v8h-48ZM96 328h48v8h-48ZM192 328h48v8h-48ZM288 328h48v8h-48ZM384 328h48v8h-48ZM48 336h48v8h-48ZM144 336h48v8h-48ZM240 336h48v8h-48ZM336 336h48v8h-48ZM8 344h8v8h-8ZM32 344h8v8h-8ZM48 344h8v8h-8ZM64 344h32v8h-32ZM112 344h8v8h-8ZM144 344h8v8h-8ZM160 344h32v8h-32ZM208 344h8v8h-8ZM240 344h8v8h-8ZM256 344h32v8h-32ZM304 344h8v8h-8ZM336 344h8v8h-8ZM352 344h32v8h-32ZM392 344h8v8h-8ZM408 344h16v8h-16ZM24 352h8v8h-8ZM48 352h48v8h-48ZM144 352h48v8h-48ZM240 352h48v8h-48ZM336 352h48v8h-48ZM400 352h24v8h-24ZM8 360h16v8h-16ZM48 360h8v8h-8ZM64 360h8v8h-8ZM80 360h16v8h-16ZM112 360h24v8h-24ZM144 360h8v16h-8ZM184 360h8v8h-8ZM208 360h16v8h-16ZM240 360h8v8h-8ZM264 360h8v8h-8ZM280 360h8v8h-8ZM336 360h8v16h-8ZM376 360h8v8h-8ZM416 360h8v8h-8ZM8 368h32v8h-32ZM48 368h16v8h-16ZM88 368h8v8h-8ZM112 368h8v8h-8ZM128 368h8v8h-8ZM176 368h16v8h-16ZM200 368h24v8h-24ZM240 368h48v16h-48ZM320 368h8v8h-8ZM360 368h24v8h-24ZM392 368h8v8h-8ZM408 368h8v8h-8ZM48 376h48v8h-48ZM144 376h48v8h-48ZM336 376h48v8h-48ZM0 384h48v8h-48ZM96 384h48v8h-48ZM192 384h48v8h-48ZM288 384h48v8h-48ZM384 384h48v8h-48ZM0 392h16v8h-16ZM32 392h16v8h-16ZM56 392h8v8h-8ZM96 392h16v8h-16ZM120 392h8v8h-8ZM136 392h8v16h-8ZM152 392h8v8h-8ZM168 392h8v8h-8ZM192 392h16v8h-16ZM232 392h8v32h-8ZM248 392h8v8h-8ZM288 392h16v8h-16ZM312 392h24v8h-24ZM344 392h8v8h-8ZM360 392h8v8h-8ZM384 392h16v16h-16ZM424 392h8v16h-8ZM0 400h24v8h-24ZM40 400h8v24h-8ZM96 400h32v8h-32ZM160 400h24v8h-24ZM192 400h8v8h-8ZM208 400h8v8h-8ZM264 400h16v8h-16ZM288 400h8v24h-8ZM304 400h8v8h-8ZM320 400h16v8h-16ZM368 400h8v24h-8ZM408 400h8v8h-8ZM0 408h16v8h-16ZM56 408h8v8h-8ZM72 408h8v8h-8ZM96 408h8v8h-8ZM112 408h32v8h-32ZM160 408h16v8h-16ZM192 408h32v8h-32ZM248 408h8v8h-8ZM264 408h8v8h-8ZM304 408h16v8h-16ZM328 408h8v16h-8ZM344 408h8v8h-8ZM384 408h8v16h-8ZM400 408h8v16h-8ZM416 408h16v8h-16ZM0 416h8v8h-8ZM16 416h8v8h-8ZM56 416h32v8h-32ZM96 416h32v8h-32ZM136 416h8v8h-8ZM152 416h8v8h-8ZM168 416h16v8h-16ZM192 416h8v8h-8ZM256 416h16v8h-16ZM312 416h8v8h-8ZM352 416h8v8h-8ZM424 416h8v8h-8ZM0 424h48v8h-48ZM96 424h48v8h-48ZM192 424h48v8h-48ZM288 424h48v8h-48ZM384 424h48v8h-48Z"/>
 </g>
</svg>
