<?xml version="1.0" standalone="no"?>
<!DOCTYPE svg PUBLIC "-//W3C//DTD SVG 1.1//EN"
   "http://www.w3.org/Graphics/SVG/1.1/DTD/svg11.dtd">
<svg width="108" height="108" version="1.1"
   xmlns="http://www.w3.org/2000/svg">
   <desc>Zint Generated Symbol
   </desc>

   <g id="barcode" fill="#000000">
      <rect x="0" y="0" width="108" height="108" fill="#FFFFFF" />
      <rect x="0.00" y="0.00" width="12.00" height="2.00" />
      <rect x="24.00" y="0.00" width="12.00" height="2.00" />
      <rect x="48.00" y="0.00" width="12.00" height="2.00" />
      <rect x="72.00" y="0.00" width="12.00" height="2.00" />
      <rect x="96.00" y="0.00" width="12.00" height="2.00" />
      <rect x="0.00" y="2.00" width="4.00" height="4.00" />
      <rect x="6.00" y="2.00" width="6.00" height="2.00" />
      <rect x="14.00" y="2.00" width="2.00" height="2.00" />
      <rect x="24.00" y="2.00" width="4.00" height="2.00" />
      <rect x="30.00" y="2.00" width="6.00" height="2.00" />
      <rect x="38.00" y="2.00" width="2.00" height="2.00" />
      <rect x="48.00" y="2.00" width="4.00" height="2.00" />
      <rect x="54.00" y="2.00" width="6.00" height="2.00" />
      <rect x="62.00" y="2.00" width="2.00" height="2.00" />
      <rect x="72.00" y="2.00" width="4.00" height="2.00" />
      <rect x="78.00" y="2.00" width="6.00" height="2.00" />
      <rect x="86.00" y="2.00" width="2.00" height="2.00" />
      <rect x="96.00" y="2.00" width="4.00" height="2.00" />
      <rect x="102.00" y="2.00" width="6.00" height="2.00" />
      <rect x="8.00" y="4.00" width="4.00" height="6.00" />
      <rect x="24.00" y="4.00" width="12.00" height="2.00" />
      <rect x="48.00" y="4.00" width="12.00" height="2.00" />
      <rect x="72.00" y="4.00" width="12.00" height="2.00" />
      <rect x="96.00" y="4.00" width="12.00" height="2.00" />
      <rect x="0.00" y="6.00" width="2.00" height="2.00" />
      <rect x="4.00" y="6.00" width="2.00" height="2.00" />
      <rect x="16.00" y="6.00" width="6.00" height="2.00" />
      <rect x="24.00" y="6.00" width="2.00" height="2.00" />
      <rect x="28.00" y="6.00" width="4.00" height="2.00" />
      <rect x="34.00" y="6.00" width="2.00" height="2.00" />
      <rect x="40.00" y="6.00" width="6.00" height="2.00" />
      <rect x="48.00" y="6.00" width="2.00" height="2.00" />
      <rect x="52.00" y="6.00" width="8.00" height="2.00" />
      <rect x="66.00" y="6.00" width="2.00" height="2.00" />
      <rect x="72.00" y="6.00" width="2.00" height="2.00" />
      <rect x="78.00" y="6.00" width="6.00" height="2.00" />
      <rect x="88.00" y="6.00" width="6.00" height="2.00" />
      <rect x="96.00" y="6.00" width="2.00" height="4.00" />
      <rect x="100.00" y="6.00" width="2.00" height="2.00" />
      <rect x="106.00" y="6.00" width="2.00" height="4.00" />
      <rect x="0.00" y="8.00" width="6.00" height="2.00" />
      <rect x="14.00" y="8.00" width="6.00" height="2.00" />
      <rect x="24.00" y="8.00" width="12.00" height="4.00" />
      <rect x="40.00" y="8.00" width="4.00" height="2.00" />
      <rect x="48.00" y="8.00" width="6.00" height="2.00" />
      <rect x="56.00" y="8.00" width="4.00" height="2.00" />
      <rect x="62.00" y="8.00" width="4.00" height="2.00" />
      <rect x="68.00" y="8.00" width="2.00" height="2.00" />
      <rect x="72.00" y="8.00" width="4.00" height="2.00" />
      <rect x="80.00" y="8.00" width="4.00" height="2.00" />
      <rect x="86.00" y="8.00" width="2.00" height="2.00" />
      <rect x="90.00" y="8.00" width="2.00" height="2.00" />
      <rect x="100.00" y="8.00" width="4.00" height="2.00" />
      <rect x="0.00" y="10.00" width="12.00" height="2.00" />
      <rect x="48.00" y="10.00" width="12.00" height="2.00" />
      <rect x="72.00" y="10.00" width="12.00" height="2.00" />
      <rect x="96.00" y="10.00" width="12.00" height="2.00" />
      <rect x="12.00" y="12.00" width="12.00" height="2.00" />
      <rect x="36.00" y="12.00" width="12.00" height="2.00" />
      <rect x="60.00" y="12.00" width="12.00" height="2.00" />
      <rect x="84.00" y="12.00" width="12.00" height="2.00" />
      <rect x="2.00" y="14.00" width="2.00" height="2.00" />
      <rect x="12.00" y="14.00" width="2.00" height="2.00" />
      <rect x="16.00" y="14.00" width="8.00" height="2.00" />
      <rect x="28.00" y="14.00" width="2.00" height="2.00" />
      <rect x="36.00" y="14.00" width="2.00" height="2.00" />
      <rect x="40.00" y="14.00" width="8.00" height="2.00" />
      <rect x="52.00" y="14.00" width="2.00" height="2.00" />
      <rect x="60.00" y="14.00" width="2.00" height="2.00" />
      <rect x="64.00" y="14.00" width="8.00" height="2.00" />
      <rect x="76.00" y="14.00" width="2.00" height="2.00" />
      <rect x="84.00" y="14.00" width="2.00" height="2.00" />
      <rect x="88.00" y="14.00" width="8.00" height="2.00" />
      <rect x="98.00" y="14.00" width="2.00" height="4.00" />
      <rect x="102.00" y="14.00" width="4.00" height="4.00" />
      <rect x="2.00" y="16.00" width="8.00" height="2.00" />
      <rect x="12.00" y="16.00" width="12.00" height="2.00" />
      <rect x="36.00" y="16.00" width="12.00" height="2.00" />
      <rect x="60.00" y="16.00" width="12.00" height="2.00" />
      <rect x="84.00" y="16.00" width="12.00" height="2.00" />
      <rect x="4.00" y="18.00" width="4.00" height="2.00" />
      <rect x="12.00" y="18.00" width="2.00" height="4.00" />
      <rect x="16.00" y="18.00" width="2.00" height="4.00" />
      <rect x="22.00" y="18.00" width="2.00" height="2.00" />
      <rect x="30.00" y="18.00" width="4.00" height="4.00" />
      <rect x="36.00" y="18.00" width="2.00" height="4.00" />
      <rect x="44.00" y="18.00" width="4.00" height="2.00" />
      <rect x="54.00" y="18.00" width="2.00" height="2.00" />
      <rect x="60.00" y="18.00" width="2.00" height="2.00" />
      <rect x="64.00" y="18.00" width="8.00" height="2.00" />
      <rect x="76.00" y="18.00" width="2.00" height="2.00" />
      <rect x="80.00" y="18.00" width="2.00" height="2.00" />
      <rect x="84.00" y="18.00" width="2.00" height="2.00" />
      <rect x="88.00" y="18.00" width="8.00" height="2.00" />
      <rect x="102.00" y="18.00" width="2.00" height="2.00" />
      <rect x="2.00" y="20.00" width="4.00" height="2.00" />
      <rect x="20.00" y="20.00" width="4.00" height="2.00" />
      <rect x="46.00" y="20.00" width="2.00" height="2.00" />
      <rect x="50.00" y="20.00" width="2.00" height="2.00" />
      <rect x="60.00" y="20.00" width="4.00" height="2.00" />
      <rect x="68.00" y="20.00" width="4.00" height="2.00" />
      <rect x="74.00" y="20.00" width="2.00" height="2.00" />
      <rect x="78.00" y="20.00" width="2.00" height="2.00" />
      <rect x="84.00" y="20.00" width="8.00" height="2.00" />
      <rect x="94.00" y="20.00" width="2.00" height="2.00" />
      <rect x="98.00" y="20.00" width="2.00" height="2.00" />
      <rect x="104.00" y="20.00" width="2.00" height="2.00" />
      <rect x="12.00" y="22.00" width="12.00" height="2.00" />
      <rect x="36.00" y="22.00" width="12.00" height="2.00" />
      <rect x="60.00" y="22.00" width="12.00" height="2.00" />
      <rect x="84.00" y="22.00" width="12.00" height="2.00" />
      <rect x="0.00" y="24.00" width="12.00" height="2.00" />
      <rect x="24.00" y="24.00" width="12.00" height="2.00" />
      <rect x="48.00" y="24.00" width="12.00" height="2.00" />
      <rect x="72.00" y="24.00" width="12.00" height="2.00" />
      <rect x="96.00" y="24.00" width="12.00" height="2.00" />
      <rect x="0.00" y="26.00" width="4.00" height="4.00" />
      <rect x="10.00" y="26.00" width="2.00" height="2.00" />
      <rect x="16.00" y="26.00" width="2.00" height="2.00" />
      <rect x="24.00" y="26.00" width="2.00" height="2.00" />
      <rect x="30.00" y="26.00" width="6.00" height="2.00" />
      <rect x="48.00" y="26.00" width="2.00" height="2.00" />
      <rect x="54.00" y="26.00" width="6.00" height="2.00" />
      <rect x="72.00" y="26.00" width="2.00" height="2.00" />
      <rect x="78.00" y="26.00" width="6.00" height="2.00" />
      <rect x="88.00" y="26.00" width="2.00" height="2.00" />
      <rect x="96.00" y="26.00" width="4.00" height="2.00" />
      <rect x="104.00" y="26.00" width="4.00" height="4.00" />
      <rect x="8.00" y="28.00" width="4.00" height="6.00" />
      <rect x="24.00" y="28.00" width="12.00" height="2.00" />
      <rect x="48.00" y="28.00" width="12.00" height="2.00" />
      <rect x="72.00" y="28.00" width="12.00" height="2.00" />
      <rect x="96.00" y="28.00" width="6.00" height="4.00" />
      <rect x="0.00" y="30.00" width="2.00" height="2.00" />
      <rect x="4.00" y="30.00" width="2.00" height="2.00" />
      <rect x="16.00" y="30.00" width="2.00" height="2.00" />
      <rect x="24.00" y="30.00" width="2.00" height="2.00" />
      <rect x="30.00" y="30.00" width="6.00" height="2.00" />
      <rect x="40.00" y="30.00" width="6.00" height="4.00" />
      <rect x="48.00" y="30.00" width="2.00" height="4.00" />
      <rect x="52.00" y="30.00" width="8.00" height="2.00" />
      <rect x="68.00" y="30.00" width="2.00" height="2.00" />
      <rect x="72.00" y="30.00" width="2.00" height="2.00" />
      <rect x="82.00" y="30.00" width="2.00" height="4.00" />
      <rect x="88.00" y="30.00" width="6.00" height="2.00" />
      <rect x="106.00" y="30.00" width="2.00" height="2.00" />
      <rect x="0.00" y="32.00" width="6.00" height="2.00" />
      <rect x="14.00" y="32.00" width="4.00" height="2.00" />
      <rect x="24.00" y="32.00" width="12.00" height="4.00" />
      <rect x="56.00" y="32.00" width="4.00" height="2.00" />
      <rect x="64.00" y="32.00" width="4.00" height="2.00" />
      <rect x="72.00" y="32.00" width="8.00" height="2.00" />
      <rect x="86.00" y="32.00" width="8.00" height="2.00" />
      <rect x="96.00" y="32.00" width="2.00" height="2.00" />
      <rect x="100.00" y="32.00" width="8.00" height="2.00" />
      <rect x="0.00" y="34.00" width="12.00" height="2.00" />
      <rect x="48.00" y="34.00" width="12.00" height="2.00" />
      <rect x="72.00" y="34.00" width="12.00" height="2.00" />
      <rect x="96.00" y="34.00" width="12.00" height="2.00" />
      <rect x="12.00" y="36.00" width="12.00" height="2.00" />
      <rect x="36.00" y="36.00" width="12.00" height="6.00" />
      <rect x="60.00" y="36.00" width="12.00" height="2.00" />
      <rect x="84.00" y="36.00" width="12.00" height="2.00" />
      <rect x="2.00" y="38.00" width="2.00" height="4.00" />
      <rect x="6.00" y="38.00" width="2.00" height="2.00" />
      <rect x="12.00" y="38.00" width="2.00" height="2.00" />
      <rect x="16.00" y="38.00" width="8.00" height="2.00" />
      <rect x="50.00" y="38.00" width="8.00" height="2.00" />
      <rect x="60.00" y="38.00" width="8.00" height="2.00" />
      <rect x="70.00" y="38.00" width="2.00" height="4.00" />
      <rect x="84.00" y="38.00" width="2.00" height="2.00" />
      <rect x="88.00" y="38.00" width="8.00" height="2.00" />
      <rect x="98.00" y="38.00" width="2.00" height="2.00" />
      <rect x="102.00" y="38.00" width="4.00" height="2.00" />
      <rect x="12.00" y="40.00" width="12.00" height="2.00" />
      <rect x="50.00" y="40.00" width="6.00" height="2.00" />
      <rect x="60.00" y="40.00" width="4.00" height="2.00" />
      <rect x="84.00" y="40.00" width="12.00" height="2.00" />
      <rect x="100.00" y="40.00" width="6.00" height="4.00" />
      <rect x="4.00" y="42.00" width="4.00" height="2.00" />
      <rect x="12.00" y="42.00" width="2.00" height="2.00" />
      <rect x="16.00" y="42.00" width="8.00" height="2.00" />
      <rect x="28.00" y="42.00" width="2.00" height="4.00" />
      <rect x="32.00" y="42.00" width="2.00" height="4.00" />
      <rect x="36.00" y="42.00" width="2.00" height="2.00" />
      <rect x="44.00" y="42.00" width="4.00" height="2.00" />
      <rect x="50.00" y="42.00" width="2.00" height="2.00" />
      <rect x="60.00" y="42.00" width="6.00" height="2.00" />
      <rect x="68.00" y="42.00" width="4.00" height="2.00" />
      <rect x="78.00" y="42.00" width="2.00" height="2.00" />
      <rect x="84.00" y="42.00" width="2.00" height="2.00" />
      <rect x="88.00" y="42.00" width="8.00" height="2.00" />
      <rect x="2.00" y="44.00" width="2.00" height="2.00" />
      <rect x="12.00" y="44.00" width="4.00" height="2.00" />
      <rect x="18.00" y="44.00" width="2.00" height="2.00" />
      <rect x="22.00" y="44.00" width="2.00" height="2.00" />
      <rect x="36.00" y="44.00" width="4.00" height="2.00" />
      <rect x="42.00" y="44.00" width="6.00" height="2.00" />
      <rect x="50.00" y="44.00" width="6.00" height="2.00" />
      <rect x="60.00" y="44.00" width="2.00" height="2.00" />
      <rect x="64.00" y="44.00" width="2.00" height="2.00" />
      <rect x="70.00" y="44.00" width="2.00" height="2.00" />
      <rect x="76.00" y="44.00" width="2.00" height="2.00" />
      <rect x="80.00" y="44.00" width="2.00" height="2.00" />
      <rect x="84.00" y="44.00" width="4.00" height="2.00" />
      <rect x="92.00" y="44.00" width="4.00" height="2.00" />
      <rect x="98.00" y="44.00" width="8.00" height="2.00" />
      <rect x="12.00" y="46.00" width="12.00" height="2.00" />
      <rect x="36.00" y="46.00" width="12.00" height="2.00" />
      <rect x="60.00" y="46.00" width="12.00" height="2.00" />
      <rect x="84.00" y="46.00" width="12.00" height="2.00" />
      <rect x="0.00" y="48.00" width="12.00" height="2.00" />
      <rect x="24.00" y="48.00" width="12.00" height="2.00" />
      <rect x="48.00" y="48.00" width="12.00" height="2.00" />
      <rect x="72.00" y="48.00" width="12.00" height="2.00" />
      <rect x="96.00" y="48.00" width="12.00" height="2.00" />
      <rect x="0.00" y="50.00" width="4.00" height="2.00" />
      <rect x="6.00" y="50.00" width="6.00" height="2.00" />
      <rect x="16.00" y="50.00" width="2.00" height="2.00" />
      <rect x="24.00" y="50.00" width="2.00" height="2.00" />
      <rect x="30.00" y="50.00" width="6.00" height="2.00" />
      <rect x="38.00" y="50.00" width="4.00" height="2.00" />
      <rect x="48.00" y="50.00" width="4.00" height="2.00" />
      <rect x="58.00" y="50.00" width="2.00" height="8.00" />
      <rect x="62.00" y="50.00" width="4.00" height="2.00" />
      <rect x="72.00" y="50.00" width="2.00" height="2.00" />
      <rect x="78.00" y="50.00" width="6.00" height="2.00" />
      <rect x="88.00" y="50.00" width="2.00" height="2.00" />
      <rect x="96.00" y="50.00" width="4.00" height="2.00" />
      <rect x="104.00" y="50.00" width="4.00" height="2.00" />
      <rect x="0.00" y="52.00" width="2.00" height="2.00" />
      <rect x="4.00" y="52.00" width="2.00" height="2.00" />
      <rect x="10.00" y="52.00" width="2.00" height="2.00" />
      <rect x="24.00" y="52.00" width="12.00" height="2.00" />
      <rect x="48.00" y="52.00" width="6.00" height="2.00" />
      <rect x="64.00" y="52.00" width="6.00" height="2.00" />
      <rect x="72.00" y="52.00" width="12.00" height="2.00" />
      <rect x="96.00" y="52.00" width="12.00" height="2.00" />
      <rect x="0.00" y="54.00" width="12.00" height="2.00" />
      <rect x="24.00" y="54.00" width="2.00" height="4.00" />
      <rect x="32.00" y="54.00" width="4.00" height="2.00" />
      <rect x="48.00" y="54.00" width="2.00" height="4.00" />
      <rect x="52.00" y="54.00" width="4.00" height="2.00" />
      <rect x="64.00" y="54.00" width="2.00" height="2.00" />
      <rect x="68.00" y="54.00" width="2.00" height="4.00" />
      <rect x="72.00" y="54.00" width="2.00" height="4.00" />
      <rect x="76.00" y="54.00" width="4.00" height="2.00" />
      <rect x="82.00" y="54.00" width="2.00" height="4.00" />
      <rect x="92.00" y="54.00" width="2.00" height="2.00" />
      <rect x="96.00" y="54.00" width="6.00" height="2.00" />
      <rect x="104.00" y="54.00" width="4.00" height="2.00" />
      <rect x="0.00" y="56.00" width="6.00" height="2.00" />
      <rect x="10.00" y="56.00" width="2.00" height="2.00" />
      <rect x="16.00" y="56.00" width="2.00" height="2.00" />
      <rect x="34.00" y="56.00" width="2.00" height="2.00" />
      <rect x="38.00" y="56.00" width="2.00" height="2.00" />
      <rect x="42.00" y="56.00" width="2.00" height="2.00" />
      <rect x="86.00" y="56.00" width="8.00" height="2.00" />
      <rect x="96.00" y="56.00" width="12.00" height="4.00" />
      <rect x="0.00" y="58.00" width="12.00" height="2.00" />
      <rect x="24.00" y="58.00" width="12.00" height="2.00" />
      <rect x="48.00" y="58.00" width="12.00" height="2.00" />
      <rect x="72.00" y="58.00" width="12.00" height="2.00" />
      <rect x="12.00" y="60.00" width="12.00" height="2.00" />
      <rect x="36.00" y="60.00" width="12.00" height="2.00" />
      <rect x="60.00" y="60.00" width="12.00" height="2.00" />
      <rect x="84.00" y="60.00" width="12.00" height="2.00" />
      <rect x="2.00" y="62.00" width="2.00" height="2.00" />
      <rect x="6.00" y="62.00" width="4.00" height="2.00" />
      <rect x="12.00" y="62.00" width="2.00" height="2.00" />
      <rect x="16.00" y="62.00" width="8.00" height="2.00" />
      <rect x="36.00" y="62.00" width="6.00" height="2.00" />
      <rect x="44.00" y="62.00" width="4.00" height="2.00" />
      <rect x="50.00" y="62.00" width="8.00" height="4.00" />
      <rect x="60.00" y="62.00" width="6.00" height="2.00" />
      <rect x="68.00" y="62.00" width="4.00" height="2.00" />
      <rect x="84.00" y="62.00" width="2.00" height="2.00" />
      <rect x="88.00" y="62.00" width="8.00" height="2.00" />
      <rect x="98.00" y="62.00" width="2.00" height="2.00" />
      <rect x="102.00" y="62.00" width="4.00" height="2.00" />
      <rect x="6.00" y="64.00" width="2.00" height="2.00" />
      <rect x="12.00" y="64.00" width="12.00" height="2.00" />
      <rect x="36.00" y="64.00" width="2.00" height="6.00" />
      <rect x="46.00" y="64.00" width="2.00" height="4.00" />
      <rect x="60.00" y="64.00" width="2.00" height="6.00" />
      <rect x="70.00" y="64.00" width="2.00" height="4.00" />
      <rect x="84.00" y="64.00" width="12.00" height="2.00" />
      <rect x="98.00" y="64.00" width="8.00" height="4.00" />
      <rect x="2.00" y="66.00" width="2.00" height="4.00" />
      <rect x="8.00" y="66.00" width="2.00" height="2.00" />
      <rect x="12.00" y="66.00" width="2.00" height="4.00" />
      <rect x="20.00" y="66.00" width="4.00" height="2.00" />
      <rect x="28.00" y="66.00" width="2.00" height="2.00" />
      <rect x="50.00" y="66.00" width="2.00" height="2.00" />
      <rect x="54.00" y="66.00" width="2.00" height="2.00" />
      <rect x="66.00" y="66.00" width="2.00" height="2.00" />
      <rect x="76.00" y="66.00" width="2.00" height="2.00" />
      <rect x="84.00" y="66.00" width="2.00" height="4.00" />
      <rect x="94.00" y="66.00" width="2.00" height="4.00" />
      <rect x="6.00" y="68.00" width="2.00" height="2.00" />
      <rect x="18.00" y="68.00" width="2.00" height="2.00" />
      <rect x="22.00" y="68.00" width="2.00" height="2.00" />
      <rect x="28.00" y="68.00" width="4.00" height="2.00" />
      <rect x="40.00" y="68.00" width="2.00" height="2.00" />
      <rect x="44.00" y="68.00" width="4.00" height="2.00" />
      <rect x="56.00" y="68.00" width="2.00" height="2.00" />
      <rect x="64.00" y="68.00" width="8.00" height="2.00" />
      <rect x="74.00" y="68.00" width="4.00" height="2.00" />
      <rect x="90.00" y="68.00" width="2.00" height="2.00" />
      <rect x="98.00" y="68.00" width="2.00" height="2.00" />
      <rect x="12.00" y="70.00" width="12.00" height="2.00" />
      <rect x="36.00" y="70.00" width="12.00" height="2.00" />
      <rect x="60.00" y="70.00" width="12.00" height="2.00" />
      <rect x="84.00" y="70.00" width="12.00" height="2.00" />
      <rect x="0.00" y="72.00" width="12.00" height="2.00" />
      <rect x="24.00" y="72.00" width="12.00" height="2.00" />
      <rect x="48.00" y="72.00" width="12.00" height="2.00" />
      <rect x="72.00" y="72.00" width="12.00" height="2.00" />
      <rect x="96.00" y="72.00" width="12.00" height="2.00" />
      <rect x="0.00" y="74.00" width="4.00" height="2.00" />
      <rect x="6.00" y="74.00" width="6.00" height="2.00" />
      <rect x="16.00" y="74.00" width="2.00" height="2.00" />
      <rect x="24.00" y="74.00" width="2.00" height="2.00" />
      <rect x="30.00" y="74.00" width="6.00" height="2.00" />
      <rect x="48.00" y="74.00" width="2.00" height="2.00" />
      <rect x="54.00" y="74.00" width="6.00" height="2.00" />
      <rect x="72.00" y="74.00" width="2.00" height="2.00" />
      <rect x="78.00" y="74.00" width="6.00" height="2.00" />
      <rect x="88.00" y="74.00" width="2.00" height="2.00" />
      <rect x="96.00" y="74.00" width="4.00" height="2.00" />
      <rect x="102.00" y="74.00" width="2.00" height="2.00" />
      <rect x="106.00" y="74.00" width="2.00" height="2.00" />
      <rect x="0.00" y="76.00" width="8.00" height="2.00" />
      <rect x="10.00" y="76.00" width="2.00" height="6.00" />
      <rect x="24.00" y="76.00" width="12.00" height="2.00" />
      <rect x="48.00" y="76.00" width="12.00" height="2.00" />
      <rect x="72.00" y="76.00" width="12.00" height="2.00" />
      <rect x="96.00" y="76.00" width="12.00" height="4.00" />
      <rect x="0.00" y="78.00" width="2.00" height="2.00" />
      <rect x="4.00" y="78.00" width="2.00" height="2.00" />
      <rect x="20.00" y="78.00" width="2.00" height="2.00" />
      <rect x="24.00" y="78.00" width="2.00" height="2.00" />
      <rect x="28.00" y="78.00" width="8.00" height="2.00" />
      <rect x="40.00" y="78.00" width="6.00" height="2.00" />
      <rect x="48.00" y="78.00" width="2.00" height="4.00" />
      <rect x="52.00" y="78.00" width="8.00" height="2.00" />
      <rect x="66.00" y="78.00" width="4.00" height="2.00" />
      <rect x="72.00" y="78.00" width="2.00" height="4.00" />
      <rect x="78.00" y="78.00" width="2.00" height="2.00" />
      <rect x="82.00" y="78.00" width="2.00" height="2.00" />
      <rect x="0.00" y="80.00" width="8.00" height="2.00" />
      <rect x="18.00" y="80.00" width="4.00" height="2.00" />
      <rect x="24.00" y="80.00" width="8.00" height="2.00" />
      <rect x="34.00" y="80.00" width="2.00" height="2.00" />
      <rect x="38.00" y="80.00" width="4.00" height="2.00" />
      <rect x="44.00" y="80.00" width="2.00" height="2.00" />
      <rect x="52.00" y="80.00" width="2.00" height="2.00" />
      <rect x="56.00" y="80.00" width="4.00" height="2.00" />
      <rect x="80.00" y="80.00" width="4.00" height="2.00" />
      <rect x="96.00" y="80.00" width="4.00" height="2.00" />
      <rect x="102.00" y="80.00" width="6.00" height="2.00" />
      <rect x="0.00" y="82.00" width="12.00" height="2.00" />
      <rect x="24.00" y="82.00" width="12.00" height="2.00" />
      <rect x="48.00" y="82.00" width="12.00" height="2.00" />
      <rect x="72.00" y="82.00" width="12.00" height="2.00" />
      <rect x="96.00" y="82.00" width="12.00" height="2.00" />
      <rect x="12.00" y="84.00" width="12.00" height="2.00" />
      <rect x="36.00" y="84.00" width="12.00" height="2.00" />
      <rect x="60.00" y="84.00" width="12.00" height="2.00" />
      <rect x="84.00" y="84.00" width="12.00" height="2.00" />
      <rect x="2.00" y="86.00" width="2.00" height="2.00" />
      <rect x="8.00" y="86.00" width="2.00" height="2.00" />
      <rect x="12.00" y="86.00" width="2.00" height="2.00" />
      <rect x="16.00" y="86.00" width="8.00" height="2.00" />
      <rect x="28.00" y="86.00" width="2.00" height="2.00" />
      <rect x="36.00" y="86.00" width="2.00" height="2.00" />
      <rect x="40.00" y="86.00" width="8.00" height="2.00" />
      <rect x="52.00" y="86.00" width="2.00" height="2.00" />
      <rect x="60.00" y="86.00" width="2.00" height="2.00" />
      <rect x="64.00" y="86.00" width="8.00" height="2.00" />
      <rect x="76.00" y="86.00" width="2.00" height="2.00" />
      <rect x="84.00" y="86.00" width="2.00" height="2.00" />
      <rect x="88.00" y="86.00" width="8.00" height="2.00" />
      <rect x="98.00" y="86.00" width="2.00" height="2.00" />
      <rect x="102.00" y="86.00" width="4.00" height="2.00" />
      <rect x="6.00" y="88.00" width="2.00" height="2.00" />
      <rect x="12.00" y="88.00" width="12.00" height="2.00" />
      <rect x="36.00" y="88.00" width="12.00" height="2.00" />
      <rect x="60.00" y="88.00" width="12.00" height="2.00" />
      <rect x="84.00" y="88.00" width="12.00" height="2.00" />
      <rect x="100.00" y="88.00" width="6.00" height="2.00" />
      <rect x="2.00" y="90.00" width="4.00" height="2.00" />
      <rect x="12.00" y="90.00" width="2.00" height="2.00" />
      <rect x="16.00" y="90.00" width="2.00" height="2.00" />
      <rect x="20.00" y="90.00" width="4.00" height="2.00" />
      <rect x="28.00" y="90.00" width="6.00" height="2.00" />
      <rect x="36.00" y="90.00" width="2.00" height="4.00" />
      <rect x="46.00" y="90.00" width="2.00" height="2.00" />
      <rect x="52.00" y="90.00" width="4.00" height="2.00" />
      <rect x="60.00" y="90.00" width="2.00" height="2.00" />
      <rect x="66.00" y="90.00" width="2.00" height="2.00" />
      <rect x="70.00" y="90.00" width="2.00" height="2.00" />
      <rect x="84.00" y="90.00" width="2.00" height="4.00" />
      <rect x="94.00" y="90.00" width="2.00" height="2.00" />
      <rect x="104.00" y="90.00" width="2.00" height="2.00" />
      <rect x="2.00" y="92.00" width="8.00" height="2.00" />
      <rect x="12.00" y="92.00" width="4.00" height="2.00" />
      <rect x="22.00" y="92.00" width="2.00" height="2.00" />
      <rect x="28.00" y="92.00" width="2.00" height="2.00" />
      <rect x="32.00" y="92.00" width="2.00" height="2.00" />
      <rect x="44.00" y="92.00" width="4.00" height="2.00" />
      <rect x="50.00" y="92.00" width="6.00" height="2.00" />
      <rect x="60.00" y="92.00" width="12.00" height="4.00" />
      <rect x="80.00" y="92.00" width="2.00" height="2.00" />
      <rect x="90.00" y="92.00" width="6.00" height="2.00" />
      <rect x="98.00" y="92.00" width="2.00" height="2.00" />
      <rect x="102.00" y="92.00" width="2.00" height="2.00" />
      <rect x="12.00" y="94.00" width="12.00" height="2.00" />
      <rect x="36.00" y="94.00" width="12.00" height="2.00" />
      <rect x="84.00" y="94.00" width="12.00" height="2.00" />
      <rect x="0.00" y="96.00" width="12.00" height="2.00" />
      <rect x="24.00" y="96.00" width="12.00" height="2.00" />
      <rect x="48.00" y="96.00" width="12.00" height="2.00" />
      <rect x="72.00" y="96.00" width="12.00" height="2.00" />
      <rect x="96.00" y="96.00" width="12.00" height="2.00" />
      <rect x="0.00" y="98.00" width="4.00" height="2.00" />
      <rect x="8.00" y="98.00" width="4.00" height="2.00" />
      <rect x="14.00" y="98.00" width="2.00" height="2.00" />
      <rect x="24.00" y="98.00" width="4.00" height="2.00" />
      <rect x="30.00" y="98.00" width="2.00" height="2.00" />
      <rect x="34.00" y="98.00" width="2.00" height="4.00" />
      <rect x="38.00" y="98.00" width="2.00" height="2.00" />
      <rect x="42.00" y="98.00" width="2.00" height="2.00" />
      <rect x="48.00" y="98.00" width="4.00" height="2.00" />
      <rect x="58.00" y="98.00" width="2.00" height="8.00" />
      <rect x="62.00" y="98.00" width="2.00" height="2.00" />
      <rect x="72.00" y="98.00" width="4.00" height="2.00" />
      <rect x="78.00" y="98.00" width="6.00" height="2.00" />
      <rect x="86.00" y="98.00" width="2.00" height="2.00" />
      <rect x="90.00" y="98.00" width="2.00" height="2.00" />
      <rect x="96.00" y="98.00" width="4.00" height="4.00" />
      <rect x="106.00" y="98.00" width="2.00" height="4.00" />
      <rect x="0.00" y="100.00" width="6.00" height="2.00" />
      <rect x="10.00" y="100.00" width="2.00" height="6.00" />
      <rect x="24.00" y="100.00" width="8.00" height="2.00" />
      <rect x="40.00" y="100.00" width="6.00" height="2.00" />
      <rect x="48.00" y="100.00" width="2.00" height="2.00" />
      <rect x="52.00" y="100.00" width="2.00" height="2.00" />
      <rect x="66.00" y="100.00" width="4.00" height="2.00" />
      <rect x="72.00" y="100.00" width="2.00" height="6.00" />
      <rect x="76.00" y="100.00" width="2.00" height="2.00" />
      <rect x="80.00" y="100.00" width="4.00" height="2.00" />
      <rect x="92.00" y="100.00" width="2.00" height="6.00" />
      <rect x="102.00" y="100.00" width="2.00" height="2.00" />
      <rect x="0.00" y="102.00" width="4.00" height="2.00" />
      <rect x="14.00" y="102.00" width="2.00" height="2.00" />
      <rect x="18.00" y="102.00" width="2.00" height="2.00" />
      <rect x="24.00" y="102.00" width="2.00" height="2.00" />
      <rect x="28.00" y="102.00" width="8.00" height="2.00" />
      <rect x="40.00" y="102.00" width="4.00" height="2.00" />
      <rect x="48.00" y="102.00" width="8.00" height="2.00" />
      <rect x="62.00" y="102.00" width="2.00" height="2.00" />
      <rect x="66.00" y="102.00" width="2.00" height="2.00" />
      <rect x="76.00" y="102.00" width="4.00" height="2.00" />
      <rect x="82.00" y="102.00" width="2.00" height="4.00" />
      <rect x="86.00" y="102.00" width="2.00" height="2.00" />
      <rect x="96.00" y="102.00" width="2.00" height="4.00" />
      <rect x="100.00" y="102.00" width="2.00" height="4.00" />
      <rect x="104.00" y="102.00" width="4.00" height="2.00" />
      <rect x="0.00" y="104.00" width="2.00" height="2.00" />
      <rect x="4.00" y="104.00" width="2.00" height="2.00" />
      <rect x="14.00" y="104.00" width="8.00" height="2.00" />
      <rect x="24.00" y="104.00" width="8.00" height="2.00" />
      <rect x="34.00" y="104.00" width="2.00" height="2.00" />
      <rect x="38.00" y="104.00" width="2.00" height="2.00" />
      <rect x="42.00" y="104.00" width="4.00" height="2.00" />
      <rect x="48.00" y="104.00" width="2.00" height="2.00" />
      <rect x="64.00" y="104.00" width="4.00" height="2.00" />
      <rect x="78.00" y="104.00" width="2.00" height="2.00" />
      <rect x="88.00" y="104.00" width="2.00" height="2.00" />
      <rect x="106.00" y="104.00" width="2.00" height="2.00" />
      <rect x="0.00" y="106.00" width="12.00" height="2.00" />
      <rect x="24.00" y="106.00" width="12.00" height="2.00" />
      <rect x="48.00" y="106.00" width="12.00" height="2.00" />
      <rect x="72.00" y="106.00" width="12.00" height="2.00" />
      <rect x="96.00" y="106.00" width="12.00" height="2.00" />
   </g>
</svg>
