<?xml version="1.0" standalone="no"?>
<!DOCTYPE svg PUBLIC "-//W3C//DTD SVG 1.1//EN" "http://www.w3.org/Graphics/SVG/1.1/DTD/svg11.dtd">
<svg width="1119" height="347" version="1.1" xmlns="http://www.w3.org/2000/svg">
 <desc>Zint Generated Symbol</desc>
 <g id="barcode" fill="#000000">
  <rect x="0" y="0" width="1119" height="347" fill="#FFFFFF"/>
  <path d="M0 0h9.6v307.88h-9.6ZM14.4 0h4.8v307.88h-4.8ZM28.8 0h14.4v307.88h-14.4ZM52.8 0h19.2v307.88h-19.2ZM76.8 0h4.8v307.88h-4.8ZM86.4 0h14.4v307.88h-14.4ZM105.6 0h9.6v307.88h-9.6ZM124.8 0h9.6v307.88h-9.6ZM139.2 0h9.6v307.88h-9.6ZM158.4 0h19.2v307.88h-19.2ZM182.4 0h4.8v307.88h-4.8ZM201.6 0h4.8v307.88h-4.8ZM211.2 0h9.6v307.88h-9.6ZM225.6 0h9.6v307.88h-9.6ZM240 0h19.2v307.88h-19.2ZM264 0h19.2v307.88h-19.2ZM292.8 0h4.8v307.88h-4.8ZM302.4 0h4.8v307.88h-4.8ZM316.8 0h4.8v307.88h-4.8ZM331.2 0h4.8v307.88h-4.8ZM340.8 0h9.6v307.88h-9.6ZM369.6 0h4.8v307.88h-4.8ZM379.2 0h9.6v307.88h-9.6ZM403.2 0h14.4v307.88h-14.4ZM422.4 0h9.6v307.88h-9.6ZM436.8 0h14.4v307.88h-14.4ZM460.8 0h4.8v307.88h-4.8ZM475.2 0h4.8v307.88h-4.8ZM489.6 0h9.6v307.88h-9.6ZM508.8 0h4.8v307.88h-4.8ZM528 0h9.6v307.88h-9.6ZM552 0h9.6v307.88h-9.6ZM566.4 0h9.6v307.88h-9.6ZM580.8 0h9.6v307.88h-9.6ZM600 0h9.6v307.88h-9.6ZM619.2 0h9.6v307.88h-9.6ZM633.6 0h9.6v307.88h-9.6ZM652.8 0h9.6v307.88h-9.6ZM667.2 0h9.6v307.88h-9.6ZM686.4 0h14.4v307.88h-14.4ZM705.6 0h9.6v307.88h-9.6ZM720 0h14.4v307.88h-14.4ZM739.2 0h4.8v307.88h-4.8ZM748.8 0h14.4v307.88h-14.4ZM768 0h9.6v307.88h-9.6ZM792 0h4.8v307.88h-4.8ZM801.6 0h14.4v307.88h-14.4ZM825.6 0h9.6v307.88h-9.6ZM844.8 0h4.8v307.88h-4.8ZM854.4 0h14.4v307.88h-14.4ZM873.6 0h19.2v307.88h-19.2ZM897.6 0h4.8v307.88h-4.8ZM907.2 0h9.6v307.88h-9.6ZM926.4 0h14.4v307.88h-14.4ZM950.4 0h9.6v307.88h-9.6ZM964.8 0h9.6v307.88h-9.6ZM988.8 0h9.6v307.88h-9.6ZM1003.2 0h19.2v307.88h-19.2ZM1032 0h4.8v307.88h-4.8ZM1041.6 0h4.8v307.88h-4.8ZM1056 0h9.6v307.88h-9.6ZM1080 0h14.4v307.88h-14.4ZM1099.2 0h4.8v307.88h-4.8ZM1108.8 0h9.6v307.88h-9.6Z"/>
  <text x="559.2" y="339.91" text-anchor="middle" font-family="Arimo, Arial, sans-serif" font-size="33.6">
   (01)98898765432106(3202)012345(15)991231
  </text>
 </g>
</svg>
