<?xml version="1.0" standalone="no"?>
<!DOCTYPE svg PUBLIC "-//W3C//DTD SVG 1.1//EN"
   "http://www.w3.org/Graphics/SVG/1.1/DTD/svg11.dtd">
<svg width="1119" height="354" version="1.1"
   xmlns="http://www.w3.org/2000/svg">
   <desc>Zint Generated Symbol
   </desc>

   <g id="barcode" fill="#000000">
      <rect x="0" y="0" width="1119" height="354" fill="#FFFFFF" />
      <rect x="0.00" y="0.00" width="9.60" height="307.88" />
      <rect x="14.40" y="0.00" width="4.80" height="307.88" />
      <rect x="28.80" y="0.00" width="14.40" height="307.88" />
      <rect x="52.80" y="0.00" width="19.20" height="307.88" />
      <rect x="76.80" y="0.00" width="4.80" height="307.88" />
      <rect x="86.40" y="0.00" width="14.40" height="307.88" />
      <rect x="105.60" y="0.00" width="9.60" height="307.88" />
      <rect x="124.80" y="0.00" width="9.60" height="307.88" />
      <rect x="139.20" y="0.00" width="9.60" height="307.88" />
      <rect x="158.40" y="0.00" width="19.20" height="307.88" />
      <rect x="182.40" y="0.00" width="4.80" height="307.88" />
      <rect x="201.60" y="0.00" width="4.80" height="307.88" />
      <rect x="211.20" y="0.00" width="9.60" height="307.88" />
      <rect x="225.60" y="0.00" width="9.60" height="307.88" />
      <rect x="240.00" y="0.00" width="19.20" height="307.88" />
      <rect x="264.00" y="0.00" width="19.20" height="307.88" />
      <rect x="292.80" y="0.00" width="4.80" height="307.88" />
      <rect x="302.40" y="0.00" width="4.80" height="307.88" />
      <rect x="316.80" y="0.00" width="4.80" height="307.88" />
      <rect x="331.20" y="0.00" width="4.80" height="307.88" />
      <rect x="340.80" y="0.00" width="9.60" height="307.88" />
      <rect x="369.60" y="0.00" width="4.80" height="307.88" />
      <rect x="379.20" y="0.00" width="9.60" height="307.88" />
      <rect x="403.20" y="0.00" width="14.40" height="307.88" />
      <rect x="422.40" y="0.00" width="9.60" height="307.88" />
      <rect x="436.80" y="0.00" width="14.40" height="307.88" />
      <rect x="460.80" y="0.00" width="4.80" height="307.88" />
      <rect x="475.20" y="0.00" width="4.80" height="307.88" />
      <rect x="489.60" y="0.00" width="9.60" height="307.88" />
      <rect x="508.80" y="0.00" width="4.80" height="307.88" />
      <rect x="528.00" y="0.00" width="9.60" height="307.88" />
      <rect x="552.00" y="0.00" width="9.60" height="307.88" />
      <rect x="566.40" y="0.00" width="9.60" height="307.88" />
      <rect x="580.80" y="0.00" width="9.60" height="307.88" />
      <rect x="600.00" y="0.00" width="9.60" height="307.88" />
      <rect x="619.20" y="0.00" width="9.60" height="307.88" />
      <rect x="633.60" y="0.00" width="9.60" height="307.88" />
      <rect x="652.80" y="0.00" width="9.60" height="307.88" />
      <rect x="667.20" y="0.00" width="9.60" height="307.88" />
      <rect x="686.40" y="0.00" width="14.40" height="307.88" />
      <rect x="705.60" y="0.00" width="9.60" height="307.88" />
      <rect x="720.00" y="0.00" width="14.40" height="307.88" />
      <rect x="739.20" y="0.00" width="4.80" height="307.88" />
      <rect x="748.80" y="0.00" width="14.40" height="307.88" />
      <rect x="768.00" y="0.00" width="9.60" height="307.88" />
      <rect x="792.00" y="0.00" width="4.80" height="307.88" />
      <rect x="801.60" y="0.00" width="14.40" height="307.88" />
      <rect x="825.60" y="0.00" width="9.60" height="307.88" />
      <rect x="844.80" y="0.00" width="4.80" height="307.88" />
      <rect x="854.40" y="0.00" width="14.40" height="307.88" />
      <rect x="873.60" y="0.00" width="19.20" height="307.88" />
      <rect x="897.60" y="0.00" width="4.80" height="307.88" />
      <rect x="907.20" y="0.00" width="9.60" height="307.88" />
      <rect x="926.40" y="0.00" width="14.40" height="307.88" />
      <rect x="950.40" y="0.00" width="9.60" height="307.88" />
      <rect x="964.80" y="0.00" width="9.60" height="307.88" />
      <rect x="988.80" y="0.00" width="9.60" height="307.88" />
      <rect x="1003.20" y="0.00" width="19.20" height="307.88" />
      <rect x="1032.00" y="0.00" width="4.80" height="307.88" />
      <rect x="1041.60" y="0.00" width="4.80" height="307.88" />
      <rect x="1056.00" y="0.00" width="9.60" height="307.88" />
      <rect x="1080.00" y="0.00" width="14.40" height="307.88" />
      <rect x="1099.20" y="0.00" width="4.80" height="307.88" />
      <rect x="1108.80" y="0.00" width="9.60" height="307.88" />
      <text x="559.20" y="341.48" text-anchor="middle"
         font-family="Helvetica, sans-serif" font-size="33.6" >
         (01)98898765432106(3202)012345(15)991231
      </text>
   </g>
</svg>
