<?xml version="1.0" standalone="no"?>
<!DOCTYPE svg PUBLIC "-//W3C//DTD SVG 1.1//EN" "http://www.w3.org/Graphics/SVG/1.1/DTD/svg11.dtd">
<svg width="616" height="342" version="1.1" xmlns="http://www.w3.org/2000/svg">
 <desc>Zint Generated Symbol</desc>
 <g id="barcode" fill="#000000">
  <rect x="0" y="0" width="616" height="342" fill="#FFFFFF"/>
  <path d="M0 0h32v48h-32ZM36 0h4v52h-4ZM44 0h4v48h-4ZM52 0h4v48h-4ZM68 0h16v12h-16ZM88 0h4v12h-4ZM96 0h4v12h-4ZM104 0h16v12h-16ZM136 0h8v12h-8ZM148 0h4v12h-4ZM156 0h8v12h-8ZM168 0h12v12h-12ZM204 0h12v12h-12ZM220 0h20v12h-20ZM244 0h12v12h-12ZM260 0h4v12h-4ZM272 0h4v12h-4ZM296 0h4v12h-4ZM316 0h4v12h-4ZM332 0h4v12h-4ZM340 0h8v12h-8ZM356 0h4v12h-4ZM368 0h4v12h-4ZM380 0h8v12h-8ZM408 0h8v12h-8ZM432 0h4v12h-4ZM440 0h8v12h-8ZM460 0h12v12h-12ZM476 0h16v12h-16ZM496 0h4v12h-4ZM504 0h4v24h-4ZM516 0h16v12h-16ZM544 0h28v48h-28ZM576 0h4v48h-4ZM592 0h4v48h-4ZM600 0h4v48h-4ZM612 0h4v48h-4ZM68 12h20v12h-20ZM92 12h4v24h-4ZM100 12h4v12h-4ZM116 12h8v12h-8ZM136 12h4v24h-4ZM144 12h4v12h-4ZM160 12h20v12h-20ZM188 12h8v12h-8ZM204 12h24v12h-24ZM232 12h12v12h-12ZM248 12h4v12h-4ZM264 12h4v12h-4ZM272 12h8v12h-8ZM288 12h8v12h-8ZM300 12h16v12h-16ZM328 12h4v12h-4ZM340 12h4v36h-4ZM348 12h4v24h-4ZM360 12h24v12h-24ZM388 12h12v12h-12ZM408 12h12v12h-12ZM424 12h4v12h-4ZM432 12h16v12h-16ZM456 12h12v12h-12ZM476 12h24v12h-24ZM512 12h4v12h-4ZM520 12h12v12h-12ZM68 24h12v12h-12ZM84 24h4v12h-4ZM104 24h24v12h-24ZM148 24h4v12h-4ZM156 24h8v12h-8ZM172 24h20v12h-20ZM204 24h4v12h-4ZM216 24h4v12h-4ZM224 24h4v12h-4ZM236 24h16v12h-16ZM272 24h4v12h-4ZM280 24h20v12h-20ZM304 24h12v12h-12ZM320 24h8v12h-8ZM356 24h4v12h-4ZM380 24h16v12h-16ZM408 24h20v12h-20ZM432 24h4v12h-4ZM440 24h16v12h-16ZM464 24h8v12h-8ZM476 24h8v12h-8ZM488 24h4v12h-4ZM496 24h4v12h-4ZM512 24h20v12h-20ZM68 36h4v12h-4ZM76 36h4v12h-4ZM84 36h16v12h-16ZM108 36h16v12h-16ZM136 36h12v12h-12ZM160 36h12v12h-12ZM184 36h4v12h-4ZM192 36h4v12h-4ZM204 36h12v12h-12ZM220 36h8v12h-8ZM232 36h4v12h-4ZM252 36h8v12h-8ZM272 36h8v12h-8ZM284 36h12v12h-12ZM304 36h8v12h-8ZM316 36h4v12h-4ZM352 36h8v12h-8ZM368 36h16v12h-16ZM388 36h12v12h-12ZM408 36h8v12h-8ZM428 36h8v16h-8ZM444 36h4v12h-4ZM464 36h4v12h-4ZM476 36h20v12h-20ZM500 36h4v12h-4ZM508 36h24v12h-24ZM536 36h4v16h-4ZM44 48h8v4h-8ZM64 48h8v4h-8ZM88 48h4v4h-4ZM96 48h4v4h-4ZM112 48h4v4h-4ZM124 48h8v4h-8ZM140 48h4v4h-4ZM152 48h8v4h-8ZM164 48h8v4h-8ZM176 48h8v4h-8ZM192 48h12v4h-12ZM212 48h4v4h-4ZM224 48h12v4h-12ZM244 48h4v4h-4ZM260 48h4v4h-4ZM272 48h4v4h-4ZM288 48h4v4h-4ZM296 48h4v4h-4ZM312 48h4v4h-4ZM324 48h12v4h-12ZM340 48h16v4h-16ZM360 48h4v4h-4ZM372 48h8v4h-8ZM388 48h4v4h-4ZM400 48h4v4h-4ZM420 48h4v4h-4ZM440 48h8v4h-8ZM456 48h12v4h-12ZM472 48h4v4h-4ZM492 48h4v4h-4ZM508 48h4v4h-4ZM520 48h4v4h-4ZM544 48h12v4h-12ZM564 48h12v4h-12ZM588 48h4v4h-4ZM596 48h4v4h-4ZM28 52h8v256.57h-8ZM40 52h4v256.57h-4ZM52 52h12v256.57h-12ZM72 52h16v256.57h-16ZM92 52h4v256.57h-4ZM100 52h12v256.57h-12ZM116 52h8v256.57h-8ZM132 52h8v256.57h-8ZM144 52h8v256.57h-8ZM160 52h4v256.57h-4ZM172 52h4v256.57h-4ZM184 52h8v256.57h-8ZM204 52h8v256.57h-8ZM216 52h8v256.57h-8ZM236 52h8v256.57h-8ZM248 52h12v256.57h-12ZM264 52h8v256.57h-8ZM276 52h12v256.57h-12ZM292 52h4v256.57h-4ZM300 52h12v256.57h-12ZM316 52h8v256.57h-8ZM336 52h4v256.57h-4ZM356 52h4v256.57h-4ZM364 52h8v256.57h-8ZM380 52h8v256.57h-8ZM392 52h8v256.57h-8ZM404 52h16v256.57h-16ZM424 52h4v256.57h-4ZM436 52h4v256.57h-4ZM448 52h8v256.57h-8ZM468 52h4v256.57h-4ZM476 52h16v256.57h-16ZM496 52h12v256.57h-12ZM512 52h8v256.57h-8ZM524 52h12v256.57h-12ZM540 52h4v256.57h-4ZM556 52h8v256.57h-8ZM576 52h12v256.57h-12ZM592 52h4v256.57h-4ZM600 52h8v256.57h-8Z"/>
  <text x="318" y="335.25" text-anchor="middle" font-family="Arimo, Arial, sans-serif" font-size="28">
   (01)03312345678903
  </text>
 </g>
</svg>
