<?xml version="1.0" standalone="no"?>
<!DOCTYPE svg PUBLIC "-//W3C//DTD SVG 1.1//EN"
   "http://www.w3.org/Graphics/SVG/1.1/DTD/svg11.dtd">
<svg width="616" height="347" version="1.1"
   xmlns="http://www.w3.org/2000/svg">
   <desc>Zint Generated Symbol
   </desc>

   <g id="barcode" fill="#000000">
      <rect x="0" y="0" width="616" height="347" fill="#FFFFFF" />
      <rect x="0.00" y="0.00" width="32.00" height="48.00" />
      <rect x="36.00" y="0.00" width="4.00" height="52.00" />
      <rect x="44.00" y="0.00" width="4.00" height="48.00" />
      <rect x="52.00" y="0.00" width="4.00" height="48.00" />
      <rect x="68.00" y="0.00" width="16.00" height="12.00" />
      <rect x="88.00" y="0.00" width="4.00" height="12.00" />
      <rect x="96.00" y="0.00" width="4.00" height="12.00" />
      <rect x="104.00" y="0.00" width="16.00" height="12.00" />
      <rect x="136.00" y="0.00" width="8.00" height="12.00" />
      <rect x="148.00" y="0.00" width="4.00" height="12.00" />
      <rect x="156.00" y="0.00" width="8.00" height="12.00" />
      <rect x="168.00" y="0.00" width="12.00" height="12.00" />
      <rect x="204.00" y="0.00" width="12.00" height="12.00" />
      <rect x="220.00" y="0.00" width="20.00" height="12.00" />
      <rect x="244.00" y="0.00" width="12.00" height="12.00" />
      <rect x="260.00" y="0.00" width="4.00" height="12.00" />
      <rect x="272.00" y="0.00" width="4.00" height="12.00" />
      <rect x="296.00" y="0.00" width="4.00" height="12.00" />
      <rect x="316.00" y="0.00" width="4.00" height="12.00" />
      <rect x="332.00" y="0.00" width="4.00" height="12.00" />
      <rect x="340.00" y="0.00" width="8.00" height="12.00" />
      <rect x="356.00" y="0.00" width="4.00" height="12.00" />
      <rect x="368.00" y="0.00" width="4.00" height="12.00" />
      <rect x="380.00" y="0.00" width="8.00" height="12.00" />
      <rect x="408.00" y="0.00" width="8.00" height="12.00" />
      <rect x="432.00" y="0.00" width="4.00" height="12.00" />
      <rect x="440.00" y="0.00" width="8.00" height="12.00" />
      <rect x="460.00" y="0.00" width="12.00" height="12.00" />
      <rect x="476.00" y="0.00" width="16.00" height="12.00" />
      <rect x="496.00" y="0.00" width="4.00" height="12.00" />
      <rect x="504.00" y="0.00" width="4.00" height="24.00" />
      <rect x="516.00" y="0.00" width="16.00" height="12.00" />
      <rect x="544.00" y="0.00" width="28.00" height="48.00" />
      <rect x="576.00" y="0.00" width="4.00" height="48.00" />
      <rect x="592.00" y="0.00" width="4.00" height="48.00" />
      <rect x="600.00" y="0.00" width="4.00" height="48.00" />
      <rect x="612.00" y="0.00" width="4.00" height="48.00" />
      <rect x="68.00" y="12.00" width="20.00" height="12.00" />
      <rect x="92.00" y="12.00" width="4.00" height="24.00" />
      <rect x="100.00" y="12.00" width="4.00" height="12.00" />
      <rect x="116.00" y="12.00" width="8.00" height="12.00" />
      <rect x="136.00" y="12.00" width="4.00" height="24.00" />
      <rect x="144.00" y="12.00" width="4.00" height="12.00" />
      <rect x="160.00" y="12.00" width="20.00" height="12.00" />
      <rect x="188.00" y="12.00" width="8.00" height="12.00" />
      <rect x="204.00" y="12.00" width="24.00" height="12.00" />
      <rect x="232.00" y="12.00" width="12.00" height="12.00" />
      <rect x="248.00" y="12.00" width="4.00" height="12.00" />
      <rect x="264.00" y="12.00" width="4.00" height="12.00" />
      <rect x="272.00" y="12.00" width="8.00" height="12.00" />
      <rect x="288.00" y="12.00" width="8.00" height="12.00" />
      <rect x="300.00" y="12.00" width="16.00" height="12.00" />
      <rect x="328.00" y="12.00" width="4.00" height="12.00" />
      <rect x="340.00" y="12.00" width="4.00" height="36.00" />
      <rect x="348.00" y="12.00" width="4.00" height="24.00" />
      <rect x="360.00" y="12.00" width="24.00" height="12.00" />
      <rect x="388.00" y="12.00" width="12.00" height="12.00" />
      <rect x="408.00" y="12.00" width="12.00" height="12.00" />
      <rect x="424.00" y="12.00" width="4.00" height="12.00" />
      <rect x="432.00" y="12.00" width="16.00" height="12.00" />
      <rect x="456.00" y="12.00" width="12.00" height="12.00" />
      <rect x="476.00" y="12.00" width="24.00" height="12.00" />
      <rect x="512.00" y="12.00" width="4.00" height="12.00" />
      <rect x="520.00" y="12.00" width="12.00" height="12.00" />
      <rect x="68.00" y="24.00" width="12.00" height="12.00" />
      <rect x="84.00" y="24.00" width="4.00" height="12.00" />
      <rect x="104.00" y="24.00" width="24.00" height="12.00" />
      <rect x="148.00" y="24.00" width="4.00" height="12.00" />
      <rect x="156.00" y="24.00" width="8.00" height="12.00" />
      <rect x="172.00" y="24.00" width="20.00" height="12.00" />
      <rect x="204.00" y="24.00" width="4.00" height="12.00" />
      <rect x="216.00" y="24.00" width="4.00" height="12.00" />
      <rect x="224.00" y="24.00" width="4.00" height="12.00" />
      <rect x="236.00" y="24.00" width="16.00" height="12.00" />
      <rect x="272.00" y="24.00" width="4.00" height="12.00" />
      <rect x="280.00" y="24.00" width="20.00" height="12.00" />
      <rect x="304.00" y="24.00" width="12.00" height="12.00" />
      <rect x="320.00" y="24.00" width="8.00" height="12.00" />
      <rect x="356.00" y="24.00" width="4.00" height="12.00" />
      <rect x="380.00" y="24.00" width="16.00" height="12.00" />
      <rect x="408.00" y="24.00" width="20.00" height="12.00" />
      <rect x="432.00" y="24.00" width="4.00" height="12.00" />
      <rect x="440.00" y="24.00" width="16.00" height="12.00" />
      <rect x="464.00" y="24.00" width="8.00" height="12.00" />
      <rect x="476.00" y="24.00" width="8.00" height="12.00" />
      <rect x="488.00" y="24.00" width="4.00" height="12.00" />
      <rect x="496.00" y="24.00" width="4.00" height="12.00" />
      <rect x="512.00" y="24.00" width="20.00" height="12.00" />
      <rect x="68.00" y="36.00" width="4.00" height="12.00" />
      <rect x="76.00" y="36.00" width="4.00" height="12.00" />
      <rect x="84.00" y="36.00" width="16.00" height="12.00" />
      <rect x="108.00" y="36.00" width="16.00" height="12.00" />
      <rect x="136.00" y="36.00" width="12.00" height="12.00" />
      <rect x="160.00" y="36.00" width="12.00" height="12.00" />
      <rect x="184.00" y="36.00" width="4.00" height="12.00" />
      <rect x="192.00" y="36.00" width="4.00" height="12.00" />
      <rect x="204.00" y="36.00" width="12.00" height="12.00" />
      <rect x="220.00" y="36.00" width="8.00" height="12.00" />
      <rect x="232.00" y="36.00" width="4.00" height="12.00" />
      <rect x="252.00" y="36.00" width="8.00" height="12.00" />
      <rect x="272.00" y="36.00" width="8.00" height="12.00" />
      <rect x="284.00" y="36.00" width="12.00" height="12.00" />
      <rect x="304.00" y="36.00" width="8.00" height="12.00" />
      <rect x="316.00" y="36.00" width="4.00" height="12.00" />
      <rect x="352.00" y="36.00" width="8.00" height="12.00" />
      <rect x="368.00" y="36.00" width="16.00" height="12.00" />
      <rect x="388.00" y="36.00" width="12.00" height="12.00" />
      <rect x="408.00" y="36.00" width="8.00" height="12.00" />
      <rect x="428.00" y="36.00" width="8.00" height="16.00" />
      <rect x="444.00" y="36.00" width="4.00" height="12.00" />
      <rect x="464.00" y="36.00" width="4.00" height="12.00" />
      <rect x="476.00" y="36.00" width="20.00" height="12.00" />
      <rect x="500.00" y="36.00" width="4.00" height="12.00" />
      <rect x="508.00" y="36.00" width="24.00" height="12.00" />
      <rect x="536.00" y="36.00" width="4.00" height="16.00" />
      <rect x="44.00" y="48.00" width="8.00" height="4.00" />
      <rect x="64.00" y="48.00" width="8.00" height="4.00" />
      <rect x="88.00" y="48.00" width="4.00" height="4.00" />
      <rect x="96.00" y="48.00" width="4.00" height="4.00" />
      <rect x="112.00" y="48.00" width="4.00" height="4.00" />
      <rect x="124.00" y="48.00" width="8.00" height="4.00" />
      <rect x="140.00" y="48.00" width="4.00" height="4.00" />
      <rect x="152.00" y="48.00" width="8.00" height="4.00" />
      <rect x="164.00" y="48.00" width="8.00" height="4.00" />
      <rect x="176.00" y="48.00" width="8.00" height="4.00" />
      <rect x="192.00" y="48.00" width="12.00" height="4.00" />
      <rect x="212.00" y="48.00" width="4.00" height="4.00" />
      <rect x="224.00" y="48.00" width="12.00" height="4.00" />
      <rect x="244.00" y="48.00" width="4.00" height="4.00" />
      <rect x="260.00" y="48.00" width="4.00" height="4.00" />
      <rect x="272.00" y="48.00" width="4.00" height="4.00" />
      <rect x="288.00" y="48.00" width="4.00" height="4.00" />
      <rect x="296.00" y="48.00" width="4.00" height="4.00" />
      <rect x="312.00" y="48.00" width="4.00" height="4.00" />
      <rect x="324.00" y="48.00" width="12.00" height="4.00" />
      <rect x="340.00" y="48.00" width="16.00" height="4.00" />
      <rect x="360.00" y="48.00" width="4.00" height="4.00" />
      <rect x="372.00" y="48.00" width="8.00" height="4.00" />
      <rect x="388.00" y="48.00" width="4.00" height="4.00" />
      <rect x="400.00" y="48.00" width="4.00" height="4.00" />
      <rect x="420.00" y="48.00" width="4.00" height="4.00" />
      <rect x="440.00" y="48.00" width="8.00" height="4.00" />
      <rect x="456.00" y="48.00" width="12.00" height="4.00" />
      <rect x="472.00" y="48.00" width="4.00" height="4.00" />
      <rect x="492.00" y="48.00" width="4.00" height="4.00" />
      <rect x="508.00" y="48.00" width="4.00" height="4.00" />
      <rect x="520.00" y="48.00" width="4.00" height="4.00" />
      <rect x="544.00" y="48.00" width="12.00" height="4.00" />
      <rect x="564.00" y="48.00" width="12.00" height="4.00" />
      <rect x="588.00" y="48.00" width="4.00" height="4.00" />
      <rect x="596.00" y="48.00" width="4.00" height="4.00" />
      <rect x="28.00" y="52.00" width="8.00" height="256.57" />
      <rect x="40.00" y="52.00" width="4.00" height="256.57" />
      <rect x="52.00" y="52.00" width="12.00" height="256.57" />
      <rect x="72.00" y="52.00" width="16.00" height="256.57" />
      <rect x="92.00" y="52.00" width="4.00" height="256.57" />
      <rect x="100.00" y="52.00" width="12.00" height="256.57" />
      <rect x="116.00" y="52.00" width="8.00" height="256.57" />
      <rect x="132.00" y="52.00" width="8.00" height="256.57" />
      <rect x="144.00" y="52.00" width="8.00" height="256.57" />
      <rect x="160.00" y="52.00" width="4.00" height="256.57" />
      <rect x="172.00" y="52.00" width="4.00" height="256.57" />
      <rect x="184.00" y="52.00" width="8.00" height="256.57" />
      <rect x="204.00" y="52.00" width="8.00" height="256.57" />
      <rect x="216.00" y="52.00" width="8.00" height="256.57" />
      <rect x="236.00" y="52.00" width="8.00" height="256.57" />
      <rect x="248.00" y="52.00" width="12.00" height="256.57" />
      <rect x="264.00" y="52.00" width="8.00" height="256.57" />
      <rect x="276.00" y="52.00" width="12.00" height="256.57" />
      <rect x="292.00" y="52.00" width="4.00" height="256.57" />
      <rect x="300.00" y="52.00" width="12.00" height="256.57" />
      <rect x="316.00" y="52.00" width="8.00" height="256.57" />
      <rect x="336.00" y="52.00" width="4.00" height="256.57" />
      <rect x="356.00" y="52.00" width="4.00" height="256.57" />
      <rect x="364.00" y="52.00" width="8.00" height="256.57" />
      <rect x="380.00" y="52.00" width="8.00" height="256.57" />
      <rect x="392.00" y="52.00" width="8.00" height="256.57" />
      <rect x="404.00" y="52.00" width="16.00" height="256.57" />
      <rect x="424.00" y="52.00" width="4.00" height="256.57" />
      <rect x="436.00" y="52.00" width="4.00" height="256.57" />
      <rect x="448.00" y="52.00" width="8.00" height="256.57" />
      <rect x="468.00" y="52.00" width="4.00" height="256.57" />
      <rect x="476.00" y="52.00" width="16.00" height="256.57" />
      <rect x="496.00" y="52.00" width="12.00" height="256.57" />
      <rect x="512.00" y="52.00" width="8.00" height="256.57" />
      <rect x="524.00" y="52.00" width="12.00" height="256.57" />
      <rect x="540.00" y="52.00" width="4.00" height="256.57" />
      <rect x="556.00" y="52.00" width="8.00" height="256.57" />
      <rect x="576.00" y="52.00" width="12.00" height="256.57" />
      <rect x="592.00" y="52.00" width="4.00" height="256.57" />
      <rect x="600.00" y="52.00" width="8.00" height="256.57" />
      <text x="308.00" y="336.57" text-anchor="middle"
         font-family="Helvetica, sans-serif" font-size="28.0" >
         (01)03312345678903
      </text>
   </g>
</svg>
