<?xml version="1.0" standalone="no"?>
<!DOCTYPE svg PUBLIC "-//W3C//DTD SVG 1.1//EN"
   "http://www.w3.org/Graphics/SVG/1.1/DTD/svg11.dtd">
<svg width="154" height="87" version="1.1"
   xmlns="http://www.w3.org/2000/svg">
   <desc>Zint Generated Symbol
   </desc>

   <g id="barcode" fill="#000000">
      <rect x="0" y="0" width="154" height="87" fill="#FFFFFF" />
      <rect x="0.00" y="0.00" width="8.00" height="12.00" />
      <rect x="9.00" y="0.00" width="1.00" height="13.00" />
      <rect x="11.00" y="0.00" width="1.00" height="12.00" />
      <rect x="13.00" y="0.00" width="1.00" height="12.00" />
      <rect x="17.00" y="0.00" width="4.00" height="3.00" />
      <rect x="22.00" y="0.00" width="1.00" height="3.00" />
      <rect x="24.00" y="0.00" width="1.00" height="3.00" />
      <rect x="26.00" y="0.00" width="4.00" height="3.00" />
      <rect x="34.00" y="0.00" width="2.00" height="3.00" />
      <rect x="37.00" y="0.00" width="1.00" height="3.00" />
      <rect x="39.00" y="0.00" width="2.00" height="3.00" />
      <rect x="42.00" y="0.00" width="3.00" height="3.00" />
      <rect x="51.00" y="0.00" width="3.00" height="3.00" />
      <rect x="55.00" y="0.00" width="5.00" height="3.00" />
      <rect x="61.00" y="0.00" width="3.00" height="3.00" />
      <rect x="65.00" y="0.00" width="1.00" height="3.00" />
      <rect x="68.00" y="0.00" width="1.00" height="3.00" />
      <rect x="74.00" y="0.00" width="1.00" height="3.00" />
      <rect x="79.00" y="0.00" width="1.00" height="3.00" />
      <rect x="83.00" y="0.00" width="1.00" height="3.00" />
      <rect x="85.00" y="0.00" width="2.00" height="3.00" />
      <rect x="89.00" y="0.00" width="1.00" height="3.00" />
      <rect x="92.00" y="0.00" width="1.00" height="3.00" />
      <rect x="95.00" y="0.00" width="2.00" height="3.00" />
      <rect x="102.00" y="0.00" width="2.00" height="3.00" />
      <rect x="108.00" y="0.00" width="1.00" height="3.00" />
      <rect x="110.00" y="0.00" width="2.00" height="3.00" />
      <rect x="115.00" y="0.00" width="3.00" height="3.00" />
      <rect x="119.00" y="0.00" width="4.00" height="3.00" />
      <rect x="124.00" y="0.00" width="1.00" height="3.00" />
      <rect x="126.00" y="0.00" width="1.00" height="6.00" />
      <rect x="129.00" y="0.00" width="4.00" height="3.00" />
      <rect x="136.00" y="0.00" width="7.00" height="12.00" />
      <rect x="144.00" y="0.00" width="1.00" height="12.00" />
      <rect x="148.00" y="0.00" width="1.00" height="12.00" />
      <rect x="150.00" y="0.00" width="1.00" height="12.00" />
      <rect x="153.00" y="0.00" width="1.00" height="12.00" />
      <rect x="17.00" y="3.00" width="5.00" height="3.00" />
      <rect x="23.00" y="3.00" width="1.00" height="6.00" />
      <rect x="25.00" y="3.00" width="1.00" height="3.00" />
      <rect x="29.00" y="3.00" width="2.00" height="3.00" />
      <rect x="34.00" y="3.00" width="1.00" height="6.00" />
      <rect x="36.00" y="3.00" width="1.00" height="3.00" />
      <rect x="40.00" y="3.00" width="5.00" height="3.00" />
      <rect x="47.00" y="3.00" width="2.00" height="3.00" />
      <rect x="51.00" y="3.00" width="6.00" height="3.00" />
      <rect x="58.00" y="3.00" width="3.00" height="3.00" />
      <rect x="62.00" y="3.00" width="1.00" height="3.00" />
      <rect x="66.00" y="3.00" width="1.00" height="3.00" />
      <rect x="68.00" y="3.00" width="2.00" height="3.00" />
      <rect x="72.00" y="3.00" width="2.00" height="3.00" />
      <rect x="75.00" y="3.00" width="4.00" height="3.00" />
      <rect x="82.00" y="3.00" width="1.00" height="3.00" />
      <rect x="85.00" y="3.00" width="1.00" height="9.00" />
      <rect x="87.00" y="3.00" width="1.00" height="6.00" />
      <rect x="90.00" y="3.00" width="6.00" height="3.00" />
      <rect x="97.00" y="3.00" width="3.00" height="3.00" />
      <rect x="102.00" y="3.00" width="3.00" height="3.00" />
      <rect x="106.00" y="3.00" width="1.00" height="3.00" />
      <rect x="108.00" y="3.00" width="4.00" height="3.00" />
      <rect x="114.00" y="3.00" width="3.00" height="3.00" />
      <rect x="119.00" y="3.00" width="6.00" height="3.00" />
      <rect x="128.00" y="3.00" width="1.00" height="3.00" />
      <rect x="130.00" y="3.00" width="3.00" height="3.00" />
      <rect x="17.00" y="6.00" width="3.00" height="3.00" />
      <rect x="21.00" y="6.00" width="1.00" height="3.00" />
      <rect x="26.00" y="6.00" width="6.00" height="3.00" />
      <rect x="37.00" y="6.00" width="1.00" height="3.00" />
      <rect x="39.00" y="6.00" width="2.00" height="3.00" />
      <rect x="43.00" y="6.00" width="5.00" height="3.00" />
      <rect x="51.00" y="6.00" width="1.00" height="3.00" />
      <rect x="54.00" y="6.00" width="1.00" height="3.00" />
      <rect x="56.00" y="6.00" width="1.00" height="3.00" />
      <rect x="59.00" y="6.00" width="4.00" height="3.00" />
      <rect x="68.00" y="6.00" width="1.00" height="3.00" />
      <rect x="70.00" y="6.00" width="5.00" height="3.00" />
      <rect x="76.00" y="6.00" width="3.00" height="3.00" />
      <rect x="80.00" y="6.00" width="2.00" height="3.00" />
      <rect x="89.00" y="6.00" width="1.00" height="3.00" />
      <rect x="95.00" y="6.00" width="4.00" height="3.00" />
      <rect x="102.00" y="6.00" width="5.00" height="3.00" />
      <rect x="108.00" y="6.00" width="1.00" height="3.00" />
      <rect x="110.00" y="6.00" width="4.00" height="3.00" />
      <rect x="116.00" y="6.00" width="2.00" height="3.00" />
      <rect x="119.00" y="6.00" width="2.00" height="3.00" />
      <rect x="122.00" y="6.00" width="1.00" height="3.00" />
      <rect x="124.00" y="6.00" width="1.00" height="3.00" />
      <rect x="128.00" y="6.00" width="5.00" height="3.00" />
      <rect x="17.00" y="9.00" width="1.00" height="3.00" />
      <rect x="19.00" y="9.00" width="1.00" height="3.00" />
      <rect x="21.00" y="9.00" width="4.00" height="3.00" />
      <rect x="27.00" y="9.00" width="4.00" height="3.00" />
      <rect x="34.00" y="9.00" width="3.00" height="3.00" />
      <rect x="40.00" y="9.00" width="3.00" height="3.00" />
      <rect x="46.00" y="9.00" width="1.00" height="3.00" />
      <rect x="48.00" y="9.00" width="1.00" height="3.00" />
      <rect x="51.00" y="9.00" width="3.00" height="3.00" />
      <rect x="55.00" y="9.00" width="2.00" height="3.00" />
      <rect x="58.00" y="9.00" width="1.00" height="3.00" />
      <rect x="63.00" y="9.00" width="2.00" height="3.00" />
      <rect x="68.00" y="9.00" width="2.00" height="3.00" />
      <rect x="71.00" y="9.00" width="3.00" height="3.00" />
      <rect x="76.00" y="9.00" width="2.00" height="3.00" />
      <rect x="79.00" y="9.00" width="1.00" height="3.00" />
      <rect x="88.00" y="9.00" width="2.00" height="3.00" />
      <rect x="92.00" y="9.00" width="4.00" height="3.00" />
      <rect x="97.00" y="9.00" width="3.00" height="3.00" />
      <rect x="102.00" y="9.00" width="2.00" height="3.00" />
      <rect x="107.00" y="9.00" width="2.00" height="4.00" />
      <rect x="111.00" y="9.00" width="1.00" height="3.00" />
      <rect x="116.00" y="9.00" width="1.00" height="3.00" />
      <rect x="119.00" y="9.00" width="5.00" height="3.00" />
      <rect x="125.00" y="9.00" width="1.00" height="3.00" />
      <rect x="127.00" y="9.00" width="6.00" height="3.00" />
      <rect x="134.00" y="9.00" width="1.00" height="4.00" />
      <rect x="11.00" y="12.00" width="2.00" height="1.00" />
      <rect x="16.00" y="12.00" width="2.00" height="1.00" />
      <rect x="22.00" y="12.00" width="1.00" height="1.00" />
      <rect x="24.00" y="12.00" width="1.00" height="1.00" />
      <rect x="28.00" y="12.00" width="1.00" height="1.00" />
      <rect x="31.00" y="12.00" width="2.00" height="1.00" />
      <rect x="35.00" y="12.00" width="1.00" height="1.00" />
      <rect x="38.00" y="12.00" width="2.00" height="1.00" />
      <rect x="41.00" y="12.00" width="2.00" height="1.00" />
      <rect x="44.00" y="12.00" width="2.00" height="1.00" />
      <rect x="48.00" y="12.00" width="3.00" height="1.00" />
      <rect x="53.00" y="12.00" width="1.00" height="1.00" />
      <rect x="56.00" y="12.00" width="3.00" height="1.00" />
      <rect x="61.00" y="12.00" width="1.00" height="1.00" />
      <rect x="65.00" y="12.00" width="1.00" height="1.00" />
      <rect x="68.00" y="12.00" width="1.00" height="1.00" />
      <rect x="72.00" y="12.00" width="1.00" height="1.00" />
      <rect x="74.00" y="12.00" width="1.00" height="1.00" />
      <rect x="78.00" y="12.00" width="1.00" height="1.00" />
      <rect x="81.00" y="12.00" width="3.00" height="1.00" />
      <rect x="85.00" y="12.00" width="4.00" height="1.00" />
      <rect x="90.00" y="12.00" width="1.00" height="1.00" />
      <rect x="93.00" y="12.00" width="2.00" height="1.00" />
      <rect x="97.00" y="12.00" width="1.00" height="1.00" />
      <rect x="100.00" y="12.00" width="1.00" height="1.00" />
      <rect x="105.00" y="12.00" width="1.00" height="1.00" />
      <rect x="110.00" y="12.00" width="2.00" height="1.00" />
      <rect x="114.00" y="12.00" width="3.00" height="1.00" />
      <rect x="118.00" y="12.00" width="1.00" height="1.00" />
      <rect x="123.00" y="12.00" width="1.00" height="1.00" />
      <rect x="127.00" y="12.00" width="1.00" height="1.00" />
      <rect x="130.00" y="12.00" width="1.00" height="1.00" />
      <rect x="136.00" y="12.00" width="3.00" height="1.00" />
      <rect x="141.00" y="12.00" width="3.00" height="1.00" />
      <rect x="147.00" y="12.00" width="1.00" height="1.00" />
      <rect x="149.00" y="12.00" width="1.00" height="1.00" />
      <rect x="7.00" y="13.00" width="2.00" height="64.14" />
      <rect x="10.00" y="13.00" width="1.00" height="64.14" />
      <rect x="13.00" y="13.00" width="3.00" height="64.14" />
      <rect x="18.00" y="13.00" width="4.00" height="64.14" />
      <rect x="23.00" y="13.00" width="1.00" height="64.14" />
      <rect x="25.00" y="13.00" width="3.00" height="64.14" />
      <rect x="29.00" y="13.00" width="2.00" height="64.14" />
      <rect x="33.00" y="13.00" width="2.00" height="64.14" />
      <rect x="36.00" y="13.00" width="2.00" height="64.14" />
      <rect x="40.00" y="13.00" width="1.00" height="64.14" />
      <rect x="43.00" y="13.00" width="1.00" height="64.14" />
      <rect x="46.00" y="13.00" width="2.00" height="64.14" />
      <rect x="51.00" y="13.00" width="2.00" height="64.14" />
      <rect x="54.00" y="13.00" width="2.00" height="64.14" />
      <rect x="59.00" y="13.00" width="2.00" height="64.14" />
      <rect x="62.00" y="13.00" width="3.00" height="64.14" />
      <rect x="66.00" y="13.00" width="2.00" height="64.14" />
      <rect x="69.00" y="13.00" width="3.00" height="64.14" />
      <rect x="73.00" y="13.00" width="1.00" height="64.14" />
      <rect x="75.00" y="13.00" width="3.00" height="64.14" />
      <rect x="79.00" y="13.00" width="2.00" height="64.14" />
      <rect x="84.00" y="13.00" width="1.00" height="64.14" />
      <rect x="89.00" y="13.00" width="1.00" height="64.14" />
      <rect x="91.00" y="13.00" width="2.00" height="64.14" />
      <rect x="95.00" y="13.00" width="2.00" height="64.14" />
      <rect x="98.00" y="13.00" width="2.00" height="64.14" />
      <rect x="101.00" y="13.00" width="4.00" height="64.14" />
      <rect x="106.00" y="13.00" width="1.00" height="64.14" />
      <rect x="109.00" y="13.00" width="1.00" height="64.14" />
      <rect x="112.00" y="13.00" width="2.00" height="64.14" />
      <rect x="117.00" y="13.00" width="1.00" height="64.14" />
      <rect x="119.00" y="13.00" width="4.00" height="64.14" />
      <rect x="124.00" y="13.00" width="3.00" height="64.14" />
      <rect x="128.00" y="13.00" width="2.00" height="64.14" />
      <rect x="131.00" y="13.00" width="3.00" height="64.14" />
      <rect x="135.00" y="13.00" width="1.00" height="64.14" />
      <rect x="139.00" y="13.00" width="2.00" height="64.14" />
      <rect x="144.00" y="13.00" width="3.00" height="64.14" />
      <rect x="148.00" y="13.00" width="1.00" height="64.14" />
      <rect x="150.00" y="13.00" width="2.00" height="64.14" />
      <text x="77.00" y="84.84" text-anchor="middle"
         font-family="Helvetica, sans-serif" font-size="7.0" >
         (01)03312345678903
      </text>
   </g>
</svg>
