<?xml version="1.0" standalone="no"?>
<!DOCTYPE svg PUBLIC "-//W3C//DTD SVG 1.1//EN" "http://www.w3.org/Graphics/SVG/1.1/DTD/svg11.dtd">
<svg width="184" height="184" version="1.1" xmlns="http://www.w3.org/2000/svg">
 <desc>Zint Generated Symbol</desc>
 <g id="barcode" fill="#000000">
  <rect x="0" y="0" width="184" height="184" fill="#FFFFFF"/>
  <path d="M0 0h56v8h-56ZM80 0h24v8h-24ZM128 0h56v8h-56ZM0 8h8v48h-8ZM64 8h8v8h-8ZM88 8h32v8h-32ZM176 8h8v48h-8ZM16 16h40v8h-40ZM72 16h8v8h-8ZM88 16h8v8h-8ZM112 16h8v8h-8ZM128 16h40v8h-40ZM16 24h8v32h-8ZM64 24h16v8h-16ZM96 24h24v16h-24ZM160 24h8v32h-8ZM32 32h24v24h-24ZM128 32h24v24h-24ZM64 40h8v8h-8ZM88 40h8v8h-8ZM104 40h8v8h-8ZM72 48h24v8h-24ZM72 56h8v8h-8ZM96 56h8v8h-8ZM112 56h8v8h-8ZM24 64h8v8h-8ZM40 64h8v8h-8ZM56 64h8v8h-8ZM104 64h8v8h-8ZM120 64h16v8h-16ZM0 72h16v8h-16ZM48 72h8v8h-8ZM80 72h8v8h-8ZM128 72h8v8h-8ZM144 72h16v8h-16ZM176 72h8v16h-8ZM0 80h8v8h-8ZM16 80h16v8h-16ZM40 80h8v8h-8ZM56 80h8v8h-8ZM72 80h16v8h-16ZM104 80h8v8h-8ZM120 80h8v16h-8ZM144 80h24v8h-24ZM8 88h8v8h-8ZM24 88h8v8h-8ZM48 88h16v8h-16ZM80 88h8v24h-8ZM96 88h16v8h-16ZM136 88h8v8h-8ZM152 88h8v8h-8ZM0 96h8v8h-8ZM24 96h16v8h-16ZM48 96h8v8h-8ZM64 96h8v8h-8ZM96 96h8v8h-8ZM120 96h16v8h-16ZM176 96h8v8h-8ZM0 104h24v8h-24ZM40 104h32v8h-32ZM160 104h8v8h-8ZM48 112h16v8h-16ZM80 112h16v8h-16ZM104 112h8v8h-8ZM120 112h8v8h-8ZM136 112h8v8h-8ZM152 112h8v8h-8ZM64 120h8v8h-8ZM80 120h32v8h-32ZM0 128h56v8h-56ZM88 128h24v8h-24ZM128 128h24v24h-24ZM160 128h8v32h-8ZM176 128h8v48h-8ZM48 136h8v48h-8ZM72 136h8v8h-8ZM96 136h8v8h-8ZM112 136h8v8h-8ZM0 144h40v8h-40ZM64 144h8v16h-8ZM80 144h16v8h-16ZM32 152h8v32h-8ZM96 152h24v8h-24ZM0 160h24v24h-24ZM64 160h16v8h-16ZM88 160h8v8h-8ZM104 160h8v8h-8ZM128 160h40v8h-40ZM64 168h24v8h-24ZM112 168h8v8h-8ZM80 176h8v8h-8ZM96 176h8v8h-8ZM128 176h56v8h-56Z"/>
 </g>
</svg>
