<?xml version="1.0" standalone="no"?>
<!DOCTYPE svg PUBLIC "-//W3C//DTD SVG 1.1//EN"
   "http://www.w3.org/Graphics/SVG/1.1/DTD/svg11.dtd">
<svg width="241" height="72" version="1.1"
   xmlns="http://www.w3.org/2000/svg">
   <desc>Zint Generated Symbol
   </desc>

   <g id="barcode" fill="#000000">
      <rect x="0" y="0" width="241" height="72" fill="#FFFFFF" />
      <rect x="0.00" y="0.00" width="2.40" height="60.00" />
      <rect x="3.60" y="0.00" width="1.20" height="60.00" />
      <rect x="7.20" y="0.00" width="1.20" height="60.00" />
      <rect x="13.20" y="0.00" width="2.40" height="60.00" />
      <rect x="19.20" y="0.00" width="1.20" height="60.00" />
      <rect x="22.80" y="0.00" width="1.20" height="60.00" />
      <rect x="26.40" y="0.00" width="1.20" height="60.00" />
      <rect x="28.80" y="0.00" width="1.20" height="60.00" />
      <rect x="33.60" y="0.00" width="2.40" height="60.00" />
      <rect x="39.60" y="0.00" width="1.20" height="60.00" />
      <rect x="43.20" y="0.00" width="3.60" height="60.00" />
      <rect x="49.20" y="0.00" width="2.40" height="60.00" />
      <rect x="52.80" y="0.00" width="2.40" height="60.00" />
      <rect x="57.60" y="0.00" width="3.60" height="60.00" />
      <rect x="63.60" y="0.00" width="1.20" height="60.00" />
      <rect x="66.00" y="0.00" width="2.40" height="60.00" />
      <rect x="70.80" y="0.00" width="1.20" height="60.00" />
      <rect x="73.20" y="0.00" width="3.60" height="60.00" />
      <rect x="79.20" y="0.00" width="1.20" height="60.00" />
      <rect x="84.00" y="0.00" width="1.20" height="60.00" />
      <rect x="86.40" y="0.00" width="2.40" height="60.00" />
      <rect x="92.40" y="0.00" width="1.20" height="60.00" />
      <rect x="94.80" y="0.00" width="2.40" height="60.00" />
      <rect x="98.40" y="0.00" width="3.60" height="60.00" />
      <rect x="105.60" y="0.00" width="1.20" height="60.00" />
      <rect x="110.40" y="0.00" width="1.20" height="60.00" />
      <rect x="115.20" y="0.00" width="2.40" height="60.00" />
      <rect x="118.80" y="0.00" width="2.40" height="60.00" />
      <rect x="122.40" y="0.00" width="3.60" height="60.00" />
      <rect x="128.40" y="0.00" width="1.20" height="60.00" />
      <rect x="132.00" y="0.00" width="1.20" height="60.00" />
      <rect x="134.40" y="0.00" width="2.40" height="60.00" />
      <rect x="140.40" y="0.00" width="1.20" height="60.00" />
      <rect x="145.20" y="0.00" width="2.40" height="60.00" />
      <rect x="150.00" y="0.00" width="3.60" height="60.00" />
      <rect x="154.80" y="0.00" width="1.20" height="60.00" />
      <rect x="158.40" y="0.00" width="1.20" height="60.00" />
      <rect x="163.20" y="0.00" width="2.40" height="60.00" />
      <rect x="166.80" y="0.00" width="1.20" height="60.00" />
      <rect x="171.60" y="0.00" width="3.60" height="60.00" />
      <rect x="176.40" y="0.00" width="2.40" height="60.00" />
      <rect x="180.00" y="0.00" width="3.60" height="60.00" />
      <rect x="184.80" y="0.00" width="1.20" height="60.00" />
      <rect x="188.40" y="0.00" width="3.60" height="60.00" />
      <rect x="194.40" y="0.00" width="2.40" height="60.00" />
      <rect x="198.00" y="0.00" width="2.40" height="60.00" />
      <rect x="201.60" y="0.00" width="1.20" height="60.00" />
      <rect x="206.40" y="0.00" width="1.20" height="60.00" />
      <rect x="211.20" y="0.00" width="2.40" height="60.00" />
      <rect x="217.20" y="0.00" width="2.40" height="60.00" />
      <rect x="220.80" y="0.00" width="2.40" height="60.00" />
      <rect x="224.40" y="0.00" width="2.40" height="60.00" />
      <rect x="230.40" y="0.00" width="3.60" height="60.00" />
      <rect x="235.20" y="0.00" width="1.20" height="60.00" />
      <rect x="237.60" y="0.00" width="2.40" height="60.00" />
      <text x="120.00" y="69.24" text-anchor="middle"
         font-family="Helvetica, sans-serif" font-size="8.4" >
         *+A123BJC5D6E71G*
      </text>
   </g>
</svg>
