<?xml version="1.0" standalone="no"?>
<!DOCTYPE svg PUBLIC "-//W3C//DTD SVG 1.1//EN" "http://www.w3.org/Graphics/SVG/1.1/DTD/svg11.dtd">
<svg width="961" height="280" version="1.1" xmlns="http://www.w3.org/2000/svg">
 <desc>Zint Generated Symbol</desc>
 <g id="barcode" fill="#000000">
  <rect x="0" y="0" width="961" height="280" fill="#FFFFFF"/>
  <path d="M0 0h9.6v240h-9.6ZM14.4 0h4.8v240h-4.8ZM28.8 0h4.8v240h-4.8ZM52.8 0h9.6v240h-9.6ZM76.8 0h4.8v240h-4.8ZM91.2 0h4.8v240h-4.8ZM105.6 0h4.8v240h-4.8ZM115.2 0h4.8v240h-4.8ZM134.4 0h9.6v240h-9.6ZM158.4 0h4.8v240h-4.8ZM172.8 0h14.4v240h-14.4ZM196.8 0h9.6v240h-9.6ZM211.2 0h9.6v240h-9.6ZM230.4 0h14.4v240h-14.4ZM254.4 0h4.8v240h-4.8ZM264 0h9.6v240h-9.6ZM283.2 0h4.8v240h-4.8ZM292.8 0h14.4v240h-14.4ZM316.8 0h4.8v240h-4.8ZM336 0h4.8v240h-4.8ZM345.6 0h9.6v240h-9.6ZM369.6 0h4.8v240h-4.8ZM379.2 0h9.6v240h-9.6ZM393.6 0h14.4v240h-14.4ZM422.4 0h4.8v240h-4.8ZM441.6 0h4.8v240h-4.8ZM460.8 0h9.6v240h-9.6ZM475.2 0h9.6v240h-9.6ZM489.6 0h14.4v240h-14.4ZM513.6 0h4.8v240h-4.8ZM528 0h4.8v240h-4.8ZM537.6 0h9.6v240h-9.6ZM561.6 0h4.8v240h-4.8ZM580.8 0h9.6v240h-9.6ZM600 0h14.4v240h-14.4ZM619.2 0h4.8v240h-4.8ZM633.6 0h4.8v240h-4.8ZM652.8 0h9.6v240h-9.6ZM667.2 0h4.8v240h-4.8ZM686.4 0h14.4v240h-14.4ZM705.6 0h9.6v240h-9.6ZM720 0h14.4v240h-14.4ZM739.2 0h4.8v240h-4.8ZM753.6 0h14.4v240h-14.4ZM777.6 0h9.6v240h-9.6ZM792 0h9.6v240h-9.6ZM806.4 0h4.8v240h-4.8ZM825.6 0h4.8v240h-4.8ZM844.8 0h9.6v240h-9.6ZM868.8 0h9.6v240h-9.6ZM883.2 0h9.6v240h-9.6ZM897.6 0h9.6v240h-9.6ZM921.6 0h14.4v240h-14.4ZM940.8 0h4.8v240h-4.8ZM950.4 0h9.6v240h-9.6Z"/>
  <text x="480" y="272.03" text-anchor="middle" font-family="Arimo, Arial, sans-serif" font-size="33.6">
   *+A123BJC5D6E71G*
  </text>
 </g>
</svg>
