<?xml version="1.0" standalone="no"?>
<!DOCTYPE svg PUBLIC "-//W3C//DTD SVG 1.1//EN" "http://www.w3.org/Graphics/SVG/1.1/DTD/svg11.dtd">
<svg width="192" height="192" version="1.1" xmlns="http://www.w3.org/2000/svg">
 <desc>Zint Generated Symbol</desc>
 <g id="barcode" fill="#000000">
  <rect x="0" y="0" width="192" height="192" fill="#FFFFFF"/>
  <path d="M0 0h9.6v19.2h-9.6ZM19.2 0h9.6v9.6h-9.6ZM38.4 0h9.6v19.2h-9.6ZM57.6 0h9.6v9.6h-9.6ZM76.8 0h9.6v9.6h-9.6ZM96 0h9.6v9.6h-9.6ZM115.2 0h9.6v9.6h-9.6ZM134.4 0h9.6v9.6h-9.6ZM153.6 0h9.6v19.2h-9.6ZM172.8 0h9.6v9.6h-9.6ZM86.4 9.6h9.6v9.6h-9.6ZM115.2 9.6h19.2v9.6h-19.2ZM182.4 9.6h9.6v9.6h-9.6ZM0 19.2h28.8v9.6h-28.8ZM48 19.2h19.2v9.6h-19.2ZM96 19.2h9.6v9.6h-9.6ZM115.2 19.2h9.6v9.6h-9.6ZM134.4 19.2h19.2v9.6h-19.2ZM163.2 19.2h9.6v19.2h-9.6ZM0 28.8h9.6v9.6h-9.6ZM57.6 28.8h9.6v9.6h-9.6ZM76.8 28.8h28.8v9.6h-28.8ZM124.8 28.8h9.6v9.6h-9.6ZM144 28.8h9.6v9.6h-9.6ZM182.4 28.8h9.6v9.6h-9.6ZM0 38.4h19.2v9.6h-19.2ZM28.8 38.4h28.8v9.6h-28.8ZM76.8 38.4h9.6v9.6h-9.6ZM96 38.4h9.6v9.6h-9.6ZM115.2 38.4h9.6v19.2h-9.6ZM134.4 38.4h38.4v9.6h-38.4ZM0 48h9.6v9.6h-9.6ZM28.8 48h9.6v9.6h-9.6ZM67.2 48h28.8v9.6h-28.8ZM134.4 48h9.6v28.8h-9.6ZM182.4 48h9.6v9.6h-9.6ZM0 57.6h19.2v9.6h-19.2ZM28.8 57.6h38.4v9.6h-38.4ZM76.8 57.6h9.6v19.2h-9.6ZM105.6 57.6h9.6v9.6h-9.6ZM163.2 57.6h19.2v9.6h-19.2ZM0 67.2h9.6v9.6h-9.6ZM19.2 67.2h19.2v9.6h-19.2ZM153.6 67.2h38.4v9.6h-38.4ZM0 76.8h57.6v9.6h-57.6ZM86.4 76.8h28.8v9.6h-28.8ZM153.6 76.8h9.6v9.6h-9.6ZM0 86.4h19.2v28.8h-19.2ZM38.4 86.4h9.6v19.2h-9.6ZM57.6 86.4h19.2v9.6h-19.2ZM86.4 86.4h19.2v9.6h-19.2ZM115.2 86.4h9.6v9.6h-9.6ZM153.6 86.4h19.2v9.6h-19.2ZM182.4 86.4h9.6v9.6h-9.6ZM57.6 96h9.6v9.6h-9.6ZM76.8 96h48v9.6h-48ZM134.4 96h19.2v9.6h-19.2ZM67.2 105.6h48v9.6h-48ZM153.6 105.6h38.4v9.6h-38.4ZM0 115.2h38.4v9.6h-38.4ZM57.6 115.2h9.6v9.6h-9.6ZM96 115.2h19.2v9.6h-19.2ZM163.2 115.2h9.6v9.6h-9.6ZM0 124.8h9.6v9.6h-9.6ZM28.8 124.8h19.2v9.6h-19.2ZM57.6 124.8h28.8v9.6h-28.8ZM115.2 124.8h9.6v9.6h-9.6ZM134.4 124.8h19.2v9.6h-19.2ZM172.8 124.8h19.2v9.6h-19.2ZM0 134.4h57.6v9.6h-57.6ZM76.8 134.4h19.2v9.6h-19.2ZM134.4 134.4h48v9.6h-48ZM0 144h19.2v19.2h-19.2ZM48 144h19.2v9.6h-19.2ZM76.8 144h76.8v9.6h-76.8ZM182.4 144h9.6v9.6h-9.6ZM67.2 153.6h9.6v9.6h-9.6ZM86.4 153.6h19.2v9.6h-19.2ZM124.8 153.6h19.2v19.2h-19.2ZM163.2 153.6h19.2v9.6h-19.2ZM0 163.2h9.6v19.2h-9.6ZM19.2 163.2h9.6v9.6h-9.6ZM38.4 163.2h9.6v9.6h-9.6ZM57.6 163.2h9.6v9.6h-9.6ZM86.4 163.2h9.6v9.6h-9.6ZM105.6 163.2h9.6v9.6h-9.6ZM163.2 163.2h9.6v9.6h-9.6ZM182.4 163.2h9.6v9.6h-9.6ZM48 172.8h9.6v9.6h-9.6ZM76.8 172.8h9.6v9.6h-9.6ZM105.6 172.8h19.2v9.6h-19.2ZM144 172.8h9.6v9.6h-9.6ZM172.8 172.8h9.6v9.6h-9.6ZM0 182.4h192v9.6h-192Z"/>
 </g>
</svg>
