<?xml version="1.0" standalone="no"?>
<!DOCTYPE svg PUBLIC "-//W3C//DTD SVG 1.1//EN"
   "http://www.w3.org/Graphics/SVG/1.1/DTD/svg11.dtd">
<svg width="961" height="286" version="1.1"
   xmlns="http://www.w3.org/2000/svg">
   <desc>Zint Generated Symbol
   </desc>

   <g id="barcode" fill="#000000">
      <rect x="0" y="0" width="961" height="286" fill="#FFFFFF" />
      <rect x="0.00" y="0.00" width="9.60" height="240.00" />
      <rect x="14.40" y="0.00" width="4.80" height="240.00" />
      <rect x="28.80" y="0.00" width="4.80" height="240.00" />
      <rect x="52.80" y="0.00" width="9.60" height="240.00" />
      <rect x="76.80" y="0.00" width="4.80" height="240.00" />
      <rect x="91.20" y="0.00" width="4.80" height="240.00" />
      <rect x="105.60" y="0.00" width="4.80" height="240.00" />
      <rect x="115.20" y="0.00" width="4.80" height="240.00" />
      <rect x="134.40" y="0.00" width="9.60" height="240.00" />
      <rect x="158.40" y="0.00" width="4.80" height="240.00" />
      <rect x="172.80" y="0.00" width="14.40" height="240.00" />
      <rect x="196.80" y="0.00" width="9.60" height="240.00" />
      <rect x="211.20" y="0.00" width="9.60" height="240.00" />
      <rect x="230.40" y="0.00" width="14.40" height="240.00" />
      <rect x="254.40" y="0.00" width="4.80" height="240.00" />
      <rect x="264.00" y="0.00" width="9.60" height="240.00" />
      <rect x="283.20" y="0.00" width="4.80" height="240.00" />
      <rect x="292.80" y="0.00" width="14.40" height="240.00" />
      <rect x="316.80" y="0.00" width="4.80" height="240.00" />
      <rect x="336.00" y="0.00" width="4.80" height="240.00" />
      <rect x="345.60" y="0.00" width="9.60" height="240.00" />
      <rect x="369.60" y="0.00" width="4.80" height="240.00" />
      <rect x="379.20" y="0.00" width="9.60" height="240.00" />
      <rect x="393.60" y="0.00" width="14.40" height="240.00" />
      <rect x="422.40" y="0.00" width="4.80" height="240.00" />
      <rect x="441.60" y="0.00" width="4.80" height="240.00" />
      <rect x="460.80" y="0.00" width="9.60" height="240.00" />
      <rect x="475.20" y="0.00" width="9.60" height="240.00" />
      <rect x="489.60" y="0.00" width="14.40" height="240.00" />
      <rect x="513.60" y="0.00" width="4.80" height="240.00" />
      <rect x="528.00" y="0.00" width="4.80" height="240.00" />
      <rect x="537.60" y="0.00" width="9.60" height="240.00" />
      <rect x="561.60" y="0.00" width="4.80" height="240.00" />
      <rect x="580.80" y="0.00" width="9.60" height="240.00" />
      <rect x="600.00" y="0.00" width="14.40" height="240.00" />
      <rect x="619.20" y="0.00" width="4.80" height="240.00" />
      <rect x="633.60" y="0.00" width="4.80" height="240.00" />
      <rect x="652.80" y="0.00" width="9.60" height="240.00" />
      <rect x="667.20" y="0.00" width="4.80" height="240.00" />
      <rect x="686.40" y="0.00" width="14.40" height="240.00" />
      <rect x="705.60" y="0.00" width="9.60" height="240.00" />
      <rect x="720.00" y="0.00" width="14.40" height="240.00" />
      <rect x="739.20" y="0.00" width="4.80" height="240.00" />
      <rect x="753.60" y="0.00" width="14.40" height="240.00" />
      <rect x="777.60" y="0.00" width="9.60" height="240.00" />
      <rect x="792.00" y="0.00" width="9.60" height="240.00" />
      <rect x="806.40" y="0.00" width="4.80" height="240.00" />
      <rect x="825.60" y="0.00" width="4.80" height="240.00" />
      <rect x="844.80" y="0.00" width="9.60" height="240.00" />
      <rect x="868.80" y="0.00" width="9.60" height="240.00" />
      <rect x="883.20" y="0.00" width="9.60" height="240.00" />
      <rect x="897.60" y="0.00" width="9.60" height="240.00" />
      <rect x="921.60" y="0.00" width="14.40" height="240.00" />
      <rect x="940.80" y="0.00" width="4.80" height="240.00" />
      <rect x="950.40" y="0.00" width="9.60" height="240.00" />
      <text x="480.00" y="273.60" text-anchor="middle"
         font-family="Helvetica, sans-serif" font-size="33.6" >
         *+A123BJC5D6E71G*
      </text>
   </g>
</svg>
