<?xml version="1.0" standalone="no"?>
<!DOCTYPE svg PUBLIC "-//W3C//DTD SVG 1.1//EN" "http://www.w3.org/Graphics/SVG/1.1/DTD/svg11.dtd">
<svg width="917" height="280" version="1.1" xmlns="http://www.w3.org/2000/svg">
 <desc>Zint Generated Symbol</desc>
 <g id="barcode" fill="#000000">
  <rect x="0" y="0" width="917" height="280" fill="#FFFFFF"/>
  <path d="M0 0h4.8v240h-4.8ZM19.2 0h4.8v240h-4.8ZM28.8 0h14.4v240h-14.4ZM48 0h14.4v240h-14.4ZM67.2 0h4.8v240h-4.8ZM76.8 0h4.8v240h-4.8ZM96 0h4.8v240h-4.8ZM105.6 0h4.8v240h-4.8ZM124.8 0h4.8v240h-4.8ZM144 0h4.8v240h-4.8ZM153.6 0h14.4v240h-14.4ZM172.8 0h4.8v240h-4.8ZM192 0h4.8v240h-4.8ZM201.6 0h4.8v240h-4.8ZM211.2 0h14.4v240h-14.4ZM230.4 0h4.8v240h-4.8ZM240 0h4.8v240h-4.8ZM259.2 0h14.4v240h-14.4ZM278.4 0h4.8v240h-4.8ZM288 0h14.4v240h-14.4ZM307.2 0h14.4v240h-14.4ZM326.4 0h14.4v240h-14.4ZM355.2 0h4.8v240h-4.8ZM364.8 0h4.8v240h-4.8ZM374.4 0h4.8v240h-4.8ZM384 0h14.4v240h-14.4ZM403.2 0h4.8v240h-4.8ZM422.4 0h14.4v240h-14.4ZM441.6 0h4.8v240h-4.8ZM451.2 0h4.8v240h-4.8ZM460.8 0h4.8v240h-4.8ZM470.4 0h14.4v240h-14.4ZM499.2 0h4.8v240h-4.8ZM508.8 0h4.8v240h-4.8ZM518.4 0h14.4v240h-14.4ZM537.6 0h14.4v240h-14.4ZM556.8 0h14.4v240h-14.4ZM585.6 0h4.8v240h-4.8ZM595.2 0h4.8v240h-4.8ZM604.8 0h4.8v240h-4.8ZM614.4 0h14.4v240h-14.4ZM633.6 0h4.8v240h-4.8ZM652.8 0h4.8v240h-4.8ZM662.4 0h4.8v240h-4.8ZM672 0h14.4v240h-14.4ZM691.2 0h4.8v240h-4.8ZM700.8 0h14.4v240h-14.4ZM729.6 0h4.8v240h-4.8ZM739.2 0h4.8v240h-4.8ZM748.8 0h14.4v240h-14.4ZM768 0h4.8v240h-4.8ZM777.6 0h4.8v240h-4.8ZM787.2 0h14.4v240h-14.4ZM816 0h14.4v240h-14.4ZM835.2 0h4.8v240h-4.8ZM844.8 0h4.8v240h-4.8ZM864 0h4.8v240h-4.8ZM873.6 0h14.4v240h-14.4ZM892.8 0h14.4v240h-14.4ZM912 0h4.8v240h-4.8Z"/>
  <text x="458.4" y="272.03" text-anchor="middle" font-family="Arimo, Arial, sans-serif" font-size="33.6">
   *+14352312J*
  </text>
 </g>
</svg>
