<?xml version="1.0" standalone="no"?>
<!DOCTYPE svg PUBLIC "-//W3C//DTD SVG 1.1//EN"
   "http://www.w3.org/Graphics/SVG/1.1/DTD/svg11.dtd">
<svg width="917" height="286" version="1.1"
   xmlns="http://www.w3.org/2000/svg">
   <desc>Zint Generated Symbol
   </desc>

   <g id="barcode" fill="#000000">
      <rect x="0" y="0" width="917" height="286" fill="#FFFFFF" />
      <rect x="0.00" y="0.00" width="4.80" height="240.00" />
      <rect x="19.20" y="0.00" width="4.80" height="240.00" />
      <rect x="28.80" y="0.00" width="14.40" height="240.00" />
      <rect x="48.00" y="0.00" width="14.40" height="240.00" />
      <rect x="67.20" y="0.00" width="4.80" height="240.00" />
      <rect x="76.80" y="0.00" width="4.80" height="240.00" />
      <rect x="96.00" y="0.00" width="4.80" height="240.00" />
      <rect x="105.60" y="0.00" width="4.80" height="240.00" />
      <rect x="124.80" y="0.00" width="4.80" height="240.00" />
      <rect x="144.00" y="0.00" width="4.80" height="240.00" />
      <rect x="153.60" y="0.00" width="14.40" height="240.00" />
      <rect x="172.80" y="0.00" width="4.80" height="240.00" />
      <rect x="192.00" y="0.00" width="4.80" height="240.00" />
      <rect x="201.60" y="0.00" width="4.80" height="240.00" />
      <rect x="211.20" y="0.00" width="14.40" height="240.00" />
      <rect x="230.40" y="0.00" width="4.80" height="240.00" />
      <rect x="240.00" y="0.00" width="4.80" height="240.00" />
      <rect x="259.20" y="0.00" width="14.40" height="240.00" />
      <rect x="278.40" y="0.00" width="4.80" height="240.00" />
      <rect x="288.00" y="0.00" width="14.40" height="240.00" />
      <rect x="307.20" y="0.00" width="14.40" height="240.00" />
      <rect x="326.40" y="0.00" width="14.40" height="240.00" />
      <rect x="355.20" y="0.00" width="4.80" height="240.00" />
      <rect x="364.80" y="0.00" width="4.80" height="240.00" />
      <rect x="374.40" y="0.00" width="4.80" height="240.00" />
      <rect x="384.00" y="0.00" width="14.40" height="240.00" />
      <rect x="403.20" y="0.00" width="4.80" height="240.00" />
      <rect x="422.40" y="0.00" width="14.40" height="240.00" />
      <rect x="441.60" y="0.00" width="4.80" height="240.00" />
      <rect x="451.20" y="0.00" width="4.80" height="240.00" />
      <rect x="460.80" y="0.00" width="4.80" height="240.00" />
      <rect x="470.40" y="0.00" width="14.40" height="240.00" />
      <rect x="499.20" y="0.00" width="4.80" height="240.00" />
      <rect x="508.80" y="0.00" width="4.80" height="240.00" />
      <rect x="518.40" y="0.00" width="14.40" height="240.00" />
      <rect x="537.60" y="0.00" width="14.40" height="240.00" />
      <rect x="556.80" y="0.00" width="14.40" height="240.00" />
      <rect x="585.60" y="0.00" width="4.80" height="240.00" />
      <rect x="595.20" y="0.00" width="4.80" height="240.00" />
      <rect x="604.80" y="0.00" width="4.80" height="240.00" />
      <rect x="614.40" y="0.00" width="14.40" height="240.00" />
      <rect x="633.60" y="0.00" width="4.80" height="240.00" />
      <rect x="652.80" y="0.00" width="4.80" height="240.00" />
      <rect x="662.40" y="0.00" width="4.80" height="240.00" />
      <rect x="672.00" y="0.00" width="14.40" height="240.00" />
      <rect x="691.20" y="0.00" width="4.80" height="240.00" />
      <rect x="700.80" y="0.00" width="14.40" height="240.00" />
      <rect x="729.60" y="0.00" width="4.80" height="240.00" />
      <rect x="739.20" y="0.00" width="4.80" height="240.00" />
      <rect x="748.80" y="0.00" width="14.40" height="240.00" />
      <rect x="768.00" y="0.00" width="4.80" height="240.00" />
      <rect x="777.60" y="0.00" width="4.80" height="240.00" />
      <rect x="787.20" y="0.00" width="14.40" height="240.00" />
      <rect x="816.00" y="0.00" width="14.40" height="240.00" />
      <rect x="835.20" y="0.00" width="4.80" height="240.00" />
      <rect x="844.80" y="0.00" width="4.80" height="240.00" />
      <rect x="864.00" y="0.00" width="4.80" height="240.00" />
      <rect x="873.60" y="0.00" width="14.40" height="240.00" />
      <rect x="892.80" y="0.00" width="14.40" height="240.00" />
      <rect x="912.00" y="0.00" width="4.80" height="240.00" />
      <text x="458.40" y="273.60" text-anchor="middle"
         font-family="Helvetica, sans-serif" font-size="33.6" >
         *+14352312J*
      </text>
   </g>
</svg>
