<?xml version="1.0" standalone="no"?>
<!DOCTYPE svg PUBLIC "-//W3C//DTD SVG 1.1//EN"
   "http://www.w3.org/Graphics/SVG/1.1/DTD/svg11.dtd">
<svg width="230" height="72" version="1.1"
   xmlns="http://www.w3.org/2000/svg">
   <desc>Zint Generated Symbol
   </desc>

   <g id="barcode" fill="#000000">
      <rect x="0" y="0" width="230" height="72" fill="#FFFFFF" />
      <rect x="0.00" y="0.00" width="1.20" height="60.00" />
      <rect x="4.80" y="0.00" width="1.20" height="60.00" />
      <rect x="7.20" y="0.00" width="3.60" height="60.00" />
      <rect x="12.00" y="0.00" width="3.60" height="60.00" />
      <rect x="16.80" y="0.00" width="1.20" height="60.00" />
      <rect x="19.20" y="0.00" width="1.20" height="60.00" />
      <rect x="24.00" y="0.00" width="1.20" height="60.00" />
      <rect x="26.40" y="0.00" width="1.20" height="60.00" />
      <rect x="31.20" y="0.00" width="1.20" height="60.00" />
      <rect x="36.00" y="0.00" width="1.20" height="60.00" />
      <rect x="38.40" y="0.00" width="3.60" height="60.00" />
      <rect x="43.20" y="0.00" width="1.20" height="60.00" />
      <rect x="48.00" y="0.00" width="1.20" height="60.00" />
      <rect x="50.40" y="0.00" width="1.20" height="60.00" />
      <rect x="52.80" y="0.00" width="3.60" height="60.00" />
      <rect x="57.60" y="0.00" width="1.20" height="60.00" />
      <rect x="60.00" y="0.00" width="1.20" height="60.00" />
      <rect x="64.80" y="0.00" width="3.60" height="60.00" />
      <rect x="69.60" y="0.00" width="1.20" height="60.00" />
      <rect x="72.00" y="0.00" width="3.60" height="60.00" />
      <rect x="76.80" y="0.00" width="3.60" height="60.00" />
      <rect x="81.60" y="0.00" width="3.60" height="60.00" />
      <rect x="88.80" y="0.00" width="1.20" height="60.00" />
      <rect x="91.20" y="0.00" width="1.20" height="60.00" />
      <rect x="93.60" y="0.00" width="1.20" height="60.00" />
      <rect x="96.00" y="0.00" width="3.60" height="60.00" />
      <rect x="100.80" y="0.00" width="1.20" height="60.00" />
      <rect x="105.60" y="0.00" width="3.60" height="60.00" />
      <rect x="110.40" y="0.00" width="1.20" height="60.00" />
      <rect x="112.80" y="0.00" width="1.20" height="60.00" />
      <rect x="115.20" y="0.00" width="1.20" height="60.00" />
      <rect x="117.60" y="0.00" width="3.60" height="60.00" />
      <rect x="124.80" y="0.00" width="1.20" height="60.00" />
      <rect x="127.20" y="0.00" width="1.20" height="60.00" />
      <rect x="129.60" y="0.00" width="3.60" height="60.00" />
      <rect x="134.40" y="0.00" width="3.60" height="60.00" />
      <rect x="139.20" y="0.00" width="3.60" height="60.00" />
      <rect x="146.40" y="0.00" width="1.20" height="60.00" />
      <rect x="148.80" y="0.00" width="1.20" height="60.00" />
      <rect x="151.20" y="0.00" width="1.20" height="60.00" />
      <rect x="153.60" y="0.00" width="3.60" height="60.00" />
      <rect x="158.40" y="0.00" width="1.20" height="60.00" />
      <rect x="163.20" y="0.00" width="1.20" height="60.00" />
      <rect x="165.60" y="0.00" width="1.20" height="60.00" />
      <rect x="168.00" y="0.00" width="3.60" height="60.00" />
      <rect x="172.80" y="0.00" width="1.20" height="60.00" />
      <rect x="175.20" y="0.00" width="3.60" height="60.00" />
      <rect x="182.40" y="0.00" width="1.20" height="60.00" />
      <rect x="184.80" y="0.00" width="1.20" height="60.00" />
      <rect x="187.20" y="0.00" width="3.60" height="60.00" />
      <rect x="192.00" y="0.00" width="1.20" height="60.00" />
      <rect x="194.40" y="0.00" width="1.20" height="60.00" />
      <rect x="196.80" y="0.00" width="3.60" height="60.00" />
      <rect x="204.00" y="0.00" width="3.60" height="60.00" />
      <rect x="208.80" y="0.00" width="1.20" height="60.00" />
      <rect x="211.20" y="0.00" width="1.20" height="60.00" />
      <rect x="216.00" y="0.00" width="1.20" height="60.00" />
      <rect x="218.40" y="0.00" width="3.60" height="60.00" />
      <rect x="223.20" y="0.00" width="3.60" height="60.00" />
      <rect x="228.00" y="0.00" width="1.20" height="60.00" />
      <text x="114.60" y="69.24" text-anchor="middle"
         font-family="Helvetica, sans-serif" font-size="8.4" >
         *+14352312J*
      </text>
   </g>
</svg>
