<?xml version="1.0" standalone="no"?>
<!DOCTYPE svg PUBLIC "-//W3C//DTD SVG 1.1//EN"
   "http://www.w3.org/Graphics/SVG/1.1/DTD/svg11.dtd">
<svg width="744" height="354" version="1.1"
   xmlns="http://www.w3.org/2000/svg">
   <desc>Zint Generated Symbol
   </desc>

   <g id="barcode" fill="#000000">
      <rect x="0" y="0" width="744" height="354" fill="#FFFFFF" />
      <rect x="48.00" y="0.00" width="4.80" height="307.88" />
      <rect x="57.60" y="0.00" width="4.80" height="307.88" />
      <rect x="67.20" y="0.00" width="4.80" height="307.88" />
      <rect x="76.80" y="0.00" width="14.40" height="307.88" />
      <rect x="105.60" y="0.00" width="4.80" height="307.88" />
      <rect x="115.20" y="0.00" width="14.40" height="307.88" />
      <rect x="134.40" y="0.00" width="4.80" height="307.88" />
      <rect x="153.60" y="0.00" width="14.40" height="307.88" />
      <rect x="172.80" y="0.00" width="4.80" height="307.88" />
      <rect x="192.00" y="0.00" width="4.80" height="307.88" />
      <rect x="201.60" y="0.00" width="4.80" height="307.88" />
      <rect x="211.20" y="0.00" width="14.40" height="307.88" />
      <rect x="240.00" y="0.00" width="14.40" height="307.88" />
      <rect x="259.20" y="0.00" width="14.40" height="307.88" />
      <rect x="288.00" y="0.00" width="4.80" height="307.88" />
      <rect x="297.60" y="0.00" width="4.80" height="307.88" />
      <rect x="307.20" y="0.00" width="4.80" height="307.88" />
      <rect x="326.40" y="0.00" width="4.80" height="307.88" />
      <rect x="336.00" y="0.00" width="4.80" height="307.88" />
      <rect x="355.20" y="0.00" width="14.40" height="307.88" />
      <rect x="374.40" y="0.00" width="14.40" height="307.88" />
      <rect x="403.20" y="0.00" width="4.80" height="307.88" />
      <rect x="412.80" y="0.00" width="4.80" height="307.88" />
      <rect x="422.40" y="0.00" width="14.40" height="307.88" />
      <rect x="441.60" y="0.00" width="14.40" height="307.88" />
      <rect x="460.80" y="0.00" width="4.80" height="307.88" />
      <rect x="480.00" y="0.00" width="4.80" height="307.88" />
      <rect x="499.20" y="0.00" width="14.40" height="307.88" />
      <rect x="518.40" y="0.00" width="4.80" height="307.88" />
      <rect x="528.00" y="0.00" width="4.80" height="307.88" />
      <rect x="547.20" y="0.00" width="4.80" height="307.88" />
      <rect x="556.80" y="0.00" width="14.40" height="307.88" />
      <rect x="585.60" y="0.00" width="14.40" height="307.88" />
      <rect x="604.80" y="0.00" width="4.80" height="307.88" />
      <rect x="624.00" y="0.00" width="14.40" height="307.88" />
      <rect x="643.20" y="0.00" width="4.80" height="307.88" />
      <rect x="662.40" y="0.00" width="4.80" height="307.88" />
      <rect x="672.00" y="0.00" width="14.40" height="307.88" />
      <rect x="691.20" y="0.00" width="4.80" height="307.88" />
      <text x="372.00" y="341.48" text-anchor="middle"
         font-family="Helvetica, sans-serif" font-size="33.6" >
         92123209671459
      </text>
   </g>
</svg>
