<?xml version="1.0" standalone="no"?>
<!DOCTYPE svg PUBLIC "-//W3C//DTD SVG 1.1//EN" "http://www.w3.org/Graphics/SVG/1.1/DTD/svg11.dtd">
<svg width="1064" height="48" version="1.1" xmlns="http://www.w3.org/2000/svg">
 <desc>Zint Generated Symbol</desc>
 <g id="barcode" fill="#000000">
  <rect x="0" y="0" width="1064" height="48" fill="#FFFFFF"/>
  <path d="M0 0h8v48h-8ZM32 0h8v48h-8ZM48 0h8v48h-8ZM80 0h8v48h-8ZM112 0h8v48h-8ZM128 0h8v48h-8ZM144 0h8v32h-8ZM176 0h8v48h-8ZM224 0h8v48h-8ZM272 0h8v48h-8ZM304 0h8v32h-8ZM336 0h8v48h-8ZM352 0h8v32h-8ZM384 0h8v48h-8ZM400 0h8v32h-8ZM432 0h8v48h-8ZM464 0h8v48h-8ZM480 0h8v48h-8ZM528 0h8v32h-8ZM544 0h8v48h-8ZM576 0h8v48h-8ZM608 0h8v48h-8ZM624 0h8v32h-8ZM672 0h8v48h-8ZM704 0h8v48h-8ZM736 0h8v32h-8ZM752 0h8v48h-8ZM800 0h8v48h-8ZM832 0h8v48h-8ZM880 0h8v32h-8ZM928 0h8v32h-8ZM976 0h8v32h-8ZM1008 0h8v32h-8ZM1024 0h8v48h-8ZM1056 0h8v48h-8ZM16 16h8v32h-8ZM64 16h8v16h-8ZM96 16h8v16h-8ZM160 16h8v32h-8ZM192 16h8v16h-8ZM208 16h8v16h-8ZM240 16h8v16h-8ZM256 16h8v16h-8ZM288 16h8v32h-8ZM320 16h8v32h-8ZM368 16h8v32h-8ZM416 16h8v16h-8ZM448 16h8v16h-8ZM496 16h8v16h-8ZM512 16h8v32h-8ZM560 16h8v16h-8ZM592 16h8v16h-8ZM640 16h8v32h-8ZM656 16h8v16h-8ZM688 16h8v16h-8ZM720 16h8v32h-8ZM768 16h8v16h-8ZM784 16h8v16h-8ZM816 16h8v16h-8ZM848 16h8v16h-8ZM864 16h8v32h-8ZM896 16h8v16h-8ZM912 16h8v32h-8ZM944 16h8v16h-8ZM960 16h8v32h-8ZM992 16h8v32h-8ZM1040 16h8v32h-8Z"/>
 </g>
</svg>
