<?xml version="1.0" standalone="no"?>
<!DOCTYPE svg PUBLIC "-//W3C//DTD SVG 1.1//EN" "http://www.w3.org/Graphics/SVG/1.1/DTD/svg11.dtd">
<svg width="461" height="154" version="1.1" xmlns="http://www.w3.org/2000/svg">
 <desc>Zint Generated Symbol</desc>
 <g id="barcode" fill="#000000">
  <rect x="0" y="0" width="461" height="154" fill="#FFFFFF"/>
  <path d="M0 0h9.6v9.6h-9.6ZM19.2 0h9.6v9.6h-9.6ZM38.4 0h9.6v9.6h-9.6ZM57.6 0h9.6v9.6h-9.6ZM76.8 0h9.6v9.6h-9.6ZM96 0h9.6v9.6h-9.6ZM115.2 0h9.6v9.6h-9.6ZM134.4 0h9.6v9.6h-9.6ZM153.6 0h9.6v9.6h-9.6ZM172.8 0h9.6v9.6h-9.6ZM192 0h9.6v9.6h-9.6ZM211.2 0h9.6v9.6h-9.6ZM230.4 0h9.6v9.6h-9.6ZM249.6 0h9.6v9.6h-9.6ZM268.8 0h9.6v9.6h-9.6ZM288 0h9.6v9.6h-9.6ZM307.2 0h9.6v9.6h-9.6ZM326.4 0h9.6v9.6h-9.6ZM345.6 0h9.6v9.6h-9.6ZM364.8 0h9.6v9.6h-9.6ZM384 0h9.6v9.6h-9.6ZM403.2 0h9.6v9.6h-9.6ZM422.4 0h9.6v9.6h-9.6ZM441.6 0h9.6v9.6h-9.6ZM0 9.6h19.2v9.6h-19.2ZM67.2 9.6h9.6v9.6h-9.6ZM86.4 9.6h9.6v9.6h-9.6ZM124.8 9.6h19.2v9.6h-19.2ZM163.2 9.6h19.2v9.6h-19.2ZM192 9.6h76.8v9.6h-76.8ZM278.4 9.6h19.2v9.6h-19.2ZM316.8 9.6h9.6v9.6h-9.6ZM336 9.6h19.2v19.2h-19.2ZM374.4 9.6h9.6v9.6h-9.6ZM412.8 9.6h28.8v9.6h-28.8ZM451.2 9.6h9.6v9.6h-9.6ZM0 19.2h9.6v38.4h-9.6ZM19.2 19.2h9.6v19.2h-9.6ZM48 19.2h9.6v9.6h-9.6ZM67.2 19.2h28.8v9.6h-28.8ZM134.4 19.2h9.6v9.6h-9.6ZM153.6 19.2h28.8v9.6h-28.8ZM211.2 19.2h9.6v9.6h-9.6ZM230.4 19.2h9.6v9.6h-9.6ZM259.2 19.2h9.6v9.6h-9.6ZM297.6 19.2h19.2v9.6h-19.2ZM384 19.2h9.6v9.6h-9.6ZM403.2 19.2h9.6v19.2h-9.6ZM422.4 19.2h19.2v9.6h-19.2ZM38.4 28.8h9.6v9.6h-9.6ZM86.4 28.8h9.6v9.6h-9.6ZM105.6 28.8h19.2v9.6h-19.2ZM144 28.8h28.8v9.6h-28.8ZM201.6 28.8h9.6v9.6h-9.6ZM220.8 28.8h19.2v9.6h-19.2ZM259.2 28.8h38.4v9.6h-38.4ZM307.2 28.8h9.6v9.6h-9.6ZM326.4 28.8h19.2v9.6h-19.2ZM364.8 28.8h28.8v9.6h-28.8ZM441.6 28.8h19.2v9.6h-19.2ZM19.2 38.4h38.4v9.6h-38.4ZM76.8 38.4h19.2v9.6h-19.2ZM124.8 38.4h9.6v9.6h-9.6ZM153.6 38.4h9.6v19.2h-9.6ZM201.6 38.4h19.2v9.6h-19.2ZM230.4 38.4h9.6v9.6h-9.6ZM249.6 38.4h9.6v9.6h-9.6ZM297.6 38.4h19.2v9.6h-19.2ZM326.4 38.4h9.6v9.6h-9.6ZM355.2 38.4h38.4v9.6h-38.4ZM432 38.4h19.2v9.6h-19.2ZM19.2 48h19.2v9.6h-19.2ZM57.6 48h9.6v9.6h-9.6ZM86.4 48h19.2v9.6h-19.2ZM124.8 48h19.2v9.6h-19.2ZM172.8 48h28.8v9.6h-28.8ZM211.2 48h28.8v9.6h-28.8ZM259.2 48h9.6v9.6h-9.6ZM307.2 48h38.4v9.6h-38.4ZM355.2 48h9.6v9.6h-9.6ZM374.4 48h19.2v9.6h-19.2ZM412.8 48h48v9.6h-48ZM0 57.6h28.8v9.6h-28.8ZM38.4 57.6h9.6v9.6h-9.6ZM67.2 57.6h9.6v9.6h-9.6ZM115.2 57.6h19.2v9.6h-19.2ZM153.6 57.6h28.8v9.6h-28.8ZM201.6 57.6h19.2v9.6h-19.2ZM230.4 57.6h28.8v9.6h-28.8ZM278.4 57.6h38.4v9.6h-38.4ZM326.4 57.6h57.6v9.6h-57.6ZM393.6 57.6h9.6v9.6h-9.6ZM432 57.6h9.6v9.6h-9.6ZM0 67.2h19.2v19.2h-19.2ZM38.4 67.2h19.2v9.6h-19.2ZM67.2 67.2h19.2v9.6h-19.2ZM105.6 67.2h9.6v9.6h-9.6ZM134.4 67.2h9.6v9.6h-9.6ZM153.6 67.2h48v9.6h-48ZM220.8 67.2h28.8v9.6h-28.8ZM259.2 67.2h19.2v9.6h-19.2ZM316.8 67.2h9.6v9.6h-9.6ZM345.6 67.2h28.8v9.6h-28.8ZM403.2 67.2h9.6v9.6h-9.6ZM422.4 67.2h38.4v9.6h-38.4ZM38.4 76.8h9.6v9.6h-9.6ZM67.2 76.8h9.6v9.6h-9.6ZM96 76.8h19.2v9.6h-19.2ZM124.8 76.8h19.2v9.6h-19.2ZM153.6 76.8h19.2v9.6h-19.2ZM182.4 76.8h9.6v9.6h-9.6ZM230.4 76.8h9.6v9.6h-9.6ZM268.8 76.8h19.2v9.6h-19.2ZM326.4 76.8h19.2v19.2h-19.2ZM374.4 76.8h9.6v19.2h-9.6ZM393.6 76.8h28.8v19.2h-28.8ZM432 76.8h9.6v9.6h-9.6ZM0 86.4h9.6v19.2h-9.6ZM19.2 86.4h9.6v19.2h-9.6ZM38.4 86.4h38.4v9.6h-38.4ZM96 86.4h9.6v9.6h-9.6ZM124.8 86.4h9.6v9.6h-9.6ZM172.8 86.4h9.6v9.6h-9.6ZM192 86.4h9.6v9.6h-9.6ZM211.2 86.4h38.4v9.6h-38.4ZM278.4 86.4h9.6v19.2h-9.6ZM297.6 86.4h19.2v9.6h-19.2ZM432 86.4h28.8v9.6h-28.8ZM48 96h28.8v9.6h-28.8ZM115.2 96h9.6v9.6h-9.6ZM153.6 96h9.6v9.6h-9.6ZM182.4 96h28.8v9.6h-28.8ZM230.4 96h9.6v9.6h-9.6ZM259.2 96h9.6v9.6h-9.6ZM297.6 96h9.6v9.6h-9.6ZM316.8 96h57.6v9.6h-57.6ZM384 96h19.2v9.6h-19.2ZM412.8 96h9.6v9.6h-9.6ZM432 96h19.2v9.6h-19.2ZM0 105.6h28.8v9.6h-28.8ZM48 105.6h19.2v9.6h-19.2ZM76.8 105.6h9.6v9.6h-9.6ZM105.6 105.6h9.6v9.6h-9.6ZM134.4 105.6h19.2v9.6h-19.2ZM163.2 105.6h9.6v9.6h-9.6ZM220.8 105.6h19.2v9.6h-19.2ZM249.6 105.6h9.6v19.2h-9.6ZM268.8 105.6h28.8v9.6h-28.8ZM326.4 105.6h19.2v9.6h-19.2ZM355.2 105.6h9.6v9.6h-9.6ZM384 105.6h9.6v19.2h-9.6ZM403.2 105.6h28.8v9.6h-28.8ZM451.2 105.6h9.6v9.6h-9.6ZM0 115.2h9.6v9.6h-9.6ZM19.2 115.2h9.6v9.6h-9.6ZM57.6 115.2h9.6v9.6h-9.6ZM76.8 115.2h19.2v9.6h-19.2ZM144 115.2h19.2v9.6h-19.2ZM182.4 115.2h28.8v9.6h-28.8ZM230.4 115.2h9.6v9.6h-9.6ZM268.8 115.2h19.2v9.6h-19.2ZM297.6 115.2h9.6v9.6h-9.6ZM336 115.2h19.2v9.6h-19.2ZM364.8 115.2h9.6v9.6h-9.6ZM412.8 115.2h9.6v9.6h-9.6ZM432 115.2h19.2v9.6h-19.2ZM0 124.8h38.4v9.6h-38.4ZM48 124.8h19.2v19.2h-19.2ZM105.6 124.8h19.2v9.6h-19.2ZM144 124.8h9.6v9.6h-9.6ZM163.2 124.8h9.6v9.6h-9.6ZM182.4 124.8h19.2v9.6h-19.2ZM220.8 124.8h28.8v9.6h-28.8ZM278.4 124.8h9.6v9.6h-9.6ZM355.2 124.8h9.6v9.6h-9.6ZM374.4 124.8h38.4v9.6h-38.4ZM422.4 124.8h19.2v9.6h-19.2ZM451.2 124.8h9.6v9.6h-9.6ZM0 134.4h9.6v9.6h-9.6ZM19.2 134.4h19.2v9.6h-19.2ZM96 134.4h28.8v9.6h-28.8ZM134.4 134.4h28.8v9.6h-28.8ZM172.8 134.4h9.6v9.6h-9.6ZM192 134.4h9.6v9.6h-9.6ZM211.2 134.4h9.6v9.6h-9.6ZM230.4 134.4h9.6v9.6h-9.6ZM278.4 134.4h67.2v9.6h-67.2ZM364.8 134.4h9.6v9.6h-9.6ZM384 134.4h9.6v9.6h-9.6ZM403.2 134.4h9.6v9.6h-9.6ZM441.6 134.4h9.6v9.6h-9.6ZM0 144h460.8v9.6h-460.8Z"/>
 </g>
</svg>
