<?xml version="1.0" standalone="no"?>
<!DOCTYPE svg PUBLIC "-//W3C//DTD SVG 1.1//EN"
   "http://www.w3.org/Graphics/SVG/1.1/DTD/svg11.dtd">
<svg width="240" height="231" version="1.1"
   xmlns="http://www.w3.org/2000/svg">
   <desc>Zint Generated Symbol
   </desc>

   <g id="barcode" fill="#000000">
      <rect x="0" y="0" width="240" height="231" fill="#FFFFFF" />
      <path d="M 4.00 8.62 L 7.46 6.62 L 7.46 2.62 L 4.00 0.62 L 0.54 2.62 L 0.54 6.62 Z" />
      <path d="M 12.00 8.62 L 15.46 6.62 L 15.46 2.62 L 12.00 0.62 L 8.54 2.62 L 8.54 6.62 Z" />
      <path d="M 28.00 8.62 L 31.46 6.62 L 31.46 2.62 L 28.00 0.62 L 24.54 2.62 L 24.54 6.62 Z" />
      <path d="M 44.00 8.62 L 47.46 6.62 L 47.46 2.62 L 44.00 0.62 L 40.54 2.62 L 40.54 6.62 Z" />
      <path d="M 52.00 8.62 L 55.46 6.62 L 55.46 2.62 L 52.00 0.62 L 48.54 2.62 L 48.54 6.62 Z" />
      <path d="M 60.00 8.62 L 63.46 6.62 L 63.46 2.62 L 60.00 0.62 L 56.54 2.62 L 56.54 6.62 Z" />
      <path d="M 76.00 8.62 L 79.46 6.62 L 79.46 2.62 L 76.00 0.62 L 72.54 2.62 L 72.54 6.62 Z" />
      <path d="M 84.00 8.62 L 87.46 6.62 L 87.46 2.62 L 84.00 0.62 L 80.54 2.62 L 80.54 6.62 Z" />
      <path d="M 100.00 8.62 L 103.46 6.62 L 103.46 2.62 L 100.00 0.62 L 96.54 2.62 L 96.54 6.62 Z" />
      <path d="M 108.00 8.62 L 111.46 6.62 L 111.46 2.62 L 108.00 0.62 L 104.54 2.62 L 104.54 6.62 Z" />
      <path d="M 116.00 8.62 L 119.46 6.62 L 119.46 2.62 L 116.00 0.62 L 112.54 2.62 L 112.54 6.62 Z" />
      <path d="M 124.00 8.62 L 127.46 6.62 L 127.46 2.62 L 124.00 0.62 L 120.54 2.62 L 120.54 6.62 Z" />
      <path d="M 132.00 8.62 L 135.46 6.62 L 135.46 2.62 L 132.00 0.62 L 128.54 2.62 L 128.54 6.62 Z" />
      <path d="M 148.00 8.62 L 151.46 6.62 L 151.46 2.62 L 148.00 0.62 L 144.54 2.62 L 144.54 6.62 Z" />
      <path d="M 156.00 8.62 L 159.46 6.62 L 159.46 2.62 L 156.00 0.62 L 152.54 2.62 L 152.54 6.62 Z" />
      <path d="M 164.00 8.62 L 167.46 6.62 L 167.46 2.62 L 164.00 0.62 L 160.54 2.62 L 160.54 6.62 Z" />
      <path d="M 172.00 8.62 L 175.46 6.62 L 175.46 2.62 L 172.00 0.62 L 168.54 2.62 L 168.54 6.62 Z" />
      <path d="M 180.00 8.62 L 183.46 6.62 L 183.46 2.62 L 180.00 0.62 L 176.54 2.62 L 176.54 6.62 Z" />
      <path d="M 188.00 8.62 L 191.46 6.62 L 191.46 2.62 L 188.00 0.62 L 184.54 2.62 L 184.54 6.62 Z" />
      <path d="M 196.00 8.62 L 199.46 6.62 L 199.46 2.62 L 196.00 0.62 L 192.54 2.62 L 192.54 6.62 Z" />
      <path d="M 212.00 8.62 L 215.46 6.62 L 215.46 2.62 L 212.00 0.62 L 208.54 2.62 L 208.54 6.62 Z" />
      <path d="M 220.00 8.62 L 223.46 6.62 L 223.46 2.62 L 220.00 0.62 L 216.54 2.62 L 216.54 6.62 Z" />
      <path d="M 228.00 8.62 L 231.46 6.62 L 231.46 2.62 L 228.00 0.62 L 224.54 2.62 L 224.54 6.62 Z" />
      <path d="M 236.00 8.62 L 239.46 6.62 L 239.46 2.62 L 236.00 0.62 L 232.54 2.62 L 232.54 6.62 Z" />
      <path d="M 16.00 15.55 L 19.46 13.55 L 19.46 9.55 L 16.00 7.55 L 12.54 9.55 L 12.54 13.55 Z" />
      <path d="M 32.00 15.55 L 35.46 13.55 L 35.46 9.55 L 32.00 7.55 L 28.54 9.55 L 28.54 13.55 Z" />
      <path d="M 48.00 15.55 L 51.46 13.55 L 51.46 9.55 L 48.00 7.55 L 44.54 9.55 L 44.54 13.55 Z" />
      <path d="M 64.00 15.55 L 67.46 13.55 L 67.46 9.55 L 64.00 7.55 L 60.54 9.55 L 60.54 13.55 Z" />
      <path d="M 80.00 15.55 L 83.46 13.55 L 83.46 9.55 L 80.00 7.55 L 76.54 9.55 L 76.54 13.55 Z" />
      <path d="M 88.00 15.55 L 91.46 13.55 L 91.46 9.55 L 88.00 7.55 L 84.54 9.55 L 84.54 13.55 Z" />
      <path d="M 96.00 15.55 L 99.46 13.55 L 99.46 9.55 L 96.00 7.55 L 92.54 9.55 L 92.54 13.55 Z" />
      <path d="M 136.00 15.55 L 139.46 13.55 L 139.46 9.55 L 136.00 7.55 L 132.54 9.55 L 132.54 13.55 Z" />
      <path d="M 144.00 15.55 L 147.46 13.55 L 147.46 9.55 L 144.00 7.55 L 140.54 9.55 L 140.54 13.55 Z" />
      <path d="M 160.00 15.55 L 163.46 13.55 L 163.46 9.55 L 160.00 7.55 L 156.54 9.55 L 156.54 13.55 Z" />
      <path d="M 168.00 15.55 L 171.46 13.55 L 171.46 9.55 L 168.00 7.55 L 164.54 9.55 L 164.54 13.55 Z" />
      <path d="M 208.00 15.55 L 211.46 13.55 L 211.46 9.55 L 208.00 7.55 L 204.54 9.55 L 204.54 13.55 Z" />
      <path d="M 4.00 22.47 L 7.46 20.47 L 7.46 16.47 L 4.00 14.47 L 0.54 16.47 L 0.54 20.47 Z" />
      <path d="M 12.00 22.47 L 15.46 20.47 L 15.46 16.47 L 12.00 14.47 L 8.54 16.47 L 8.54 20.47 Z" />
      <path d="M 28.00 22.47 L 31.46 20.47 L 31.46 16.47 L 28.00 14.47 L 24.54 16.47 L 24.54 20.47 Z" />
      <path d="M 36.00 22.47 L 39.46 20.47 L 39.46 16.47 L 36.00 14.47 L 32.54 16.47 L 32.54 20.47 Z" />
      <path d="M 52.00 22.47 L 55.46 20.47 L 55.46 16.47 L 52.00 14.47 L 48.54 16.47 L 48.54 20.47 Z" />
      <path d="M 60.00 22.47 L 63.46 20.47 L 63.46 16.47 L 60.00 14.47 L 56.54 16.47 L 56.54 20.47 Z" />
      <path d="M 92.00 22.47 L 95.46 20.47 L 95.46 16.47 L 92.00 14.47 L 88.54 16.47 L 88.54 20.47 Z" />
      <path d="M 116.00 22.47 L 119.46 20.47 L 119.46 16.47 L 116.00 14.47 L 112.54 16.47 L 112.54 20.47 Z" />
      <path d="M 132.00 22.47 L 135.46 20.47 L 135.46 16.47 L 132.00 14.47 L 128.54 16.47 L 128.54 20.47 Z" />
      <path d="M 148.00 22.47 L 151.46 20.47 L 151.46 16.47 L 148.00 14.47 L 144.54 16.47 L 144.54 20.47 Z" />
      <path d="M 172.00 22.47 L 175.46 20.47 L 175.46 16.47 L 172.00 14.47 L 168.54 16.47 L 168.54 20.47 Z" />
      <path d="M 180.00 22.47 L 183.46 20.47 L 183.46 16.47 L 180.00 14.47 L 176.54 16.47 L 176.54 20.47 Z" />
      <path d="M 204.00 22.47 L 207.46 20.47 L 207.46 16.47 L 204.00 14.47 L 200.54 16.47 L 200.54 20.47 Z" />
      <path d="M 228.00 22.47 L 231.46 20.47 L 231.46 16.47 L 228.00 14.47 L 224.54 16.47 L 224.54 20.47 Z" />
      <path d="M 8.00 29.40 L 11.46 27.40 L 11.46 23.40 L 8.00 21.40 L 4.54 23.40 L 4.54 27.40 Z" />
      <path d="M 16.00 29.40 L 19.46 27.40 L 19.46 23.40 L 16.00 21.40 L 12.54 23.40 L 12.54 27.40 Z" />
      <path d="M 24.00 29.40 L 27.46 27.40 L 27.46 23.40 L 24.00 21.40 L 20.54 23.40 L 20.54 27.40 Z" />
      <path d="M 56.00 29.40 L 59.46 27.40 L 59.46 23.40 L 56.00 21.40 L 52.54 23.40 L 52.54 27.40 Z" />
      <path d="M 72.00 29.40 L 75.46 27.40 L 75.46 23.40 L 72.00 21.40 L 68.54 23.40 L 68.54 27.40 Z" />
      <path d="M 88.00 29.40 L 91.46 27.40 L 91.46 23.40 L 88.00 21.40 L 84.54 23.40 L 84.54 27.40 Z" />
      <path d="M 104.00 29.40 L 107.46 27.40 L 107.46 23.40 L 104.00 21.40 L 100.54 23.40 L 100.54 27.40 Z" />
      <path d="M 120.00 29.40 L 123.46 27.40 L 123.46 23.40 L 120.00 21.40 L 116.54 23.40 L 116.54 27.40 Z" />
      <path d="M 128.00 29.40 L 131.46 27.40 L 131.46 23.40 L 128.00 21.40 L 124.54 23.40 L 124.54 27.40 Z" />
      <path d="M 136.00 29.40 L 139.46 27.40 L 139.46 23.40 L 136.00 21.40 L 132.54 23.40 L 132.54 27.40 Z" />
      <path d="M 144.00 29.40 L 147.46 27.40 L 147.46 23.40 L 144.00 21.40 L 140.54 23.40 L 140.54 27.40 Z" />
      <path d="M 152.00 29.40 L 155.46 27.40 L 155.46 23.40 L 152.00 21.40 L 148.54 23.40 L 148.54 27.40 Z" />
      <path d="M 160.00 29.40 L 163.46 27.40 L 163.46 23.40 L 160.00 21.40 L 156.54 23.40 L 156.54 27.40 Z" />
      <path d="M 168.00 29.40 L 171.46 27.40 L 171.46 23.40 L 168.00 21.40 L 164.54 23.40 L 164.54 27.40 Z" />
      <path d="M 176.00 29.40 L 179.46 27.40 L 179.46 23.40 L 176.00 21.40 L 172.54 23.40 L 172.54 27.40 Z" />
      <path d="M 184.00 29.40 L 187.46 27.40 L 187.46 23.40 L 184.00 21.40 L 180.54 23.40 L 180.54 27.40 Z" />
      <path d="M 192.00 29.40 L 195.46 27.40 L 195.46 23.40 L 192.00 21.40 L 188.54 23.40 L 188.54 27.40 Z" />
      <path d="M 200.00 29.40 L 203.46 27.40 L 203.46 23.40 L 200.00 21.40 L 196.54 23.40 L 196.54 27.40 Z" />
      <path d="M 208.00 29.40 L 211.46 27.40 L 211.46 23.40 L 208.00 21.40 L 204.54 23.40 L 204.54 27.40 Z" />
      <path d="M 216.00 29.40 L 219.46 27.40 L 219.46 23.40 L 216.00 21.40 L 212.54 23.40 L 212.54 27.40 Z" />
      <path d="M 224.00 29.40 L 227.46 27.40 L 227.46 23.40 L 224.00 21.40 L 220.54 23.40 L 220.54 27.40 Z" />
      <path d="M 20.00 36.33 L 23.46 34.33 L 23.46 30.33 L 20.00 28.33 L 16.54 30.33 L 16.54 34.33 Z" />
      <path d="M 28.00 36.33 L 31.46 34.33 L 31.46 30.33 L 28.00 28.33 L 24.54 30.33 L 24.54 34.33 Z" />
      <path d="M 36.00 36.33 L 39.46 34.33 L 39.46 30.33 L 36.00 28.33 L 32.54 30.33 L 32.54 34.33 Z" />
      <path d="M 44.00 36.33 L 47.46 34.33 L 47.46 30.33 L 44.00 28.33 L 40.54 30.33 L 40.54 34.33 Z" />
      <path d="M 84.00 36.33 L 87.46 34.33 L 87.46 30.33 L 84.00 28.33 L 80.54 30.33 L 80.54 34.33 Z" />
      <path d="M 100.00 36.33 L 103.46 34.33 L 103.46 30.33 L 100.00 28.33 L 96.54 30.33 L 96.54 34.33 Z" />
      <path d="M 108.00 36.33 L 111.46 34.33 L 111.46 30.33 L 108.00 28.33 L 104.54 30.33 L 104.54 34.33 Z" />
      <path d="M 132.00 36.33 L 135.46 34.33 L 135.46 30.33 L 132.00 28.33 L 128.54 30.33 L 128.54 34.33 Z" />
      <path d="M 156.00 36.33 L 159.46 34.33 L 159.46 30.33 L 156.00 28.33 L 152.54 30.33 L 152.54 34.33 Z" />
      <path d="M 164.00 36.33 L 167.46 34.33 L 167.46 30.33 L 164.00 28.33 L 160.54 30.33 L 160.54 34.33 Z" />
      <path d="M 24.00 43.26 L 27.46 41.26 L 27.46 37.26 L 24.00 35.26 L 20.54 37.26 L 20.54 41.26 Z" />
      <path d="M 48.00 43.26 L 51.46 41.26 L 51.46 37.26 L 48.00 35.26 L 44.54 37.26 L 44.54 41.26 Z" />
      <path d="M 56.00 43.26 L 59.46 41.26 L 59.46 37.26 L 56.00 35.26 L 52.54 37.26 L 52.54 41.26 Z" />
      <path d="M 64.00 43.26 L 67.46 41.26 L 67.46 37.26 L 64.00 35.26 L 60.54 37.26 L 60.54 41.26 Z" />
      <path d="M 88.00 43.26 L 91.46 41.26 L 91.46 37.26 L 88.00 35.26 L 84.54 37.26 L 84.54 41.26 Z" />
      <path d="M 104.00 43.26 L 107.46 41.26 L 107.46 37.26 L 104.00 35.26 L 100.54 37.26 L 100.54 41.26 Z" />
      <path d="M 120.00 43.26 L 123.46 41.26 L 123.46 37.26 L 120.00 35.26 L 116.54 37.26 L 116.54 41.26 Z" />
      <path d="M 136.00 43.26 L 139.46 41.26 L 139.46 37.26 L 136.00 35.26 L 132.54 37.26 L 132.54 41.26 Z" />
      <path d="M 152.00 43.26 L 155.46 41.26 L 155.46 37.26 L 152.00 35.26 L 148.54 37.26 L 148.54 41.26 Z" />
      <path d="M 4.00 50.19 L 7.46 48.19 L 7.46 44.19 L 4.00 42.19 L 0.54 44.19 L 0.54 48.19 Z" />
      <path d="M 12.00 50.19 L 15.46 48.19 L 15.46 44.19 L 12.00 42.19 L 8.54 44.19 L 8.54 48.19 Z" />
      <path d="M 20.00 50.19 L 23.46 48.19 L 23.46 44.19 L 20.00 42.19 L 16.54 44.19 L 16.54 48.19 Z" />
      <path d="M 36.00 50.19 L 39.46 48.19 L 39.46 44.19 L 36.00 42.19 L 32.54 44.19 L 32.54 48.19 Z" />
      <path d="M 44.00 50.19 L 47.46 48.19 L 47.46 44.19 L 44.00 42.19 L 40.54 44.19 L 40.54 48.19 Z" />
      <path d="M 52.00 50.19 L 55.46 48.19 L 55.46 44.19 L 52.00 42.19 L 48.54 44.19 L 48.54 48.19 Z" />
      <path d="M 60.00 50.19 L 63.46 48.19 L 63.46 44.19 L 60.00 42.19 L 56.54 44.19 L 56.54 48.19 Z" />
      <path d="M 68.00 50.19 L 71.46 48.19 L 71.46 44.19 L 68.00 42.19 L 64.54 44.19 L 64.54 48.19 Z" />
      <path d="M 76.00 50.19 L 79.46 48.19 L 79.46 44.19 L 76.00 42.19 L 72.54 44.19 L 72.54 48.19 Z" />
      <path d="M 84.00 50.19 L 87.46 48.19 L 87.46 44.19 L 84.00 42.19 L 80.54 44.19 L 80.54 48.19 Z" />
      <path d="M 100.00 50.19 L 103.46 48.19 L 103.46 44.19 L 100.00 42.19 L 96.54 44.19 L 96.54 48.19 Z" />
      <path d="M 108.00 50.19 L 111.46 48.19 L 111.46 44.19 L 108.00 42.19 L 104.54 44.19 L 104.54 48.19 Z" />
      <path d="M 116.00 50.19 L 119.46 48.19 L 119.46 44.19 L 116.00 42.19 L 112.54 44.19 L 112.54 48.19 Z" />
      <path d="M 124.00 50.19 L 127.46 48.19 L 127.46 44.19 L 124.00 42.19 L 120.54 44.19 L 120.54 48.19 Z" />
      <path d="M 132.00 50.19 L 135.46 48.19 L 135.46 44.19 L 132.00 42.19 L 128.54 44.19 L 128.54 48.19 Z" />
      <path d="M 140.00 50.19 L 143.46 48.19 L 143.46 44.19 L 140.00 42.19 L 136.54 44.19 L 136.54 48.19 Z" />
      <path d="M 148.00 50.19 L 151.46 48.19 L 151.46 44.19 L 148.00 42.19 L 144.54 44.19 L 144.54 48.19 Z" />
      <path d="M 164.00 50.19 L 167.46 48.19 L 167.46 44.19 L 164.00 42.19 L 160.54 44.19 L 160.54 48.19 Z" />
      <path d="M 172.00 50.19 L 175.46 48.19 L 175.46 44.19 L 172.00 42.19 L 168.54 44.19 L 168.54 48.19 Z" />
      <path d="M 180.00 50.19 L 183.46 48.19 L 183.46 44.19 L 180.00 42.19 L 176.54 44.19 L 176.54 48.19 Z" />
      <path d="M 188.00 50.19 L 191.46 48.19 L 191.46 44.19 L 188.00 42.19 L 184.54 44.19 L 184.54 48.19 Z" />
      <path d="M 196.00 50.19 L 199.46 48.19 L 199.46 44.19 L 196.00 42.19 L 192.54 44.19 L 192.54 48.19 Z" />
      <path d="M 204.00 50.19 L 207.46 48.19 L 207.46 44.19 L 204.00 42.19 L 200.54 44.19 L 200.54 48.19 Z" />
      <path d="M 212.00 50.19 L 215.46 48.19 L 215.46 44.19 L 212.00 42.19 L 208.54 44.19 L 208.54 48.19 Z" />
      <path d="M 220.00 50.19 L 223.46 48.19 L 223.46 44.19 L 220.00 42.19 L 216.54 44.19 L 216.54 48.19 Z" />
      <path d="M 8.00 57.11 L 11.46 55.11 L 11.46 51.11 L 8.00 49.11 L 4.54 51.11 L 4.54 55.11 Z" />
      <path d="M 32.00 57.11 L 35.46 55.11 L 35.46 51.11 L 32.00 49.11 L 28.54 51.11 L 28.54 55.11 Z" />
      <path d="M 40.00 57.11 L 43.46 55.11 L 43.46 51.11 L 40.00 49.11 L 36.54 51.11 L 36.54 55.11 Z" />
      <path d="M 88.00 57.11 L 91.46 55.11 L 91.46 51.11 L 88.00 49.11 L 84.54 51.11 L 84.54 55.11 Z" />
      <path d="M 96.00 57.11 L 99.46 55.11 L 99.46 51.11 L 96.00 49.11 L 92.54 51.11 L 92.54 55.11 Z" />
      <path d="M 120.00 57.11 L 123.46 55.11 L 123.46 51.11 L 120.00 49.11 L 116.54 51.11 L 116.54 55.11 Z" />
      <path d="M 144.00 57.11 L 147.46 55.11 L 147.46 51.11 L 144.00 49.11 L 140.54 51.11 L 140.54 55.11 Z" />
      <path d="M 152.00 57.11 L 155.46 55.11 L 155.46 51.11 L 152.00 49.11 L 148.54 51.11 L 148.54 55.11 Z" />
      <path d="M 160.00 57.11 L 163.46 55.11 L 163.46 51.11 L 160.00 49.11 L 156.54 51.11 L 156.54 55.11 Z" />
      <path d="M 216.00 57.11 L 219.46 55.11 L 219.46 51.11 L 216.00 49.11 L 212.54 51.11 L 212.54 55.11 Z" />
      <path d="M 12.00 64.04 L 15.46 62.04 L 15.46 58.04 L 12.00 56.04 L 8.54 58.04 L 8.54 62.04 Z" />
      <path d="M 44.00 64.04 L 47.46 62.04 L 47.46 58.04 L 44.00 56.04 L 40.54 58.04 L 40.54 62.04 Z" />
      <path d="M 52.00 64.04 L 55.46 62.04 L 55.46 58.04 L 52.00 56.04 L 48.54 58.04 L 48.54 62.04 Z" />
      <path d="M 84.00 64.04 L 87.46 62.04 L 87.46 58.04 L 84.00 56.04 L 80.54 58.04 L 80.54 62.04 Z" />
      <path d="M 100.00 64.04 L 103.46 62.04 L 103.46 58.04 L 100.00 56.04 L 96.54 58.04 L 96.54 62.04 Z" />
      <path d="M 116.00 64.04 L 119.46 62.04 L 119.46 58.04 L 116.00 56.04 L 112.54 58.04 L 112.54 62.04 Z" />
      <path d="M 132.00 64.04 L 135.46 62.04 L 135.46 58.04 L 132.00 56.04 L 128.54 58.04 L 128.54 62.04 Z" />
      <path d="M 148.00 64.04 L 151.46 62.04 L 151.46 58.04 L 148.00 56.04 L 144.54 58.04 L 144.54 62.04 Z" />
      <path d="M 164.00 64.04 L 167.46 62.04 L 167.46 58.04 L 164.00 56.04 L 160.54 58.04 L 160.54 62.04 Z" />
      <path d="M 188.00 64.04 L 191.46 62.04 L 191.46 58.04 L 188.00 56.04 L 184.54 58.04 L 184.54 62.04 Z" />
      <path d="M 196.00 64.04 L 199.46 62.04 L 199.46 58.04 L 196.00 56.04 L 192.54 58.04 L 192.54 62.04 Z" />
      <path d="M 204.00 64.04 L 207.46 62.04 L 207.46 58.04 L 204.00 56.04 L 200.54 58.04 L 200.54 62.04 Z" />
      <path d="M 8.00 70.97 L 11.46 68.97 L 11.46 64.97 L 8.00 62.97 L 4.54 64.97 L 4.54 68.97 Z" />
      <path d="M 16.00 70.97 L 19.46 68.97 L 19.46 64.97 L 16.00 62.97 L 12.54 64.97 L 12.54 68.97 Z" />
      <path d="M 32.00 70.97 L 35.46 68.97 L 35.46 64.97 L 32.00 62.97 L 28.54 64.97 L 28.54 68.97 Z" />
      <path d="M 40.00 70.97 L 43.46 68.97 L 43.46 64.97 L 40.00 62.97 L 36.54 64.97 L 36.54 68.97 Z" />
      <path d="M 48.00 70.97 L 51.46 68.97 L 51.46 64.97 L 48.00 62.97 L 44.54 64.97 L 44.54 68.97 Z" />
      <path d="M 56.00 70.97 L 59.46 68.97 L 59.46 64.97 L 56.00 62.97 L 52.54 64.97 L 52.54 68.97 Z" />
      <path d="M 88.00 70.97 L 91.46 68.97 L 91.46 64.97 L 88.00 62.97 L 84.54 64.97 L 84.54 68.97 Z" />
      <path d="M 96.00 70.97 L 99.46 68.97 L 99.46 64.97 L 96.00 62.97 L 92.54 64.97 L 92.54 68.97 Z" />
      <path d="M 112.00 70.97 L 115.46 68.97 L 115.46 64.97 L 112.00 62.97 L 108.54 64.97 L 108.54 68.97 Z" />
      <path d="M 168.00 70.97 L 171.46 68.97 L 171.46 64.97 L 168.00 62.97 L 164.54 64.97 L 164.54 68.97 Z" />
      <path d="M 184.00 70.97 L 187.46 68.97 L 187.46 64.97 L 184.00 62.97 L 180.54 64.97 L 180.54 68.97 Z" />
      <path d="M 192.00 70.97 L 195.46 68.97 L 195.46 64.97 L 192.00 62.97 L 188.54 64.97 L 188.54 68.97 Z" />
      <path d="M 200.00 70.97 L 203.46 68.97 L 203.46 64.97 L 200.00 62.97 L 196.54 64.97 L 196.54 68.97 Z" />
      <path d="M 208.00 70.97 L 211.46 68.97 L 211.46 64.97 L 208.00 62.97 L 204.54 64.97 L 204.54 68.97 Z" />
      <path d="M 216.00 70.97 L 219.46 68.97 L 219.46 64.97 L 216.00 62.97 L 212.54 64.97 L 212.54 68.97 Z" />
      <path d="M 224.00 70.97 L 227.46 68.97 L 227.46 64.97 L 224.00 62.97 L 220.54 64.97 L 220.54 68.97 Z" />
      <path d="M 20.00 77.90 L 23.46 75.90 L 23.46 71.90 L 20.00 69.90 L 16.54 71.90 L 16.54 75.90 Z" />
      <path d="M 28.00 77.90 L 31.46 75.90 L 31.46 71.90 L 28.00 69.90 L 24.54 71.90 L 24.54 75.90 Z" />
      <path d="M 52.00 77.90 L 55.46 75.90 L 55.46 71.90 L 52.00 69.90 L 48.54 71.90 L 48.54 75.90 Z" />
      <path d="M 60.00 77.90 L 63.46 75.90 L 63.46 71.90 L 60.00 69.90 L 56.54 71.90 L 56.54 75.90 Z" />
      <path d="M 68.00 77.90 L 71.46 75.90 L 71.46 71.90 L 68.00 69.90 L 64.54 71.90 L 64.54 75.90 Z" />
      <path d="M 76.00 77.90 L 79.46 75.90 L 79.46 71.90 L 76.00 69.90 L 72.54 71.90 L 72.54 75.90 Z" />
      <path d="M 84.00 77.90 L 87.46 75.90 L 87.46 71.90 L 84.00 69.90 L 80.54 71.90 L 80.54 75.90 Z" />
      <path d="M 92.00 77.90 L 95.46 75.90 L 95.46 71.90 L 92.00 69.90 L 88.54 71.90 L 88.54 75.90 Z" />
      <path d="M 100.00 77.90 L 103.46 75.90 L 103.46 71.90 L 100.00 69.90 L 96.54 71.90 L 96.54 75.90 Z" />
      <path d="M 108.00 77.90 L 111.46 75.90 L 111.46 71.90 L 108.00 69.90 L 104.54 71.90 L 104.54 75.90 Z" />
      <path d="M 164.00 77.90 L 167.46 75.90 L 167.46 71.90 L 164.00 69.90 L 160.54 71.90 L 160.54 75.90 Z" />
      <path d="M 180.00 77.90 L 183.46 75.90 L 183.46 71.90 L 180.00 69.90 L 176.54 71.90 L 176.54 75.90 Z" />
      <path d="M 196.00 77.90 L 199.46 75.90 L 199.46 71.90 L 196.00 69.90 L 192.54 71.90 L 192.54 75.90 Z" />
      <path d="M 212.00 77.90 L 215.46 75.90 L 215.46 71.90 L 212.00 69.90 L 208.54 71.90 L 208.54 75.90 Z" />
      <path d="M 228.00 77.90 L 231.46 75.90 L 231.46 71.90 L 228.00 69.90 L 224.54 71.90 L 224.54 75.90 Z" />
      <path d="M 8.00 84.83 L 11.46 82.83 L 11.46 78.83 L 8.00 76.83 L 4.54 78.83 L 4.54 82.83 Z" />
      <path d="M 24.00 84.83 L 27.46 82.83 L 27.46 78.83 L 24.00 76.83 L 20.54 78.83 L 20.54 82.83 Z" />
      <path d="M 32.00 84.83 L 35.46 82.83 L 35.46 78.83 L 32.00 76.83 L 28.54 78.83 L 28.54 82.83 Z" />
      <path d="M 40.00 84.83 L 43.46 82.83 L 43.46 78.83 L 40.00 76.83 L 36.54 78.83 L 36.54 82.83 Z" />
      <path d="M 56.00 84.83 L 59.46 82.83 L 59.46 78.83 L 56.00 76.83 L 52.54 78.83 L 52.54 82.83 Z" />
      <path d="M 80.00 84.83 L 83.46 82.83 L 83.46 78.83 L 80.00 76.83 L 76.54 78.83 L 76.54 82.83 Z" />
      <path d="M 144.00 84.83 L 147.46 82.83 L 147.46 78.83 L 144.00 76.83 L 140.54 78.83 L 140.54 82.83 Z" />
      <path d="M 184.00 84.83 L 187.46 82.83 L 187.46 78.83 L 184.00 76.83 L 180.54 78.83 L 180.54 82.83 Z" />
      <path d="M 192.00 84.83 L 195.46 82.83 L 195.46 78.83 L 192.00 76.83 L 188.54 78.83 L 188.54 82.83 Z" />
      <path d="M 208.00 84.83 L 211.46 82.83 L 211.46 78.83 L 208.00 76.83 L 204.54 78.83 L 204.54 82.83 Z" />
      <path d="M 216.00 84.83 L 219.46 82.83 L 219.46 78.83 L 216.00 76.83 L 212.54 78.83 L 212.54 82.83 Z" />
      <path d="M 232.00 84.83 L 235.46 82.83 L 235.46 78.83 L 232.00 76.83 L 228.54 78.83 L 228.54 82.83 Z" />
      <path d="M 4.00 91.75 L 7.46 89.75 L 7.46 85.75 L 4.00 83.75 L 0.54 85.75 L 0.54 89.75 Z" />
      <path d="M 20.00 91.75 L 23.46 89.75 L 23.46 85.75 L 20.00 83.75 L 16.54 85.75 L 16.54 89.75 Z" />
      <path d="M 36.00 91.75 L 39.46 89.75 L 39.46 85.75 L 36.00 83.75 L 32.54 85.75 L 32.54 89.75 Z" />
      <path d="M 52.00 91.75 L 55.46 89.75 L 55.46 85.75 L 52.00 83.75 L 48.54 85.75 L 48.54 89.75 Z" />
      <path d="M 156.00 91.75 L 159.46 89.75 L 159.46 85.75 L 156.00 83.75 L 152.54 85.75 L 152.54 89.75 Z" />
      <path d="M 172.00 91.75 L 175.46 89.75 L 175.46 85.75 L 172.00 83.75 L 168.54 85.75 L 168.54 89.75 Z" />
      <path d="M 180.00 91.75 L 183.46 89.75 L 183.46 85.75 L 180.00 83.75 L 176.54 85.75 L 176.54 89.75 Z" />
      <path d="M 196.00 91.75 L 199.46 89.75 L 199.46 85.75 L 196.00 83.75 L 192.54 85.75 L 192.54 89.75 Z" />
      <path d="M 204.00 91.75 L 207.46 89.75 L 207.46 85.75 L 204.00 83.75 L 200.54 85.75 L 200.54 89.75 Z" />
      <path d="M 220.00 91.75 L 223.46 89.75 L 223.46 85.75 L 220.00 83.75 L 216.54 85.75 L 216.54 89.75 Z" />
      <path d="M 236.00 91.75 L 239.46 89.75 L 239.46 85.75 L 236.00 83.75 L 232.54 85.75 L 232.54 89.75 Z" />
      <path d="M 8.00 98.68 L 11.46 96.68 L 11.46 92.68 L 8.00 90.68 L 4.54 92.68 L 4.54 96.68 Z" />
      <path d="M 16.00 98.68 L 19.46 96.68 L 19.46 92.68 L 16.00 90.68 L 12.54 92.68 L 12.54 96.68 Z" />
      <path d="M 24.00 98.68 L 27.46 96.68 L 27.46 92.68 L 24.00 90.68 L 20.54 92.68 L 20.54 96.68 Z" />
      <path d="M 32.00 98.68 L 35.46 96.68 L 35.46 92.68 L 32.00 90.68 L 28.54 92.68 L 28.54 96.68 Z" />
      <path d="M 48.00 98.68 L 51.46 96.68 L 51.46 92.68 L 48.00 90.68 L 44.54 92.68 L 44.54 96.68 Z" />
      <path d="M 64.00 98.68 L 67.46 96.68 L 67.46 92.68 L 64.00 90.68 L 60.54 92.68 L 60.54 96.68 Z" />
      <path d="M 160.00 98.68 L 163.46 96.68 L 163.46 92.68 L 160.00 90.68 L 156.54 92.68 L 156.54 96.68 Z" />
      <path d="M 168.00 98.68 L 171.46 96.68 L 171.46 92.68 L 168.00 90.68 L 164.54 92.68 L 164.54 96.68 Z" />
      <path d="M 176.00 98.68 L 179.46 96.68 L 179.46 92.68 L 176.00 90.68 L 172.54 92.68 L 172.54 96.68 Z" />
      <path d="M 184.00 98.68 L 187.46 96.68 L 187.46 92.68 L 184.00 90.68 L 180.54 92.68 L 180.54 96.68 Z" />
      <path d="M 192.00 98.68 L 195.46 96.68 L 195.46 92.68 L 192.00 90.68 L 188.54 92.68 L 188.54 96.68 Z" />
      <path d="M 4.00 105.61 L 7.46 103.61 L 7.46 99.61 L 4.00 97.61 L 0.54 99.61 L 0.54 103.61 Z" />
      <path d="M 20.00 105.61 L 23.46 103.61 L 23.46 99.61 L 20.00 97.61 L 16.54 99.61 L 16.54 103.61 Z" />
      <path d="M 36.00 105.61 L 39.46 103.61 L 39.46 99.61 L 36.00 97.61 L 32.54 99.61 L 32.54 103.61 Z" />
      <path d="M 52.00 105.61 L 55.46 103.61 L 55.46 99.61 L 52.00 97.61 L 48.54 99.61 L 48.54 103.61 Z" />
      <path d="M 164.00 105.61 L 167.46 103.61 L 167.46 99.61 L 164.00 97.61 L 160.54 99.61 L 160.54 103.61 Z" />
      <path d="M 172.00 105.61 L 175.46 103.61 L 175.46 99.61 L 172.00 97.61 L 168.54 99.61 L 168.54 103.61 Z" />
      <path d="M 180.00 105.61 L 183.46 103.61 L 183.46 99.61 L 180.00 97.61 L 176.54 99.61 L 176.54 103.61 Z" />
      <path d="M 196.00 105.61 L 199.46 103.61 L 199.46 99.61 L 196.00 97.61 L 192.54 99.61 L 192.54 103.61 Z" />
      <path d="M 228.00 105.61 L 231.46 103.61 L 231.46 99.61 L 228.00 97.61 L 224.54 99.61 L 224.54 103.61 Z" />
      <path d="M 8.00 112.54 L 11.46 110.54 L 11.46 106.54 L 8.00 104.54 L 4.54 106.54 L 4.54 110.54 Z" />
      <path d="M 32.00 112.54 L 35.46 110.54 L 35.46 106.54 L 32.00 104.54 L 28.54 106.54 L 28.54 110.54 Z" />
      <path d="M 64.00 112.54 L 67.46 110.54 L 67.46 106.54 L 64.00 104.54 L 60.54 106.54 L 60.54 110.54 Z" />
      <path d="M 160.00 112.54 L 163.46 110.54 L 163.46 106.54 L 160.00 104.54 L 156.54 106.54 L 156.54 110.54 Z" />
      <path d="M 36.00 119.47 L 39.46 117.47 L 39.46 113.47 L 36.00 111.47 L 32.54 113.47 L 32.54 117.47 Z" />
      <path d="M 44.00 119.47 L 47.46 117.47 L 47.46 113.47 L 44.00 111.47 L 40.54 113.47 L 40.54 117.47 Z" />
      <path d="M 68.00 119.47 L 71.46 117.47 L 71.46 113.47 L 68.00 111.47 L 64.54 113.47 L 64.54 117.47 Z" />
      <path d="M 164.00 119.47 L 167.46 117.47 L 167.46 113.47 L 164.00 111.47 L 160.54 113.47 L 160.54 117.47 Z" />
      <path d="M 188.00 119.47 L 191.46 117.47 L 191.46 113.47 L 188.00 111.47 L 184.54 113.47 L 184.54 117.47 Z" />
      <path d="M 212.00 119.47 L 215.46 117.47 L 215.46 113.47 L 212.00 111.47 L 208.54 113.47 L 208.54 117.47 Z" />
      <path d="M 220.00 119.47 L 223.46 117.47 L 223.46 113.47 L 220.00 111.47 L 216.54 113.47 L 216.54 117.47 Z" />
      <path d="M 228.00 119.47 L 231.46 117.47 L 231.46 113.47 L 228.00 111.47 L 224.54 113.47 L 224.54 117.47 Z" />
      <path d="M 8.00 126.39 L 11.46 124.39 L 11.46 120.39 L 8.00 118.39 L 4.54 120.39 L 4.54 124.39 Z" />
      <path d="M 16.00 126.39 L 19.46 124.39 L 19.46 120.39 L 16.00 118.39 L 12.54 120.39 L 12.54 124.39 Z" />
      <path d="M 48.00 126.39 L 51.46 124.39 L 51.46 120.39 L 48.00 118.39 L 44.54 120.39 L 44.54 124.39 Z" />
      <path d="M 72.00 126.39 L 75.46 124.39 L 75.46 120.39 L 72.00 118.39 L 68.54 120.39 L 68.54 124.39 Z" />
      <path d="M 168.00 126.39 L 171.46 124.39 L 171.46 120.39 L 168.00 118.39 L 164.54 120.39 L 164.54 124.39 Z" />
      <path d="M 184.00 126.39 L 187.46 124.39 L 187.46 120.39 L 184.00 118.39 L 180.54 120.39 L 180.54 124.39 Z" />
      <path d="M 200.00 126.39 L 203.46 124.39 L 203.46 120.39 L 200.00 118.39 L 196.54 120.39 L 196.54 124.39 Z" />
      <path d="M 216.00 126.39 L 219.46 124.39 L 219.46 120.39 L 216.00 118.39 L 212.54 120.39 L 212.54 124.39 Z" />
      <path d="M 4.00 133.32 L 7.46 131.32 L 7.46 127.32 L 4.00 125.32 L 0.54 127.32 L 0.54 131.32 Z" />
      <path d="M 20.00 133.32 L 23.46 131.32 L 23.46 127.32 L 20.00 125.32 L 16.54 127.32 L 16.54 131.32 Z" />
      <path d="M 60.00 133.32 L 63.46 131.32 L 63.46 127.32 L 60.00 125.32 L 56.54 127.32 L 56.54 131.32 Z" />
      <path d="M 164.00 133.32 L 167.46 131.32 L 167.46 127.32 L 164.00 125.32 L 160.54 127.32 L 160.54 131.32 Z" />
      <path d="M 172.00 133.32 L 175.46 131.32 L 175.46 127.32 L 172.00 125.32 L 168.54 127.32 L 168.54 131.32 Z" />
      <path d="M 180.00 133.32 L 183.46 131.32 L 183.46 127.32 L 180.00 125.32 L 176.54 127.32 L 176.54 131.32 Z" />
      <path d="M 196.00 133.32 L 199.46 131.32 L 199.46 127.32 L 196.00 125.32 L 192.54 127.32 L 192.54 131.32 Z" />
      <path d="M 228.00 133.32 L 231.46 131.32 L 231.46 127.32 L 228.00 125.32 L 224.54 127.32 L 224.54 131.32 Z" />
      <path d="M 236.00 133.32 L 239.46 131.32 L 239.46 127.32 L 236.00 125.32 L 232.54 127.32 L 232.54 131.32 Z" />
      <path d="M 8.00 140.25 L 11.46 138.25 L 11.46 134.25 L 8.00 132.25 L 4.54 134.25 L 4.54 138.25 Z" />
      <path d="M 24.00 140.25 L 27.46 138.25 L 27.46 134.25 L 24.00 132.25 L 20.54 134.25 L 20.54 138.25 Z" />
      <path d="M 32.00 140.25 L 35.46 138.25 L 35.46 134.25 L 32.00 132.25 L 28.54 134.25 L 28.54 138.25 Z" />
      <path d="M 40.00 140.25 L 43.46 138.25 L 43.46 134.25 L 40.00 132.25 L 36.54 134.25 L 36.54 138.25 Z" />
      <path d="M 48.00 140.25 L 51.46 138.25 L 51.46 134.25 L 48.00 132.25 L 44.54 134.25 L 44.54 138.25 Z" />
      <path d="M 72.00 140.25 L 75.46 138.25 L 75.46 134.25 L 72.00 132.25 L 68.54 134.25 L 68.54 138.25 Z" />
      <path d="M 80.00 140.25 L 83.46 138.25 L 83.46 134.25 L 80.00 132.25 L 76.54 134.25 L 76.54 138.25 Z" />
      <path d="M 192.00 140.25 L 195.46 138.25 L 195.46 134.25 L 192.00 132.25 L 188.54 134.25 L 188.54 138.25 Z" />
      <path d="M 200.00 140.25 L 203.46 138.25 L 203.46 134.25 L 200.00 132.25 L 196.54 134.25 L 196.54 138.25 Z" />
      <path d="M 208.00 140.25 L 211.46 138.25 L 211.46 134.25 L 208.00 132.25 L 204.54 134.25 L 204.54 138.25 Z" />
      <path d="M 216.00 140.25 L 219.46 138.25 L 219.46 134.25 L 216.00 132.25 L 212.54 134.25 L 212.54 138.25 Z" />
      <path d="M 224.00 140.25 L 227.46 138.25 L 227.46 134.25 L 224.00 132.25 L 220.54 134.25 L 220.54 138.25 Z" />
      <path d="M 20.00 147.18 L 23.46 145.18 L 23.46 141.18 L 20.00 139.18 L 16.54 141.18 L 16.54 145.18 Z" />
      <path d="M 44.00 147.18 L 47.46 145.18 L 47.46 141.18 L 44.00 139.18 L 40.54 141.18 L 40.54 145.18 Z" />
      <path d="M 52.00 147.18 L 55.46 145.18 L 55.46 141.18 L 52.00 139.18 L 48.54 141.18 L 48.54 145.18 Z" />
      <path d="M 84.00 147.18 L 87.46 145.18 L 87.46 141.18 L 84.00 139.18 L 80.54 141.18 L 80.54 145.18 Z" />
      <path d="M 156.00 147.18 L 159.46 145.18 L 159.46 141.18 L 156.00 139.18 L 152.54 141.18 L 152.54 145.18 Z" />
      <path d="M 164.00 147.18 L 167.46 145.18 L 167.46 141.18 L 164.00 139.18 L 160.54 141.18 L 160.54 145.18 Z" />
      <path d="M 172.00 147.18 L 175.46 145.18 L 175.46 141.18 L 172.00 139.18 L 168.54 141.18 L 168.54 145.18 Z" />
      <path d="M 180.00 147.18 L 183.46 145.18 L 183.46 141.18 L 180.00 139.18 L 176.54 141.18 L 176.54 145.18 Z" />
      <path d="M 196.00 147.18 L 199.46 145.18 L 199.46 141.18 L 196.00 139.18 L 192.54 141.18 L 192.54 145.18 Z" />
      <path d="M 220.00 147.18 L 223.46 145.18 L 223.46 141.18 L 220.00 139.18 L 216.54 141.18 L 216.54 145.18 Z" />
      <path d="M 228.00 147.18 L 231.46 145.18 L 231.46 141.18 L 228.00 139.18 L 224.54 141.18 L 224.54 145.18 Z" />
      <path d="M 236.00 147.18 L 239.46 145.18 L 239.46 141.18 L 236.00 139.18 L 232.54 141.18 L 232.54 145.18 Z" />
      <path d="M 16.00 154.11 L 19.46 152.11 L 19.46 148.11 L 16.00 146.11 L 12.54 148.11 L 12.54 152.11 Z" />
      <path d="M 32.00 154.11 L 35.46 152.11 L 35.46 148.11 L 32.00 146.11 L 28.54 148.11 L 28.54 152.11 Z" />
      <path d="M 48.00 154.11 L 51.46 152.11 L 51.46 148.11 L 48.00 146.11 L 44.54 148.11 L 44.54 152.11 Z" />
      <path d="M 80.00 154.11 L 83.46 152.11 L 83.46 148.11 L 80.00 146.11 L 76.54 148.11 L 76.54 152.11 Z" />
      <path d="M 152.00 154.11 L 155.46 152.11 L 155.46 148.11 L 152.00 146.11 L 148.54 148.11 L 148.54 152.11 Z" />
      <path d="M 184.00 154.11 L 187.46 152.11 L 187.46 148.11 L 184.00 146.11 L 180.54 148.11 L 180.54 152.11 Z" />
      <path d="M 192.00 154.11 L 195.46 152.11 L 195.46 148.11 L 192.00 146.11 L 188.54 148.11 L 188.54 152.11 Z" />
      <path d="M 200.00 154.11 L 203.46 152.11 L 203.46 148.11 L 200.00 146.11 L 196.54 148.11 L 196.54 152.11 Z" />
      <path d="M 216.00 154.11 L 219.46 152.11 L 219.46 148.11 L 216.00 146.11 L 212.54 148.11 L 212.54 152.11 Z" />
      <path d="M 52.00 161.03 L 55.46 159.03 L 55.46 155.03 L 52.00 153.03 L 48.54 155.03 L 48.54 159.03 Z" />
      <path d="M 68.00 161.03 L 71.46 159.03 L 71.46 155.03 L 68.00 153.03 L 64.54 155.03 L 64.54 159.03 Z" />
      <path d="M 84.00 161.03 L 87.46 159.03 L 87.46 155.03 L 84.00 153.03 L 80.54 155.03 L 80.54 159.03 Z" />
      <path d="M 100.00 161.03 L 103.46 159.03 L 103.46 155.03 L 100.00 153.03 L 96.54 155.03 L 96.54 159.03 Z" />
      <path d="M 124.00 161.03 L 127.46 159.03 L 127.46 155.03 L 124.00 153.03 L 120.54 155.03 L 120.54 159.03 Z" />
      <path d="M 140.00 161.03 L 143.46 159.03 L 143.46 155.03 L 140.00 153.03 L 136.54 155.03 L 136.54 159.03 Z" />
      <path d="M 156.00 161.03 L 159.46 159.03 L 159.46 155.03 L 156.00 153.03 L 152.54 155.03 L 152.54 159.03 Z" />
      <path d="M 180.00 161.03 L 183.46 159.03 L 183.46 155.03 L 180.00 153.03 L 176.54 155.03 L 176.54 159.03 Z" />
      <path d="M 188.00 161.03 L 191.46 159.03 L 191.46 155.03 L 188.00 153.03 L 184.54 155.03 L 184.54 159.03 Z" />
      <path d="M 196.00 161.03 L 199.46 159.03 L 199.46 155.03 L 196.00 153.03 L 192.54 155.03 L 192.54 159.03 Z" />
      <path d="M 204.00 161.03 L 207.46 159.03 L 207.46 155.03 L 204.00 153.03 L 200.54 155.03 L 200.54 159.03 Z" />
      <path d="M 220.00 161.03 L 223.46 159.03 L 223.46 155.03 L 220.00 153.03 L 216.54 155.03 L 216.54 159.03 Z" />
      <path d="M 236.00 161.03 L 239.46 159.03 L 239.46 155.03 L 236.00 153.03 L 232.54 155.03 L 232.54 159.03 Z" />
      <path d="M 8.00 167.96 L 11.46 165.96 L 11.46 161.96 L 8.00 159.96 L 4.54 161.96 L 4.54 165.96 Z" />
      <path d="M 24.00 167.96 L 27.46 165.96 L 27.46 161.96 L 24.00 159.96 L 20.54 161.96 L 20.54 165.96 Z" />
      <path d="M 40.00 167.96 L 43.46 165.96 L 43.46 161.96 L 40.00 159.96 L 36.54 161.96 L 36.54 165.96 Z" />
      <path d="M 80.00 167.96 L 83.46 165.96 L 83.46 161.96 L 80.00 159.96 L 76.54 161.96 L 76.54 165.96 Z" />
      <path d="M 88.00 167.96 L 91.46 165.96 L 91.46 161.96 L 88.00 159.96 L 84.54 161.96 L 84.54 165.96 Z" />
      <path d="M 104.00 167.96 L 107.46 165.96 L 107.46 161.96 L 104.00 159.96 L 100.54 161.96 L 100.54 165.96 Z" />
      <path d="M 120.00 167.96 L 123.46 165.96 L 123.46 161.96 L 120.00 159.96 L 116.54 161.96 L 116.54 165.96 Z" />
      <path d="M 144.00 167.96 L 147.46 165.96 L 147.46 161.96 L 144.00 159.96 L 140.54 161.96 L 140.54 165.96 Z" />
      <path d="M 152.00 167.96 L 155.46 165.96 L 155.46 161.96 L 152.00 159.96 L 148.54 161.96 L 148.54 165.96 Z" />
      <path d="M 160.00 167.96 L 163.46 165.96 L 163.46 161.96 L 160.00 159.96 L 156.54 161.96 L 156.54 165.96 Z" />
      <path d="M 176.00 167.96 L 179.46 165.96 L 179.46 161.96 L 176.00 159.96 L 172.54 161.96 L 172.54 165.96 Z" />
      <path d="M 192.00 167.96 L 195.46 165.96 L 195.46 161.96 L 192.00 159.96 L 188.54 161.96 L 188.54 165.96 Z" />
      <path d="M 208.00 167.96 L 211.46 165.96 L 211.46 161.96 L 208.00 159.96 L 204.54 161.96 L 204.54 165.96 Z" />
      <path d="M 216.00 167.96 L 219.46 165.96 L 219.46 161.96 L 216.00 159.96 L 212.54 161.96 L 212.54 165.96 Z" />
      <path d="M 232.00 167.96 L 235.46 165.96 L 235.46 161.96 L 232.00 159.96 L 228.54 161.96 L 228.54 165.96 Z" />
      <path d="M 12.00 174.89 L 15.46 172.89 L 15.46 168.89 L 12.00 166.89 L 8.54 168.89 L 8.54 172.89 Z" />
      <path d="M 28.00 174.89 L 31.46 172.89 L 31.46 168.89 L 28.00 166.89 L 24.54 168.89 L 24.54 172.89 Z" />
      <path d="M 44.00 174.89 L 47.46 172.89 L 47.46 168.89 L 44.00 166.89 L 40.54 168.89 L 40.54 172.89 Z" />
      <path d="M 60.00 174.89 L 63.46 172.89 L 63.46 168.89 L 60.00 166.89 L 56.54 168.89 L 56.54 172.89 Z" />
      <path d="M 76.00 174.89 L 79.46 172.89 L 79.46 168.89 L 76.00 166.89 L 72.54 168.89 L 72.54 172.89 Z" />
      <path d="M 92.00 174.89 L 95.46 172.89 L 95.46 168.89 L 92.00 166.89 L 88.54 168.89 L 88.54 172.89 Z" />
      <path d="M 108.00 174.89 L 111.46 172.89 L 111.46 168.89 L 108.00 166.89 L 104.54 168.89 L 104.54 172.89 Z" />
      <path d="M 124.00 174.89 L 127.46 172.89 L 127.46 168.89 L 124.00 166.89 L 120.54 168.89 L 120.54 172.89 Z" />
      <path d="M 140.00 174.89 L 143.46 172.89 L 143.46 168.89 L 140.00 166.89 L 136.54 168.89 L 136.54 172.89 Z" />
      <path d="M 156.00 174.89 L 159.46 172.89 L 159.46 168.89 L 156.00 166.89 L 152.54 168.89 L 152.54 172.89 Z" />
      <path d="M 172.00 174.89 L 175.46 172.89 L 175.46 168.89 L 172.00 166.89 L 168.54 168.89 L 168.54 172.89 Z" />
      <path d="M 180.00 174.89 L 183.46 172.89 L 183.46 168.89 L 180.00 166.89 L 176.54 168.89 L 176.54 172.89 Z" />
      <path d="M 188.00 174.89 L 191.46 172.89 L 191.46 168.89 L 188.00 166.89 L 184.54 168.89 L 184.54 172.89 Z" />
      <path d="M 196.00 174.89 L 199.46 172.89 L 199.46 168.89 L 196.00 166.89 L 192.54 168.89 L 192.54 172.89 Z" />
      <path d="M 204.00 174.89 L 207.46 172.89 L 207.46 168.89 L 204.00 166.89 L 200.54 168.89 L 200.54 172.89 Z" />
      <path d="M 228.00 174.89 L 231.46 172.89 L 231.46 168.89 L 228.00 166.89 L 224.54 168.89 L 224.54 172.89 Z" />
      <path d="M 184.00 181.82 L 187.46 179.82 L 187.46 175.82 L 184.00 173.82 L 180.54 175.82 L 180.54 179.82 Z" />
      <path d="M 192.00 181.82 L 195.46 179.82 L 195.46 175.82 L 192.00 173.82 L 188.54 175.82 L 188.54 179.82 Z" />
      <path d="M 200.00 181.82 L 203.46 179.82 L 203.46 175.82 L 200.00 173.82 L 196.54 175.82 L 196.54 179.82 Z" />
      <path d="M 208.00 181.82 L 211.46 179.82 L 211.46 175.82 L 208.00 173.82 L 204.54 175.82 L 204.54 179.82 Z" />
      <path d="M 232.00 181.82 L 235.46 179.82 L 235.46 175.82 L 232.00 173.82 L 228.54 175.82 L 228.54 179.82 Z" />
      <path d="M 4.00 188.75 L 7.46 186.75 L 7.46 182.75 L 4.00 180.75 L 0.54 182.75 L 0.54 186.75 Z" />
      <path d="M 20.00 188.75 L 23.46 186.75 L 23.46 182.75 L 20.00 180.75 L 16.54 182.75 L 16.54 186.75 Z" />
      <path d="M 36.00 188.75 L 39.46 186.75 L 39.46 182.75 L 36.00 180.75 L 32.54 182.75 L 32.54 186.75 Z" />
      <path d="M 52.00 188.75 L 55.46 186.75 L 55.46 182.75 L 52.00 180.75 L 48.54 182.75 L 48.54 186.75 Z" />
      <path d="M 68.00 188.75 L 71.46 186.75 L 71.46 182.75 L 68.00 180.75 L 64.54 182.75 L 64.54 186.75 Z" />
      <path d="M 84.00 188.75 L 87.46 186.75 L 87.46 182.75 L 84.00 180.75 L 80.54 182.75 L 80.54 186.75 Z" />
      <path d="M 100.00 188.75 L 103.46 186.75 L 103.46 182.75 L 100.00 180.75 L 96.54 182.75 L 96.54 186.75 Z" />
      <path d="M 116.00 188.75 L 119.46 186.75 L 119.46 182.75 L 116.00 180.75 L 112.54 182.75 L 112.54 186.75 Z" />
      <path d="M 132.00 188.75 L 135.46 186.75 L 135.46 182.75 L 132.00 180.75 L 128.54 182.75 L 128.54 186.75 Z" />
      <path d="M 148.00 188.75 L 151.46 186.75 L 151.46 182.75 L 148.00 180.75 L 144.54 182.75 L 144.54 186.75 Z" />
      <path d="M 164.00 188.75 L 167.46 186.75 L 167.46 182.75 L 164.00 180.75 L 160.54 182.75 L 160.54 186.75 Z" />
      <path d="M 180.00 188.75 L 183.46 186.75 L 183.46 182.75 L 180.00 180.75 L 176.54 182.75 L 176.54 186.75 Z" />
      <path d="M 220.00 188.75 L 223.46 186.75 L 223.46 182.75 L 220.00 180.75 L 216.54 182.75 L 216.54 186.75 Z" />
      <path d="M 228.00 188.75 L 231.46 186.75 L 231.46 182.75 L 228.00 180.75 L 224.54 182.75 L 224.54 186.75 Z" />
      <path d="M 236.00 188.75 L 239.46 186.75 L 239.46 182.75 L 236.00 180.75 L 232.54 182.75 L 232.54 186.75 Z" />
      <path d="M 16.00 195.67 L 19.46 193.67 L 19.46 189.67 L 16.00 187.67 L 12.54 189.67 L 12.54 193.67 Z" />
      <path d="M 32.00 195.67 L 35.46 193.67 L 35.46 189.67 L 32.00 187.67 L 28.54 189.67 L 28.54 193.67 Z" />
      <path d="M 40.00 195.67 L 43.46 193.67 L 43.46 189.67 L 40.00 187.67 L 36.54 189.67 L 36.54 193.67 Z" />
      <path d="M 64.00 195.67 L 67.46 193.67 L 67.46 189.67 L 64.00 187.67 L 60.54 189.67 L 60.54 193.67 Z" />
      <path d="M 72.00 195.67 L 75.46 193.67 L 75.46 189.67 L 72.00 187.67 L 68.54 189.67 L 68.54 193.67 Z" />
      <path d="M 96.00 195.67 L 99.46 193.67 L 99.46 189.67 L 96.00 187.67 L 92.54 189.67 L 92.54 193.67 Z" />
      <path d="M 112.00 195.67 L 115.46 193.67 L 115.46 189.67 L 112.00 187.67 L 108.54 189.67 L 108.54 193.67 Z" />
      <path d="M 160.00 195.67 L 163.46 193.67 L 163.46 189.67 L 160.00 187.67 L 156.54 189.67 L 156.54 193.67 Z" />
      <path d="M 168.00 195.67 L 171.46 193.67 L 171.46 189.67 L 168.00 187.67 L 164.54 189.67 L 164.54 193.67 Z" />
      <path d="M 184.00 195.67 L 187.46 193.67 L 187.46 189.67 L 184.00 187.67 L 180.54 189.67 L 180.54 193.67 Z" />
      <path d="M 200.00 195.67 L 203.46 193.67 L 203.46 189.67 L 200.00 187.67 L 196.54 189.67 L 196.54 193.67 Z" />
      <path d="M 216.00 195.67 L 219.46 193.67 L 219.46 189.67 L 216.00 187.67 L 212.54 189.67 L 212.54 193.67 Z" />
      <path d="M 232.00 195.67 L 235.46 193.67 L 235.46 189.67 L 232.00 187.67 L 228.54 189.67 L 228.54 193.67 Z" />
      <path d="M 4.00 202.60 L 7.46 200.60 L 7.46 196.60 L 4.00 194.60 L 0.54 196.60 L 0.54 200.60 Z" />
      <path d="M 20.00 202.60 L 23.46 200.60 L 23.46 196.60 L 20.00 194.60 L 16.54 196.60 L 16.54 200.60 Z" />
      <path d="M 28.00 202.60 L 31.46 200.60 L 31.46 196.60 L 28.00 194.60 L 24.54 196.60 L 24.54 200.60 Z" />
      <path d="M 44.00 202.60 L 47.46 200.60 L 47.46 196.60 L 44.00 194.60 L 40.54 196.60 L 40.54 200.60 Z" />
      <path d="M 52.00 202.60 L 55.46 200.60 L 55.46 196.60 L 52.00 194.60 L 48.54 196.60 L 48.54 200.60 Z" />
      <path d="M 60.00 202.60 L 63.46 200.60 L 63.46 196.60 L 60.00 194.60 L 56.54 196.60 L 56.54 200.60 Z" />
      <path d="M 84.00 202.60 L 87.46 200.60 L 87.46 196.60 L 84.00 194.60 L 80.54 196.60 L 80.54 200.60 Z" />
      <path d="M 116.00 202.60 L 119.46 200.60 L 119.46 196.60 L 116.00 194.60 L 112.54 196.60 L 112.54 200.60 Z" />
      <path d="M 132.00 202.60 L 135.46 200.60 L 135.46 196.60 L 132.00 194.60 L 128.54 196.60 L 128.54 200.60 Z" />
      <path d="M 156.00 202.60 L 159.46 200.60 L 159.46 196.60 L 156.00 194.60 L 152.54 196.60 L 152.54 200.60 Z" />
      <path d="M 164.00 202.60 L 167.46 200.60 L 167.46 196.60 L 164.00 194.60 L 160.54 196.60 L 160.54 200.60 Z" />
      <path d="M 172.00 202.60 L 175.46 200.60 L 175.46 196.60 L 172.00 194.60 L 168.54 196.60 L 168.54 200.60 Z" />
      <path d="M 220.00 202.60 L 223.46 200.60 L 223.46 196.60 L 220.00 194.60 L 216.54 196.60 L 216.54 200.60 Z" />
      <path d="M 228.00 202.60 L 231.46 200.60 L 231.46 196.60 L 228.00 194.60 L 224.54 196.60 L 224.54 200.60 Z" />
      <path d="M 236.00 202.60 L 239.46 200.60 L 239.46 196.60 L 236.00 194.60 L 232.54 196.60 L 232.54 200.60 Z" />
      <path d="M 8.00 209.53 L 11.46 207.53 L 11.46 203.53 L 8.00 201.53 L 4.54 203.53 L 4.54 207.53 Z" />
      <path d="M 24.00 209.53 L 27.46 207.53 L 27.46 203.53 L 24.00 201.53 L 20.54 203.53 L 20.54 207.53 Z" />
      <path d="M 40.00 209.53 L 43.46 207.53 L 43.46 203.53 L 40.00 201.53 L 36.54 203.53 L 36.54 207.53 Z" />
      <path d="M 64.00 209.53 L 67.46 207.53 L 67.46 203.53 L 64.00 201.53 L 60.54 203.53 L 60.54 207.53 Z" />
      <path d="M 72.00 209.53 L 75.46 207.53 L 75.46 203.53 L 72.00 201.53 L 68.54 203.53 L 68.54 207.53 Z" />
      <path d="M 80.00 209.53 L 83.46 207.53 L 83.46 203.53 L 80.00 201.53 L 76.54 203.53 L 76.54 207.53 Z" />
      <path d="M 88.00 209.53 L 91.46 207.53 L 91.46 203.53 L 88.00 201.53 L 84.54 203.53 L 84.54 207.53 Z" />
      <path d="M 104.00 209.53 L 107.46 207.53 L 107.46 203.53 L 104.00 201.53 L 100.54 203.53 L 100.54 207.53 Z" />
      <path d="M 112.00 209.53 L 115.46 207.53 L 115.46 203.53 L 112.00 201.53 L 108.54 203.53 L 108.54 207.53 Z" />
      <path d="M 120.00 209.53 L 123.46 207.53 L 123.46 203.53 L 120.00 201.53 L 116.54 203.53 L 116.54 207.53 Z" />
      <path d="M 136.00 209.53 L 139.46 207.53 L 139.46 203.53 L 136.00 201.53 L 132.54 203.53 L 132.54 207.53 Z" />
      <path d="M 144.00 209.53 L 147.46 207.53 L 147.46 203.53 L 144.00 201.53 L 140.54 203.53 L 140.54 207.53 Z" />
      <path d="M 168.00 209.53 L 171.46 207.53 L 171.46 203.53 L 168.00 201.53 L 164.54 203.53 L 164.54 207.53 Z" />
      <path d="M 176.00 209.53 L 179.46 207.53 L 179.46 203.53 L 176.00 201.53 L 172.54 203.53 L 172.54 207.53 Z" />
      <path d="M 192.00 209.53 L 195.46 207.53 L 195.46 203.53 L 192.00 201.53 L 188.54 203.53 L 188.54 207.53 Z" />
      <path d="M 224.00 209.53 L 227.46 207.53 L 227.46 203.53 L 224.00 201.53 L 220.54 203.53 L 220.54 207.53 Z" />
      <path d="M 232.00 209.53 L 235.46 207.53 L 235.46 203.53 L 232.00 201.53 L 228.54 203.53 L 228.54 207.53 Z" />
      <path d="M 12.00 216.46 L 15.46 214.46 L 15.46 210.46 L 12.00 208.46 L 8.54 210.46 L 8.54 214.46 Z" />
      <path d="M 20.00 216.46 L 23.46 214.46 L 23.46 210.46 L 20.00 208.46 L 16.54 210.46 L 16.54 214.46 Z" />
      <path d="M 28.00 216.46 L 31.46 214.46 L 31.46 210.46 L 28.00 208.46 L 24.54 210.46 L 24.54 214.46 Z" />
      <path d="M 52.00 216.46 L 55.46 214.46 L 55.46 210.46 L 52.00 208.46 L 48.54 210.46 L 48.54 214.46 Z" />
      <path d="M 60.00 216.46 L 63.46 214.46 L 63.46 210.46 L 60.00 208.46 L 56.54 210.46 L 56.54 214.46 Z" />
      <path d="M 68.00 216.46 L 71.46 214.46 L 71.46 210.46 L 68.00 208.46 L 64.54 210.46 L 64.54 214.46 Z" />
      <path d="M 76.00 216.46 L 79.46 214.46 L 79.46 210.46 L 76.00 208.46 L 72.54 210.46 L 72.54 214.46 Z" />
      <path d="M 84.00 216.46 L 87.46 214.46 L 87.46 210.46 L 84.00 208.46 L 80.54 210.46 L 80.54 214.46 Z" />
      <path d="M 92.00 216.46 L 95.46 214.46 L 95.46 210.46 L 92.00 208.46 L 88.54 210.46 L 88.54 214.46 Z" />
      <path d="M 100.00 216.46 L 103.46 214.46 L 103.46 210.46 L 100.00 208.46 L 96.54 210.46 L 96.54 214.46 Z" />
      <path d="M 108.00 216.46 L 111.46 214.46 L 111.46 210.46 L 108.00 208.46 L 104.54 210.46 L 104.54 214.46 Z" />
      <path d="M 132.00 216.46 L 135.46 214.46 L 135.46 210.46 L 132.00 208.46 L 128.54 210.46 L 128.54 214.46 Z" />
      <path d="M 140.00 216.46 L 143.46 214.46 L 143.46 210.46 L 140.00 208.46 L 136.54 210.46 L 136.54 214.46 Z" />
      <path d="M 172.00 216.46 L 175.46 214.46 L 175.46 210.46 L 172.00 208.46 L 168.54 210.46 L 168.54 214.46 Z" />
      <path d="M 180.00 216.46 L 183.46 214.46 L 183.46 210.46 L 180.00 208.46 L 176.54 210.46 L 176.54 214.46 Z" />
      <path d="M 188.00 216.46 L 191.46 214.46 L 191.46 210.46 L 188.00 208.46 L 184.54 210.46 L 184.54 214.46 Z" />
      <path d="M 196.00 216.46 L 199.46 214.46 L 199.46 210.46 L 196.00 208.46 L 192.54 210.46 L 192.54 214.46 Z" />
      <path d="M 204.00 216.46 L 207.46 214.46 L 207.46 210.46 L 204.00 208.46 L 200.54 210.46 L 200.54 214.46 Z" />
      <path d="M 236.00 216.46 L 239.46 214.46 L 239.46 210.46 L 236.00 208.46 L 232.54 210.46 L 232.54 214.46 Z" />
      <path d="M 8.00 223.39 L 11.46 221.39 L 11.46 217.39 L 8.00 215.39 L 4.54 217.39 L 4.54 221.39 Z" />
      <path d="M 56.00 223.39 L 59.46 221.39 L 59.46 217.39 L 56.00 215.39 L 52.54 217.39 L 52.54 221.39 Z" />
      <path d="M 64.00 223.39 L 67.46 221.39 L 67.46 217.39 L 64.00 215.39 L 60.54 217.39 L 60.54 221.39 Z" />
      <path d="M 72.00 223.39 L 75.46 221.39 L 75.46 217.39 L 72.00 215.39 L 68.54 217.39 L 68.54 221.39 Z" />
      <path d="M 88.00 223.39 L 91.46 221.39 L 91.46 217.39 L 88.00 215.39 L 84.54 217.39 L 84.54 221.39 Z" />
      <path d="M 112.00 223.39 L 115.46 221.39 L 115.46 217.39 L 112.00 215.39 L 108.54 217.39 L 108.54 221.39 Z" />
      <path d="M 120.00 223.39 L 123.46 221.39 L 123.46 217.39 L 120.00 215.39 L 116.54 217.39 L 116.54 221.39 Z" />
      <path d="M 128.00 223.39 L 131.46 221.39 L 131.46 217.39 L 128.00 215.39 L 124.54 217.39 L 124.54 221.39 Z" />
      <path d="M 144.00 223.39 L 147.46 221.39 L 147.46 217.39 L 144.00 215.39 L 140.54 217.39 L 140.54 221.39 Z" />
      <path d="M 152.00 223.39 L 155.46 221.39 L 155.46 217.39 L 152.00 215.39 L 148.54 217.39 L 148.54 221.39 Z" />
      <path d="M 176.00 223.39 L 179.46 221.39 L 179.46 217.39 L 176.00 215.39 L 172.54 217.39 L 172.54 221.39 Z" />
      <path d="M 184.00 223.39 L 187.46 221.39 L 187.46 217.39 L 184.00 215.39 L 180.54 217.39 L 180.54 221.39 Z" />
      <path d="M 192.00 223.39 L 195.46 221.39 L 195.46 217.39 L 192.00 215.39 L 188.54 217.39 L 188.54 221.39 Z" />
      <path d="M 216.00 223.39 L 219.46 221.39 L 219.46 217.39 L 216.00 215.39 L 212.54 217.39 L 212.54 221.39 Z" />
      <path d="M 224.00 223.39 L 227.46 221.39 L 227.46 217.39 L 224.00 215.39 L 220.54 217.39 L 220.54 221.39 Z" />
      <path d="M 4.00 230.31 L 7.46 228.31 L 7.46 224.31 L 4.00 222.31 L 0.54 224.31 L 0.54 228.31 Z" />
      <path d="M 36.00 230.31 L 39.46 228.31 L 39.46 224.31 L 36.00 222.31 L 32.54 224.31 L 32.54 228.31 Z" />
      <path d="M 44.00 230.31 L 47.46 228.31 L 47.46 224.31 L 44.00 222.31 L 40.54 224.31 L 40.54 228.31 Z" />
      <path d="M 68.00 230.31 L 71.46 228.31 L 71.46 224.31 L 68.00 222.31 L 64.54 224.31 L 64.54 228.31 Z" />
      <path d="M 92.00 230.31 L 95.46 228.31 L 95.46 224.31 L 92.00 222.31 L 88.54 224.31 L 88.54 228.31 Z" />
      <path d="M 116.00 230.31 L 119.46 228.31 L 119.46 224.31 L 116.00 222.31 L 112.54 224.31 L 112.54 228.31 Z" />
      <path d="M 124.00 230.31 L 127.46 228.31 L 127.46 224.31 L 124.00 222.31 L 120.54 224.31 L 120.54 228.31 Z" />
      <path d="M 132.00 230.31 L 135.46 228.31 L 135.46 224.31 L 132.00 222.31 L 128.54 224.31 L 128.54 228.31 Z" />
      <path d="M 140.00 230.31 L 143.46 228.31 L 143.46 224.31 L 140.00 222.31 L 136.54 224.31 L 136.54 228.31 Z" />
      <path d="M 148.00 230.31 L 151.46 228.31 L 151.46 224.31 L 148.00 222.31 L 144.54 224.31 L 144.54 228.31 Z" />
      <path d="M 156.00 230.31 L 159.46 228.31 L 159.46 224.31 L 156.00 222.31 L 152.54 224.31 L 152.54 228.31 Z" />
      <path d="M 164.00 230.31 L 167.46 228.31 L 167.46 224.31 L 164.00 222.31 L 160.54 224.31 L 160.54 228.31 Z" />
      <path d="M 180.00 230.31 L 183.46 228.31 L 183.46 224.31 L 180.00 222.31 L 176.54 224.31 L 176.54 228.31 Z" />
      <path d="M 188.00 230.31 L 191.46 228.31 L 191.46 224.31 L 188.00 222.31 L 184.54 224.31 L 184.54 228.31 Z" />
      <path d="M 196.00 230.31 L 199.46 228.31 L 199.46 224.31 L 196.00 222.31 L 192.54 224.31 L 192.54 228.31 Z" />
      <path d="M 204.00 230.31 L 207.46 228.31 L 207.46 224.31 L 204.00 222.31 L 200.54 224.31 L 200.54 228.31 Z" />
      <path d="M 212.00 230.31 L 215.46 228.31 L 215.46 224.31 L 212.00 222.31 L 208.54 224.31 L 208.54 228.31 Z" />
      <path d="M 220.00 230.31 L 223.46 228.31 L 223.46 224.31 L 220.00 222.31 L 216.54 224.31 L 216.54 228.31 Z" />
      <path d="M 228.00 230.31 L 231.46 228.31 L 231.46 224.31 L 228.00 222.31 L 224.54 224.31 L 224.54 228.31 Z" />
      <path d="M 236.00 230.31 L 239.46 228.31 L 239.46 224.31 L 236.00 222.31 L 232.54 224.31 L 232.54 228.31 Z" />
      <circle cx="116.00" cy="115.47" r="32.862" stroke="#000000" stroke-width="6.276" fill="none" />
      <circle cx="116.00" cy="115.47" r="20.309" stroke="#000000" stroke-width="6.276" fill="none" />
      <circle cx="116.00" cy="115.47" r="7.757" stroke="#000000" stroke-width="6.276" fill="none" />
   </g>
</svg>
