<?xml version="1.0" standalone="no"?>
<!DOCTYPE svg PUBLIC "-//W3C//DTD SVG 1.1//EN"
   "http://www.w3.org/Graphics/SVG/1.1/DTD/svg11.dtd">
<svg width="60" height="58" version="1.1"
   xmlns="http://www.w3.org/2000/svg">
   <desc>Zint Generated Symbol
   </desc>

   <g id="barcode" fill="#000000">
      <rect x="0" y="0" width="60" height="58" fill="#FFFFFF" />
      <path d="M 1.00 2.15 L 1.87 1.65 L 1.87 0.65 L 1.00 0.15 L 0.13 0.65 L 0.13 1.65 Z" />
      <path d="M 3.00 2.15 L 3.87 1.65 L 3.87 0.65 L 3.00 0.15 L 2.13 0.65 L 2.13 1.65 Z" />
      <path d="M 7.00 2.15 L 7.87 1.65 L 7.87 0.65 L 7.00 0.15 L 6.13 0.65 L 6.13 1.65 Z" />
      <path d="M 11.00 2.15 L 11.87 1.65 L 11.87 0.65 L 11.00 0.15 L 10.13 0.65 L 10.13 1.65 Z" />
      <path d="M 13.00 2.15 L 13.87 1.65 L 13.87 0.65 L 13.00 0.15 L 12.13 0.65 L 12.13 1.65 Z" />
      <path d="M 15.00 2.15 L 15.87 1.65 L 15.87 0.65 L 15.00 0.15 L 14.13 0.65 L 14.13 1.65 Z" />
      <path d="M 19.00 2.15 L 19.87 1.65 L 19.87 0.65 L 19.00 0.15 L 18.13 0.65 L 18.13 1.65 Z" />
      <path d="M 21.00 2.15 L 21.87 1.65 L 21.87 0.65 L 21.00 0.15 L 20.13 0.65 L 20.13 1.65 Z" />
      <path d="M 25.00 2.15 L 25.87 1.65 L 25.87 0.65 L 25.00 0.15 L 24.13 0.65 L 24.13 1.65 Z" />
      <path d="M 27.00 2.15 L 27.87 1.65 L 27.87 0.65 L 27.00 0.15 L 26.13 0.65 L 26.13 1.65 Z" />
      <path d="M 29.00 2.15 L 29.87 1.65 L 29.87 0.65 L 29.00 0.15 L 28.13 0.65 L 28.13 1.65 Z" />
      <path d="M 31.00 2.15 L 31.87 1.65 L 31.87 0.65 L 31.00 0.15 L 30.13 0.65 L 30.13 1.65 Z" />
      <path d="M 33.00 2.15 L 33.87 1.65 L 33.87 0.65 L 33.00 0.15 L 32.13 0.65 L 32.13 1.65 Z" />
      <path d="M 37.00 2.15 L 37.87 1.65 L 37.87 0.65 L 37.00 0.15 L 36.13 0.65 L 36.13 1.65 Z" />
      <path d="M 39.00 2.15 L 39.87 1.65 L 39.87 0.65 L 39.00 0.15 L 38.13 0.65 L 38.13 1.65 Z" />
      <path d="M 41.00 2.15 L 41.87 1.65 L 41.87 0.65 L 41.00 0.15 L 40.13 0.65 L 40.13 1.65 Z" />
      <path d="M 43.00 2.15 L 43.87 1.65 L 43.87 0.65 L 43.00 0.15 L 42.13 0.65 L 42.13 1.65 Z" />
      <path d="M 45.00 2.15 L 45.87 1.65 L 45.87 0.65 L 45.00 0.15 L 44.13 0.65 L 44.13 1.65 Z" />
      <path d="M 47.00 2.15 L 47.87 1.65 L 47.87 0.65 L 47.00 0.15 L 46.13 0.65 L 46.13 1.65 Z" />
      <path d="M 49.00 2.15 L 49.87 1.65 L 49.87 0.65 L 49.00 0.15 L 48.13 0.65 L 48.13 1.65 Z" />
      <path d="M 53.00 2.15 L 53.87 1.65 L 53.87 0.65 L 53.00 0.15 L 52.13 0.65 L 52.13 1.65 Z" />
      <path d="M 55.00 2.15 L 55.87 1.65 L 55.87 0.65 L 55.00 0.15 L 54.13 0.65 L 54.13 1.65 Z" />
      <path d="M 57.00 2.15 L 57.87 1.65 L 57.87 0.65 L 57.00 0.15 L 56.13 0.65 L 56.13 1.65 Z" />
      <path d="M 59.00 2.15 L 59.87 1.65 L 59.87 0.65 L 59.00 0.15 L 58.13 0.65 L 58.13 1.65 Z" />
      <path d="M 4.00 3.89 L 4.87 3.39 L 4.87 2.39 L 4.00 1.89 L 3.13 2.39 L 3.13 3.39 Z" />
      <path d="M 8.00 3.89 L 8.87 3.39 L 8.87 2.39 L 8.00 1.89 L 7.13 2.39 L 7.13 3.39 Z" />
      <path d="M 12.00 3.89 L 12.87 3.39 L 12.87 2.39 L 12.00 1.89 L 11.13 2.39 L 11.13 3.39 Z" />
      <path d="M 16.00 3.89 L 16.87 3.39 L 16.87 2.39 L 16.00 1.89 L 15.13 2.39 L 15.13 3.39 Z" />
      <path d="M 20.00 3.89 L 20.87 3.39 L 20.87 2.39 L 20.00 1.89 L 19.13 2.39 L 19.13 3.39 Z" />
      <path d="M 22.00 3.89 L 22.87 3.39 L 22.87 2.39 L 22.00 1.89 L 21.13 2.39 L 21.13 3.39 Z" />
      <path d="M 24.00 3.89 L 24.87 3.39 L 24.87 2.39 L 24.00 1.89 L 23.13 2.39 L 23.13 3.39 Z" />
      <path d="M 34.00 3.89 L 34.87 3.39 L 34.87 2.39 L 34.00 1.89 L 33.13 2.39 L 33.13 3.39 Z" />
      <path d="M 36.00 3.89 L 36.87 3.39 L 36.87 2.39 L 36.00 1.89 L 35.13 2.39 L 35.13 3.39 Z" />
      <path d="M 40.00 3.89 L 40.87 3.39 L 40.87 2.39 L 40.00 1.89 L 39.13 2.39 L 39.13 3.39 Z" />
      <path d="M 42.00 3.89 L 42.87 3.39 L 42.87 2.39 L 42.00 1.89 L 41.13 2.39 L 41.13 3.39 Z" />
      <path d="M 52.00 3.89 L 52.87 3.39 L 52.87 2.39 L 52.00 1.89 L 51.13 2.39 L 51.13 3.39 Z" />
      <path d="M 1.00 5.62 L 1.87 5.12 L 1.87 4.12 L 1.00 3.62 L 0.13 4.12 L 0.13 5.12 Z" />
      <path d="M 3.00 5.62 L 3.87 5.12 L 3.87 4.12 L 3.00 3.62 L 2.13 4.12 L 2.13 5.12 Z" />
      <path d="M 7.00 5.62 L 7.87 5.12 L 7.87 4.12 L 7.00 3.62 L 6.13 4.12 L 6.13 5.12 Z" />
      <path d="M 9.00 5.62 L 9.87 5.12 L 9.87 4.12 L 9.00 3.62 L 8.13 4.12 L 8.13 5.12 Z" />
      <path d="M 13.00 5.62 L 13.87 5.12 L 13.87 4.12 L 13.00 3.62 L 12.13 4.12 L 12.13 5.12 Z" />
      <path d="M 15.00 5.62 L 15.87 5.12 L 15.87 4.12 L 15.00 3.62 L 14.13 4.12 L 14.13 5.12 Z" />
      <path d="M 23.00 5.62 L 23.87 5.12 L 23.87 4.12 L 23.00 3.62 L 22.13 4.12 L 22.13 5.12 Z" />
      <path d="M 29.00 5.62 L 29.87 5.12 L 29.87 4.12 L 29.00 3.62 L 28.13 4.12 L 28.13 5.12 Z" />
      <path d="M 33.00 5.62 L 33.87 5.12 L 33.87 4.12 L 33.00 3.62 L 32.13 4.12 L 32.13 5.12 Z" />
      <path d="M 37.00 5.62 L 37.87 5.12 L 37.87 4.12 L 37.00 3.62 L 36.13 4.12 L 36.13 5.12 Z" />
      <path d="M 43.00 5.62 L 43.87 5.12 L 43.87 4.12 L 43.00 3.62 L 42.13 4.12 L 42.13 5.12 Z" />
      <path d="M 45.00 5.62 L 45.87 5.12 L 45.87 4.12 L 45.00 3.62 L 44.13 4.12 L 44.13 5.12 Z" />
      <path d="M 51.00 5.62 L 51.87 5.12 L 51.87 4.12 L 51.00 3.62 L 50.13 4.12 L 50.13 5.12 Z" />
      <path d="M 57.00 5.62 L 57.87 5.12 L 57.87 4.12 L 57.00 3.62 L 56.13 4.12 L 56.13 5.12 Z" />
      <path d="M 2.00 7.35 L 2.87 6.85 L 2.87 5.85 L 2.00 5.35 L 1.13 5.85 L 1.13 6.85 Z" />
      <path d="M 4.00 7.35 L 4.87 6.85 L 4.87 5.85 L 4.00 5.35 L 3.13 5.85 L 3.13 6.85 Z" />
      <path d="M 6.00 7.35 L 6.87 6.85 L 6.87 5.85 L 6.00 5.35 L 5.13 5.85 L 5.13 6.85 Z" />
      <path d="M 14.00 7.35 L 14.87 6.85 L 14.87 5.85 L 14.00 5.35 L 13.13 5.85 L 13.13 6.85 Z" />
      <path d="M 18.00 7.35 L 18.87 6.85 L 18.87 5.85 L 18.00 5.35 L 17.13 5.85 L 17.13 6.85 Z" />
      <path d="M 22.00 7.35 L 22.87 6.85 L 22.87 5.85 L 22.00 5.35 L 21.13 5.85 L 21.13 6.85 Z" />
      <path d="M 26.00 7.35 L 26.87 6.85 L 26.87 5.85 L 26.00 5.35 L 25.13 5.85 L 25.13 6.85 Z" />
      <path d="M 30.00 7.35 L 30.87 6.85 L 30.87 5.85 L 30.00 5.35 L 29.13 5.85 L 29.13 6.85 Z" />
      <path d="M 32.00 7.35 L 32.87 6.85 L 32.87 5.85 L 32.00 5.35 L 31.13 5.85 L 31.13 6.85 Z" />
      <path d="M 34.00 7.35 L 34.87 6.85 L 34.87 5.85 L 34.00 5.35 L 33.13 5.85 L 33.13 6.85 Z" />
      <path d="M 36.00 7.35 L 36.87 6.85 L 36.87 5.85 L 36.00 5.35 L 35.13 5.85 L 35.13 6.85 Z" />
      <path d="M 38.00 7.35 L 38.87 6.85 L 38.87 5.85 L 38.00 5.35 L 37.13 5.85 L 37.13 6.85 Z" />
      <path d="M 40.00 7.35 L 40.87 6.85 L 40.87 5.85 L 40.00 5.35 L 39.13 5.85 L 39.13 6.85 Z" />
      <path d="M 42.00 7.35 L 42.87 6.85 L 42.87 5.85 L 42.00 5.35 L 41.13 5.85 L 41.13 6.85 Z" />
      <path d="M 44.00 7.35 L 44.87 6.85 L 44.87 5.85 L 44.00 5.35 L 43.13 5.85 L 43.13 6.85 Z" />
      <path d="M 46.00 7.35 L 46.87 6.85 L 46.87 5.85 L 46.00 5.35 L 45.13 5.85 L 45.13 6.85 Z" />
      <path d="M 48.00 7.35 L 48.87 6.85 L 48.87 5.85 L 48.00 5.35 L 47.13 5.85 L 47.13 6.85 Z" />
      <path d="M 50.00 7.35 L 50.87 6.85 L 50.87 5.85 L 50.00 5.35 L 49.13 5.85 L 49.13 6.85 Z" />
      <path d="M 52.00 7.35 L 52.87 6.85 L 52.87 5.85 L 52.00 5.35 L 51.13 5.85 L 51.13 6.85 Z" />
      <path d="M 54.00 7.35 L 54.87 6.85 L 54.87 5.85 L 54.00 5.35 L 53.13 5.85 L 53.13 6.85 Z" />
      <path d="M 56.00 7.35 L 56.87 6.85 L 56.87 5.85 L 56.00 5.35 L 55.13 5.85 L 55.13 6.85 Z" />
      <path d="M 5.00 9.08 L 5.87 8.58 L 5.87 7.58 L 5.00 7.08 L 4.13 7.58 L 4.13 8.58 Z" />
      <path d="M 7.00 9.08 L 7.87 8.58 L 7.87 7.58 L 7.00 7.08 L 6.13 7.58 L 6.13 8.58 Z" />
      <path d="M 9.00 9.08 L 9.87 8.58 L 9.87 7.58 L 9.00 7.08 L 8.13 7.58 L 8.13 8.58 Z" />
      <path d="M 11.00 9.08 L 11.87 8.58 L 11.87 7.58 L 11.00 7.08 L 10.13 7.58 L 10.13 8.58 Z" />
      <path d="M 21.00 9.08 L 21.87 8.58 L 21.87 7.58 L 21.00 7.08 L 20.13 7.58 L 20.13 8.58 Z" />
      <path d="M 25.00 9.08 L 25.87 8.58 L 25.87 7.58 L 25.00 7.08 L 24.13 7.58 L 24.13 8.58 Z" />
      <path d="M 27.00 9.08 L 27.87 8.58 L 27.87 7.58 L 27.00 7.08 L 26.13 7.58 L 26.13 8.58 Z" />
      <path d="M 33.00 9.08 L 33.87 8.58 L 33.87 7.58 L 33.00 7.08 L 32.13 7.58 L 32.13 8.58 Z" />
      <path d="M 39.00 9.08 L 39.87 8.58 L 39.87 7.58 L 39.00 7.08 L 38.13 7.58 L 38.13 8.58 Z" />
      <path d="M 41.00 9.08 L 41.87 8.58 L 41.87 7.58 L 41.00 7.08 L 40.13 7.58 L 40.13 8.58 Z" />
      <path d="M 6.00 10.81 L 6.87 10.31 L 6.87 9.31 L 6.00 8.81 L 5.13 9.31 L 5.13 10.31 Z" />
      <path d="M 12.00 10.81 L 12.87 10.31 L 12.87 9.31 L 12.00 8.81 L 11.13 9.31 L 11.13 10.31 Z" />
      <path d="M 14.00 10.81 L 14.87 10.31 L 14.87 9.31 L 14.00 8.81 L 13.13 9.31 L 13.13 10.31 Z" />
      <path d="M 16.00 10.81 L 16.87 10.31 L 16.87 9.31 L 16.00 8.81 L 15.13 9.31 L 15.13 10.31 Z" />
      <path d="M 22.00 10.81 L 22.87 10.31 L 22.87 9.31 L 22.00 8.81 L 21.13 9.31 L 21.13 10.31 Z" />
      <path d="M 26.00 10.81 L 26.87 10.31 L 26.87 9.31 L 26.00 8.81 L 25.13 9.31 L 25.13 10.31 Z" />
      <path d="M 30.00 10.81 L 30.87 10.31 L 30.87 9.31 L 30.00 8.81 L 29.13 9.31 L 29.13 10.31 Z" />
      <path d="M 34.00 10.81 L 34.87 10.31 L 34.87 9.31 L 34.00 8.81 L 33.13 9.31 L 33.13 10.31 Z" />
      <path d="M 38.00 10.81 L 38.87 10.31 L 38.87 9.31 L 38.00 8.81 L 37.13 9.31 L 37.13 10.31 Z" />
      <path d="M 1.00 12.55 L 1.87 12.05 L 1.87 11.05 L 1.00 10.55 L 0.13 11.05 L 0.13 12.05 Z" />
      <path d="M 3.00 12.55 L 3.87 12.05 L 3.87 11.05 L 3.00 10.55 L 2.13 11.05 L 2.13 12.05 Z" />
      <path d="M 5.00 12.55 L 5.87 12.05 L 5.87 11.05 L 5.00 10.55 L 4.13 11.05 L 4.13 12.05 Z" />
      <path d="M 9.00 12.55 L 9.87 12.05 L 9.87 11.05 L 9.00 10.55 L 8.13 11.05 L 8.13 12.05 Z" />
      <path d="M 11.00 12.55 L 11.87 12.05 L 11.87 11.05 L 11.00 10.55 L 10.13 11.05 L 10.13 12.05 Z" />
      <path d="M 13.00 12.55 L 13.87 12.05 L 13.87 11.05 L 13.00 10.55 L 12.13 11.05 L 12.13 12.05 Z" />
      <path d="M 15.00 12.55 L 15.87 12.05 L 15.87 11.05 L 15.00 10.55 L 14.13 11.05 L 14.13 12.05 Z" />
      <path d="M 17.00 12.55 L 17.87 12.05 L 17.87 11.05 L 17.00 10.55 L 16.13 11.05 L 16.13 12.05 Z" />
      <path d="M 19.00 12.55 L 19.87 12.05 L 19.87 11.05 L 19.00 10.55 L 18.13 11.05 L 18.13 12.05 Z" />
      <path d="M 21.00 12.55 L 21.87 12.05 L 21.87 11.05 L 21.00 10.55 L 20.13 11.05 L 20.13 12.05 Z" />
      <path d="M 25.00 12.55 L 25.87 12.05 L 25.87 11.05 L 25.00 10.55 L 24.13 11.05 L 24.13 12.05 Z" />
      <path d="M 27.00 12.55 L 27.87 12.05 L 27.87 11.05 L 27.00 10.55 L 26.13 11.05 L 26.13 12.05 Z" />
      <path d="M 29.00 12.55 L 29.87 12.05 L 29.87 11.05 L 29.00 10.55 L 28.13 11.05 L 28.13 12.05 Z" />
      <path d="M 31.00 12.55 L 31.87 12.05 L 31.87 11.05 L 31.00 10.55 L 30.13 11.05 L 30.13 12.05 Z" />
      <path d="M 33.00 12.55 L 33.87 12.05 L 33.87 11.05 L 33.00 10.55 L 32.13 11.05 L 32.13 12.05 Z" />
      <path d="M 35.00 12.55 L 35.87 12.05 L 35.87 11.05 L 35.00 10.55 L 34.13 11.05 L 34.13 12.05 Z" />
      <path d="M 37.00 12.55 L 37.87 12.05 L 37.87 11.05 L 37.00 10.55 L 36.13 11.05 L 36.13 12.05 Z" />
      <path d="M 41.00 12.55 L 41.87 12.05 L 41.87 11.05 L 41.00 10.55 L 40.13 11.05 L 40.13 12.05 Z" />
      <path d="M 43.00 12.55 L 43.87 12.05 L 43.87 11.05 L 43.00 10.55 L 42.13 11.05 L 42.13 12.05 Z" />
      <path d="M 45.00 12.55 L 45.87 12.05 L 45.87 11.05 L 45.00 10.55 L 44.13 11.05 L 44.13 12.05 Z" />
      <path d="M 47.00 12.55 L 47.87 12.05 L 47.87 11.05 L 47.00 10.55 L 46.13 11.05 L 46.13 12.05 Z" />
      <path d="M 49.00 12.55 L 49.87 12.05 L 49.87 11.05 L 49.00 10.55 L 48.13 11.05 L 48.13 12.05 Z" />
      <path d="M 51.00 12.55 L 51.87 12.05 L 51.87 11.05 L 51.00 10.55 L 50.13 11.05 L 50.13 12.05 Z" />
      <path d="M 53.00 12.55 L 53.87 12.05 L 53.87 11.05 L 53.00 10.55 L 52.13 11.05 L 52.13 12.05 Z" />
      <path d="M 55.00 12.55 L 55.87 12.05 L 55.87 11.05 L 55.00 10.55 L 54.13 11.05 L 54.13 12.05 Z" />
      <path d="M 2.00 14.28 L 2.87 13.78 L 2.87 12.78 L 2.00 12.28 L 1.13 12.78 L 1.13 13.78 Z" />
      <path d="M 8.00 14.28 L 8.87 13.78 L 8.87 12.78 L 8.00 12.28 L 7.13 12.78 L 7.13 13.78 Z" />
      <path d="M 10.00 14.28 L 10.87 13.78 L 10.87 12.78 L 10.00 12.28 L 9.13 12.78 L 9.13 13.78 Z" />
      <path d="M 22.00 14.28 L 22.87 13.78 L 22.87 12.78 L 22.00 12.28 L 21.13 12.78 L 21.13 13.78 Z" />
      <path d="M 24.00 14.28 L 24.87 13.78 L 24.87 12.78 L 24.00 12.28 L 23.13 12.78 L 23.13 13.78 Z" />
      <path d="M 30.00 14.28 L 30.87 13.78 L 30.87 12.78 L 30.00 12.28 L 29.13 12.78 L 29.13 13.78 Z" />
      <path d="M 36.00 14.28 L 36.87 13.78 L 36.87 12.78 L 36.00 12.28 L 35.13 12.78 L 35.13 13.78 Z" />
      <path d="M 38.00 14.28 L 38.87 13.78 L 38.87 12.78 L 38.00 12.28 L 37.13 12.78 L 37.13 13.78 Z" />
      <path d="M 40.00 14.28 L 40.87 13.78 L 40.87 12.78 L 40.00 12.28 L 39.13 12.78 L 39.13 13.78 Z" />
      <path d="M 54.00 14.28 L 54.87 13.78 L 54.87 12.78 L 54.00 12.28 L 53.13 12.78 L 53.13 13.78 Z" />
      <path d="M 3.00 16.01 L 3.87 15.51 L 3.87 14.51 L 3.00 14.01 L 2.13 14.51 L 2.13 15.51 Z" />
      <path d="M 11.00 16.01 L 11.87 15.51 L 11.87 14.51 L 11.00 14.01 L 10.13 14.51 L 10.13 15.51 Z" />
      <path d="M 13.00 16.01 L 13.87 15.51 L 13.87 14.51 L 13.00 14.01 L 12.13 14.51 L 12.13 15.51 Z" />
      <path d="M 21.00 16.01 L 21.87 15.51 L 21.87 14.51 L 21.00 14.01 L 20.13 14.51 L 20.13 15.51 Z" />
      <path d="M 25.00 16.01 L 25.87 15.51 L 25.87 14.51 L 25.00 14.01 L 24.13 14.51 L 24.13 15.51 Z" />
      <path d="M 29.00 16.01 L 29.87 15.51 L 29.87 14.51 L 29.00 14.01 L 28.13 14.51 L 28.13 15.51 Z" />
      <path d="M 33.00 16.01 L 33.87 15.51 L 33.87 14.51 L 33.00 14.01 L 32.13 14.51 L 32.13 15.51 Z" />
      <path d="M 37.00 16.01 L 37.87 15.51 L 37.87 14.51 L 37.00 14.01 L 36.13 14.51 L 36.13 15.51 Z" />
      <path d="M 41.00 16.01 L 41.87 15.51 L 41.87 14.51 L 41.00 14.01 L 40.13 14.51 L 40.13 15.51 Z" />
      <path d="M 47.00 16.01 L 47.87 15.51 L 47.87 14.51 L 47.00 14.01 L 46.13 14.51 L 46.13 15.51 Z" />
      <path d="M 49.00 16.01 L 49.87 15.51 L 49.87 14.51 L 49.00 14.01 L 48.13 14.51 L 48.13 15.51 Z" />
      <path d="M 51.00 16.01 L 51.87 15.51 L 51.87 14.51 L 51.00 14.01 L 50.13 14.51 L 50.13 15.51 Z" />
      <path d="M 2.00 17.74 L 2.87 17.24 L 2.87 16.24 L 2.00 15.74 L 1.13 16.24 L 1.13 17.24 Z" />
      <path d="M 4.00 17.74 L 4.87 17.24 L 4.87 16.24 L 4.00 15.74 L 3.13 16.24 L 3.13 17.24 Z" />
      <path d="M 8.00 17.74 L 8.87 17.24 L 8.87 16.24 L 8.00 15.74 L 7.13 16.24 L 7.13 17.24 Z" />
      <path d="M 10.00 17.74 L 10.87 17.24 L 10.87 16.24 L 10.00 15.74 L 9.13 16.24 L 9.13 17.24 Z" />
      <path d="M 12.00 17.74 L 12.87 17.24 L 12.87 16.24 L 12.00 15.74 L 11.13 16.24 L 11.13 17.24 Z" />
      <path d="M 14.00 17.74 L 14.87 17.24 L 14.87 16.24 L 14.00 15.74 L 13.13 16.24 L 13.13 17.24 Z" />
      <path d="M 22.00 17.74 L 22.87 17.24 L 22.87 16.24 L 22.00 15.74 L 21.13 16.24 L 21.13 17.24 Z" />
      <path d="M 24.00 17.74 L 24.87 17.24 L 24.87 16.24 L 24.00 15.74 L 23.13 16.24 L 23.13 17.24 Z" />
      <path d="M 28.00 17.74 L 28.87 17.24 L 28.87 16.24 L 28.00 15.74 L 27.13 16.24 L 27.13 17.24 Z" />
      <path d="M 42.00 17.74 L 42.87 17.24 L 42.87 16.24 L 42.00 15.74 L 41.13 16.24 L 41.13 17.24 Z" />
      <path d="M 46.00 17.74 L 46.87 17.24 L 46.87 16.24 L 46.00 15.74 L 45.13 16.24 L 45.13 17.24 Z" />
      <path d="M 48.00 17.74 L 48.87 17.24 L 48.87 16.24 L 48.00 15.74 L 47.13 16.24 L 47.13 17.24 Z" />
      <path d="M 50.00 17.74 L 50.87 17.24 L 50.87 16.24 L 50.00 15.74 L 49.13 16.24 L 49.13 17.24 Z" />
      <path d="M 52.00 17.74 L 52.87 17.24 L 52.87 16.24 L 52.00 15.74 L 51.13 16.24 L 51.13 17.24 Z" />
      <path d="M 54.00 17.74 L 54.87 17.24 L 54.87 16.24 L 54.00 15.74 L 53.13 16.24 L 53.13 17.24 Z" />
      <path d="M 56.00 17.74 L 56.87 17.24 L 56.87 16.24 L 56.00 15.74 L 55.13 16.24 L 55.13 17.24 Z" />
      <path d="M 5.00 19.47 L 5.87 18.97 L 5.87 17.97 L 5.00 17.47 L 4.13 17.97 L 4.13 18.97 Z" />
      <path d="M 7.00 19.47 L 7.87 18.97 L 7.87 17.97 L 7.00 17.47 L 6.13 17.97 L 6.13 18.97 Z" />
      <path d="M 13.00 19.47 L 13.87 18.97 L 13.87 17.97 L 13.00 17.47 L 12.13 17.97 L 12.13 18.97 Z" />
      <path d="M 15.00 19.47 L 15.87 18.97 L 15.87 17.97 L 15.00 17.47 L 14.13 17.97 L 14.13 18.97 Z" />
      <path d="M 17.00 19.47 L 17.87 18.97 L 17.87 17.97 L 17.00 17.47 L 16.13 17.97 L 16.13 18.97 Z" />
      <path d="M 19.00 19.47 L 19.87 18.97 L 19.87 17.97 L 19.00 17.47 L 18.13 17.97 L 18.13 18.97 Z" />
      <path d="M 21.00 19.47 L 21.87 18.97 L 21.87 17.97 L 21.00 17.47 L 20.13 17.97 L 20.13 18.97 Z" />
      <path d="M 23.00 19.47 L 23.87 18.97 L 23.87 17.97 L 23.00 17.47 L 22.13 17.97 L 22.13 18.97 Z" />
      <path d="M 25.00 19.47 L 25.87 18.97 L 25.87 17.97 L 25.00 17.47 L 24.13 17.97 L 24.13 18.97 Z" />
      <path d="M 27.00 19.47 L 27.87 18.97 L 27.87 17.97 L 27.00 17.47 L 26.13 17.97 L 26.13 18.97 Z" />
      <path d="M 41.00 19.47 L 41.87 18.97 L 41.87 17.97 L 41.00 17.47 L 40.13 17.97 L 40.13 18.97 Z" />
      <path d="M 45.00 19.47 L 45.87 18.97 L 45.87 17.97 L 45.00 17.47 L 44.13 17.97 L 44.13 18.97 Z" />
      <path d="M 49.00 19.47 L 49.87 18.97 L 49.87 17.97 L 49.00 17.47 L 48.13 17.97 L 48.13 18.97 Z" />
      <path d="M 53.00 19.47 L 53.87 18.97 L 53.87 17.97 L 53.00 17.47 L 52.13 17.97 L 52.13 18.97 Z" />
      <path d="M 57.00 19.47 L 57.87 18.97 L 57.87 17.97 L 57.00 17.47 L 56.13 17.97 L 56.13 18.97 Z" />
      <path d="M 2.00 21.21 L 2.87 20.71 L 2.87 19.71 L 2.00 19.21 L 1.13 19.71 L 1.13 20.71 Z" />
      <path d="M 6.00 21.21 L 6.87 20.71 L 6.87 19.71 L 6.00 19.21 L 5.13 19.71 L 5.13 20.71 Z" />
      <path d="M 8.00 21.21 L 8.87 20.71 L 8.87 19.71 L 8.00 19.21 L 7.13 19.71 L 7.13 20.71 Z" />
      <path d="M 10.00 21.21 L 10.87 20.71 L 10.87 19.71 L 10.00 19.21 L 9.13 19.71 L 9.13 20.71 Z" />
      <path d="M 14.00 21.21 L 14.87 20.71 L 14.87 19.71 L 14.00 19.21 L 13.13 19.71 L 13.13 20.71 Z" />
      <path d="M 20.00 21.21 L 20.87 20.71 L 20.87 19.71 L 20.00 19.21 L 19.13 19.71 L 19.13 20.71 Z" />
      <path d="M 36.00 21.21 L 36.87 20.71 L 36.87 19.71 L 36.00 19.21 L 35.13 19.71 L 35.13 20.71 Z" />
      <path d="M 46.00 21.21 L 46.87 20.71 L 46.87 19.71 L 46.00 19.21 L 45.13 19.71 L 45.13 20.71 Z" />
      <path d="M 48.00 21.21 L 48.87 20.71 L 48.87 19.71 L 48.00 19.21 L 47.13 19.71 L 47.13 20.71 Z" />
      <path d="M 52.00 21.21 L 52.87 20.71 L 52.87 19.71 L 52.00 19.21 L 51.13 19.71 L 51.13 20.71 Z" />
      <path d="M 54.00 21.21 L 54.87 20.71 L 54.87 19.71 L 54.00 19.21 L 53.13 19.71 L 53.13 20.71 Z" />
      <path d="M 58.00 21.21 L 58.87 20.71 L 58.87 19.71 L 58.00 19.21 L 57.13 19.71 L 57.13 20.71 Z" />
      <path d="M 1.00 22.94 L 1.87 22.44 L 1.87 21.44 L 1.00 20.94 L 0.13 21.44 L 0.13 22.44 Z" />
      <path d="M 5.00 22.94 L 5.87 22.44 L 5.87 21.44 L 5.00 20.94 L 4.13 21.44 L 4.13 22.44 Z" />
      <path d="M 9.00 22.94 L 9.87 22.44 L 9.87 21.44 L 9.00 20.94 L 8.13 21.44 L 8.13 22.44 Z" />
      <path d="M 13.00 22.94 L 13.87 22.44 L 13.87 21.44 L 13.00 20.94 L 12.13 21.44 L 12.13 22.44 Z" />
      <path d="M 39.00 22.94 L 39.87 22.44 L 39.87 21.44 L 39.00 20.94 L 38.13 21.44 L 38.13 22.44 Z" />
      <path d="M 43.00 22.94 L 43.87 22.44 L 43.87 21.44 L 43.00 20.94 L 42.13 21.44 L 42.13 22.44 Z" />
      <path d="M 45.00 22.94 L 45.87 22.44 L 45.87 21.44 L 45.00 20.94 L 44.13 21.44 L 44.13 22.44 Z" />
      <path d="M 49.00 22.94 L 49.87 22.44 L 49.87 21.44 L 49.00 20.94 L 48.13 21.44 L 48.13 22.44 Z" />
      <path d="M 51.00 22.94 L 51.87 22.44 L 51.87 21.44 L 51.00 20.94 L 50.13 21.44 L 50.13 22.44 Z" />
      <path d="M 55.00 22.94 L 55.87 22.44 L 55.87 21.44 L 55.00 20.94 L 54.13 21.44 L 54.13 22.44 Z" />
      <path d="M 59.00 22.94 L 59.87 22.44 L 59.87 21.44 L 59.00 20.94 L 58.13 21.44 L 58.13 22.44 Z" />
      <path d="M 2.00 24.67 L 2.87 24.17 L 2.87 23.17 L 2.00 22.67 L 1.13 23.17 L 1.13 24.17 Z" />
      <path d="M 4.00 24.67 L 4.87 24.17 L 4.87 23.17 L 4.00 22.67 L 3.13 23.17 L 3.13 24.17 Z" />
      <path d="M 6.00 24.67 L 6.87 24.17 L 6.87 23.17 L 6.00 22.67 L 5.13 23.17 L 5.13 24.17 Z" />
      <path d="M 8.00 24.67 L 8.87 24.17 L 8.87 23.17 L 8.00 22.67 L 7.13 23.17 L 7.13 24.17 Z" />
      <path d="M 12.00 24.67 L 12.87 24.17 L 12.87 23.17 L 12.00 22.67 L 11.13 23.17 L 11.13 24.17 Z" />
      <path d="M 16.00 24.67 L 16.87 24.17 L 16.87 23.17 L 16.00 22.67 L 15.13 23.17 L 15.13 24.17 Z" />
      <path d="M 40.00 24.67 L 40.87 24.17 L 40.87 23.17 L 40.00 22.67 L 39.13 23.17 L 39.13 24.17 Z" />
      <path d="M 42.00 24.67 L 42.87 24.17 L 42.87 23.17 L 42.00 22.67 L 41.13 23.17 L 41.13 24.17 Z" />
      <path d="M 44.00 24.67 L 44.87 24.17 L 44.87 23.17 L 44.00 22.67 L 43.13 23.17 L 43.13 24.17 Z" />
      <path d="M 46.00 24.67 L 46.87 24.17 L 46.87 23.17 L 46.00 22.67 L 45.13 23.17 L 45.13 24.17 Z" />
      <path d="M 48.00 24.67 L 48.87 24.17 L 48.87 23.17 L 48.00 22.67 L 47.13 23.17 L 47.13 24.17 Z" />
      <path d="M 1.00 26.40 L 1.87 25.90 L 1.87 24.90 L 1.00 24.40 L 0.13 24.90 L 0.13 25.90 Z" />
      <path d="M 5.00 26.40 L 5.87 25.90 L 5.87 24.90 L 5.00 24.40 L 4.13 24.90 L 4.13 25.90 Z" />
      <path d="M 9.00 26.40 L 9.87 25.90 L 9.87 24.90 L 9.00 24.40 L 8.13 24.90 L 8.13 25.90 Z" />
      <path d="M 13.00 26.40 L 13.87 25.90 L 13.87 24.90 L 13.00 24.40 L 12.13 24.90 L 12.13 25.90 Z" />
      <path d="M 41.00 26.40 L 41.87 25.90 L 41.87 24.90 L 41.00 24.40 L 40.13 24.90 L 40.13 25.90 Z" />
      <path d="M 43.00 26.40 L 43.87 25.90 L 43.87 24.90 L 43.00 24.40 L 42.13 24.90 L 42.13 25.90 Z" />
      <path d="M 45.00 26.40 L 45.87 25.90 L 45.87 24.90 L 45.00 24.40 L 44.13 24.90 L 44.13 25.90 Z" />
      <path d="M 49.00 26.40 L 49.87 25.90 L 49.87 24.90 L 49.00 24.40 L 48.13 24.90 L 48.13 25.90 Z" />
      <path d="M 57.00 26.40 L 57.87 25.90 L 57.87 24.90 L 57.00 24.40 L 56.13 24.90 L 56.13 25.90 Z" />
      <path d="M 2.00 28.13 L 2.87 27.63 L 2.87 26.63 L 2.00 26.13 L 1.13 26.63 L 1.13 27.63 Z" />
      <path d="M 8.00 28.13 L 8.87 27.63 L 8.87 26.63 L 8.00 26.13 L 7.13 26.63 L 7.13 27.63 Z" />
      <path d="M 16.00 28.13 L 16.87 27.63 L 16.87 26.63 L 16.00 26.13 L 15.13 26.63 L 15.13 27.63 Z" />
      <path d="M 40.00 28.13 L 40.87 27.63 L 40.87 26.63 L 40.00 26.13 L 39.13 26.63 L 39.13 27.63 Z" />
      <path d="M 9.00 29.87 L 9.87 29.37 L 9.87 28.37 L 9.00 27.87 L 8.13 28.37 L 8.13 29.37 Z" />
      <path d="M 11.00 29.87 L 11.87 29.37 L 11.87 28.37 L 11.00 27.87 L 10.13 28.37 L 10.13 29.37 Z" />
      <path d="M 17.00 29.87 L 17.87 29.37 L 17.87 28.37 L 17.00 27.87 L 16.13 28.37 L 16.13 29.37 Z" />
      <path d="M 41.00 29.87 L 41.87 29.37 L 41.87 28.37 L 41.00 27.87 L 40.13 28.37 L 40.13 29.37 Z" />
      <path d="M 47.00 29.87 L 47.87 29.37 L 47.87 28.37 L 47.00 27.87 L 46.13 28.37 L 46.13 29.37 Z" />
      <path d="M 53.00 29.87 L 53.87 29.37 L 53.87 28.37 L 53.00 27.87 L 52.13 28.37 L 52.13 29.37 Z" />
      <path d="M 55.00 29.87 L 55.87 29.37 L 55.87 28.37 L 55.00 27.87 L 54.13 28.37 L 54.13 29.37 Z" />
      <path d="M 57.00 29.87 L 57.87 29.37 L 57.87 28.37 L 57.00 27.87 L 56.13 28.37 L 56.13 29.37 Z" />
      <path d="M 2.00 31.60 L 2.87 31.10 L 2.87 30.10 L 2.00 29.60 L 1.13 30.10 L 1.13 31.10 Z" />
      <path d="M 4.00 31.60 L 4.87 31.10 L 4.87 30.10 L 4.00 29.60 L 3.13 30.10 L 3.13 31.10 Z" />
      <path d="M 12.00 31.60 L 12.87 31.10 L 12.87 30.10 L 12.00 29.60 L 11.13 30.10 L 11.13 31.10 Z" />
      <path d="M 18.00 31.60 L 18.87 31.10 L 18.87 30.10 L 18.00 29.60 L 17.13 30.10 L 17.13 31.10 Z" />
      <path d="M 42.00 31.60 L 42.87 31.10 L 42.87 30.10 L 42.00 29.60 L 41.13 30.10 L 41.13 31.10 Z" />
      <path d="M 46.00 31.60 L 46.87 31.10 L 46.87 30.10 L 46.00 29.60 L 45.13 30.10 L 45.13 31.10 Z" />
      <path d="M 50.00 31.60 L 50.87 31.10 L 50.87 30.10 L 50.00 29.60 L 49.13 30.10 L 49.13 31.10 Z" />
      <path d="M 54.00 31.60 L 54.87 31.10 L 54.87 30.10 L 54.00 29.60 L 53.13 30.10 L 53.13 31.10 Z" />
      <path d="M 1.00 33.33 L 1.87 32.83 L 1.87 31.83 L 1.00 31.33 L 0.13 31.83 L 0.13 32.83 Z" />
      <path d="M 5.00 33.33 L 5.87 32.83 L 5.87 31.83 L 5.00 31.33 L 4.13 31.83 L 4.13 32.83 Z" />
      <path d="M 15.00 33.33 L 15.87 32.83 L 15.87 31.83 L 15.00 31.33 L 14.13 31.83 L 14.13 32.83 Z" />
      <path d="M 41.00 33.33 L 41.87 32.83 L 41.87 31.83 L 41.00 31.33 L 40.13 31.83 L 40.13 32.83 Z" />
      <path d="M 43.00 33.33 L 43.87 32.83 L 43.87 31.83 L 43.00 31.33 L 42.13 31.83 L 42.13 32.83 Z" />
      <path d="M 45.00 33.33 L 45.87 32.83 L 45.87 31.83 L 45.00 31.33 L 44.13 31.83 L 44.13 32.83 Z" />
      <path d="M 49.00 33.33 L 49.87 32.83 L 49.87 31.83 L 49.00 31.33 L 48.13 31.83 L 48.13 32.83 Z" />
      <path d="M 57.00 33.33 L 57.87 32.83 L 57.87 31.83 L 57.00 31.33 L 56.13 31.83 L 56.13 32.83 Z" />
      <path d="M 59.00 33.33 L 59.87 32.83 L 59.87 31.83 L 59.00 31.33 L 58.13 31.83 L 58.13 32.83 Z" />
      <path d="M 2.00 35.06 L 2.87 34.56 L 2.87 33.56 L 2.00 33.06 L 1.13 33.56 L 1.13 34.56 Z" />
      <path d="M 6.00 35.06 L 6.87 34.56 L 6.87 33.56 L 6.00 33.06 L 5.13 33.56 L 5.13 34.56 Z" />
      <path d="M 8.00 35.06 L 8.87 34.56 L 8.87 33.56 L 8.00 33.06 L 7.13 33.56 L 7.13 34.56 Z" />
      <path d="M 10.00 35.06 L 10.87 34.56 L 10.87 33.56 L 10.00 33.06 L 9.13 33.56 L 9.13 34.56 Z" />
      <path d="M 12.00 35.06 L 12.87 34.56 L 12.87 33.56 L 12.00 33.06 L 11.13 33.56 L 11.13 34.56 Z" />
      <path d="M 18.00 35.06 L 18.87 34.56 L 18.87 33.56 L 18.00 33.06 L 17.13 33.56 L 17.13 34.56 Z" />
      <path d="M 20.00 35.06 L 20.87 34.56 L 20.87 33.56 L 20.00 33.06 L 19.13 33.56 L 19.13 34.56 Z" />
      <path d="M 48.00 35.06 L 48.87 34.56 L 48.87 33.56 L 48.00 33.06 L 47.13 33.56 L 47.13 34.56 Z" />
      <path d="M 50.00 35.06 L 50.87 34.56 L 50.87 33.56 L 50.00 33.06 L 49.13 33.56 L 49.13 34.56 Z" />
      <path d="M 52.00 35.06 L 52.87 34.56 L 52.87 33.56 L 52.00 33.06 L 51.13 33.56 L 51.13 34.56 Z" />
      <path d="M 54.00 35.06 L 54.87 34.56 L 54.87 33.56 L 54.00 33.06 L 53.13 33.56 L 53.13 34.56 Z" />
      <path d="M 56.00 35.06 L 56.87 34.56 L 56.87 33.56 L 56.00 33.06 L 55.13 33.56 L 55.13 34.56 Z" />
      <path d="M 5.00 36.79 L 5.87 36.29 L 5.87 35.29 L 5.00 34.79 L 4.13 35.29 L 4.13 36.29 Z" />
      <path d="M 11.00 36.79 L 11.87 36.29 L 11.87 35.29 L 11.00 34.79 L 10.13 35.29 L 10.13 36.29 Z" />
      <path d="M 13.00 36.79 L 13.87 36.29 L 13.87 35.29 L 13.00 34.79 L 12.13 35.29 L 12.13 36.29 Z" />
      <path d="M 21.00 36.79 L 21.87 36.29 L 21.87 35.29 L 21.00 34.79 L 20.13 35.29 L 20.13 36.29 Z" />
      <path d="M 39.00 36.79 L 39.87 36.29 L 39.87 35.29 L 39.00 34.79 L 38.13 35.29 L 38.13 36.29 Z" />
      <path d="M 41.00 36.79 L 41.87 36.29 L 41.87 35.29 L 41.00 34.79 L 40.13 35.29 L 40.13 36.29 Z" />
      <path d="M 43.00 36.79 L 43.87 36.29 L 43.87 35.29 L 43.00 34.79 L 42.13 35.29 L 42.13 36.29 Z" />
      <path d="M 45.00 36.79 L 45.87 36.29 L 45.87 35.29 L 45.00 34.79 L 44.13 35.29 L 44.13 36.29 Z" />
      <path d="M 49.00 36.79 L 49.87 36.29 L 49.87 35.29 L 49.00 34.79 L 48.13 35.29 L 48.13 36.29 Z" />
      <path d="M 55.00 36.79 L 55.87 36.29 L 55.87 35.29 L 55.00 34.79 L 54.13 35.29 L 54.13 36.29 Z" />
      <path d="M 57.00 36.79 L 57.87 36.29 L 57.87 35.29 L 57.00 34.79 L 56.13 35.29 L 56.13 36.29 Z" />
      <path d="M 59.00 36.79 L 59.87 36.29 L 59.87 35.29 L 59.00 34.79 L 58.13 35.29 L 58.13 36.29 Z" />
      <path d="M 4.00 38.53 L 4.87 38.03 L 4.87 37.03 L 4.00 36.53 L 3.13 37.03 L 3.13 38.03 Z" />
      <path d="M 8.00 38.53 L 8.87 38.03 L 8.87 37.03 L 8.00 36.53 L 7.13 37.03 L 7.13 38.03 Z" />
      <path d="M 12.00 38.53 L 12.87 38.03 L 12.87 37.03 L 12.00 36.53 L 11.13 37.03 L 11.13 38.03 Z" />
      <path d="M 20.00 38.53 L 20.87 38.03 L 20.87 37.03 L 20.00 36.53 L 19.13 37.03 L 19.13 38.03 Z" />
      <path d="M 38.00 38.53 L 38.87 38.03 L 38.87 37.03 L 38.00 36.53 L 37.13 37.03 L 37.13 38.03 Z" />
      <path d="M 46.00 38.53 L 46.87 38.03 L 46.87 37.03 L 46.00 36.53 L 45.13 37.03 L 45.13 38.03 Z" />
      <path d="M 48.00 38.53 L 48.87 38.03 L 48.87 37.03 L 48.00 36.53 L 47.13 37.03 L 47.13 38.03 Z" />
      <path d="M 50.00 38.53 L 50.87 38.03 L 50.87 37.03 L 50.00 36.53 L 49.13 37.03 L 49.13 38.03 Z" />
      <path d="M 54.00 38.53 L 54.87 38.03 L 54.87 37.03 L 54.00 36.53 L 53.13 37.03 L 53.13 38.03 Z" />
      <path d="M 13.00 40.26 L 13.87 39.76 L 13.87 38.76 L 13.00 38.26 L 12.13 38.76 L 12.13 39.76 Z" />
      <path d="M 17.00 40.26 L 17.87 39.76 L 17.87 38.76 L 17.00 38.26 L 16.13 38.76 L 16.13 39.76 Z" />
      <path d="M 21.00 40.26 L 21.87 39.76 L 21.87 38.76 L 21.00 38.26 L 20.13 38.76 L 20.13 39.76 Z" />
      <path d="M 25.00 40.26 L 25.87 39.76 L 25.87 38.76 L 25.00 38.26 L 24.13 38.76 L 24.13 39.76 Z" />
      <path d="M 31.00 40.26 L 31.87 39.76 L 31.87 38.76 L 31.00 38.26 L 30.13 38.76 L 30.13 39.76 Z" />
      <path d="M 35.00 40.26 L 35.87 39.76 L 35.87 38.76 L 35.00 38.26 L 34.13 38.76 L 34.13 39.76 Z" />
      <path d="M 39.00 40.26 L 39.87 39.76 L 39.87 38.76 L 39.00 38.26 L 38.13 38.76 L 38.13 39.76 Z" />
      <path d="M 45.00 40.26 L 45.87 39.76 L 45.87 38.76 L 45.00 38.26 L 44.13 38.76 L 44.13 39.76 Z" />
      <path d="M 47.00 40.26 L 47.87 39.76 L 47.87 38.76 L 47.00 38.26 L 46.13 38.76 L 46.13 39.76 Z" />
      <path d="M 49.00 40.26 L 49.87 39.76 L 49.87 38.76 L 49.00 38.26 L 48.13 38.76 L 48.13 39.76 Z" />
      <path d="M 51.00 40.26 L 51.87 39.76 L 51.87 38.76 L 51.00 38.26 L 50.13 38.76 L 50.13 39.76 Z" />
      <path d="M 55.00 40.26 L 55.87 39.76 L 55.87 38.76 L 55.00 38.26 L 54.13 38.76 L 54.13 39.76 Z" />
      <path d="M 59.00 40.26 L 59.87 39.76 L 59.87 38.76 L 59.00 38.26 L 58.13 38.76 L 58.13 39.76 Z" />
      <path d="M 2.00 41.99 L 2.87 41.49 L 2.87 40.49 L 2.00 39.99 L 1.13 40.49 L 1.13 41.49 Z" />
      <path d="M 6.00 41.99 L 6.87 41.49 L 6.87 40.49 L 6.00 39.99 L 5.13 40.49 L 5.13 41.49 Z" />
      <path d="M 10.00 41.99 L 10.87 41.49 L 10.87 40.49 L 10.00 39.99 L 9.13 40.49 L 9.13 41.49 Z" />
      <path d="M 20.00 41.99 L 20.87 41.49 L 20.87 40.49 L 20.00 39.99 L 19.13 40.49 L 19.13 41.49 Z" />
      <path d="M 22.00 41.99 L 22.87 41.49 L 22.87 40.49 L 22.00 39.99 L 21.13 40.49 L 21.13 41.49 Z" />
      <path d="M 26.00 41.99 L 26.87 41.49 L 26.87 40.49 L 26.00 39.99 L 25.13 40.49 L 25.13 41.49 Z" />
      <path d="M 30.00 41.99 L 30.87 41.49 L 30.87 40.49 L 30.00 39.99 L 29.13 40.49 L 29.13 41.49 Z" />
      <path d="M 36.00 41.99 L 36.87 41.49 L 36.87 40.49 L 36.00 39.99 L 35.13 40.49 L 35.13 41.49 Z" />
      <path d="M 38.00 41.99 L 38.87 41.49 L 38.87 40.49 L 38.00 39.99 L 37.13 40.49 L 37.13 41.49 Z" />
      <path d="M 40.00 41.99 L 40.87 41.49 L 40.87 40.49 L 40.00 39.99 L 39.13 40.49 L 39.13 41.49 Z" />
      <path d="M 44.00 41.99 L 44.87 41.49 L 44.87 40.49 L 44.00 39.99 L 43.13 40.49 L 43.13 41.49 Z" />
      <path d="M 48.00 41.99 L 48.87 41.49 L 48.87 40.49 L 48.00 39.99 L 47.13 40.49 L 47.13 41.49 Z" />
      <path d="M 52.00 41.99 L 52.87 41.49 L 52.87 40.49 L 52.00 39.99 L 51.13 40.49 L 51.13 41.49 Z" />
      <path d="M 54.00 41.99 L 54.87 41.49 L 54.87 40.49 L 54.00 39.99 L 53.13 40.49 L 53.13 41.49 Z" />
      <path d="M 58.00 41.99 L 58.87 41.49 L 58.87 40.49 L 58.00 39.99 L 57.13 40.49 L 57.13 41.49 Z" />
      <path d="M 3.00 43.72 L 3.87 43.22 L 3.87 42.22 L 3.00 41.72 L 2.13 42.22 L 2.13 43.22 Z" />
      <path d="M 7.00 43.72 L 7.87 43.22 L 7.87 42.22 L 7.00 41.72 L 6.13 42.22 L 6.13 43.22 Z" />
      <path d="M 11.00 43.72 L 11.87 43.22 L 11.87 42.22 L 11.00 41.72 L 10.13 42.22 L 10.13 43.22 Z" />
      <path d="M 15.00 43.72 L 15.87 43.22 L 15.87 42.22 L 15.00 41.72 L 14.13 42.22 L 14.13 43.22 Z" />
      <path d="M 19.00 43.72 L 19.87 43.22 L 19.87 42.22 L 19.00 41.72 L 18.13 42.22 L 18.13 43.22 Z" />
      <path d="M 23.00 43.72 L 23.87 43.22 L 23.87 42.22 L 23.00 41.72 L 22.13 42.22 L 22.13 43.22 Z" />
      <path d="M 27.00 43.72 L 27.87 43.22 L 27.87 42.22 L 27.00 41.72 L 26.13 42.22 L 26.13 43.22 Z" />
      <path d="M 31.00 43.72 L 31.87 43.22 L 31.87 42.22 L 31.00 41.72 L 30.13 42.22 L 30.13 43.22 Z" />
      <path d="M 35.00 43.72 L 35.87 43.22 L 35.87 42.22 L 35.00 41.72 L 34.13 42.22 L 34.13 43.22 Z" />
      <path d="M 39.00 43.72 L 39.87 43.22 L 39.87 42.22 L 39.00 41.72 L 38.13 42.22 L 38.13 43.22 Z" />
      <path d="M 43.00 43.72 L 43.87 43.22 L 43.87 42.22 L 43.00 41.72 L 42.13 42.22 L 42.13 43.22 Z" />
      <path d="M 45.00 43.72 L 45.87 43.22 L 45.87 42.22 L 45.00 41.72 L 44.13 42.22 L 44.13 43.22 Z" />
      <path d="M 47.00 43.72 L 47.87 43.22 L 47.87 42.22 L 47.00 41.72 L 46.13 42.22 L 46.13 43.22 Z" />
      <path d="M 49.00 43.72 L 49.87 43.22 L 49.87 42.22 L 49.00 41.72 L 48.13 42.22 L 48.13 43.22 Z" />
      <path d="M 51.00 43.72 L 51.87 43.22 L 51.87 42.22 L 51.00 41.72 L 50.13 42.22 L 50.13 43.22 Z" />
      <path d="M 57.00 43.72 L 57.87 43.22 L 57.87 42.22 L 57.00 41.72 L 56.13 42.22 L 56.13 43.22 Z" />
      <path d="M 46.00 45.45 L 46.87 44.95 L 46.87 43.95 L 46.00 43.45 L 45.13 43.95 L 45.13 44.95 Z" />
      <path d="M 48.00 45.45 L 48.87 44.95 L 48.87 43.95 L 48.00 43.45 L 47.13 43.95 L 47.13 44.95 Z" />
      <path d="M 50.00 45.45 L 50.87 44.95 L 50.87 43.95 L 50.00 43.45 L 49.13 43.95 L 49.13 44.95 Z" />
      <path d="M 52.00 45.45 L 52.87 44.95 L 52.87 43.95 L 52.00 43.45 L 51.13 43.95 L 51.13 44.95 Z" />
      <path d="M 58.00 45.45 L 58.87 44.95 L 58.87 43.95 L 58.00 43.45 L 57.13 43.95 L 57.13 44.95 Z" />
      <path d="M 1.00 47.19 L 1.87 46.69 L 1.87 45.69 L 1.00 45.19 L 0.13 45.69 L 0.13 46.69 Z" />
      <path d="M 5.00 47.19 L 5.87 46.69 L 5.87 45.69 L 5.00 45.19 L 4.13 45.69 L 4.13 46.69 Z" />
      <path d="M 9.00 47.19 L 9.87 46.69 L 9.87 45.69 L 9.00 45.19 L 8.13 45.69 L 8.13 46.69 Z" />
      <path d="M 13.00 47.19 L 13.87 46.69 L 13.87 45.69 L 13.00 45.19 L 12.13 45.69 L 12.13 46.69 Z" />
      <path d="M 17.00 47.19 L 17.87 46.69 L 17.87 45.69 L 17.00 45.19 L 16.13 45.69 L 16.13 46.69 Z" />
      <path d="M 21.00 47.19 L 21.87 46.69 L 21.87 45.69 L 21.00 45.19 L 20.13 45.69 L 20.13 46.69 Z" />
      <path d="M 25.00 47.19 L 25.87 46.69 L 25.87 45.69 L 25.00 45.19 L 24.13 45.69 L 24.13 46.69 Z" />
      <path d="M 29.00 47.19 L 29.87 46.69 L 29.87 45.69 L 29.00 45.19 L 28.13 45.69 L 28.13 46.69 Z" />
      <path d="M 33.00 47.19 L 33.87 46.69 L 33.87 45.69 L 33.00 45.19 L 32.13 45.69 L 32.13 46.69 Z" />
      <path d="M 37.00 47.19 L 37.87 46.69 L 37.87 45.69 L 37.00 45.19 L 36.13 45.69 L 36.13 46.69 Z" />
      <path d="M 41.00 47.19 L 41.87 46.69 L 41.87 45.69 L 41.00 45.19 L 40.13 45.69 L 40.13 46.69 Z" />
      <path d="M 45.00 47.19 L 45.87 46.69 L 45.87 45.69 L 45.00 45.19 L 44.13 45.69 L 44.13 46.69 Z" />
      <path d="M 55.00 47.19 L 55.87 46.69 L 55.87 45.69 L 55.00 45.19 L 54.13 45.69 L 54.13 46.69 Z" />
      <path d="M 57.00 47.19 L 57.87 46.69 L 57.87 45.69 L 57.00 45.19 L 56.13 45.69 L 56.13 46.69 Z" />
      <path d="M 59.00 47.19 L 59.87 46.69 L 59.87 45.69 L 59.00 45.19 L 58.13 45.69 L 58.13 46.69 Z" />
      <path d="M 4.00 48.92 L 4.87 48.42 L 4.87 47.42 L 4.00 46.92 L 3.13 47.42 L 3.13 48.42 Z" />
      <path d="M 8.00 48.92 L 8.87 48.42 L 8.87 47.42 L 8.00 46.92 L 7.13 47.42 L 7.13 48.42 Z" />
      <path d="M 10.00 48.92 L 10.87 48.42 L 10.87 47.42 L 10.00 46.92 L 9.13 47.42 L 9.13 48.42 Z" />
      <path d="M 16.00 48.92 L 16.87 48.42 L 16.87 47.42 L 16.00 46.92 L 15.13 47.42 L 15.13 48.42 Z" />
      <path d="M 18.00 48.92 L 18.87 48.42 L 18.87 47.42 L 18.00 46.92 L 17.13 47.42 L 17.13 48.42 Z" />
      <path d="M 24.00 48.92 L 24.87 48.42 L 24.87 47.42 L 24.00 46.92 L 23.13 47.42 L 23.13 48.42 Z" />
      <path d="M 28.00 48.92 L 28.87 48.42 L 28.87 47.42 L 28.00 46.92 L 27.13 47.42 L 27.13 48.42 Z" />
      <path d="M 40.00 48.92 L 40.87 48.42 L 40.87 47.42 L 40.00 46.92 L 39.13 47.42 L 39.13 48.42 Z" />
      <path d="M 42.00 48.92 L 42.87 48.42 L 42.87 47.42 L 42.00 46.92 L 41.13 47.42 L 41.13 48.42 Z" />
      <path d="M 46.00 48.92 L 46.87 48.42 L 46.87 47.42 L 46.00 46.92 L 45.13 47.42 L 45.13 48.42 Z" />
      <path d="M 50.00 48.92 L 50.87 48.42 L 50.87 47.42 L 50.00 46.92 L 49.13 47.42 L 49.13 48.42 Z" />
      <path d="M 54.00 48.92 L 54.87 48.42 L 54.87 47.42 L 54.00 46.92 L 53.13 47.42 L 53.13 48.42 Z" />
      <path d="M 58.00 48.92 L 58.87 48.42 L 58.87 47.42 L 58.00 46.92 L 57.13 47.42 L 57.13 48.42 Z" />
      <path d="M 1.00 50.65 L 1.87 50.15 L 1.87 49.15 L 1.00 48.65 L 0.13 49.15 L 0.13 50.15 Z" />
      <path d="M 5.00 50.65 L 5.87 50.15 L 5.87 49.15 L 5.00 48.65 L 4.13 49.15 L 4.13 50.15 Z" />
      <path d="M 7.00 50.65 L 7.87 50.15 L 7.87 49.15 L 7.00 48.65 L 6.13 49.15 L 6.13 50.15 Z" />
      <path d="M 11.00 50.65 L 11.87 50.15 L 11.87 49.15 L 11.00 48.65 L 10.13 49.15 L 10.13 50.15 Z" />
      <path d="M 13.00 50.65 L 13.87 50.15 L 13.87 49.15 L 13.00 48.65 L 12.13 49.15 L 12.13 50.15 Z" />
      <path d="M 15.00 50.65 L 15.87 50.15 L 15.87 49.15 L 15.00 48.65 L 14.13 49.15 L 14.13 50.15 Z" />
      <path d="M 21.00 50.65 L 21.87 50.15 L 21.87 49.15 L 21.00 48.65 L 20.13 49.15 L 20.13 50.15 Z" />
      <path d="M 29.00 50.65 L 29.87 50.15 L 29.87 49.15 L 29.00 48.65 L 28.13 49.15 L 28.13 50.15 Z" />
      <path d="M 33.00 50.65 L 33.87 50.15 L 33.87 49.15 L 33.00 48.65 L 32.13 49.15 L 32.13 50.15 Z" />
      <path d="M 39.00 50.65 L 39.87 50.15 L 39.87 49.15 L 39.00 48.65 L 38.13 49.15 L 38.13 50.15 Z" />
      <path d="M 41.00 50.65 L 41.87 50.15 L 41.87 49.15 L 41.00 48.65 L 40.13 49.15 L 40.13 50.15 Z" />
      <path d="M 43.00 50.65 L 43.87 50.15 L 43.87 49.15 L 43.00 48.65 L 42.13 49.15 L 42.13 50.15 Z" />
      <path d="M 55.00 50.65 L 55.87 50.15 L 55.87 49.15 L 55.00 48.65 L 54.13 49.15 L 54.13 50.15 Z" />
      <path d="M 57.00 50.65 L 57.87 50.15 L 57.87 49.15 L 57.00 48.65 L 56.13 49.15 L 56.13 50.15 Z" />
      <path d="M 59.00 50.65 L 59.87 50.15 L 59.87 49.15 L 59.00 48.65 L 58.13 49.15 L 58.13 50.15 Z" />
      <path d="M 2.00 52.38 L 2.87 51.88 L 2.87 50.88 L 2.00 50.38 L 1.13 50.88 L 1.13 51.88 Z" />
      <path d="M 6.00 52.38 L 6.87 51.88 L 6.87 50.88 L 6.00 50.38 L 5.13 50.88 L 5.13 51.88 Z" />
      <path d="M 10.00 52.38 L 10.87 51.88 L 10.87 50.88 L 10.00 50.38 L 9.13 50.88 L 9.13 51.88 Z" />
      <path d="M 16.00 52.38 L 16.87 51.88 L 16.87 50.88 L 16.00 50.38 L 15.13 50.88 L 15.13 51.88 Z" />
      <path d="M 18.00 52.38 L 18.87 51.88 L 18.87 50.88 L 18.00 50.38 L 17.13 50.88 L 17.13 51.88 Z" />
      <path d="M 20.00 52.38 L 20.87 51.88 L 20.87 50.88 L 20.00 50.38 L 19.13 50.88 L 19.13 51.88 Z" />
      <path d="M 22.00 52.38 L 22.87 51.88 L 22.87 50.88 L 22.00 50.38 L 21.13 50.88 L 21.13 51.88 Z" />
      <path d="M 26.00 52.38 L 26.87 51.88 L 26.87 50.88 L 26.00 50.38 L 25.13 50.88 L 25.13 51.88 Z" />
      <path d="M 28.00 52.38 L 28.87 51.88 L 28.87 50.88 L 28.00 50.38 L 27.13 50.88 L 27.13 51.88 Z" />
      <path d="M 30.00 52.38 L 30.87 51.88 L 30.87 50.88 L 30.00 50.38 L 29.13 50.88 L 29.13 51.88 Z" />
      <path d="M 34.00 52.38 L 34.87 51.88 L 34.87 50.88 L 34.00 50.38 L 33.13 50.88 L 33.13 51.88 Z" />
      <path d="M 36.00 52.38 L 36.87 51.88 L 36.87 50.88 L 36.00 50.38 L 35.13 50.88 L 35.13 51.88 Z" />
      <path d="M 42.00 52.38 L 42.87 51.88 L 42.87 50.88 L 42.00 50.38 L 41.13 50.88 L 41.13 51.88 Z" />
      <path d="M 44.00 52.38 L 44.87 51.88 L 44.87 50.88 L 44.00 50.38 L 43.13 50.88 L 43.13 51.88 Z" />
      <path d="M 48.00 52.38 L 48.87 51.88 L 48.87 50.88 L 48.00 50.38 L 47.13 50.88 L 47.13 51.88 Z" />
      <path d="M 56.00 52.38 L 56.87 51.88 L 56.87 50.88 L 56.00 50.38 L 55.13 50.88 L 55.13 51.88 Z" />
      <path d="M 58.00 52.38 L 58.87 51.88 L 58.87 50.88 L 58.00 50.38 L 57.13 50.88 L 57.13 51.88 Z" />
      <path d="M 3.00 54.11 L 3.87 53.61 L 3.87 52.61 L 3.00 52.11 L 2.13 52.61 L 2.13 53.61 Z" />
      <path d="M 5.00 54.11 L 5.87 53.61 L 5.87 52.61 L 5.00 52.11 L 4.13 52.61 L 4.13 53.61 Z" />
      <path d="M 7.00 54.11 L 7.87 53.61 L 7.87 52.61 L 7.00 52.11 L 6.13 52.61 L 6.13 53.61 Z" />
      <path d="M 13.00 54.11 L 13.87 53.61 L 13.87 52.61 L 13.00 52.11 L 12.13 52.61 L 12.13 53.61 Z" />
      <path d="M 15.00 54.11 L 15.87 53.61 L 15.87 52.61 L 15.00 52.11 L 14.13 52.61 L 14.13 53.61 Z" />
      <path d="M 17.00 54.11 L 17.87 53.61 L 17.87 52.61 L 17.00 52.11 L 16.13 52.61 L 16.13 53.61 Z" />
      <path d="M 19.00 54.11 L 19.87 53.61 L 19.87 52.61 L 19.00 52.11 L 18.13 52.61 L 18.13 53.61 Z" />
      <path d="M 21.00 54.11 L 21.87 53.61 L 21.87 52.61 L 21.00 52.11 L 20.13 52.61 L 20.13 53.61 Z" />
      <path d="M 23.00 54.11 L 23.87 53.61 L 23.87 52.61 L 23.00 52.11 L 22.13 52.61 L 22.13 53.61 Z" />
      <path d="M 25.00 54.11 L 25.87 53.61 L 25.87 52.61 L 25.00 52.11 L 24.13 52.61 L 24.13 53.61 Z" />
      <path d="M 27.00 54.11 L 27.87 53.61 L 27.87 52.61 L 27.00 52.11 L 26.13 52.61 L 26.13 53.61 Z" />
      <path d="M 33.00 54.11 L 33.87 53.61 L 33.87 52.61 L 33.00 52.11 L 32.13 52.61 L 32.13 53.61 Z" />
      <path d="M 35.00 54.11 L 35.87 53.61 L 35.87 52.61 L 35.00 52.11 L 34.13 52.61 L 34.13 53.61 Z" />
      <path d="M 43.00 54.11 L 43.87 53.61 L 43.87 52.61 L 43.00 52.11 L 42.13 52.61 L 42.13 53.61 Z" />
      <path d="M 45.00 54.11 L 45.87 53.61 L 45.87 52.61 L 45.00 52.11 L 44.13 52.61 L 44.13 53.61 Z" />
      <path d="M 47.00 54.11 L 47.87 53.61 L 47.87 52.61 L 47.00 52.11 L 46.13 52.61 L 46.13 53.61 Z" />
      <path d="M 49.00 54.11 L 49.87 53.61 L 49.87 52.61 L 49.00 52.11 L 48.13 52.61 L 48.13 53.61 Z" />
      <path d="M 51.00 54.11 L 51.87 53.61 L 51.87 52.61 L 51.00 52.11 L 50.13 52.61 L 50.13 53.61 Z" />
      <path d="M 59.00 54.11 L 59.87 53.61 L 59.87 52.61 L 59.00 52.11 L 58.13 52.61 L 58.13 53.61 Z" />
      <path d="M 2.00 55.85 L 2.87 55.35 L 2.87 54.35 L 2.00 53.85 L 1.13 54.35 L 1.13 55.35 Z" />
      <path d="M 14.00 55.85 L 14.87 55.35 L 14.87 54.35 L 14.00 53.85 L 13.13 54.35 L 13.13 55.35 Z" />
      <path d="M 16.00 55.85 L 16.87 55.35 L 16.87 54.35 L 16.00 53.85 L 15.13 54.35 L 15.13 55.35 Z" />
      <path d="M 18.00 55.85 L 18.87 55.35 L 18.87 54.35 L 18.00 53.85 L 17.13 54.35 L 17.13 55.35 Z" />
      <path d="M 22.00 55.85 L 22.87 55.35 L 22.87 54.35 L 22.00 53.85 L 21.13 54.35 L 21.13 55.35 Z" />
      <path d="M 28.00 55.85 L 28.87 55.35 L 28.87 54.35 L 28.00 53.85 L 27.13 54.35 L 27.13 55.35 Z" />
      <path d="M 30.00 55.85 L 30.87 55.35 L 30.87 54.35 L 30.00 53.85 L 29.13 54.35 L 29.13 55.35 Z" />
      <path d="M 32.00 55.85 L 32.87 55.35 L 32.87 54.35 L 32.00 53.85 L 31.13 54.35 L 31.13 55.35 Z" />
      <path d="M 36.00 55.85 L 36.87 55.35 L 36.87 54.35 L 36.00 53.85 L 35.13 54.35 L 35.13 55.35 Z" />
      <path d="M 38.00 55.85 L 38.87 55.35 L 38.87 54.35 L 38.00 53.85 L 37.13 54.35 L 37.13 55.35 Z" />
      <path d="M 44.00 55.85 L 44.87 55.35 L 44.87 54.35 L 44.00 53.85 L 43.13 54.35 L 43.13 55.35 Z" />
      <path d="M 46.00 55.85 L 46.87 55.35 L 46.87 54.35 L 46.00 53.85 L 45.13 54.35 L 45.13 55.35 Z" />
      <path d="M 48.00 55.85 L 48.87 55.35 L 48.87 54.35 L 48.00 53.85 L 47.13 54.35 L 47.13 55.35 Z" />
      <path d="M 54.00 55.85 L 54.87 55.35 L 54.87 54.35 L 54.00 53.85 L 53.13 54.35 L 53.13 55.35 Z" />
      <path d="M 56.00 55.85 L 56.87 55.35 L 56.87 54.35 L 56.00 53.85 L 55.13 54.35 L 55.13 55.35 Z" />
      <path d="M 1.00 57.58 L 1.87 57.08 L 1.87 56.08 L 1.00 55.58 L 0.13 56.08 L 0.13 57.08 Z" />
      <path d="M 9.00 57.58 L 9.87 57.08 L 9.87 56.08 L 9.00 55.58 L 8.13 56.08 L 8.13 57.08 Z" />
      <path d="M 11.00 57.58 L 11.87 57.08 L 11.87 56.08 L 11.00 55.58 L 10.13 56.08 L 10.13 57.08 Z" />
      <path d="M 17.00 57.58 L 17.87 57.08 L 17.87 56.08 L 17.00 55.58 L 16.13 56.08 L 16.13 57.08 Z" />
      <path d="M 23.00 57.58 L 23.87 57.08 L 23.87 56.08 L 23.00 55.58 L 22.13 56.08 L 22.13 57.08 Z" />
      <path d="M 29.00 57.58 L 29.87 57.08 L 29.87 56.08 L 29.00 55.58 L 28.13 56.08 L 28.13 57.08 Z" />
      <path d="M 31.00 57.58 L 31.87 57.08 L 31.87 56.08 L 31.00 55.58 L 30.13 56.08 L 30.13 57.08 Z" />
      <path d="M 33.00 57.58 L 33.87 57.08 L 33.87 56.08 L 33.00 55.58 L 32.13 56.08 L 32.13 57.08 Z" />
      <path d="M 35.00 57.58 L 35.87 57.08 L 35.87 56.08 L 35.00 55.58 L 34.13 56.08 L 34.13 57.08 Z" />
      <path d="M 37.00 57.58 L 37.87 57.08 L 37.87 56.08 L 37.00 55.58 L 36.13 56.08 L 36.13 57.08 Z" />
      <path d="M 39.00 57.58 L 39.87 57.08 L 39.87 56.08 L 39.00 55.58 L 38.13 56.08 L 38.13 57.08 Z" />
      <path d="M 41.00 57.58 L 41.87 57.08 L 41.87 56.08 L 41.00 55.58 L 40.13 56.08 L 40.13 57.08 Z" />
      <path d="M 45.00 57.58 L 45.87 57.08 L 45.87 56.08 L 45.00 55.58 L 44.13 56.08 L 44.13 57.08 Z" />
      <path d="M 47.00 57.58 L 47.87 57.08 L 47.87 56.08 L 47.00 55.58 L 46.13 56.08 L 46.13 57.08 Z" />
      <path d="M 49.00 57.58 L 49.87 57.08 L 49.87 56.08 L 49.00 55.58 L 48.13 56.08 L 48.13 57.08 Z" />
      <path d="M 51.00 57.58 L 51.87 57.08 L 51.87 56.08 L 51.00 55.58 L 50.13 56.08 L 50.13 57.08 Z" />
      <path d="M 53.00 57.58 L 53.87 57.08 L 53.87 56.08 L 53.00 55.58 L 52.13 56.08 L 52.13 57.08 Z" />
      <path d="M 55.00 57.58 L 55.87 57.08 L 55.87 56.08 L 55.00 55.58 L 54.13 56.08 L 54.13 57.08 Z" />
      <path d="M 57.00 57.58 L 57.87 57.08 L 57.87 56.08 L 57.00 55.58 L 56.13 56.08 L 56.13 57.08 Z" />
      <path d="M 59.00 57.58 L 59.87 57.08 L 59.87 56.08 L 59.00 55.58 L 58.13 56.08 L 58.13 57.08 Z" />
      <circle cx="29.00" cy="28.87" r="8.215" stroke="#000000" stroke-width="1.569" fill="none" />
      <circle cx="29.00" cy="28.87" r="5.077" stroke="#000000" stroke-width="1.569" fill="none" />
      <circle cx="29.00" cy="28.87" r="1.939" stroke="#000000" stroke-width="1.569" fill="none" />
   </g>
</svg>
