<?xml version="1.0" standalone="no"?>
<!DOCTYPE svg PUBLIC "-//W3C//DTD SVG 1.1//EN" "http://www.w3.org/Graphics/SVG/1.1/DTD/svg11.dtd">
<svg width="240" height="231" version="1.1" xmlns="http://www.w3.org/2000/svg">
 <desc>Zint Generated Symbol</desc>
 <g id="barcode" fill="#000000">
  <rect x="0" y="0" width="240" height="231" fill="#FFFFFF"/>
  <path d="M4 8.62L7.46 6.62L7.46 2.62L4 0.62L0.54 2.62L0.54 6.62ZM12 8.62L15.46 6.62L15.46 2.62L12 0.62L8.54 2.62L8.54 6.62ZM28 8.62L31.46 6.62L31.46 2.62L28 0.62L24.54 2.62L24.54 6.62ZM44 8.62L47.46 6.62L47.46 2.62L44 0.62L40.54 2.62L40.54 6.62ZM52 8.62L55.46 6.62L55.46 2.62L52 0.62L48.54 2.62L48.54 6.62ZM60 8.62L63.46 6.62L63.46 2.62L60 0.62L56.54 2.62L56.54 6.62ZM76 8.62L79.46 6.62L79.46 2.62L76 0.62L72.54 2.62L72.54 6.62ZM84 8.62L87.46 6.62L87.46 2.62L84 0.62L80.54 2.62L80.54 6.62ZM100 8.62L103.46 6.62L103.46 2.62L100 0.62L96.54 2.62L96.54 6.62ZM108 8.62L111.46 6.62L111.46 2.62L108 0.62L104.54 2.62L104.54 6.62ZM116 8.62L119.46 6.62L119.46 2.62L116 0.62L112.54 2.62L112.54 6.62ZM124 8.62L127.46 6.62L127.46 2.62L124 0.62L120.54 2.62L120.54 6.62ZM132 8.62L135.46 6.62L135.46 2.62L132 0.62L128.54 2.62L128.54 6.62ZM148 8.62L151.46 6.62L151.46 2.62L148 0.62L144.54 2.62L144.54 6.62ZM156 8.62L159.46 6.62L159.46 2.62L156 0.62L152.54 2.62L152.54 6.62ZM164 8.62L167.46 6.62L167.46 2.62L164 0.62L160.54 2.62L160.54 6.62ZM172 8.62L175.46 6.62L175.46 2.62L172 0.62L168.54 2.62L168.54 6.62ZM180 8.62L183.46 6.62L183.46 2.62L180 0.62L176.54 2.62L176.54 6.62ZM188 8.62L191.46 6.62L191.46 2.62L188 0.62L184.54 2.62L184.54 6.62ZM196 8.62L199.46 6.62L199.46 2.62L196 0.62L192.54 2.62L192.54 6.62ZM212 8.62L215.46 6.62L215.46 2.62L212 0.62L208.54 2.62L208.54 6.62ZM220 8.62L223.46 6.62L223.46 2.62L220 0.62L216.54 2.62L216.54 6.62ZM228 8.62L231.46 6.62L231.46 2.62L228 0.62L224.54 2.62L224.54 6.62ZM236 8.62L239.46 6.62L239.46 2.62L236 0.62L232.54 2.62L232.54 6.62ZM16 15.55L19.46 13.55L19.46 9.55L16 7.55L12.54 9.55L12.54 13.55ZM32 15.55L35.46 13.55L35.46 9.55L32 7.55L28.54 9.55L28.54 13.55ZM48 15.55L51.46 13.55L51.46 9.55L48 7.55L44.54 9.55L44.54 13.55ZM64 15.55L67.46 13.55L67.46 9.55L64 7.55L60.54 9.55L60.54 13.55ZM80 15.55L83.46 13.55L83.46 9.55L80 7.55L76.54 9.55L76.54 13.55ZM88 15.55L91.46 13.55L91.46 9.55L88 7.55L84.54 9.55L84.54 13.55ZM96 15.55L99.46 13.55L99.46 9.55L96 7.55L92.54 9.55L92.54 13.55ZM136 15.55L139.46 13.55L139.46 9.55L136 7.55L132.54 9.55L132.54 13.55ZM144 15.55L147.46 13.55L147.46 9.55L144 7.55L140.54 9.55L140.54 13.55ZM160 15.55L163.46 13.55L163.46 9.55L160 7.55L156.54 9.55L156.54 13.55ZM168 15.55L171.46 13.55L171.46 9.55L168 7.55L164.54 9.55L164.54 13.55ZM208 15.55L211.46 13.55L211.46 9.55L208 7.55L204.54 9.55L204.54 13.55ZM4 22.47L7.46 20.47L7.46 16.47L4 14.47L0.54 16.47L0.54 20.47ZM12 22.47L15.46 20.47L15.46 16.47L12 14.47L8.54 16.47L8.54 20.47ZM28 22.47L31.46 20.47L31.46 16.47L28 14.47L24.54 16.47L24.54 20.47ZM36 22.47L39.46 20.47L39.46 16.47L36 14.47L32.54 16.47L32.54 20.47ZM52 22.47L55.46 20.47L55.46 16.47L52 14.47L48.54 16.47L48.54 20.47ZM60 22.47L63.46 20.47L63.46 16.47L60 14.47L56.54 16.47L56.54 20.47ZM92 22.47L95.46 20.47L95.46 16.47L92 14.47L88.54 16.47L88.54 20.47ZM116 22.47L119.46 20.47L119.46 16.47L116 14.47L112.54 16.47L112.54 20.47ZM132 22.47L135.46 20.47L135.46 16.47L132 14.47L128.54 16.47L128.54 20.47ZM148 22.47L151.46 20.47L151.46 16.47L148 14.47L144.54 16.47L144.54 20.47ZM172 22.47L175.46 20.47L175.46 16.47L172 14.47L168.54 16.47L168.54 20.47ZM180 22.47L183.46 20.47L183.46 16.47L180 14.47L176.54 16.47L176.54 20.47ZM204 22.47L207.46 20.47L207.46 16.47L204 14.47L200.54 16.47L200.54 20.47ZM228 22.47L231.46 20.47L231.46 16.47L228 14.47L224.54 16.47L224.54 20.47ZM8 29.4L11.46 27.4L11.46 23.4L8 21.4L4.54 23.4L4.54 27.4ZM16 29.4L19.46 27.4L19.46 23.4L16 21.4L12.54 23.4L12.54 27.4ZM24 29.4L27.46 27.4L27.46 23.4L24 21.4L20.54 23.4L20.54 27.4ZM56 29.4L59.46 27.4L59.46 23.4L56 21.4L52.54 23.4L52.54 27.4ZM72 29.4L75.46 27.4L75.46 23.4L72 21.4L68.54 23.4L68.54 27.4ZM88 29.4L91.46 27.4L91.46 23.4L88 21.4L84.54 23.4L84.54 27.4ZM104 29.4L107.46 27.4L107.46 23.4L104 21.4L100.54 23.4L100.54 27.4ZM120 29.4L123.46 27.4L123.46 23.4L120 21.4L116.54 23.4L116.54 27.4ZM128 29.4L131.46 27.4L131.46 23.4L128 21.4L124.54 23.4L124.54 27.4ZM136 29.4L139.46 27.4L139.46 23.4L136 21.4L132.54 23.4L132.54 27.4ZM144 29.4L147.46 27.4L147.46 23.4L144 21.4L140.54 23.4L140.54 27.4ZM152 29.4L155.46 27.4L155.46 23.4L152 21.4L148.54 23.4L148.54 27.4ZM160 29.4L163.46 27.4L163.46 23.4L160 21.4L156.54 23.4L156.54 27.4ZM168 29.4L171.46 27.4L171.46 23.4L168 21.4L164.54 23.4L164.54 27.4ZM176 29.4L179.46 27.4L179.46 23.4L176 21.4L172.54 23.4L172.54 27.4ZM184 29.4L187.46 27.4L187.46 23.4L184 21.4L180.54 23.4L180.54 27.4ZM192 29.4L195.46 27.4L195.46 23.4L192 21.4L188.54 23.4L188.54 27.4ZM200 29.4L203.46 27.4L203.46 23.4L200 21.4L196.54 23.4L196.54 27.4ZM208 29.4L211.46 27.4L211.46 23.4L208 21.4L204.54 23.4L204.54 27.4ZM216 29.4L219.46 27.4L219.46 23.4L216 21.4L212.54 23.4L212.54 27.4ZM224 29.4L227.46 27.4L227.46 23.4L224 21.4L220.54 23.4L220.54 27.4ZM20 36.33L23.46 34.33L23.46 30.33L20 28.33L16.54 30.33L16.54 34.33ZM28 36.33L31.46 34.33L31.46 30.33L28 28.33L24.54 30.33L24.54 34.33ZM36 36.33L39.46 34.33L39.46 30.33L36 28.33L32.54 30.33L32.54 34.33ZM44 36.33L47.46 34.33L47.46 30.33L44 28.33L40.54 30.33L40.54 34.33ZM84 36.33L87.46 34.33L87.46 30.33L84 28.33L80.54 30.33L80.54 34.33ZM100 36.33L103.46 34.33L103.46 30.33L100 28.33L96.54 30.33L96.54 34.33ZM108 36.33L111.46 34.33L111.46 30.33L108 28.33L104.54 30.33L104.54 34.33ZM132 36.33L135.46 34.33L135.46 30.33L132 28.33L128.54 30.33L128.54 34.33ZM156 36.33L159.46 34.33L159.46 30.33L156 28.33L152.54 30.33L152.54 34.33ZM164 36.33L167.46 34.33L167.46 30.33L164 28.33L160.54 30.33L160.54 34.33ZM24 43.26L27.46 41.26L27.46 37.26L24 35.26L20.54 37.26L20.54 41.26ZM48 43.26L51.46 41.26L51.46 37.26L48 35.26L44.54 37.26L44.54 41.26ZM56 43.26L59.46 41.26L59.46 37.26L56 35.26L52.54 37.26L52.54 41.26ZM64 43.26L67.46 41.26L67.46 37.26L64 35.26L60.54 37.26L60.54 41.26ZM88 43.26L91.46 41.26L91.46 37.26L88 35.26L84.54 37.26L84.54 41.26ZM104 43.26L107.46 41.26L107.46 37.26L104 35.26L100.54 37.26L100.54 41.26ZM120 43.26L123.46 41.26L123.46 37.26L120 35.26L116.54 37.26L116.54 41.26ZM136 43.26L139.46 41.26L139.46 37.26L136 35.26L132.54 37.26L132.54 41.26ZM152 43.26L155.46 41.26L155.46 37.26L152 35.26L148.54 37.26L148.54 41.26ZM4 50.19L7.46 48.19L7.46 44.19L4 42.19L0.54 44.19L0.54 48.19ZM12 50.19L15.46 48.19L15.46 44.19L12 42.19L8.54 44.19L8.54 48.19ZM20 50.19L23.46 48.19L23.46 44.19L20 42.19L16.54 44.19L16.54 48.19ZM36 50.19L39.46 48.19L39.46 44.19L36 42.19L32.54 44.19L32.54 48.19ZM44 50.19L47.46 48.19L47.46 44.19L44 42.19L40.54 44.19L40.54 48.19ZM52 50.19L55.46 48.19L55.46 44.19L52 42.19L48.54 44.19L48.54 48.19ZM60 50.19L63.46 48.19L63.46 44.19L60 42.19L56.54 44.19L56.54 48.19ZM68 50.19L71.46 48.19L71.46 44.19L68 42.19L64.54 44.19L64.54 48.19ZM76 50.19L79.46 48.19L79.46 44.19L76 42.19L72.54 44.19L72.54 48.19ZM84 50.19L87.46 48.19L87.46 44.19L84 42.19L80.54 44.19L80.54 48.19ZM100 50.19L103.46 48.19L103.46 44.19L100 42.19L96.54 44.19L96.54 48.19ZM108 50.19L111.46 48.19L111.46 44.19L108 42.19L104.54 44.19L104.54 48.19ZM116 50.19L119.46 48.19L119.46 44.19L116 42.19L112.54 44.19L112.54 48.19ZM124 50.19L127.46 48.19L127.46 44.19L124 42.19L120.54 44.19L120.54 48.19ZM132 50.19L135.46 48.19L135.46 44.19L132 42.19L128.54 44.19L128.54 48.19ZM140 50.19L143.46 48.19L143.46 44.19L140 42.19L136.54 44.19L136.54 48.19ZM148 50.19L151.46 48.19L151.46 44.19L148 42.19L144.54 44.19L144.54 48.19ZM164 50.19L167.46 48.19L167.46 44.19L164 42.19L160.54 44.19L160.54 48.19ZM172 50.19L175.46 48.19L175.46 44.19L172 42.19L168.54 44.19L168.54 48.19ZM180 50.19L183.46 48.19L183.46 44.19L180 42.19L176.54 44.19L176.54 48.19ZM188 50.19L191.46 48.19L191.46 44.19L188 42.19L184.54 44.19L184.54 48.19ZM196 50.19L199.46 48.19L199.46 44.19L196 42.19L192.54 44.19L192.54 48.19ZM204 50.19L207.46 48.19L207.46 44.19L204 42.19L200.54 44.19L200.54 48.19ZM212 50.19L215.46 48.19L215.46 44.19L212 42.19L208.54 44.19L208.54 48.19ZM220 50.19L223.46 48.19L223.46 44.19L220 42.19L216.54 44.19L216.54 48.19ZM8 57.11L11.46 55.11L11.46 51.11L8 49.11L4.54 51.11L4.54 55.11ZM32 57.11L35.46 55.11L35.46 51.11L32 49.11L28.54 51.11L28.54 55.11ZM40 57.11L43.46 55.11L43.46 51.11L40 49.11L36.54 51.11L36.54 55.11ZM88 57.11L91.46 55.11L91.46 51.11L88 49.11L84.54 51.11L84.54 55.11ZM96 57.11L99.46 55.11L99.46 51.11L96 49.11L92.54 51.11L92.54 55.11ZM120 57.11L123.46 55.11L123.46 51.11L120 49.11L116.54 51.11L116.54 55.11ZM144 57.11L147.46 55.11L147.46 51.11L144 49.11L140.54 51.11L140.54 55.11ZM152 57.11L155.46 55.11L155.46 51.11L152 49.11L148.54 51.11L148.54 55.11ZM160 57.11L163.46 55.11L163.46 51.11L160 49.11L156.54 51.11L156.54 55.11ZM216 57.11L219.46 55.11L219.46 51.11L216 49.11L212.54 51.11L212.54 55.11ZM12 64.04L15.46 62.04L15.46 58.04L12 56.04L8.54 58.04L8.54 62.04ZM44 64.04L47.46 62.04L47.46 58.04L44 56.04L40.54 58.04L40.54 62.04ZM52 64.04L55.46 62.04L55.46 58.04L52 56.04L48.54 58.04L48.54 62.04ZM84 64.04L87.46 62.04L87.46 58.04L84 56.04L80.54 58.04L80.54 62.04ZM100 64.04L103.46 62.04L103.46 58.04L100 56.04L96.54 58.04L96.54 62.04ZM116 64.04L119.46 62.04L119.46 58.04L116 56.04L112.54 58.04L112.54 62.04ZM132 64.04L135.46 62.04L135.46 58.04L132 56.04L128.54 58.04L128.54 62.04ZM148 64.04L151.46 62.04L151.46 58.04L148 56.04L144.54 58.04L144.54 62.04ZM164 64.04L167.46 62.04L167.46 58.04L164 56.04L160.54 58.04L160.54 62.04ZM188 64.04L191.46 62.04L191.46 58.04L188 56.04L184.54 58.04L184.54 62.04ZM196 64.04L199.46 62.04L199.46 58.04L196 56.04L192.54 58.04L192.54 62.04ZM204 64.04L207.46 62.04L207.46 58.04L204 56.04L200.54 58.04L200.54 62.04ZM8 70.97L11.46 68.97L11.46 64.97L8 62.97L4.54 64.97L4.54 68.97ZM16 70.97L19.46 68.97L19.46 64.97L16 62.97L12.54 64.97L12.54 68.97ZM32 70.97L35.46 68.97L35.46 64.97L32 62.97L28.54 64.97L28.54 68.97ZM40 70.97L43.46 68.97L43.46 64.97L40 62.97L36.54 64.97L36.54 68.97ZM48 70.97L51.46 68.97L51.46 64.97L48 62.97L44.54 64.97L44.54 68.97ZM56 70.97L59.46 68.97L59.46 64.97L56 62.97L52.54 64.97L52.54 68.97ZM88 70.97L91.46 68.97L91.46 64.97L88 62.97L84.54 64.97L84.54 68.97ZM96 70.97L99.46 68.97L99.46 64.97L96 62.97L92.54 64.97L92.54 68.97ZM112 70.97L115.46 68.97L115.46 64.97L112 62.97L108.54 64.97L108.54 68.97ZM168 70.97L171.46 68.97L171.46 64.97L168 62.97L164.54 64.97L164.54 68.97ZM184 70.97L187.46 68.97L187.46 64.97L184 62.97L180.54 64.97L180.54 68.97ZM192 70.97L195.46 68.97L195.46 64.97L192 62.97L188.54 64.97L188.54 68.97ZM200 70.97L203.46 68.97L203.46 64.97L200 62.97L196.54 64.97L196.54 68.97ZM208 70.97L211.46 68.97L211.46 64.97L208 62.97L204.54 64.97L204.54 68.97ZM216 70.97L219.46 68.97L219.46 64.97L216 62.97L212.54 64.97L212.54 68.97ZM224 70.97L227.46 68.97L227.46 64.97L224 62.97L220.54 64.97L220.54 68.97ZM20 77.9L23.46 75.9L23.46 71.9L20 69.9L16.54 71.9L16.54 75.9ZM28 77.9L31.46 75.9L31.46 71.9L28 69.9L24.54 71.9L24.54 75.9ZM52 77.9L55.46 75.9L55.46 71.9L52 69.9L48.54 71.9L48.54 75.9ZM60 77.9L63.46 75.9L63.46 71.9L60 69.9L56.54 71.9L56.54 75.9ZM68 77.9L71.46 75.9L71.46 71.9L68 69.9L64.54 71.9L64.54 75.9ZM76 77.9L79.46 75.9L79.46 71.9L76 69.9L72.54 71.9L72.54 75.9ZM84 77.9L87.46 75.9L87.46 71.9L84 69.9L80.54 71.9L80.54 75.9ZM92 77.9L95.46 75.9L95.46 71.9L92 69.9L88.54 71.9L88.54 75.9ZM100 77.9L103.46 75.9L103.46 71.9L100 69.9L96.54 71.9L96.54 75.9ZM108 77.9L111.46 75.9L111.46 71.9L108 69.9L104.54 71.9L104.54 75.9ZM164 77.9L167.46 75.9L167.46 71.9L164 69.9L160.54 71.9L160.54 75.9ZM180 77.9L183.46 75.9L183.46 71.9L180 69.9L176.54 71.9L176.54 75.9ZM196 77.9L199.46 75.9L199.46 71.9L196 69.9L192.54 71.9L192.54 75.9ZM212 77.9L215.46 75.9L215.46 71.9L212 69.9L208.54 71.9L208.54 75.9ZM228 77.9L231.46 75.9L231.46 71.9L228 69.9L224.54 71.9L224.54 75.9ZM8 84.83L11.46 82.83L11.46 78.83L8 76.83L4.54 78.83L4.54 82.83ZM24 84.83L27.46 82.83L27.46 78.83L24 76.83L20.54 78.83L20.54 82.83ZM32 84.83L35.46 82.83L35.46 78.83L32 76.83L28.54 78.83L28.54 82.83ZM40 84.83L43.46 82.83L43.46 78.83L40 76.83L36.54 78.83L36.54 82.83ZM56 84.83L59.46 82.83L59.46 78.83L56 76.83L52.54 78.83L52.54 82.83ZM80 84.83L83.46 82.83L83.46 78.83L80 76.83L76.54 78.83L76.54 82.83ZM144 84.83L147.46 82.83L147.46 78.83L144 76.83L140.54 78.83L140.54 82.83ZM184 84.83L187.46 82.83L187.46 78.83L184 76.83L180.54 78.83L180.54 82.83ZM192 84.83L195.46 82.83L195.46 78.83L192 76.83L188.54 78.83L188.54 82.83ZM208 84.83L211.46 82.83L211.46 78.83L208 76.83L204.54 78.83L204.54 82.83ZM216 84.83L219.46 82.83L219.46 78.83L216 76.83L212.54 78.83L212.54 82.83ZM232 84.83L235.46 82.83L235.46 78.83L232 76.83L228.54 78.83L228.54 82.83ZM4 91.75L7.46 89.75L7.46 85.75L4 83.75L0.54 85.75L0.54 89.75ZM20 91.75L23.46 89.75L23.46 85.75L20 83.75L16.54 85.75L16.54 89.75ZM36 91.75L39.46 89.75L39.46 85.75L36 83.75L32.54 85.75L32.54 89.75ZM52 91.75L55.46 89.75L55.46 85.75L52 83.75L48.54 85.75L48.54 89.75ZM156 91.75L159.46 89.75L159.46 85.75L156 83.75L152.54 85.75L152.54 89.75ZM172 91.75L175.46 89.75L175.46 85.75L172 83.75L168.54 85.75L168.54 89.75ZM180 91.75L183.46 89.75L183.46 85.75L180 83.75L176.54 85.75L176.54 89.75ZM196 91.75L199.46 89.75L199.46 85.75L196 83.75L192.54 85.75L192.54 89.75ZM204 91.75L207.46 89.75L207.46 85.75L204 83.75L200.54 85.75L200.54 89.75ZM220 91.75L223.46 89.75L223.46 85.75L220 83.75L216.54 85.75L216.54 89.75ZM236 91.75L239.46 89.75L239.46 85.75L236 83.75L232.54 85.75L232.54 89.75ZM8 98.68L11.46 96.68L11.46 92.68L8 90.68L4.54 92.68L4.54 96.68ZM16 98.68L19.46 96.68L19.46 92.68L16 90.68L12.54 92.68L12.54 96.68ZM24 98.68L27.46 96.68L27.46 92.68L24 90.68L20.54 92.68L20.54 96.68ZM32 98.68L35.46 96.68L35.46 92.68L32 90.68L28.54 92.68L28.54 96.68ZM48 98.68L51.46 96.68L51.46 92.68L48 90.68L44.54 92.68L44.54 96.68ZM64 98.68L67.46 96.68L67.46 92.68L64 90.68L60.54 92.68L60.54 96.68ZM160 98.68L163.46 96.68L163.46 92.68L160 90.68L156.54 92.68L156.54 96.68ZM168 98.68L171.46 96.68L171.46 92.68L168 90.68L164.54 92.68L164.54 96.68ZM176 98.68L179.46 96.68L179.46 92.68L176 90.68L172.54 92.68L172.54 96.68ZM184 98.68L187.46 96.68L187.46 92.68L184 90.68L180.54 92.68L180.54 96.68ZM192 98.68L195.46 96.68L195.46 92.68L192 90.68L188.54 92.68L188.54 96.68ZM4 105.61L7.46 103.61L7.46 99.61L4 97.61L0.54 99.61L0.54 103.61ZM20 105.61L23.46 103.61L23.46 99.61L20 97.61L16.54 99.61L16.54 103.61ZM36 105.61L39.46 103.61L39.46 99.61L36 97.61L32.54 99.61L32.54 103.61ZM52 105.61L55.46 103.61L55.46 99.61L52 97.61L48.54 99.61L48.54 103.61ZM164 105.61L167.46 103.61L167.46 99.61L164 97.61L160.54 99.61L160.54 103.61ZM172 105.61L175.46 103.61L175.46 99.61L172 97.61L168.54 99.61L168.54 103.61ZM180 105.61L183.46 103.61L183.46 99.61L180 97.61L176.54 99.61L176.54 103.61ZM196 105.61L199.46 103.61L199.46 99.61L196 97.61L192.54 99.61L192.54 103.61ZM228 105.61L231.46 103.61L231.46 99.61L228 97.61L224.54 99.61L224.54 103.61ZM8 112.54L11.46 110.54L11.46 106.54L8 104.54L4.54 106.54L4.54 110.54ZM32 112.54L35.46 110.54L35.46 106.54L32 104.54L28.54 106.54L28.54 110.54ZM64 112.54L67.46 110.54L67.46 106.54L64 104.54L60.54 106.54L60.54 110.54ZM160 112.54L163.46 110.54L163.46 106.54L160 104.54L156.54 106.54L156.54 110.54ZM36 119.47L39.46 117.47L39.46 113.47L36 111.47L32.54 113.47L32.54 117.47ZM44 119.47L47.46 117.47L47.46 113.47L44 111.47L40.54 113.47L40.54 117.47ZM68 119.47L71.46 117.47L71.46 113.47L68 111.47L64.54 113.47L64.54 117.47ZM164 119.47L167.46 117.47L167.46 113.47L164 111.47L160.54 113.47L160.54 117.47ZM188 119.47L191.46 117.47L191.46 113.47L188 111.47L184.54 113.47L184.54 117.47ZM212 119.47L215.46 117.47L215.46 113.47L212 111.47L208.54 113.47L208.54 117.47ZM220 119.47L223.46 117.47L223.46 113.47L220 111.47L216.54 113.47L216.54 117.47ZM228 119.47L231.46 117.47L231.46 113.47L228 111.47L224.54 113.47L224.54 117.47ZM8 126.39L11.46 124.39L11.46 120.39L8 118.39L4.54 120.39L4.54 124.39ZM16 126.39L19.46 124.39L19.46 120.39L16 118.39L12.54 120.39L12.54 124.39ZM48 126.39L51.46 124.39L51.46 120.39L48 118.39L44.54 120.39L44.54 124.39ZM72 126.39L75.46 124.39L75.46 120.39L72 118.39L68.54 120.39L68.54 124.39ZM168 126.39L171.46 124.39L171.46 120.39L168 118.39L164.54 120.39L164.54 124.39ZM184 126.39L187.46 124.39L187.46 120.39L184 118.39L180.54 120.39L180.54 124.39ZM200 126.39L203.46 124.39L203.46 120.39L200 118.39L196.54 120.39L196.54 124.39ZM216 126.39L219.46 124.39L219.46 120.39L216 118.39L212.54 120.39L212.54 124.39ZM4 133.32L7.46 131.32L7.46 127.32L4 125.32L0.54 127.32L0.54 131.32ZM20 133.32L23.46 131.32L23.46 127.32L20 125.32L16.54 127.32L16.54 131.32ZM60 133.32L63.46 131.32L63.46 127.32L60 125.32L56.54 127.32L56.54 131.32ZM164 133.32L167.46 131.32L167.46 127.32L164 125.32L160.54 127.32L160.54 131.32ZM172 133.32L175.46 131.32L175.46 127.32L172 125.32L168.54 127.32L168.54 131.32ZM180 133.32L183.46 131.32L183.46 127.32L180 125.32L176.54 127.32L176.54 131.32ZM196 133.32L199.46 131.32L199.46 127.32L196 125.32L192.54 127.32L192.54 131.32ZM228 133.32L231.46 131.32L231.46 127.32L228 125.32L224.54 127.32L224.54 131.32ZM236 133.32L239.46 131.32L239.46 127.32L236 125.32L232.54 127.32L232.54 131.32ZM8 140.25L11.46 138.25L11.46 134.25L8 132.25L4.54 134.25L4.54 138.25ZM24 140.25L27.46 138.25L27.46 134.25L24 132.25L20.54 134.25L20.54 138.25ZM32 140.25L35.46 138.25L35.46 134.25L32 132.25L28.54 134.25L28.54 138.25ZM40 140.25L43.46 138.25L43.46 134.25L40 132.25L36.54 134.25L36.54 138.25ZM48 140.25L51.46 138.25L51.46 134.25L48 132.25L44.54 134.25L44.54 138.25ZM72 140.25L75.46 138.25L75.46 134.25L72 132.25L68.54 134.25L68.54 138.25ZM80 140.25L83.46 138.25L83.46 134.25L80 132.25L76.54 134.25L76.54 138.25ZM192 140.25L195.46 138.25L195.46 134.25L192 132.25L188.54 134.25L188.54 138.25ZM200 140.25L203.46 138.25L203.46 134.25L200 132.25L196.54 134.25L196.54 138.25ZM208 140.25L211.46 138.25L211.46 134.25L208 132.25L204.54 134.25L204.54 138.25ZM216 140.25L219.46 138.25L219.46 134.25L216 132.25L212.54 134.25L212.54 138.25ZM224 140.25L227.46 138.25L227.46 134.25L224 132.25L220.54 134.25L220.54 138.25ZM20 147.18L23.46 145.18L23.46 141.18L20 139.18L16.54 141.18L16.54 145.18ZM44 147.18L47.46 145.18L47.46 141.18L44 139.18L40.54 141.18L40.54 145.18ZM52 147.18L55.46 145.18L55.46 141.18L52 139.18L48.54 141.18L48.54 145.18ZM84 147.18L87.46 145.18L87.46 141.18L84 139.18L80.54 141.18L80.54 145.18ZM156 147.18L159.46 145.18L159.46 141.18L156 139.18L152.54 141.18L152.54 145.18ZM164 147.18L167.46 145.18L167.46 141.18L164 139.18L160.54 141.18L160.54 145.18ZM172 147.18L175.46 145.18L175.46 141.18L172 139.18L168.54 141.18L168.54 145.18ZM180 147.18L183.46 145.18L183.46 141.18L180 139.18L176.54 141.18L176.54 145.18ZM196 147.18L199.46 145.18L199.46 141.18L196 139.18L192.54 141.18L192.54 145.18ZM220 147.18L223.46 145.18L223.46 141.18L220 139.18L216.54 141.18L216.54 145.18ZM228 147.18L231.46 145.18L231.46 141.18L228 139.18L224.54 141.18L224.54 145.18ZM236 147.18L239.46 145.18L239.46 141.18L236 139.18L232.54 141.18L232.54 145.18ZM16 154.11L19.46 152.11L19.46 148.11L16 146.11L12.54 148.11L12.54 152.11ZM32 154.11L35.46 152.11L35.46 148.11L32 146.11L28.54 148.11L28.54 152.11ZM48 154.11L51.46 152.11L51.46 148.11L48 146.11L44.54 148.11L44.54 152.11ZM80 154.11L83.46 152.11L83.46 148.11L80 146.11L76.54 148.11L76.54 152.11ZM152 154.11L155.46 152.11L155.46 148.11L152 146.11L148.54 148.11L148.54 152.11ZM184 154.11L187.46 152.11L187.46 148.11L184 146.11L180.54 148.11L180.54 152.11ZM192 154.11L195.46 152.11L195.46 148.11L192 146.11L188.54 148.11L188.54 152.11ZM200 154.11L203.46 152.11L203.46 148.11L200 146.11L196.54 148.11L196.54 152.11ZM216 154.11L219.46 152.11L219.46 148.11L216 146.11L212.54 148.11L212.54 152.11ZM52 161.03L55.46 159.03L55.46 155.03L52 153.03L48.54 155.03L48.54 159.03ZM68 161.03L71.46 159.03L71.46 155.03L68 153.03L64.54 155.03L64.54 159.03ZM84 161.03L87.46 159.03L87.46 155.03L84 153.03L80.54 155.03L80.54 159.03ZM100 161.03L103.46 159.03L103.46 155.03L100 153.03L96.54 155.03L96.54 159.03ZM124 161.03L127.46 159.03L127.46 155.03L124 153.03L120.54 155.03L120.54 159.03ZM140 161.03L143.46 159.03L143.46 155.03L140 153.03L136.54 155.03L136.54 159.03ZM156 161.03L159.46 159.03L159.46 155.03L156 153.03L152.54 155.03L152.54 159.03ZM180 161.03L183.46 159.03L183.46 155.03L180 153.03L176.54 155.03L176.54 159.03ZM188 161.03L191.46 159.03L191.46 155.03L188 153.03L184.54 155.03L184.54 159.03ZM196 161.03L199.46 159.03L199.46 155.03L196 153.03L192.54 155.03L192.54 159.03ZM204 161.03L207.46 159.03L207.46 155.03L204 153.03L200.54 155.03L200.54 159.03ZM220 161.03L223.46 159.03L223.46 155.03L220 153.03L216.54 155.03L216.54 159.03ZM236 161.03L239.46 159.03L239.46 155.03L236 153.03L232.54 155.03L232.54 159.03ZM8 167.96L11.46 165.96L11.46 161.96L8 159.96L4.54 161.96L4.54 165.96ZM24 167.96L27.46 165.96L27.46 161.96L24 159.96L20.54 161.96L20.54 165.96ZM40 167.96L43.46 165.96L43.46 161.96L40 159.96L36.54 161.96L36.54 165.96ZM80 167.96L83.46 165.96L83.46 161.96L80 159.96L76.54 161.96L76.54 165.96ZM88 167.96L91.46 165.96L91.46 161.96L88 159.96L84.54 161.96L84.54 165.96ZM104 167.96L107.46 165.96L107.46 161.96L104 159.96L100.54 161.96L100.54 165.96ZM120 167.96L123.46 165.96L123.46 161.96L120 159.96L116.54 161.96L116.54 165.96ZM144 167.96L147.46 165.96L147.46 161.96L144 159.96L140.54 161.96L140.54 165.96ZM152 167.96L155.46 165.96L155.46 161.96L152 159.96L148.54 161.96L148.54 165.96ZM160 167.96L163.46 165.96L163.46 161.96L160 159.96L156.54 161.96L156.54 165.96ZM176 167.96L179.46 165.96L179.46 161.96L176 159.96L172.54 161.96L172.54 165.96ZM192 167.96L195.46 165.96L195.46 161.96L192 159.96L188.54 161.96L188.54 165.96ZM208 167.96L211.46 165.96L211.46 161.96L208 159.96L204.54 161.96L204.54 165.96ZM216 167.96L219.46 165.96L219.46 161.96L216 159.96L212.54 161.96L212.54 165.96ZM232 167.96L235.46 165.96L235.46 161.96L232 159.96L228.54 161.96L228.54 165.96ZM12 174.89L15.46 172.89L15.46 168.89L12 166.89L8.54 168.89L8.54 172.89ZM28 174.89L31.46 172.89L31.46 168.89L28 166.89L24.54 168.89L24.54 172.89ZM44 174.89L47.46 172.89L47.46 168.89L44 166.89L40.54 168.89L40.54 172.89ZM60 174.89L63.46 172.89L63.46 168.89L60 166.89L56.54 168.89L56.54 172.89ZM76 174.89L79.46 172.89L79.46 168.89L76 166.89L72.54 168.89L72.54 172.89ZM92 174.89L95.46 172.89L95.46 168.89L92 166.89L88.54 168.89L88.54 172.89ZM108 174.89L111.46 172.89L111.46 168.89L108 166.89L104.54 168.89L104.54 172.89ZM124 174.89L127.46 172.89L127.46 168.89L124 166.89L120.54 168.89L120.54 172.89ZM140 174.89L143.46 172.89L143.46 168.89L140 166.89L136.54 168.89L136.54 172.89ZM156 174.89L159.46 172.89L159.46 168.89L156 166.89L152.54 168.89L152.54 172.89ZM172 174.89L175.46 172.89L175.46 168.89L172 166.89L168.54 168.89L168.54 172.89ZM180 174.89L183.46 172.89L183.46 168.89L180 166.89L176.54 168.89L176.54 172.89ZM188 174.89L191.46 172.89L191.46 168.89L188 166.89L184.54 168.89L184.54 172.89ZM196 174.89L199.46 172.89L199.46 168.89L196 166.89L192.54 168.89L192.54 172.89ZM204 174.89L207.46 172.89L207.46 168.89L204 166.89L200.54 168.89L200.54 172.89ZM228 174.89L231.46 172.89L231.46 168.89L228 166.89L224.54 168.89L224.54 172.89ZM184 181.82L187.46 179.82L187.46 175.82L184 173.82L180.54 175.82L180.54 179.82ZM192 181.82L195.46 179.82L195.46 175.82L192 173.82L188.54 175.82L188.54 179.82ZM200 181.82L203.46 179.82L203.46 175.82L200 173.82L196.54 175.82L196.54 179.82ZM208 181.82L211.46 179.82L211.46 175.82L208 173.82L204.54 175.82L204.54 179.82ZM232 181.82L235.46 179.82L235.46 175.82L232 173.82L228.54 175.82L228.54 179.82ZM4 188.75L7.46 186.75L7.46 182.75L4 180.75L0.54 182.75L0.54 186.75ZM20 188.75L23.46 186.75L23.46 182.75L20 180.75L16.54 182.75L16.54 186.75ZM36 188.75L39.46 186.75L39.46 182.75L36 180.75L32.54 182.75L32.54 186.75ZM52 188.75L55.46 186.75L55.46 182.75L52 180.75L48.54 182.75L48.54 186.75ZM68 188.75L71.46 186.75L71.46 182.75L68 180.75L64.54 182.75L64.54 186.75ZM84 188.75L87.46 186.75L87.46 182.75L84 180.75L80.54 182.75L80.54 186.75ZM100 188.75L103.46 186.75L103.46 182.75L100 180.75L96.54 182.75L96.54 186.75ZM116 188.75L119.46 186.75L119.46 182.75L116 180.75L112.54 182.75L112.54 186.75ZM132 188.75L135.46 186.75L135.46 182.75L132 180.75L128.54 182.75L128.54 186.75ZM148 188.75L151.46 186.75L151.46 182.75L148 180.75L144.54 182.75L144.54 186.75ZM164 188.75L167.46 186.75L167.46 182.75L164 180.75L160.54 182.75L160.54 186.75ZM180 188.75L183.46 186.75L183.46 182.75L180 180.75L176.54 182.75L176.54 186.75ZM220 188.75L223.46 186.75L223.46 182.75L220 180.75L216.54 182.75L216.54 186.75ZM228 188.75L231.46 186.75L231.46 182.75L228 180.75L224.54 182.75L224.54 186.75ZM236 188.75L239.46 186.75L239.46 182.75L236 180.75L232.54 182.75L232.54 186.75ZM16 195.67L19.46 193.67L19.46 189.67L16 187.67L12.54 189.67L12.54 193.67ZM32 195.67L35.46 193.67L35.46 189.67L32 187.67L28.54 189.67L28.54 193.67ZM40 195.67L43.46 193.67L43.46 189.67L40 187.67L36.54 189.67L36.54 193.67ZM64 195.67L67.46 193.67L67.46 189.67L64 187.67L60.54 189.67L60.54 193.67ZM72 195.67L75.46 193.67L75.46 189.67L72 187.67L68.54 189.67L68.54 193.67ZM96 195.67L99.46 193.67L99.46 189.67L96 187.67L92.54 189.67L92.54 193.67ZM112 195.67L115.46 193.67L115.46 189.67L112 187.67L108.54 189.67L108.54 193.67ZM160 195.67L163.46 193.67L163.46 189.67L160 187.67L156.54 189.67L156.54 193.67ZM168 195.67L171.46 193.67L171.46 189.67L168 187.67L164.54 189.67L164.54 193.67ZM184 195.67L187.46 193.67L187.46 189.67L184 187.67L180.54 189.67L180.54 193.67ZM200 195.67L203.46 193.67L203.46 189.67L200 187.67L196.54 189.67L196.54 193.67ZM216 195.67L219.46 193.67L219.46 189.67L216 187.67L212.54 189.67L212.54 193.67ZM232 195.67L235.46 193.67L235.46 189.67L232 187.67L228.54 189.67L228.54 193.67ZM4 202.6L7.46 200.6L7.46 196.6L4 194.6L0.54 196.6L0.54 200.6ZM20 202.6L23.46 200.6L23.46 196.6L20 194.6L16.54 196.6L16.54 200.6ZM28 202.6L31.46 200.6L31.46 196.6L28 194.6L24.54 196.6L24.54 200.6ZM44 202.6L47.46 200.6L47.46 196.6L44 194.6L40.54 196.6L40.54 200.6ZM52 202.6L55.46 200.6L55.46 196.6L52 194.6L48.54 196.6L48.54 200.6ZM60 202.6L63.46 200.6L63.46 196.6L60 194.6L56.54 196.6L56.54 200.6ZM84 202.6L87.46 200.6L87.46 196.6L84 194.6L80.54 196.6L80.54 200.6ZM116 202.6L119.46 200.6L119.46 196.6L116 194.6L112.54 196.6L112.54 200.6ZM132 202.6L135.46 200.6L135.46 196.6L132 194.6L128.54 196.6L128.54 200.6ZM156 202.6L159.46 200.6L159.46 196.6L156 194.6L152.54 196.6L152.54 200.6ZM164 202.6L167.46 200.6L167.46 196.6L164 194.6L160.54 196.6L160.54 200.6ZM172 202.6L175.46 200.6L175.46 196.6L172 194.6L168.54 196.6L168.54 200.6ZM220 202.6L223.46 200.6L223.46 196.6L220 194.6L216.54 196.6L216.54 200.6ZM228 202.6L231.46 200.6L231.46 196.6L228 194.6L224.54 196.6L224.54 200.6ZM236 202.6L239.46 200.6L239.46 196.6L236 194.6L232.54 196.6L232.54 200.6ZM8 209.53L11.46 207.53L11.46 203.53L8 201.53L4.54 203.53L4.54 207.53ZM24 209.53L27.46 207.53L27.46 203.53L24 201.53L20.54 203.53L20.54 207.53ZM40 209.53L43.46 207.53L43.46 203.53L40 201.53L36.54 203.53L36.54 207.53ZM64 209.53L67.46 207.53L67.46 203.53L64 201.53L60.54 203.53L60.54 207.53ZM72 209.53L75.46 207.53L75.46 203.53L72 201.53L68.54 203.53L68.54 207.53ZM80 209.53L83.46 207.53L83.46 203.53L80 201.53L76.54 203.53L76.54 207.53ZM88 209.53L91.46 207.53L91.46 203.53L88 201.53L84.54 203.53L84.54 207.53ZM104 209.53L107.46 207.53L107.46 203.53L104 201.53L100.54 203.53L100.54 207.53ZM112 209.53L115.46 207.53L115.46 203.53L112 201.53L108.54 203.53L108.54 207.53ZM120 209.53L123.46 207.53L123.46 203.53L120 201.53L116.54 203.53L116.54 207.53ZM136 209.53L139.46 207.53L139.46 203.53L136 201.53L132.54 203.53L132.54 207.53ZM144 209.53L147.46 207.53L147.46 203.53L144 201.53L140.54 203.53L140.54 207.53ZM168 209.53L171.46 207.53L171.46 203.53L168 201.53L164.54 203.53L164.54 207.53ZM176 209.53L179.46 207.53L179.46 203.53L176 201.53L172.54 203.53L172.54 207.53ZM192 209.53L195.46 207.53L195.46 203.53L192 201.53L188.54 203.53L188.54 207.53ZM224 209.53L227.46 207.53L227.46 203.53L224 201.53L220.54 203.53L220.54 207.53ZM232 209.53L235.46 207.53L235.46 203.53L232 201.53L228.54 203.53L228.54 207.53ZM12 216.46L15.46 214.46L15.46 210.46L12 208.46L8.54 210.46L8.54 214.46ZM20 216.46L23.46 214.46L23.46 210.46L20 208.46L16.54 210.46L16.54 214.46ZM28 216.46L31.46 214.46L31.46 210.46L28 208.46L24.54 210.46L24.54 214.46ZM52 216.46L55.46 214.46L55.46 210.46L52 208.46L48.54 210.46L48.54 214.46ZM60 216.46L63.46 214.46L63.46 210.46L60 208.46L56.54 210.46L56.54 214.46ZM68 216.46L71.46 214.46L71.46 210.46L68 208.46L64.54 210.46L64.54 214.46ZM76 216.46L79.46 214.46L79.46 210.46L76 208.46L72.54 210.46L72.54 214.46ZM84 216.46L87.46 214.46L87.46 210.46L84 208.46L80.54 210.46L80.54 214.46ZM92 216.46L95.46 214.46L95.46 210.46L92 208.46L88.54 210.46L88.54 214.46ZM100 216.46L103.46 214.46L103.46 210.46L100 208.46L96.54 210.46L96.54 214.46ZM108 216.46L111.46 214.46L111.46 210.46L108 208.46L104.54 210.46L104.54 214.46ZM132 216.46L135.46 214.46L135.46 210.46L132 208.46L128.54 210.46L128.54 214.46ZM140 216.46L143.46 214.46L143.46 210.46L140 208.46L136.54 210.46L136.54 214.46ZM172 216.46L175.46 214.46L175.46 210.46L172 208.46L168.54 210.46L168.54 214.46ZM180 216.46L183.46 214.46L183.46 210.46L180 208.46L176.54 210.46L176.54 214.46ZM188 216.46L191.46 214.46L191.46 210.46L188 208.46L184.54 210.46L184.54 214.46ZM196 216.46L199.46 214.46L199.46 210.46L196 208.46L192.54 210.46L192.54 214.46ZM204 216.46L207.46 214.46L207.46 210.46L204 208.46L200.54 210.46L200.54 214.46ZM236 216.46L239.46 214.46L239.46 210.46L236 208.46L232.54 210.46L232.54 214.46ZM8 223.39L11.46 221.39L11.46 217.39L8 215.39L4.54 217.39L4.54 221.39ZM56 223.39L59.46 221.39L59.46 217.39L56 215.39L52.54 217.39L52.54 221.39ZM64 223.39L67.46 221.39L67.46 217.39L64 215.39L60.54 217.39L60.54 221.39ZM72 223.39L75.46 221.39L75.46 217.39L72 215.39L68.54 217.39L68.54 221.39ZM88 223.39L91.46 221.39L91.46 217.39L88 215.39L84.54 217.39L84.54 221.39ZM112 223.39L115.46 221.39L115.46 217.39L112 215.39L108.54 217.39L108.54 221.39ZM120 223.39L123.46 221.39L123.46 217.39L120 215.39L116.54 217.39L116.54 221.39ZM128 223.39L131.46 221.39L131.46 217.39L128 215.39L124.54 217.39L124.54 221.39ZM144 223.39L147.46 221.39L147.46 217.39L144 215.39L140.54 217.39L140.54 221.39ZM152 223.39L155.46 221.39L155.46 217.39L152 215.39L148.54 217.39L148.54 221.39ZM176 223.39L179.46 221.39L179.46 217.39L176 215.39L172.54 217.39L172.54 221.39ZM184 223.39L187.46 221.39L187.46 217.39L184 215.39L180.54 217.39L180.54 221.39ZM192 223.39L195.46 221.39L195.46 217.39L192 215.39L188.54 217.39L188.54 221.39ZM216 223.39L219.46 221.39L219.46 217.39L216 215.39L212.54 217.39L212.54 221.39ZM224 223.39L227.46 221.39L227.46 217.39L224 215.39L220.54 217.39L220.54 221.39ZM4 230.31L7.46 228.31L7.46 224.31L4 222.31L0.54 224.31L0.54 228.31ZM36 230.31L39.46 228.31L39.46 224.31L36 222.31L32.54 224.31L32.54 228.31ZM44 230.31L47.46 228.31L47.46 224.31L44 222.31L40.54 224.31L40.54 228.31ZM68 230.31L71.46 228.31L71.46 224.31L68 222.31L64.54 224.31L64.54 228.31ZM92 230.31L95.46 228.31L95.46 224.31L92 222.31L88.54 224.31L88.54 228.31ZM116 230.31L119.46 228.31L119.46 224.31L116 222.31L112.54 224.31L112.54 228.31ZM124 230.31L127.46 228.31L127.46 224.31L124 222.31L120.54 224.31L120.54 228.31ZM132 230.31L135.46 228.31L135.46 224.31L132 222.31L128.54 224.31L128.54 228.31ZM140 230.31L143.46 228.31L143.46 224.31L140 222.31L136.54 224.31L136.54 228.31ZM148 230.31L151.46 228.31L151.46 224.31L148 222.31L144.54 224.31L144.54 228.31ZM156 230.31L159.46 228.31L159.46 224.31L156 222.31L152.54 224.31L152.54 228.31ZM164 230.31L167.46 228.31L167.46 224.31L164 222.31L160.54 224.31L160.54 228.31ZM180 230.31L183.46 228.31L183.46 224.31L180 222.31L176.54 224.31L176.54 228.31ZM188 230.31L191.46 228.31L191.46 224.31L188 222.31L184.54 224.31L184.54 228.31ZM196 230.31L199.46 228.31L199.46 224.31L196 222.31L192.54 224.31L192.54 228.31ZM204 230.31L207.46 228.31L207.46 224.31L204 222.31L200.54 224.31L200.54 228.31ZM212 230.31L215.46 228.31L215.46 224.31L212 222.31L208.54 224.31L208.54 228.31ZM220 230.31L223.46 228.31L223.46 224.31L220 222.31L216.54 224.31L216.54 228.31ZM228 230.31L231.46 228.31L231.46 224.31L228 222.31L224.54 224.31L224.54 228.31ZM236 230.31L239.46 228.31L239.46 224.31L236 222.31L232.54 224.31L232.54 228.31Z"/>
  <circle cx="116" cy="115.47" r="32.862" stroke="#000000" stroke-width="6.276" fill="none"/>
  <circle cx="116" cy="115.47" r="20.309" stroke="#000000" stroke-width="6.276" fill="none"/>
  <circle cx="116" cy="115.47" r="7.757" stroke="#000000" stroke-width="6.276" fill="none"/>
 </g>
</svg>
