<?xml version="1.0" standalone="no"?>
<!DOCTYPE svg PUBLIC "-//W3C//DTD SVG 1.1//EN"
   "http://www.w3.org/Graphics/SVG/1.1/DTD/svg11.dtd">
<svg width="46" height="27" version="1.1"
   xmlns="http://www.w3.org/2000/svg">
   <desc>Zint Generated Symbol
   </desc>

   <g id="barcode" fill="#000000">
      <rect x="0" y="0" width="46" height="27" fill="#FFFFFF" />
      <rect x="0.00" y="0.00" width="2.40" height="2.40" />
      <rect x="4.80" y="0.00" width="1.20" height="4.80" />
      <rect x="9.60" y="0.00" width="1.20" height="26.40" />
      <rect x="12.00" y="0.00" width="1.20" height="2.40" />
      <rect x="15.60" y="0.00" width="4.80" height="2.40" />
      <rect x="21.60" y="0.00" width="4.80" height="2.40" />
      <rect x="27.60" y="0.00" width="1.20" height="2.40" />
      <rect x="32.40" y="0.00" width="3.60" height="2.40" />
      <rect x="38.40" y="0.00" width="2.40" height="4.80" />
      <rect x="42.00" y="0.00" width="1.20" height="21.60" />
      <rect x="44.40" y="0.00" width="1.20" height="26.40" />
      <rect x="0.00" y="2.40" width="3.60" height="4.80" />
      <rect x="12.00" y="2.40" width="3.60" height="2.40" />
      <rect x="16.80" y="2.40" width="1.20" height="2.40" />
      <rect x="21.60" y="2.40" width="2.40" height="2.40" />
      <rect x="30.00" y="2.40" width="1.20" height="2.40" />
      <rect x="32.40" y="2.40" width="4.80" height="4.80" />
      <rect x="4.80" y="4.80" width="2.40" height="4.80" />
      <rect x="12.00" y="4.80" width="1.20" height="2.40" />
      <rect x="18.00" y="4.80" width="2.40" height="2.40" />
      <rect x="21.60" y="4.80" width="1.20" height="2.40" />
      <rect x="25.20" y="4.80" width="3.60" height="2.40" />
      <rect x="39.60" y="4.80" width="1.20" height="7.20" />
      <rect x="0.00" y="7.20" width="2.40" height="9.60" />
      <rect x="12.00" y="7.20" width="2.40" height="2.40" />
      <rect x="16.80" y="7.20" width="2.40" height="2.40" />
      <rect x="21.60" y="7.20" width="2.40" height="2.40" />
      <rect x="28.80" y="7.20" width="2.40" height="2.40" />
      <rect x="32.40" y="7.20" width="3.60" height="2.40" />
      <rect x="3.60" y="9.60" width="3.60" height="2.40" />
      <rect x="12.00" y="9.60" width="6.00" height="2.40" />
      <rect x="22.80" y="9.60" width="1.20" height="2.40" />
      <rect x="25.20" y="9.60" width="1.20" height="2.40" />
      <rect x="27.60" y="9.60" width="2.40" height="2.40" />
      <rect x="32.40" y="9.60" width="2.40" height="7.20" />
      <rect x="3.60" y="12.00" width="4.80" height="2.40" />
      <rect x="12.00" y="12.00" width="2.40" height="2.40" />
      <rect x="15.60" y="12.00" width="2.40" height="2.40" />
      <rect x="20.40" y="12.00" width="1.20" height="2.40" />
      <rect x="24.00" y="12.00" width="4.80" height="2.40" />
      <rect x="38.40" y="12.00" width="2.40" height="2.40" />
      <rect x="4.80" y="14.40" width="3.60" height="4.80" />
      <rect x="12.00" y="14.40" width="1.20" height="9.60" />
      <rect x="14.40" y="14.40" width="4.80" height="2.40" />
      <rect x="21.60" y="14.40" width="6.00" height="2.40" />
      <rect x="28.80" y="14.40" width="2.40" height="2.40" />
      <rect x="38.40" y="14.40" width="1.20" height="12.00" />
      <rect x="0.00" y="16.80" width="3.60" height="4.80" />
      <rect x="16.80" y="16.80" width="2.40" height="2.40" />
      <rect x="20.40" y="16.80" width="6.00" height="2.40" />
      <rect x="28.80" y="16.80" width="1.20" height="2.40" />
      <rect x="32.40" y="16.80" width="3.60" height="2.40" />
      <rect x="6.00" y="19.20" width="2.40" height="4.80" />
      <rect x="14.40" y="19.20" width="2.40" height="2.40" />
      <rect x="18.00" y="19.20" width="4.80" height="2.40" />
      <rect x="24.00" y="19.20" width="7.20" height="2.40" />
      <rect x="32.40" y="19.20" width="4.80" height="7.20" />
      <rect x="0.00" y="21.60" width="4.80" height="4.80" />
      <rect x="15.60" y="21.60" width="1.20" height="2.40" />
      <rect x="22.80" y="21.60" width="1.20" height="2.40" />
      <rect x="28.80" y="21.60" width="1.20" height="2.40" />
      <rect x="40.80" y="21.60" width="2.40" height="2.40" />
      <rect x="7.20" y="24.00" width="1.20" height="2.40" />
      <rect x="12.00" y="24.00" width="3.60" height="2.40" />
      <rect x="19.20" y="24.00" width="1.20" height="2.40" />
      <rect x="22.80" y="24.00" width="3.60" height="2.40" />
      <rect x="27.60" y="24.00" width="2.40" height="2.40" />
      <rect x="40.80" y="24.00" width="1.20" height="2.40" />
   </g>
</svg>
