<?xml version="1.0" standalone="no"?>
<!DOCTYPE svg PUBLIC "-//W3C//DTD SVG 1.1//EN" "http://www.w3.org/Graphics/SVG/1.1/DTD/svg11.dtd">
<svg width="183" height="106" version="1.1" xmlns="http://www.w3.org/2000/svg">
 <desc>Zint Generated Symbol</desc>
 <g id="barcode" fill="#000000">
  <rect x="0" y="0" width="183" height="106" fill="#FFFFFF"/>
  <path d="M0 0h9.6v9.6h-9.6ZM19.2 0h4.8v19.2h-4.8ZM38.4 0h4.8v105.6h-4.8ZM48 0h4.8v9.6h-4.8ZM62.4 0h19.2v9.6h-19.2ZM86.4 0h19.2v9.6h-19.2ZM110.4 0h4.8v9.6h-4.8ZM129.6 0h14.4v9.6h-14.4ZM153.6 0h9.6v19.2h-9.6ZM168 0h4.8v86.4h-4.8ZM177.6 0h4.8v105.6h-4.8ZM0 9.6h14.4v19.2h-14.4ZM48 9.6h14.4v9.6h-14.4ZM67.2 9.6h4.8v9.6h-4.8ZM86.4 9.6h9.6v9.6h-9.6ZM120 9.6h4.8v9.6h-4.8ZM129.6 9.6h19.2v19.2h-19.2ZM19.2 19.2h9.6v19.2h-9.6ZM48 19.2h4.8v9.6h-4.8ZM72 19.2h9.6v9.6h-9.6ZM86.4 19.2h4.8v9.6h-4.8ZM100.8 19.2h14.4v9.6h-14.4ZM158.4 19.2h4.8v28.8h-4.8ZM0 28.8h9.6v38.4h-9.6ZM48 28.8h9.6v9.6h-9.6ZM67.2 28.8h9.6v9.6h-9.6ZM86.4 28.8h9.6v9.6h-9.6ZM115.2 28.8h9.6v9.6h-9.6ZM129.6 28.8h14.4v9.6h-14.4ZM14.4 38.4h14.4v9.6h-14.4ZM48 38.4h24v9.6h-24ZM91.2 38.4h4.8v9.6h-4.8ZM100.8 38.4h4.8v9.6h-4.8ZM110.4 38.4h9.6v9.6h-9.6ZM129.6 38.4h9.6v28.8h-9.6ZM14.4 48h19.2v9.6h-19.2ZM48 48h9.6v9.6h-9.6ZM62.4 48h9.6v9.6h-9.6ZM81.6 48h4.8v9.6h-4.8ZM96 48h19.2v9.6h-19.2ZM153.6 48h9.6v9.6h-9.6ZM19.2 57.6h14.4v19.2h-14.4ZM48 57.6h4.8v38.4h-4.8ZM57.6 57.6h19.2v9.6h-19.2ZM86.4 57.6h24v9.6h-24ZM115.2 57.6h9.6v9.6h-9.6ZM153.6 57.6h4.8v48h-4.8ZM0 67.2h14.4v19.2h-14.4ZM67.2 67.2h9.6v9.6h-9.6ZM81.6 67.2h24v9.6h-24ZM115.2 67.2h4.8v9.6h-4.8ZM129.6 67.2h14.4v9.6h-14.4ZM24 76.8h9.6v19.2h-9.6ZM57.6 76.8h9.6v9.6h-9.6ZM72 76.8h19.2v9.6h-19.2ZM96 76.8h28.8v9.6h-28.8ZM129.6 76.8h19.2v28.8h-19.2ZM0 86.4h19.2v19.2h-19.2ZM62.4 86.4h4.8v9.6h-4.8ZM91.2 86.4h4.8v9.6h-4.8ZM115.2 86.4h4.8v9.6h-4.8ZM163.2 86.4h9.6v9.6h-9.6ZM28.8 96h4.8v9.6h-4.8ZM48 96h14.4v9.6h-14.4ZM76.8 96h4.8v9.6h-4.8ZM91.2 96h14.4v9.6h-14.4ZM110.4 96h9.6v9.6h-9.6ZM163.2 96h4.8v9.6h-4.8Z"/>
 </g>
</svg>
