<?xml version="1.0" standalone="no"?>
<!DOCTYPE svg PUBLIC "-//W3C//DTD SVG 1.1//EN"
   "http://www.w3.org/Graphics/SVG/1.1/DTD/svg11.dtd">
<svg width="183" height="106" version="1.1"
   xmlns="http://www.w3.org/2000/svg">
   <desc>Zint Generated Symbol
   </desc>

   <g id="barcode" fill="#000000">
      <rect x="0" y="0" width="183" height="106" fill="#FFFFFF" />
      <rect x="0.00" y="0.00" width="9.60" height="9.60" />
      <rect x="19.20" y="0.00" width="4.80" height="19.20" />
      <rect x="38.40" y="0.00" width="4.80" height="105.60" />
      <rect x="48.00" y="0.00" width="4.80" height="9.60" />
      <rect x="62.40" y="0.00" width="19.20" height="9.60" />
      <rect x="86.40" y="0.00" width="19.20" height="9.60" />
      <rect x="110.40" y="0.00" width="4.80" height="9.60" />
      <rect x="129.60" y="0.00" width="14.40" height="9.60" />
      <rect x="153.60" y="0.00" width="9.60" height="19.20" />
      <rect x="168.00" y="0.00" width="4.80" height="86.40" />
      <rect x="177.60" y="0.00" width="4.80" height="105.60" />
      <rect x="0.00" y="9.60" width="14.40" height="19.20" />
      <rect x="48.00" y="9.60" width="14.40" height="9.60" />
      <rect x="67.20" y="9.60" width="4.80" height="9.60" />
      <rect x="86.40" y="9.60" width="9.60" height="9.60" />
      <rect x="120.00" y="9.60" width="4.80" height="9.60" />
      <rect x="129.60" y="9.60" width="19.20" height="19.20" />
      <rect x="19.20" y="19.20" width="9.60" height="19.20" />
      <rect x="48.00" y="19.20" width="4.80" height="9.60" />
      <rect x="72.00" y="19.20" width="9.60" height="9.60" />
      <rect x="86.40" y="19.20" width="4.80" height="9.60" />
      <rect x="100.80" y="19.20" width="14.40" height="9.60" />
      <rect x="158.40" y="19.20" width="4.80" height="28.80" />
      <rect x="0.00" y="28.80" width="9.60" height="38.40" />
      <rect x="48.00" y="28.80" width="9.60" height="9.60" />
      <rect x="67.20" y="28.80" width="9.60" height="9.60" />
      <rect x="86.40" y="28.80" width="9.60" height="9.60" />
      <rect x="115.20" y="28.80" width="9.60" height="9.60" />
      <rect x="129.60" y="28.80" width="14.40" height="9.60" />
      <rect x="14.40" y="38.40" width="14.40" height="9.60" />
      <rect x="48.00" y="38.40" width="24.00" height="9.60" />
      <rect x="91.20" y="38.40" width="4.80" height="9.60" />
      <rect x="100.80" y="38.40" width="4.80" height="9.60" />
      <rect x="110.40" y="38.40" width="9.60" height="9.60" />
      <rect x="129.60" y="38.40" width="9.60" height="28.80" />
      <rect x="14.40" y="48.00" width="19.20" height="9.60" />
      <rect x="48.00" y="48.00" width="9.60" height="9.60" />
      <rect x="62.40" y="48.00" width="9.60" height="9.60" />
      <rect x="81.60" y="48.00" width="4.80" height="9.60" />
      <rect x="96.00" y="48.00" width="19.20" height="9.60" />
      <rect x="153.60" y="48.00" width="9.60" height="9.60" />
      <rect x="19.20" y="57.60" width="14.40" height="19.20" />
      <rect x="48.00" y="57.60" width="4.80" height="38.40" />
      <rect x="57.60" y="57.60" width="19.20" height="9.60" />
      <rect x="86.40" y="57.60" width="24.00" height="9.60" />
      <rect x="115.20" y="57.60" width="9.60" height="9.60" />
      <rect x="153.60" y="57.60" width="4.80" height="48.00" />
      <rect x="0.00" y="67.20" width="14.40" height="19.20" />
      <rect x="67.20" y="67.20" width="9.60" height="9.60" />
      <rect x="81.60" y="67.20" width="24.00" height="9.60" />
      <rect x="115.20" y="67.20" width="4.80" height="9.60" />
      <rect x="129.60" y="67.20" width="14.40" height="9.60" />
      <rect x="24.00" y="76.80" width="9.60" height="19.20" />
      <rect x="57.60" y="76.80" width="9.60" height="9.60" />
      <rect x="72.00" y="76.80" width="19.20" height="9.60" />
      <rect x="96.00" y="76.80" width="28.80" height="9.60" />
      <rect x="129.60" y="76.80" width="19.20" height="28.80" />
      <rect x="0.00" y="86.40" width="19.20" height="19.20" />
      <rect x="62.40" y="86.40" width="4.80" height="9.60" />
      <rect x="91.20" y="86.40" width="4.80" height="9.60" />
      <rect x="115.20" y="86.40" width="4.80" height="9.60" />
      <rect x="163.20" y="86.40" width="9.60" height="9.60" />
      <rect x="28.80" y="96.00" width="4.80" height="9.60" />
      <rect x="48.00" y="96.00" width="14.40" height="9.60" />
      <rect x="76.80" y="96.00" width="4.80" height="9.60" />
      <rect x="91.20" y="96.00" width="14.40" height="9.60" />
      <rect x="110.40" y="96.00" width="9.60" height="9.60" />
      <rect x="163.20" y="96.00" width="4.80" height="9.60" />
   </g>
</svg>
