<?xml version="1.0" standalone="no"?>
<!DOCTYPE svg PUBLIC "-//W3C//DTD SVG 1.1//EN" "http://www.w3.org/Graphics/SVG/1.1/DTD/svg11.dtd">
<svg width="749" height="347" version="1.1" xmlns="http://www.w3.org/2000/svg">
 <desc>Zint Generated Symbol</desc>
 <g id="barcode" fill="#000000">
  <rect x="0" y="0" width="749" height="347" fill="#FFFFFF"/>
  <path d="M0 0h9.6v307.88h-9.6ZM14.4 0h4.8v307.88h-4.8ZM28.8 0h14.4v307.88h-14.4ZM52.8 0h19.2v307.88h-19.2ZM76.8 0h4.8v307.88h-4.8ZM86.4 0h14.4v307.88h-14.4ZM105.6 0h9.6v307.88h-9.6ZM120 0h9.6v307.88h-9.6ZM139.2 0h9.6v307.88h-9.6ZM158.4 0h4.8v307.88h-4.8ZM177.6 0h9.6v307.88h-9.6ZM192 0h4.8v307.88h-4.8ZM211.2 0h9.6v307.88h-9.6ZM230.4 0h4.8v307.88h-4.8ZM254.4 0h4.8v307.88h-4.8ZM264 0h14.4v307.88h-14.4ZM283.2 0h9.6v307.88h-9.6ZM297.6 0h14.4v307.88h-14.4ZM316.8 0h4.8v307.88h-4.8ZM326.4 0h14.4v307.88h-14.4ZM345.6 0h9.6v307.88h-9.6ZM369.6 0h9.6v307.88h-9.6ZM384 0h9.6v307.88h-9.6ZM403.2 0h9.6v307.88h-9.6ZM422.4 0h9.6v307.88h-9.6ZM436.8 0h9.6v307.88h-9.6ZM456 0h9.6v307.88h-9.6ZM475.2 0h9.6v307.88h-9.6ZM494.4 0h9.6v307.88h-9.6ZM508.8 0h9.6v307.88h-9.6ZM528 0h9.6v307.88h-9.6ZM542.4 0h9.6v307.88h-9.6ZM561.6 0h9.6v307.88h-9.6ZM580.8 0h9.6v307.88h-9.6ZM595.2 0h4.8v307.88h-4.8ZM614.4 0h4.8v307.88h-4.8ZM633.6 0h4.8v307.88h-4.8ZM643.2 0h14.4v307.88h-14.4ZM672 0h9.6v307.88h-9.6ZM686.4 0h9.6v307.88h-9.6ZM710.4 0h14.4v307.88h-14.4ZM729.6 0h4.8v307.88h-4.8ZM739.2 0h9.6v307.88h-9.6Z"/>
  <text x="374.4" y="339.91" text-anchor="middle" font-family="Arimo, Arial, sans-serif" font-size="33.6">
   (00)376123450000010039
  </text>
 </g>
</svg>
