<?xml version="1.0" standalone="no"?>
<!DOCTYPE svg PUBLIC "-//W3C//DTD SVG 1.1//EN"
   "http://www.w3.org/Graphics/SVG/1.1/DTD/svg11.dtd">
<svg width="749" height="354" version="1.1"
   xmlns="http://www.w3.org/2000/svg">
   <desc>Zint Generated Symbol
   </desc>

   <g id="barcode" fill="#000000">
      <rect x="0" y="0" width="749" height="354" fill="#FFFFFF" />
      <rect x="0.00" y="0.00" width="9.60" height="307.88" />
      <rect x="14.40" y="0.00" width="4.80" height="307.88" />
      <rect x="28.80" y="0.00" width="14.40" height="307.88" />
      <rect x="52.80" y="0.00" width="19.20" height="307.88" />
      <rect x="76.80" y="0.00" width="4.80" height="307.88" />
      <rect x="86.40" y="0.00" width="14.40" height="307.88" />
      <rect x="105.60" y="0.00" width="9.60" height="307.88" />
      <rect x="120.00" y="0.00" width="9.60" height="307.88" />
      <rect x="139.20" y="0.00" width="9.60" height="307.88" />
      <rect x="158.40" y="0.00" width="4.80" height="307.88" />
      <rect x="177.60" y="0.00" width="9.60" height="307.88" />
      <rect x="192.00" y="0.00" width="4.80" height="307.88" />
      <rect x="211.20" y="0.00" width="9.60" height="307.88" />
      <rect x="230.40" y="0.00" width="4.80" height="307.88" />
      <rect x="254.40" y="0.00" width="4.80" height="307.88" />
      <rect x="264.00" y="0.00" width="14.40" height="307.88" />
      <rect x="283.20" y="0.00" width="9.60" height="307.88" />
      <rect x="297.60" y="0.00" width="14.40" height="307.88" />
      <rect x="316.80" y="0.00" width="4.80" height="307.88" />
      <rect x="326.40" y="0.00" width="14.40" height="307.88" />
      <rect x="345.60" y="0.00" width="9.60" height="307.88" />
      <rect x="369.60" y="0.00" width="9.60" height="307.88" />
      <rect x="384.00" y="0.00" width="9.60" height="307.88" />
      <rect x="403.20" y="0.00" width="9.60" height="307.88" />
      <rect x="422.40" y="0.00" width="9.60" height="307.88" />
      <rect x="436.80" y="0.00" width="9.60" height="307.88" />
      <rect x="456.00" y="0.00" width="9.60" height="307.88" />
      <rect x="475.20" y="0.00" width="9.60" height="307.88" />
      <rect x="494.40" y="0.00" width="9.60" height="307.88" />
      <rect x="508.80" y="0.00" width="9.60" height="307.88" />
      <rect x="528.00" y="0.00" width="9.60" height="307.88" />
      <rect x="542.40" y="0.00" width="9.60" height="307.88" />
      <rect x="561.60" y="0.00" width="9.60" height="307.88" />
      <rect x="580.80" y="0.00" width="9.60" height="307.88" />
      <rect x="595.20" y="0.00" width="4.80" height="307.88" />
      <rect x="614.40" y="0.00" width="4.80" height="307.88" />
      <rect x="633.60" y="0.00" width="4.80" height="307.88" />
      <rect x="643.20" y="0.00" width="14.40" height="307.88" />
      <rect x="672.00" y="0.00" width="9.60" height="307.88" />
      <rect x="686.40" y="0.00" width="9.60" height="307.88" />
      <rect x="710.40" y="0.00" width="14.40" height="307.88" />
      <rect x="729.60" y="0.00" width="4.80" height="307.88" />
      <rect x="739.20" y="0.00" width="9.60" height="307.88" />
      <text x="374.40" y="341.48" text-anchor="middle"
         font-family="Helvetica, sans-serif" font-size="33.6" >
         (00)376123450000010039
      </text>
   </g>
</svg>
