<?xml version="1.0" standalone="no"?>
<!DOCTYPE svg PUBLIC "-//W3C//DTD SVG 1.1//EN"
   "http://www.w3.org/Graphics/SVG/1.1/DTD/svg11.dtd">
<svg width="83" height="26" version="1.1"
   xmlns="http://www.w3.org/2000/svg">
   <desc>Zint Generated Symbol
   </desc>

   <g id="barcode" fill="#000000">
      <rect x="0" y="0" width="83" height="26" fill="#FFFFFF" />
      <rect x="0.00" y="0.00" width="9.60" height="25.20" />
      <rect x="10.80" y="0.00" width="1.20" height="25.20" />
      <rect x="13.20" y="0.00" width="1.20" height="25.20" />
      <rect x="15.60" y="0.00" width="1.20" height="25.20" />
      <rect x="20.40" y="0.00" width="6.00" height="7.20" />
      <rect x="27.60" y="0.00" width="1.20" height="10.80" />
      <rect x="30.00" y="0.00" width="1.20" height="7.20" />
      <rect x="32.40" y="0.00" width="6.00" height="3.60" />
      <rect x="40.80" y="0.00" width="2.40" height="7.20" />
      <rect x="44.40" y="0.00" width="1.20" height="7.20" />
      <rect x="46.80" y="0.00" width="1.20" height="3.60" />
      <rect x="51.60" y="0.00" width="2.40" height="3.60" />
      <rect x="61.20" y="0.00" width="3.60" height="3.60" />
      <rect x="66.00" y="0.00" width="3.60" height="3.60" />
      <rect x="70.80" y="0.00" width="2.40" height="3.60" />
      <rect x="75.60" y="0.00" width="2.40" height="3.60" />
      <rect x="81.60" y="0.00" width="1.20" height="25.20" />
      <rect x="34.80" y="3.60" width="2.40" height="3.60" />
      <rect x="50.40" y="3.60" width="3.60" height="3.60" />
      <rect x="57.60" y="3.60" width="1.20" height="3.60" />
      <rect x="61.20" y="3.60" width="4.80" height="3.60" />
      <rect x="67.20" y="3.60" width="1.20" height="3.60" />
      <rect x="72.00" y="3.60" width="1.20" height="3.60" />
      <rect x="74.40" y="3.60" width="1.20" height="3.60" />
      <rect x="20.40" y="7.20" width="3.60" height="3.60" />
      <rect x="25.20" y="7.20" width="1.20" height="3.60" />
      <rect x="30.00" y="7.20" width="7.20" height="3.60" />
      <rect x="40.80" y="7.20" width="1.20" height="3.60" />
      <rect x="43.20" y="7.20" width="2.40" height="3.60" />
      <rect x="48.00" y="7.20" width="2.40" height="3.60" />
      <rect x="52.80" y="7.20" width="4.80" height="3.60" />
      <rect x="61.20" y="7.20" width="2.40" height="10.80" />
      <rect x="67.20" y="7.20" width="6.00" height="3.60" />
      <rect x="75.60" y="7.20" width="1.20" height="3.60" />
      <rect x="79.20" y="7.20" width="1.20" height="7.20" />
      <rect x="20.40" y="10.80" width="2.40" height="7.20" />
      <rect x="24.00" y="10.80" width="1.20" height="7.20" />
      <rect x="26.40" y="10.80" width="4.80" height="3.60" />
      <rect x="33.60" y="10.80" width="6.00" height="3.60" />
      <rect x="40.80" y="10.80" width="2.40" height="3.60" />
      <rect x="46.80" y="10.80" width="1.20" height="3.60" />
      <rect x="51.60" y="10.80" width="1.20" height="3.60" />
      <rect x="55.20" y="10.80" width="2.40" height="3.60" />
      <rect x="68.40" y="10.80" width="2.40" height="3.60" />
      <rect x="72.00" y="10.80" width="1.20" height="3.60" />
      <rect x="26.40" y="14.40" width="3.60" height="3.60" />
      <rect x="34.80" y="14.40" width="1.20" height="7.20" />
      <rect x="40.80" y="14.40" width="3.60" height="3.60" />
      <rect x="46.80" y="14.40" width="2.40" height="3.60" />
      <rect x="54.00" y="14.40" width="3.60" height="3.60" />
      <rect x="58.80" y="14.40" width="1.20" height="7.20" />
      <rect x="66.00" y="14.40" width="1.20" height="3.60" />
      <rect x="69.60" y="14.40" width="4.80" height="3.60" />
      <rect x="78.00" y="14.40" width="2.40" height="3.60" />
      <rect x="20.40" y="18.00" width="4.80" height="3.60" />
      <rect x="26.40" y="18.00" width="1.20" height="3.60" />
      <rect x="28.80" y="18.00" width="4.80" height="3.60" />
      <rect x="40.80" y="18.00" width="1.20" height="7.20" />
      <rect x="44.40" y="18.00" width="6.00" height="3.60" />
      <rect x="51.60" y="18.00" width="2.40" height="3.60" />
      <rect x="61.20" y="18.00" width="3.60" height="3.60" />
      <rect x="66.00" y="18.00" width="2.40" height="3.60" />
      <rect x="72.00" y="18.00" width="1.20" height="3.60" />
      <rect x="74.40" y="18.00" width="6.00" height="3.60" />
      <rect x="20.40" y="21.60" width="3.60" height="3.60" />
      <rect x="25.20" y="21.60" width="1.20" height="3.60" />
      <rect x="28.80" y="21.60" width="3.60" height="3.60" />
      <rect x="33.60" y="21.60" width="6.00" height="3.60" />
      <rect x="44.40" y="21.60" width="2.40" height="3.60" />
      <rect x="50.40" y="21.60" width="2.40" height="3.60" />
      <rect x="55.20" y="21.60" width="1.20" height="3.60" />
      <rect x="61.20" y="21.60" width="1.20" height="3.60" />
      <rect x="67.20" y="21.60" width="1.20" height="3.60" />
      <rect x="69.60" y="21.60" width="3.60" height="3.60" />
      <rect x="74.40" y="21.60" width="3.60" height="3.60" />
   </g>
</svg>
