<?xml version="1.0" standalone="no"?>
<!DOCTYPE svg PUBLIC "-//W3C//DTD SVG 1.1//EN"
   "http://www.w3.org/Graphics/SVG/1.1/DTD/svg11.dtd">
<svg width="495" height="154" version="1.1"
   xmlns="http://www.w3.org/2000/svg">
   <desc>Zint Generated Symbol
   </desc>

   <g id="barcode" fill="#000000">
      <rect x="0" y="0" width="495" height="154" fill="#FFFFFF" />
      <rect x="0.00" y="0.00" width="38.40" height="153.60" />
      <rect x="43.20" y="0.00" width="4.80" height="153.60" />
      <rect x="52.80" y="0.00" width="4.80" height="153.60" />
      <rect x="62.40" y="0.00" width="4.80" height="153.60" />
      <rect x="81.60" y="0.00" width="24.00" height="19.20" />
      <rect x="110.40" y="0.00" width="4.80" height="19.20" />
      <rect x="120.00" y="0.00" width="4.80" height="19.20" />
      <rect x="129.60" y="0.00" width="24.00" height="19.20" />
      <rect x="163.20" y="0.00" width="9.60" height="19.20" />
      <rect x="177.60" y="0.00" width="4.80" height="19.20" />
      <rect x="187.20" y="0.00" width="4.80" height="19.20" />
      <rect x="211.20" y="0.00" width="9.60" height="19.20" />
      <rect x="244.80" y="0.00" width="14.40" height="19.20" />
      <rect x="278.40" y="0.00" width="4.80" height="19.20" />
      <rect x="288.00" y="0.00" width="4.80" height="19.20" />
      <rect x="307.20" y="0.00" width="14.40" height="19.20" />
      <rect x="326.40" y="0.00" width="19.20" height="38.40" />
      <rect x="350.40" y="0.00" width="4.80" height="38.40" />
      <rect x="360.00" y="0.00" width="4.80" height="38.40" />
      <rect x="369.60" y="0.00" width="19.20" height="19.20" />
      <rect x="408.00" y="0.00" width="33.60" height="153.60" />
      <rect x="446.40" y="0.00" width="4.80" height="153.60" />
      <rect x="465.60" y="0.00" width="4.80" height="153.60" />
      <rect x="475.20" y="0.00" width="4.80" height="153.60" />
      <rect x="489.60" y="0.00" width="4.80" height="153.60" />
      <rect x="81.60" y="19.20" width="28.80" height="19.20" />
      <rect x="115.20" y="19.20" width="4.80" height="19.20" />
      <rect x="124.80" y="19.20" width="4.80" height="19.20" />
      <rect x="144.00" y="19.20" width="14.40" height="19.20" />
      <rect x="163.20" y="19.20" width="19.20" height="19.20" />
      <rect x="192.00" y="19.20" width="4.80" height="19.20" />
      <rect x="201.60" y="19.20" width="4.80" height="19.20" />
      <rect x="225.60" y="19.20" width="4.80" height="19.20" />
      <rect x="244.80" y="19.20" width="4.80" height="19.20" />
      <rect x="254.40" y="19.20" width="14.40" height="19.20" />
      <rect x="273.60" y="19.20" width="9.60" height="19.20" />
      <rect x="292.80" y="19.20" width="28.80" height="19.20" />
      <rect x="374.40" y="19.20" width="4.80" height="19.20" />
      <rect x="81.60" y="38.40" width="14.40" height="19.20" />
      <rect x="100.80" y="38.40" width="4.80" height="19.20" />
      <rect x="110.40" y="38.40" width="4.80" height="19.20" />
      <rect x="120.00" y="38.40" width="28.80" height="19.20" />
      <rect x="163.20" y="38.40" width="9.60" height="38.40" />
      <rect x="177.60" y="38.40" width="28.80" height="19.20" />
      <rect x="211.20" y="38.40" width="9.60" height="19.20" />
      <rect x="230.40" y="38.40" width="4.80" height="19.20" />
      <rect x="244.80" y="38.40" width="28.80" height="19.20" />
      <rect x="283.20" y="38.40" width="4.80" height="19.20" />
      <rect x="292.80" y="38.40" width="9.60" height="38.40" />
      <rect x="312.00" y="38.40" width="4.80" height="38.40" />
      <rect x="326.40" y="38.40" width="14.40" height="19.20" />
      <rect x="345.60" y="38.40" width="4.80" height="19.20" />
      <rect x="355.20" y="38.40" width="4.80" height="19.20" />
      <rect x="374.40" y="38.40" width="28.80" height="19.20" />
      <rect x="81.60" y="57.60" width="9.60" height="19.20" />
      <rect x="96.00" y="57.60" width="4.80" height="19.20" />
      <rect x="105.60" y="57.60" width="19.20" height="19.20" />
      <rect x="134.40" y="57.60" width="24.00" height="19.20" />
      <rect x="192.00" y="57.60" width="4.80" height="19.20" />
      <rect x="201.60" y="57.60" width="4.80" height="19.20" />
      <rect x="225.60" y="57.60" width="9.60" height="19.20" />
      <rect x="244.80" y="57.60" width="4.80" height="38.40" />
      <rect x="268.80" y="57.60" width="9.60" height="19.20" />
      <rect x="326.40" y="57.60" width="4.80" height="19.20" />
      <rect x="336.00" y="57.60" width="4.80" height="19.20" />
      <rect x="345.60" y="57.60" width="19.20" height="19.20" />
      <rect x="374.40" y="57.60" width="19.20" height="19.20" />
      <rect x="81.60" y="76.80" width="14.40" height="19.20" />
      <rect x="100.80" y="76.80" width="4.80" height="19.20" />
      <rect x="110.40" y="76.80" width="14.40" height="19.20" />
      <rect x="144.00" y="76.80" width="9.60" height="19.20" />
      <rect x="163.20" y="76.80" width="14.40" height="19.20" />
      <rect x="187.20" y="76.80" width="4.80" height="19.20" />
      <rect x="201.60" y="76.80" width="9.60" height="19.20" />
      <rect x="235.20" y="76.80" width="4.80" height="19.20" />
      <rect x="264.00" y="76.80" width="9.60" height="19.20" />
      <rect x="278.40" y="76.80" width="28.80" height="19.20" />
      <rect x="312.00" y="76.80" width="9.60" height="19.20" />
      <rect x="326.40" y="76.80" width="19.20" height="19.20" />
      <rect x="350.40" y="76.80" width="4.80" height="19.20" />
      <rect x="360.00" y="76.80" width="14.40" height="19.20" />
      <rect x="384.00" y="76.80" width="14.40" height="19.20" />
      <rect x="81.60" y="96.00" width="19.20" height="19.20" />
      <rect x="105.60" y="96.00" width="4.80" height="19.20" />
      <rect x="115.20" y="96.00" width="19.20" height="19.20" />
      <rect x="139.20" y="96.00" width="4.80" height="19.20" />
      <rect x="163.20" y="96.00" width="9.60" height="19.20" />
      <rect x="187.20" y="96.00" width="24.00" height="19.20" />
      <rect x="220.80" y="96.00" width="4.80" height="19.20" />
      <rect x="230.40" y="96.00" width="4.80" height="38.40" />
      <rect x="244.80" y="96.00" width="9.60" height="19.20" />
      <rect x="264.00" y="96.00" width="24.00" height="19.20" />
      <rect x="297.60" y="96.00" width="4.80" height="19.20" />
      <rect x="312.00" y="96.00" width="4.80" height="38.40" />
      <rect x="326.40" y="96.00" width="14.40" height="19.20" />
      <rect x="345.60" y="96.00" width="4.80" height="19.20" />
      <rect x="355.20" y="96.00" width="24.00" height="19.20" />
      <rect x="384.00" y="96.00" width="4.80" height="19.20" />
      <rect x="81.60" y="115.20" width="14.40" height="19.20" />
      <rect x="100.80" y="115.20" width="4.80" height="19.20" />
      <rect x="115.20" y="115.20" width="14.40" height="19.20" />
      <rect x="134.40" y="115.20" width="24.00" height="19.20" />
      <rect x="163.20" y="115.20" width="4.80" height="19.20" />
      <rect x="172.80" y="115.20" width="9.60" height="19.20" />
      <rect x="206.40" y="115.20" width="9.60" height="19.20" />
      <rect x="244.80" y="115.20" width="4.80" height="19.20" />
      <rect x="259.20" y="115.20" width="19.20" height="19.20" />
      <rect x="283.20" y="115.20" width="19.20" height="19.20" />
      <rect x="326.40" y="115.20" width="9.60" height="19.20" />
      <rect x="340.80" y="115.20" width="4.80" height="19.20" />
      <rect x="355.20" y="115.20" width="14.40" height="19.20" />
      <rect x="374.40" y="115.20" width="19.20" height="19.20" />
      <rect x="81.60" y="134.40" width="24.00" height="19.20" />
      <rect x="110.40" y="134.40" width="4.80" height="19.20" />
      <rect x="124.80" y="134.40" width="4.80" height="19.20" />
      <rect x="134.40" y="134.40" width="9.60" height="19.20" />
      <rect x="163.20" y="134.40" width="9.60" height="19.20" />
      <rect x="182.40" y="134.40" width="4.80" height="19.20" />
      <rect x="192.00" y="134.40" width="19.20" height="19.20" />
      <rect x="225.60" y="134.40" width="9.60" height="19.20" />
      <rect x="244.80" y="134.40" width="19.20" height="19.20" />
      <rect x="278.40" y="134.40" width="4.80" height="19.20" />
      <rect x="292.80" y="134.40" width="4.80" height="19.20" />
      <rect x="316.80" y="134.40" width="4.80" height="19.20" />
      <rect x="326.40" y="134.40" width="4.80" height="19.20" />
      <rect x="336.00" y="134.40" width="4.80" height="19.20" />
      <rect x="345.60" y="134.40" width="28.80" height="19.20" />
      <rect x="379.20" y="134.40" width="14.40" height="19.20" />
   </g>
</svg>
