<?xml version="1.0" standalone="no"?>
<!DOCTYPE svg PUBLIC "-//W3C//DTD SVG 1.1//EN" "http://www.w3.org/Graphics/SVG/1.1/DTD/svg11.dtd">
<svg width="495" height="154" version="1.1" xmlns="http://www.w3.org/2000/svg">
 <desc>Zint Generated Symbol</desc>
 <g id="barcode" fill="#000000">
  <rect x="0" y="0" width="495" height="154" fill="#FFFFFF"/>
  <path d="M0 0h38.4v153.6h-38.4ZM43.2 0h4.8v153.6h-4.8ZM52.8 0h4.8v153.6h-4.8ZM62.4 0h4.8v153.6h-4.8ZM81.6 0h24v19.2h-24ZM110.4 0h4.8v19.2h-4.8ZM120 0h4.8v19.2h-4.8ZM129.6 0h24v19.2h-24ZM163.2 0h9.6v19.2h-9.6ZM177.6 0h4.8v19.2h-4.8ZM187.2 0h4.8v19.2h-4.8ZM211.2 0h9.6v19.2h-9.6ZM244.8 0h14.4v19.2h-14.4ZM278.4 0h4.8v19.2h-4.8ZM288 0h4.8v19.2h-4.8ZM307.2 0h14.4v19.2h-14.4ZM326.4 0h19.2v38.4h-19.2ZM350.4 0h4.8v38.4h-4.8ZM360 0h4.8v38.4h-4.8ZM369.6 0h19.2v19.2h-19.2ZM408 0h33.6v153.6h-33.6ZM446.4 0h4.8v153.6h-4.8ZM465.6 0h4.8v153.6h-4.8ZM475.2 0h4.8v153.6h-4.8ZM489.6 0h4.8v153.6h-4.8ZM81.6 19.2h28.8v19.2h-28.8ZM115.2 19.2h4.8v19.2h-4.8ZM124.8 19.2h4.8v19.2h-4.8ZM144 19.2h14.4v19.2h-14.4ZM163.2 19.2h19.2v19.2h-19.2ZM192 19.2h4.8v19.2h-4.8ZM201.6 19.2h4.8v19.2h-4.8ZM225.6 19.2h4.8v19.2h-4.8ZM244.8 19.2h4.8v19.2h-4.8ZM254.4 19.2h14.4v19.2h-14.4ZM273.6 19.2h9.6v19.2h-9.6ZM292.8 19.2h28.8v19.2h-28.8ZM374.4 19.2h4.8v19.2h-4.8ZM81.6 38.4h14.4v19.2h-14.4ZM100.8 38.4h4.8v19.2h-4.8ZM110.4 38.4h4.8v19.2h-4.8ZM120 38.4h28.8v19.2h-28.8ZM163.2 38.4h9.6v38.4h-9.6ZM177.6 38.4h28.8v19.2h-28.8ZM211.2 38.4h9.6v19.2h-9.6ZM230.4 38.4h4.8v19.2h-4.8ZM244.8 38.4h28.8v19.2h-28.8ZM283.2 38.4h4.8v19.2h-4.8ZM292.8 38.4h9.6v38.4h-9.6ZM312 38.4h4.8v38.4h-4.8ZM326.4 38.4h14.4v19.2h-14.4ZM345.6 38.4h4.8v19.2h-4.8ZM355.2 38.4h4.8v19.2h-4.8ZM374.4 38.4h28.8v19.2h-28.8ZM81.6 57.6h9.6v19.2h-9.6ZM96 57.6h4.8v19.2h-4.8ZM105.6 57.6h19.2v19.2h-19.2ZM134.4 57.6h24v19.2h-24ZM192 57.6h4.8v19.2h-4.8ZM201.6 57.6h4.8v19.2h-4.8ZM225.6 57.6h9.6v19.2h-9.6ZM244.8 57.6h4.8v38.4h-4.8ZM268.8 57.6h9.6v19.2h-9.6ZM326.4 57.6h4.8v19.2h-4.8ZM336 57.6h4.8v19.2h-4.8ZM345.6 57.6h19.2v19.2h-19.2ZM374.4 57.6h19.2v19.2h-19.2ZM81.6 76.8h14.4v19.2h-14.4ZM100.8 76.8h4.8v19.2h-4.8ZM110.4 76.8h14.4v19.2h-14.4ZM144 76.8h9.6v19.2h-9.6ZM163.2 76.8h14.4v19.2h-14.4ZM187.2 76.8h4.8v19.2h-4.8ZM201.6 76.8h9.6v19.2h-9.6ZM235.2 76.8h4.8v19.2h-4.8ZM264 76.8h9.6v19.2h-9.6ZM278.4 76.8h28.8v19.2h-28.8ZM312 76.8h9.6v19.2h-9.6ZM326.4 76.8h19.2v19.2h-19.2ZM350.4 76.8h4.8v19.2h-4.8ZM360 76.8h14.4v19.2h-14.4ZM384 76.8h14.4v19.2h-14.4ZM81.6 96h19.2v19.2h-19.2ZM105.6 96h4.8v19.2h-4.8ZM115.2 96h19.2v19.2h-19.2ZM139.2 96h4.8v19.2h-4.8ZM163.2 96h9.6v19.2h-9.6ZM187.2 96h24v19.2h-24ZM220.8 96h4.8v19.2h-4.8ZM230.4 96h4.8v38.4h-4.8ZM244.8 96h9.6v19.2h-9.6ZM264 96h24v19.2h-24ZM297.6 96h4.8v19.2h-4.8ZM312 96h4.8v38.4h-4.8ZM326.4 96h14.4v19.2h-14.4ZM345.6 96h4.8v19.2h-4.8ZM355.2 96h24v19.2h-24ZM384 96h4.8v19.2h-4.8ZM81.6 115.2h14.4v19.2h-14.4ZM100.8 115.2h4.8v19.2h-4.8ZM115.2 115.2h14.4v19.2h-14.4ZM134.4 115.2h24v19.2h-24ZM163.2 115.2h4.8v19.2h-4.8ZM172.8 115.2h9.6v19.2h-9.6ZM206.4 115.2h9.6v19.2h-9.6ZM244.8 115.2h4.8v19.2h-4.8ZM259.2 115.2h19.2v19.2h-19.2ZM283.2 115.2h19.2v19.2h-19.2ZM326.4 115.2h9.6v19.2h-9.6ZM340.8 115.2h4.8v19.2h-4.8ZM355.2 115.2h14.4v19.2h-14.4ZM374.4 115.2h19.2v19.2h-19.2ZM81.6 134.4h24v19.2h-24ZM110.4 134.4h4.8v19.2h-4.8ZM124.8 134.4h4.8v19.2h-4.8ZM134.4 134.4h9.6v19.2h-9.6ZM163.2 134.4h9.6v19.2h-9.6ZM182.4 134.4h4.8v19.2h-4.8ZM192 134.4h19.2v19.2h-19.2ZM225.6 134.4h9.6v19.2h-9.6ZM244.8 134.4h19.2v19.2h-19.2ZM278.4 134.4h4.8v19.2h-4.8ZM292.8 134.4h4.8v19.2h-4.8ZM316.8 134.4h4.8v19.2h-4.8ZM326.4 134.4h4.8v19.2h-4.8ZM336 134.4h4.8v19.2h-4.8ZM345.6 134.4h28.8v19.2h-28.8ZM379.2 134.4h14.4v19.2h-14.4Z"/>
 </g>
</svg>
