<?xml version="1.0" standalone="no"?>
<!DOCTYPE svg PUBLIC "-//W3C//DTD SVG 1.1//EN"
   "http://www.w3.org/Graphics/SVG/1.1/DTD/svg11.dtd">
<svg width="124" height="39" version="1.1"
   xmlns="http://www.w3.org/2000/svg">
   <desc>Zint Generated Symbol
   </desc>

   <g id="barcode" fill="#000000">
      <rect x="0" y="0" width="124" height="39" fill="#FFFFFF" />
      <rect x="0.00" y="0.00" width="9.60" height="38.40" />
      <rect x="10.80" y="0.00" width="1.20" height="38.40" />
      <rect x="13.20" y="0.00" width="1.20" height="38.40" />
      <rect x="15.60" y="0.00" width="1.20" height="38.40" />
      <rect x="20.40" y="0.00" width="6.00" height="4.80" />
      <rect x="27.60" y="0.00" width="1.20" height="4.80" />
      <rect x="30.00" y="0.00" width="1.20" height="4.80" />
      <rect x="32.40" y="0.00" width="6.00" height="4.80" />
      <rect x="40.80" y="0.00" width="2.40" height="4.80" />
      <rect x="44.40" y="0.00" width="1.20" height="4.80" />
      <rect x="46.80" y="0.00" width="1.20" height="4.80" />
      <rect x="52.80" y="0.00" width="2.40" height="4.80" />
      <rect x="61.20" y="0.00" width="3.60" height="4.80" />
      <rect x="69.60" y="0.00" width="1.20" height="4.80" />
      <rect x="72.00" y="0.00" width="1.20" height="4.80" />
      <rect x="76.80" y="0.00" width="3.60" height="4.80" />
      <rect x="81.60" y="0.00" width="4.80" height="9.60" />
      <rect x="87.60" y="0.00" width="1.20" height="9.60" />
      <rect x="90.00" y="0.00" width="1.20" height="9.60" />
      <rect x="92.40" y="0.00" width="4.80" height="4.80" />
      <rect x="102.00" y="0.00" width="8.40" height="38.40" />
      <rect x="111.60" y="0.00" width="1.20" height="38.40" />
      <rect x="116.40" y="0.00" width="1.20" height="38.40" />
      <rect x="118.80" y="0.00" width="1.20" height="38.40" />
      <rect x="122.40" y="0.00" width="1.20" height="38.40" />
      <rect x="20.40" y="4.80" width="7.20" height="4.80" />
      <rect x="28.80" y="4.80" width="1.20" height="4.80" />
      <rect x="31.20" y="4.80" width="1.20" height="4.80" />
      <rect x="36.00" y="4.80" width="3.60" height="4.80" />
      <rect x="40.80" y="4.80" width="4.80" height="4.80" />
      <rect x="48.00" y="4.80" width="1.20" height="4.80" />
      <rect x="50.40" y="4.80" width="1.20" height="4.80" />
      <rect x="56.40" y="4.80" width="1.20" height="4.80" />
      <rect x="61.20" y="4.80" width="1.20" height="4.80" />
      <rect x="63.60" y="4.80" width="3.60" height="4.80" />
      <rect x="68.40" y="4.80" width="2.40" height="4.80" />
      <rect x="73.20" y="4.80" width="7.20" height="4.80" />
      <rect x="93.60" y="4.80" width="1.20" height="4.80" />
      <rect x="20.40" y="9.60" width="3.60" height="4.80" />
      <rect x="25.20" y="9.60" width="1.20" height="4.80" />
      <rect x="27.60" y="9.60" width="1.20" height="4.80" />
      <rect x="30.00" y="9.60" width="7.20" height="4.80" />
      <rect x="40.80" y="9.60" width="2.40" height="9.60" />
      <rect x="44.40" y="9.60" width="7.20" height="4.80" />
      <rect x="52.80" y="9.60" width="2.40" height="4.80" />
      <rect x="57.60" y="9.60" width="1.20" height="4.80" />
      <rect x="61.20" y="9.60" width="7.20" height="4.80" />
      <rect x="70.80" y="9.60" width="1.20" height="4.80" />
      <rect x="73.20" y="9.60" width="2.40" height="9.60" />
      <rect x="78.00" y="9.60" width="1.20" height="9.60" />
      <rect x="81.60" y="9.60" width="3.60" height="4.80" />
      <rect x="86.40" y="9.60" width="1.20" height="4.80" />
      <rect x="88.80" y="9.60" width="1.20" height="4.80" />
      <rect x="93.60" y="9.60" width="7.20" height="4.80" />
      <rect x="20.40" y="14.40" width="2.40" height="4.80" />
      <rect x="24.00" y="14.40" width="1.20" height="4.80" />
      <rect x="26.40" y="14.40" width="4.80" height="4.80" />
      <rect x="33.60" y="14.40" width="6.00" height="4.80" />
      <rect x="48.00" y="14.40" width="1.20" height="4.80" />
      <rect x="50.40" y="14.40" width="1.20" height="4.80" />
      <rect x="56.40" y="14.40" width="2.40" height="4.80" />
      <rect x="61.20" y="14.40" width="1.20" height="9.60" />
      <rect x="67.20" y="14.40" width="2.40" height="4.80" />
      <rect x="81.60" y="14.40" width="1.20" height="4.80" />
      <rect x="84.00" y="14.40" width="1.20" height="4.80" />
      <rect x="86.40" y="14.40" width="4.80" height="4.80" />
      <rect x="93.60" y="14.40" width="4.80" height="4.80" />
      <rect x="20.40" y="19.20" width="3.60" height="4.80" />
      <rect x="25.20" y="19.20" width="1.20" height="4.80" />
      <rect x="27.60" y="19.20" width="3.60" height="4.80" />
      <rect x="36.00" y="19.20" width="2.40" height="4.80" />
      <rect x="40.80" y="19.20" width="3.60" height="4.80" />
      <rect x="46.80" y="19.20" width="1.20" height="4.80" />
      <rect x="50.40" y="19.20" width="2.40" height="4.80" />
      <rect x="58.80" y="19.20" width="1.20" height="4.80" />
      <rect x="66.00" y="19.20" width="2.40" height="4.80" />
      <rect x="69.60" y="19.20" width="7.20" height="4.80" />
      <rect x="78.00" y="19.20" width="2.40" height="4.80" />
      <rect x="81.60" y="19.20" width="4.80" height="4.80" />
      <rect x="87.60" y="19.20" width="1.20" height="4.80" />
      <rect x="90.00" y="19.20" width="3.60" height="4.80" />
      <rect x="96.00" y="19.20" width="3.60" height="4.80" />
      <rect x="20.40" y="24.00" width="4.80" height="4.80" />
      <rect x="26.40" y="24.00" width="1.20" height="4.80" />
      <rect x="28.80" y="24.00" width="4.80" height="4.80" />
      <rect x="34.80" y="24.00" width="1.20" height="4.80" />
      <rect x="40.80" y="24.00" width="2.40" height="4.80" />
      <rect x="46.80" y="24.00" width="6.00" height="4.80" />
      <rect x="55.20" y="24.00" width="1.20" height="4.80" />
      <rect x="57.60" y="24.00" width="1.20" height="9.60" />
      <rect x="61.20" y="24.00" width="2.40" height="4.80" />
      <rect x="66.00" y="24.00" width="6.00" height="4.80" />
      <rect x="74.40" y="24.00" width="1.20" height="4.80" />
      <rect x="78.00" y="24.00" width="1.20" height="9.60" />
      <rect x="81.60" y="24.00" width="3.60" height="4.80" />
      <rect x="86.40" y="24.00" width="1.20" height="4.80" />
      <rect x="88.80" y="24.00" width="6.00" height="4.80" />
      <rect x="96.00" y="24.00" width="1.20" height="4.80" />
      <rect x="20.40" y="28.80" width="3.60" height="4.80" />
      <rect x="25.20" y="28.80" width="1.20" height="4.80" />
      <rect x="28.80" y="28.80" width="3.60" height="4.80" />
      <rect x="33.60" y="28.80" width="6.00" height="4.80" />
      <rect x="40.80" y="28.80" width="1.20" height="4.80" />
      <rect x="43.20" y="28.80" width="2.40" height="4.80" />
      <rect x="51.60" y="28.80" width="2.40" height="4.80" />
      <rect x="61.20" y="28.80" width="1.20" height="4.80" />
      <rect x="64.80" y="28.80" width="4.80" height="4.80" />
      <rect x="70.80" y="28.80" width="4.80" height="4.80" />
      <rect x="81.60" y="28.80" width="2.40" height="4.80" />
      <rect x="85.20" y="28.80" width="1.20" height="4.80" />
      <rect x="88.80" y="28.80" width="3.60" height="4.80" />
      <rect x="93.60" y="28.80" width="4.80" height="4.80" />
      <rect x="20.40" y="33.60" width="6.00" height="4.80" />
      <rect x="27.60" y="33.60" width="1.20" height="4.80" />
      <rect x="31.20" y="33.60" width="1.20" height="4.80" />
      <rect x="33.60" y="33.60" width="2.40" height="4.80" />
      <rect x="40.80" y="33.60" width="2.40" height="4.80" />
      <rect x="45.60" y="33.60" width="1.20" height="4.80" />
      <rect x="48.00" y="33.60" width="4.80" height="4.80" />
      <rect x="56.40" y="33.60" width="2.40" height="4.80" />
      <rect x="61.20" y="33.60" width="4.80" height="4.80" />
      <rect x="69.60" y="33.60" width="1.20" height="4.80" />
      <rect x="73.20" y="33.60" width="1.20" height="4.80" />
      <rect x="79.20" y="33.60" width="1.20" height="4.80" />
      <rect x="81.60" y="33.60" width="1.20" height="4.80" />
      <rect x="84.00" y="33.60" width="1.20" height="4.80" />
      <rect x="86.40" y="33.60" width="7.20" height="4.80" />
      <rect x="94.80" y="33.60" width="3.60" height="4.80" />
   </g>
</svg>
