<?xml version="1.0" standalone="no"?>
<!DOCTYPE svg PUBLIC "-//W3C//DTD SVG 1.1//EN"
   "http://www.w3.org/Graphics/SVG/1.1/DTD/svg11.dtd">
<svg width="336" height="77" version="1.1"
   xmlns="http://www.w3.org/2000/svg">
   <desc>Zint Generated Symbol
   </desc>

   <g id="barcode" fill="#000000">
      <rect x="0" y="0" width="336" height="77" fill="#FFFFFF" />
      <rect x="0.00" y="0.00" width="14.40" height="76.80" />
      <rect x="24.00" y="0.00" width="14.40" height="76.80" />
      <rect x="48.00" y="0.00" width="14.40" height="76.80" />
      <rect x="72.00" y="0.00" width="14.40" height="76.80" />
      <rect x="96.00" y="0.00" width="14.40" height="76.80" />
      <rect x="120.00" y="0.00" width="14.40" height="76.80" />
      <rect x="144.00" y="0.00" width="4.80" height="76.80" />
      <rect x="158.40" y="0.00" width="4.80" height="76.80" />
      <rect x="172.80" y="0.00" width="4.80" height="76.80" />
      <rect x="187.20" y="0.00" width="14.40" height="76.80" />
      <rect x="211.20" y="0.00" width="14.40" height="76.80" />
      <rect x="235.20" y="0.00" width="14.40" height="76.80" />
      <rect x="259.20" y="0.00" width="14.40" height="76.80" />
      <rect x="283.20" y="0.00" width="4.80" height="76.80" />
      <rect x="297.60" y="0.00" width="14.40" height="76.80" />
      <rect x="321.60" y="0.00" width="14.40" height="76.80" />
   </g>
</svg>
