<?xml version="1.0" standalone="no"?>
<!DOCTYPE svg PUBLIC "-//W3C//DTD SVG 1.1//EN" "http://www.w3.org/Graphics/SVG/1.1/DTD/svg11.dtd">
<svg width="336" height="77" version="1.1" xmlns="http://www.w3.org/2000/svg">
 <desc>Zint Generated Symbol</desc>
 <g id="barcode" fill="#000000">
  <rect x="0" y="0" width="336" height="77" fill="#FFFFFF"/>
  <path d="M0 0h14.4v76.8h-14.4ZM24 0h14.4v76.8h-14.4ZM48 0h14.4v76.8h-14.4ZM72 0h14.4v76.8h-14.4ZM96 0h14.4v76.8h-14.4ZM120 0h14.4v76.8h-14.4ZM144 0h4.8v76.8h-4.8ZM158.4 0h4.8v76.8h-4.8ZM172.8 0h4.8v76.8h-4.8ZM187.2 0h14.4v76.8h-14.4ZM211.2 0h14.4v76.8h-14.4ZM235.2 0h14.4v76.8h-14.4ZM259.2 0h14.4v76.8h-14.4ZM283.2 0h4.8v76.8h-4.8ZM297.6 0h14.4v76.8h-14.4ZM321.6 0h14.4v76.8h-14.4Z"/>
 </g>
</svg>
