<?xml version="1.0" standalone="no"?>
<!DOCTYPE svg PUBLIC "-//W3C//DTD SVG 1.1//EN"
   "http://www.w3.org/Graphics/SVG/1.1/DTD/svg11.dtd">
<svg width="248" height="64" version="1.1"
   xmlns="http://www.w3.org/2000/svg">
   <desc>Zint Generated Symbol
   </desc>

   <g id="barcode" fill="#000000">
      <rect x="0" y="0" width="248" height="64" fill="#FFFFFF" />
      <rect x="16.00" y="0.00" width="8.00" height="32.00" />
      <rect x="32.00" y="0.00" width="8.00" height="64.00" />
      <rect x="64.00" y="0.00" width="8.00" height="64.00" />
      <rect x="96.00" y="0.00" width="8.00" height="32.00" />
      <rect x="112.00" y="0.00" width="8.00" height="32.00" />
      <rect x="144.00" y="0.00" width="8.00" height="32.00" />
      <rect x="160.00" y="0.00" width="8.00" height="32.00" />
      <rect x="192.00" y="0.00" width="8.00" height="64.00" />
      <rect x="224.00" y="0.00" width="8.00" height="32.00" />
      <rect x="240.00" y="0.00" width="8.00" height="32.00" />
      <rect x="0.00" y="32.00" width="8.00" height="32.00" />
      <rect x="48.00" y="32.00" width="8.00" height="32.00" />
      <rect x="80.00" y="32.00" width="8.00" height="32.00" />
      <rect x="128.00" y="32.00" width="8.00" height="32.00" />
      <rect x="176.00" y="32.00" width="8.00" height="32.00" />
      <rect x="208.00" y="32.00" width="8.00" height="32.00" />
   </g>
</svg>
