<?xml version="1.0" standalone="no"?>
<!DOCTYPE svg PUBLIC "-//W3C//DTD SVG 1.1//EN"
   "http://www.w3.org/Graphics/SVG/1.1/DTD/svg11.dtd">
<svg width="62" height="16" version="1.1"
   xmlns="http://www.w3.org/2000/svg">
   <desc>Zint Generated Symbol
   </desc>

   <g id="barcode" fill="#000000">
      <rect x="0" y="0" width="62" height="16" fill="#FFFFFF" />
      <rect x="4.00" y="0.00" width="2.00" height="8.00" />
      <rect x="8.00" y="0.00" width="2.00" height="16.00" />
      <rect x="16.00" y="0.00" width="2.00" height="16.00" />
      <rect x="24.00" y="0.00" width="2.00" height="8.00" />
      <rect x="28.00" y="0.00" width="2.00" height="8.00" />
      <rect x="36.00" y="0.00" width="2.00" height="8.00" />
      <rect x="40.00" y="0.00" width="2.00" height="8.00" />
      <rect x="48.00" y="0.00" width="2.00" height="16.00" />
      <rect x="56.00" y="0.00" width="2.00" height="8.00" />
      <rect x="60.00" y="0.00" width="2.00" height="8.00" />
      <rect x="0.00" y="8.00" width="2.00" height="8.00" />
      <rect x="12.00" y="8.00" width="2.00" height="8.00" />
      <rect x="20.00" y="8.00" width="2.00" height="8.00" />
      <rect x="32.00" y="8.00" width="2.00" height="8.00" />
      <rect x="44.00" y="8.00" width="2.00" height="8.00" />
      <rect x="52.00" y="8.00" width="2.00" height="8.00" />
   </g>
</svg>
