<?xml version="1.0" standalone="no"?>
<!DOCTYPE svg PUBLIC "-//W3C//DTD SVG 1.1//EN"
   "http://www.w3.org/Graphics/SVG/1.1/DTD/svg11.dtd">
<svg width="84" height="20" version="1.1"
   xmlns="http://www.w3.org/2000/svg">
   <desc>Zint Generated Symbol
   </desc>

   <g id="barcode" fill="#000000">
      <rect x="0" y="0" width="84" height="20" fill="#FFFFFF" />
      <rect x="0.00" y="0.00" width="3.60" height="19.20" />
      <rect x="6.00" y="0.00" width="3.60" height="19.20" />
      <rect x="12.00" y="0.00" width="3.60" height="19.20" />
      <rect x="18.00" y="0.00" width="3.60" height="19.20" />
      <rect x="24.00" y="0.00" width="3.60" height="19.20" />
      <rect x="30.00" y="0.00" width="3.60" height="19.20" />
      <rect x="36.00" y="0.00" width="1.20" height="19.20" />
      <rect x="39.60" y="0.00" width="1.20" height="19.20" />
      <rect x="43.20" y="0.00" width="1.20" height="19.20" />
      <rect x="46.80" y="0.00" width="3.60" height="19.20" />
      <rect x="52.80" y="0.00" width="3.60" height="19.20" />
      <rect x="58.80" y="0.00" width="3.60" height="19.20" />
      <rect x="64.80" y="0.00" width="3.60" height="19.20" />
      <rect x="70.80" y="0.00" width="1.20" height="19.20" />
      <rect x="74.40" y="0.00" width="3.60" height="19.20" />
      <rect x="80.40" y="0.00" width="3.60" height="19.20" />
   </g>
</svg>
