<?xml version="1.0" standalone="no"?>
<!DOCTYPE svg PUBLIC "-//W3C//DTD SVG 1.1//EN"
   "http://www.w3.org/Graphics/SVG/1.1/DTD/svg11.dtd">
<svg width="138" height="72" version="1.1"
   xmlns="http://www.w3.org/2000/svg">
   <desc>Zint Generated Symbol
   </desc>

   <g id="barcode" fill="#000000">
      <rect x="0" y="0" width="138" height="72" fill="#FFFFFF" />
      <rect x="0.00" y="0.00" width="3.60" height="60.00" />
      <rect x="4.80" y="0.00" width="3.60" height="60.00" />
      <rect x="9.60" y="0.00" width="1.20" height="60.00" />
      <rect x="14.40" y="0.00" width="3.60" height="60.00" />
      <rect x="19.20" y="0.00" width="1.20" height="60.00" />
      <rect x="24.00" y="0.00" width="1.20" height="60.00" />
      <rect x="28.80" y="0.00" width="3.60" height="60.00" />
      <rect x="33.60" y="0.00" width="3.60" height="60.00" />
      <rect x="38.40" y="0.00" width="1.20" height="60.00" />
      <rect x="43.20" y="0.00" width="3.60" height="60.00" />
      <rect x="48.00" y="0.00" width="3.60" height="60.00" />
      <rect x="52.80" y="0.00" width="1.20" height="60.00" />
      <rect x="57.60" y="0.00" width="1.20" height="60.00" />
      <rect x="62.40" y="0.00" width="1.20" height="60.00" />
      <rect x="67.20" y="0.00" width="3.60" height="60.00" />
      <rect x="72.00" y="0.00" width="1.20" height="60.00" />
      <rect x="76.80" y="0.00" width="1.20" height="60.00" />
      <rect x="81.60" y="0.00" width="1.20" height="60.00" />
      <rect x="86.40" y="0.00" width="3.60" height="60.00" />
      <rect x="91.20" y="0.00" width="3.60" height="60.00" />
      <rect x="96.00" y="0.00" width="1.20" height="60.00" />
      <rect x="100.80" y="0.00" width="1.20" height="60.00" />
      <rect x="105.60" y="0.00" width="3.60" height="60.00" />
      <rect x="110.40" y="0.00" width="1.20" height="60.00" />
      <rect x="115.20" y="0.00" width="3.60" height="60.00" />
      <rect x="122.40" y="0.00" width="1.20" height="60.00" />
      <rect x="127.20" y="0.00" width="1.20" height="60.00" />
      <rect x="129.60" y="0.00" width="3.60" height="60.00" />
      <rect x="134.40" y="0.00" width="3.60" height="60.00" />
      <text x="69.00" y="69.24" text-anchor="middle"
         font-family="Helvetica, sans-serif" font-size="8.4" >
         C64
      </text>
   </g>
</svg>
