<?xml version="1.0" standalone="no"?>
<!DOCTYPE svg PUBLIC "-//W3C//DTD SVG 1.1//EN"
   "http://www.w3.org/Graphics/SVG/1.1/DTD/svg11.dtd">
<svg width="552" height="286" version="1.1"
   xmlns="http://www.w3.org/2000/svg">
   <desc>Zint Generated Symbol
   </desc>

   <g id="barcode" fill="#000000">
      <rect x="0" y="0" width="552" height="286" fill="#FFFFFF" />
      <rect x="0.00" y="0.00" width="14.40" height="240.00" />
      <rect x="19.20" y="0.00" width="14.40" height="240.00" />
      <rect x="38.40" y="0.00" width="4.80" height="240.00" />
      <rect x="57.60" y="0.00" width="14.40" height="240.00" />
      <rect x="76.80" y="0.00" width="4.80" height="240.00" />
      <rect x="96.00" y="0.00" width="4.80" height="240.00" />
      <rect x="115.20" y="0.00" width="14.40" height="240.00" />
      <rect x="134.40" y="0.00" width="14.40" height="240.00" />
      <rect x="153.60" y="0.00" width="4.80" height="240.00" />
      <rect x="172.80" y="0.00" width="14.40" height="240.00" />
      <rect x="192.00" y="0.00" width="14.40" height="240.00" />
      <rect x="211.20" y="0.00" width="4.80" height="240.00" />
      <rect x="230.40" y="0.00" width="4.80" height="240.00" />
      <rect x="249.60" y="0.00" width="4.80" height="240.00" />
      <rect x="268.80" y="0.00" width="14.40" height="240.00" />
      <rect x="288.00" y="0.00" width="4.80" height="240.00" />
      <rect x="307.20" y="0.00" width="4.80" height="240.00" />
      <rect x="326.40" y="0.00" width="4.80" height="240.00" />
      <rect x="345.60" y="0.00" width="14.40" height="240.00" />
      <rect x="364.80" y="0.00" width="14.40" height="240.00" />
      <rect x="384.00" y="0.00" width="4.80" height="240.00" />
      <rect x="403.20" y="0.00" width="4.80" height="240.00" />
      <rect x="422.40" y="0.00" width="14.40" height="240.00" />
      <rect x="441.60" y="0.00" width="4.80" height="240.00" />
      <rect x="460.80" y="0.00" width="14.40" height="240.00" />
      <rect x="489.60" y="0.00" width="4.80" height="240.00" />
      <rect x="508.80" y="0.00" width="4.80" height="240.00" />
      <rect x="518.40" y="0.00" width="14.40" height="240.00" />
      <rect x="537.60" y="0.00" width="14.40" height="240.00" />
      <text x="276.00" y="273.60" text-anchor="middle"
         font-family="Helvetica, sans-serif" font-size="33.6" >
         C64
      </text>
   </g>
</svg>
