<?xml version="1.0" standalone="no"?>
<!DOCTYPE svg PUBLIC "-//W3C//DTD SVG 1.1//EN" "http://www.w3.org/Graphics/SVG/1.1/DTD/svg11.dtd">
<svg width="984" height="43" version="1.1" xmlns="http://www.w3.org/2000/svg">
 <desc>Zint Generated Symbol</desc>
 <g id="barcode" fill="#000000">
  <rect x="0" y="0" width="984" height="43" fill="#FFFFFF"/>
  <path d="M0 0h8v43h-8ZM64 0h8v43h-8ZM80 0h8v43h-8ZM128 0h8v43h-8ZM160 0h8v43h-8ZM208 0h8v43h-8ZM224 0h8v43h-8ZM272 0h8v43h-8ZM320 0h8v43h-8ZM352 0h8v43h-8ZM384 0h8v43h-8ZM432 0h8v43h-8ZM448 0h8v43h-8ZM496 0h8v43h-8ZM560 0h8v43h-8ZM576 0h8v43h-8ZM624 0h8v43h-8ZM656 0h8v43h-8ZM688 0h8v43h-8ZM736 0h8v43h-8ZM752 0h8v43h-8ZM864 0h8v43h-8ZM880 0h8v43h-8ZM912 0h8v43h-8ZM960 0h8v43h-8ZM976 0h8v43h-8ZM16 25.8h8v17.2h-8ZM32 25.8h8v17.2h-8ZM48 25.8h8v17.2h-8ZM96 25.8h8v17.2h-8ZM112 25.8h8v17.2h-8ZM144 25.8h8v17.2h-8ZM176 25.8h8v17.2h-8ZM192 25.8h8v17.2h-8ZM240 25.8h8v17.2h-8ZM256 25.8h8v17.2h-8ZM288 25.8h8v17.2h-8ZM304 25.8h8v17.2h-8ZM336 25.8h8v17.2h-8ZM368 25.8h8v17.2h-8ZM400 25.8h8v17.2h-8ZM416 25.8h8v17.2h-8ZM464 25.8h8v17.2h-8ZM480 25.8h8v17.2h-8ZM512 25.8h8v17.2h-8ZM528 25.8h8v17.2h-8ZM544 25.8h8v17.2h-8ZM592 25.8h8v17.2h-8ZM608 25.8h8v17.2h-8ZM640 25.8h8v17.2h-8ZM672 25.8h8v17.2h-8ZM704 25.8h8v17.2h-8ZM720 25.8h8v17.2h-8ZM768 25.8h8v17.2h-8ZM784 25.8h8v17.2h-8ZM800 25.8h8v17.2h-8ZM816 25.8h8v17.2h-8ZM832 25.8h8v17.2h-8ZM848 25.8h8v17.2h-8ZM896 25.8h8v17.2h-8ZM928 25.8h8v17.2h-8ZM944 25.8h8v17.2h-8Z"/>
 </g>
</svg>
