<?xml version="1.0" standalone="no"?>
<!DOCTYPE svg PUBLIC "-//W3C//DTD SVG 1.1//EN"
   "http://www.w3.org/Graphics/SVG/1.1/DTD/svg11.dtd">
<svg width="171" height="60" version="1.1"
   xmlns="http://www.w3.org/2000/svg">
   <desc>Zint Generated Symbol
   </desc>

   <g id="barcode" fill="#000000">
      <rect x="0" y="0" width="171" height="60" fill="#FFFFFF" />
      <rect x="0.00" y="0.00" width="1.20" height="48.00" />
      <rect x="3.60" y="0.00" width="1.20" height="48.00" />
      <rect x="6.00" y="0.00" width="2.40" height="48.00" />
      <rect x="9.60" y="0.00" width="2.40" height="48.00" />
      <rect x="13.20" y="0.00" width="1.20" height="48.00" />
      <rect x="15.60" y="0.00" width="1.20" height="48.00" />
      <rect x="19.20" y="0.00" width="1.20" height="48.00" />
      <rect x="21.60" y="0.00" width="1.20" height="48.00" />
      <rect x="24.00" y="0.00" width="2.40" height="48.00" />
      <rect x="27.60" y="0.00" width="2.40" height="48.00" />
      <rect x="31.20" y="0.00" width="1.20" height="48.00" />
      <rect x="33.60" y="0.00" width="2.40" height="48.00" />
      <rect x="38.40" y="0.00" width="1.20" height="48.00" />
      <rect x="40.80" y="0.00" width="1.20" height="48.00" />
      <rect x="43.20" y="0.00" width="2.40" height="48.00" />
      <rect x="46.80" y="0.00" width="1.20" height="48.00" />
      <rect x="49.20" y="0.00" width="1.20" height="48.00" />
      <rect x="52.80" y="0.00" width="1.20" height="48.00" />
      <rect x="55.20" y="0.00" width="2.40" height="48.00" />
      <rect x="58.80" y="0.00" width="2.40" height="48.00" />
      <rect x="62.40" y="0.00" width="2.40" height="48.00" />
      <rect x="66.00" y="0.00" width="1.20" height="48.00" />
      <rect x="69.60" y="0.00" width="2.40" height="48.00" />
      <rect x="73.20" y="0.00" width="1.20" height="48.00" />
      <rect x="75.60" y="0.00" width="1.20" height="48.00" />
      <rect x="78.00" y="0.00" width="2.40" height="48.00" />
      <rect x="81.60" y="0.00" width="1.20" height="48.00" />
      <rect x="85.20" y="0.00" width="1.20" height="48.00" />
      <rect x="87.60" y="0.00" width="2.40" height="48.00" />
      <rect x="91.20" y="0.00" width="1.20" height="48.00" />
      <rect x="93.60" y="0.00" width="1.20" height="48.00" />
      <rect x="96.00" y="0.00" width="1.20" height="48.00" />
      <rect x="99.60" y="0.00" width="2.40" height="48.00" />
      <rect x="103.20" y="0.00" width="2.40" height="48.00" />
      <rect x="106.80" y="0.00" width="1.20" height="48.00" />
      <rect x="109.20" y="0.00" width="2.40" height="48.00" />
      <rect x="112.80" y="0.00" width="1.20" height="48.00" />
      <rect x="116.40" y="0.00" width="1.20" height="48.00" />
      <rect x="118.80" y="0.00" width="2.40" height="48.00" />
      <rect x="122.40" y="0.00" width="1.20" height="48.00" />
      <rect x="124.80" y="0.00" width="1.20" height="48.00" />
      <rect x="127.20" y="0.00" width="2.40" height="48.00" />
      <rect x="132.00" y="0.00" width="1.20" height="48.00" />
      <rect x="134.40" y="0.00" width="2.40" height="48.00" />
      <rect x="138.00" y="0.00" width="1.20" height="48.00" />
      <rect x="140.40" y="0.00" width="1.20" height="48.00" />
      <rect x="142.80" y="0.00" width="2.40" height="48.00" />
      <rect x="147.60" y="0.00" width="1.20" height="48.00" />
      <rect x="150.00" y="0.00" width="2.40" height="48.00" />
      <rect x="153.60" y="0.00" width="1.20" height="48.00" />
      <rect x="156.00" y="0.00" width="1.20" height="48.00" />
      <rect x="159.60" y="0.00" width="1.20" height="48.00" />
      <rect x="162.00" y="0.00" width="2.40" height="48.00" />
      <rect x="165.60" y="0.00" width="2.40" height="48.00" />
      <rect x="169.20" y="0.00" width="1.20" height="48.00" />
      <text x="85.20" y="57.24" text-anchor="middle"
         font-family="Helvetica, sans-serif" font-size="8.4" >
         PZN -27580899
      </text>
   </g>
</svg>
