<?xml version="1.0" standalone="no"?>
<!DOCTYPE svg PUBLIC "-//W3C//DTD SVG 1.1//EN"
   "http://www.w3.org/Graphics/SVG/1.1/DTD/svg11.dtd">
<svg width="51" height="51" version="1.1"
   xmlns="http://www.w3.org/2000/svg">
   <desc>Zint Generated Symbol
   </desc>

   <g id="barcode" fill="#000000">
      <rect x="0" y="0" width="51" height="51" fill="#FFFFFF" />
      <rect x="0.00" y="0.00" width="16.80" height="2.40" />
      <rect x="26.40" y="0.00" width="4.80" height="4.80" />
      <rect x="33.60" y="0.00" width="16.80" height="2.40" />
      <rect x="0.00" y="2.40" width="2.40" height="12.00" />
      <rect x="14.40" y="2.40" width="2.40" height="12.00" />
      <rect x="19.20" y="2.40" width="2.40" height="2.40" />
      <rect x="33.60" y="2.40" width="2.40" height="12.00" />
      <rect x="48.00" y="2.40" width="2.40" height="12.00" />
      <rect x="4.80" y="4.80" width="7.20" height="7.20" />
      <rect x="19.20" y="4.80" width="7.20" height="2.40" />
      <rect x="28.80" y="4.80" width="2.40" height="2.40" />
      <rect x="38.40" y="4.80" width="7.20" height="7.20" />
      <rect x="19.20" y="7.20" width="2.40" height="2.40" />
      <rect x="24.00" y="7.20" width="2.40" height="2.40" />
      <rect x="28.80" y="9.60" width="2.40" height="9.60" />
      <rect x="24.00" y="12.00" width="2.40" height="4.80" />
      <rect x="0.00" y="14.40" width="16.80" height="2.40" />
      <rect x="19.20" y="14.40" width="2.40" height="2.40" />
      <rect x="33.60" y="14.40" width="16.80" height="2.40" />
      <rect x="19.20" y="16.80" width="4.80" height="2.40" />
      <rect x="0.00" y="19.20" width="2.40" height="4.80" />
      <rect x="14.40" y="19.20" width="2.40" height="2.40" />
      <rect x="19.20" y="19.20" width="9.60" height="2.40" />
      <rect x="31.20" y="19.20" width="4.80" height="2.40" />
      <rect x="40.80" y="19.20" width="7.20" height="2.40" />
      <rect x="9.60" y="21.60" width="2.40" height="2.40" />
      <rect x="19.20" y="21.60" width="7.20" height="2.40" />
      <rect x="33.60" y="21.60" width="2.40" height="2.40" />
      <rect x="43.20" y="21.60" width="7.20" height="2.40" />
      <rect x="2.40" y="24.00" width="7.20" height="2.40" />
      <rect x="12.00" y="24.00" width="9.60" height="2.40" />
      <rect x="26.40" y="24.00" width="4.80" height="2.40" />
      <rect x="36.00" y="24.00" width="2.40" height="4.80" />
      <rect x="45.60" y="24.00" width="2.40" height="2.40" />
      <rect x="0.00" y="26.40" width="4.80" height="2.40" />
      <rect x="7.20" y="26.40" width="2.40" height="2.40" />
      <rect x="19.20" y="26.40" width="2.40" height="2.40" />
      <rect x="24.00" y="26.40" width="4.80" height="2.40" />
      <rect x="31.20" y="26.40" width="2.40" height="2.40" />
      <rect x="43.20" y="26.40" width="4.80" height="2.40" />
      <rect x="2.40" y="28.80" width="24.00" height="2.40" />
      <rect x="33.60" y="28.80" width="2.40" height="2.40" />
      <rect x="38.40" y="28.80" width="4.80" height="2.40" />
      <rect x="45.60" y="28.80" width="4.80" height="2.40" />
      <rect x="19.20" y="31.20" width="2.40" height="2.40" />
      <rect x="38.40" y="31.20" width="2.40" height="2.40" />
      <rect x="43.20" y="31.20" width="4.80" height="4.80" />
      <rect x="0.00" y="33.60" width="16.80" height="2.40" />
      <rect x="21.60" y="33.60" width="14.40" height="2.40" />
      <rect x="0.00" y="36.00" width="2.40" height="12.00" />
      <rect x="14.40" y="36.00" width="2.40" height="12.00" />
      <rect x="24.00" y="36.00" width="2.40" height="2.40" />
      <rect x="31.20" y="36.00" width="4.80" height="2.40" />
      <rect x="38.40" y="36.00" width="7.20" height="2.40" />
      <rect x="4.80" y="38.40" width="7.20" height="7.20" />
      <rect x="28.80" y="38.40" width="7.20" height="2.40" />
      <rect x="43.20" y="38.40" width="7.20" height="2.40" />
      <rect x="21.60" y="40.80" width="2.40" height="4.80" />
      <rect x="33.60" y="40.80" width="2.40" height="4.80" />
      <rect x="38.40" y="40.80" width="2.40" height="4.80" />
      <rect x="43.20" y="40.80" width="2.40" height="2.40" />
      <rect x="28.80" y="43.20" width="2.40" height="2.40" />
      <rect x="45.60" y="43.20" width="4.80" height="2.40" />
      <rect x="26.40" y="45.60" width="7.20" height="2.40" />
      <rect x="36.00" y="45.60" width="9.60" height="2.40" />
      <rect x="0.00" y="48.00" width="16.80" height="2.40" />
      <rect x="19.20" y="48.00" width="2.40" height="2.40" />
      <rect x="24.00" y="48.00" width="4.80" height="2.40" />
      <rect x="33.60" y="48.00" width="2.40" height="2.40" />
      <rect x="38.40" y="48.00" width="2.40" height="2.40" />
      <rect x="45.60" y="48.00" width="2.40" height="2.40" />
   </g>
</svg>
