<?xml version="1.0" standalone="no"?>
<!DOCTYPE svg PUBLIC "-//W3C//DTD SVG 1.1//EN" "http://www.w3.org/Graphics/SVG/1.1/DTD/svg11.dtd">
<svg width="202" height="202" version="1.1" xmlns="http://www.w3.org/2000/svg">
 <desc>Zint Generated Symbol</desc>
 <g id="barcode" fill="#000000">
  <rect x="0" y="0" width="202" height="202" fill="#FFFFFF"/>
  <path d="M0 0h67.2v9.6h-67.2ZM105.6 0h19.2v19.2h-19.2ZM134.4 0h67.2v9.6h-67.2ZM0 9.6h9.6v48h-9.6ZM57.6 9.6h9.6v48h-9.6ZM76.8 9.6h9.6v9.6h-9.6ZM134.4 9.6h9.6v48h-9.6ZM192 9.6h9.6v48h-9.6ZM19.2 19.2h28.8v28.8h-28.8ZM76.8 19.2h28.8v9.6h-28.8ZM115.2 19.2h9.6v9.6h-9.6ZM153.6 19.2h28.8v28.8h-28.8ZM76.8 28.8h9.6v9.6h-9.6ZM96 28.8h9.6v9.6h-9.6ZM115.2 38.4h9.6v38.4h-9.6ZM96 48h9.6v19.2h-9.6ZM0 57.6h67.2v9.6h-67.2ZM76.8 57.6h9.6v9.6h-9.6ZM134.4 57.6h67.2v9.6h-67.2ZM76.8 67.2h19.2v9.6h-19.2ZM0 76.8h9.6v19.2h-9.6ZM57.6 76.8h9.6v9.6h-9.6ZM76.8 76.8h38.4v9.6h-38.4ZM124.8 76.8h19.2v9.6h-19.2ZM163.2 76.8h28.8v9.6h-28.8ZM38.4 86.4h9.6v9.6h-9.6ZM76.8 86.4h28.8v9.6h-28.8ZM134.4 86.4h9.6v9.6h-9.6ZM172.8 86.4h28.8v9.6h-28.8ZM9.6 96h28.8v9.6h-28.8ZM48 96h38.4v9.6h-38.4ZM105.6 96h19.2v9.6h-19.2ZM144 96h9.6v19.2h-9.6ZM182.4 96h9.6v9.6h-9.6ZM0 105.6h19.2v9.6h-19.2ZM28.8 105.6h9.6v9.6h-9.6ZM76.8 105.6h9.6v9.6h-9.6ZM96 105.6h19.2v9.6h-19.2ZM124.8 105.6h9.6v9.6h-9.6ZM172.8 105.6h19.2v9.6h-19.2ZM9.6 115.2h96v9.6h-96ZM134.4 115.2h9.6v9.6h-9.6ZM153.6 115.2h19.2v9.6h-19.2ZM182.4 115.2h19.2v9.6h-19.2ZM76.8 124.8h9.6v9.6h-9.6ZM153.6 124.8h9.6v9.6h-9.6ZM172.8 124.8h19.2v19.2h-19.2ZM0 134.4h67.2v9.6h-67.2ZM86.4 134.4h57.6v9.6h-57.6ZM0 144h9.6v48h-9.6ZM57.6 144h9.6v48h-9.6ZM96 144h9.6v9.6h-9.6ZM124.8 144h19.2v9.6h-19.2ZM153.6 144h28.8v9.6h-28.8ZM19.2 153.6h28.8v28.8h-28.8ZM115.2 153.6h28.8v9.6h-28.8ZM172.8 153.6h28.8v9.6h-28.8ZM86.4 163.2h9.6v19.2h-9.6ZM134.4 163.2h9.6v19.2h-9.6ZM153.6 163.2h9.6v19.2h-9.6ZM172.8 163.2h9.6v9.6h-9.6ZM115.2 172.8h9.6v9.6h-9.6ZM182.4 172.8h19.2v9.6h-19.2ZM105.6 182.4h28.8v9.6h-28.8ZM144 182.4h38.4v9.6h-38.4ZM0 192h67.2v9.6h-67.2ZM76.8 192h9.6v9.6h-9.6ZM96 192h19.2v9.6h-19.2ZM134.4 192h9.6v9.6h-9.6ZM153.6 192h9.6v9.6h-9.6ZM182.4 192h9.6v9.6h-9.6Z"/>
 </g>
</svg>
