<?xml version="1.0" standalone="no"?>
<!DOCTYPE svg PUBLIC "-//W3C//DTD SVG 1.1//EN" "http://www.w3.org/Graphics/SVG/1.1/DTD/svg11.dtd">
<svg width="168" height="168" version="1.1" xmlns="http://www.w3.org/2000/svg">
 <desc>Zint Generated Symbol</desc>
 <g id="barcode" fill="#000000">
  <rect x="0" y="0" width="168" height="168" fill="#FFFFFF"/>
  <path d="M0 0h56v8h-56ZM64 0h8v8h-8ZM88 0h8v8h-8ZM112 0h56v8h-56ZM0 8h8v40h-8ZM48 8h8v40h-8ZM64 8h16v8h-16ZM112 8h8v40h-8ZM160 8h8v40h-8ZM16 16h24v24h-24ZM72 16h8v8h-8ZM88 16h16v8h-16ZM128 16h24v24h-24ZM64 24h16v8h-16ZM96 24h8v8h-8ZM64 32h8v24h-8ZM88 32h8v8h-8ZM80 40h16v8h-16ZM0 48h56v8h-56ZM80 48h8v8h-8ZM96 48h8v8h-8ZM112 48h56v8h-56ZM72 56h32v8h-32ZM24 64h8v8h-8ZM48 64h8v8h-8ZM88 64h16v8h-16ZM120 64h24v8h-24ZM152 64h16v8h-16ZM0 72h8v16h-8ZM16 72h32v8h-32ZM64 72h8v8h-8ZM80 72h8v8h-8ZM96 72h8v8h-8ZM120 72h8v8h-8ZM136 72h8v8h-8ZM152 72h8v16h-8ZM32 80h40v8h-40ZM88 80h8v8h-8ZM104 80h8v8h-8ZM120 80h16v8h-16ZM8 88h16v8h-16ZM32 88h8v8h-8ZM56 88h16v8h-16ZM80 88h8v8h-8ZM96 88h40v8h-40ZM144 88h16v8h-16ZM24 96h16v8h-16ZM48 96h40v8h-40ZM120 96h8v8h-8ZM160 96h8v16h-8ZM64 104h16v8h-16ZM104 104h32v8h-32ZM144 104h8v8h-8ZM0 112h56v8h-56ZM72 112h16v8h-16ZM128 112h40v8h-40ZM0 120h8v40h-8ZM48 120h8v40h-8ZM96 120h8v8h-8ZM120 120h8v8h-8ZM144 120h24v8h-24ZM16 128h24v24h-24ZM72 128h8v8h-8ZM112 128h8v8h-8ZM128 128h8v8h-8ZM160 128h8v8h-8ZM64 136h24v8h-24ZM104 136h8v8h-8ZM128 136h16v8h-16ZM152 136h16v8h-16ZM72 144h8v8h-8ZM96 144h8v8h-8ZM112 144h8v8h-8ZM136 144h16v8h-16ZM160 144h8v8h-8ZM72 152h24v8h-24ZM104 152h48v8h-48ZM0 160h56v8h-56ZM80 160h8v8h-8ZM112 160h8v8h-8ZM152 160h8v8h-8Z"/>
 </g>
</svg>
