<?xml version="1.0" standalone="no"?>
<!DOCTYPE svg PUBLIC "-//W3C//DTD SVG 1.1//EN" "http://www.w3.org/Graphics/SVG/1.1/DTD/svg11.dtd">
<svg width="248" height="248" version="1.1" xmlns="http://www.w3.org/2000/svg">
 <desc>Zint Generated Symbol</desc>
 <g id="barcode" fill="#000000">
  <rect x="0" y="0" width="248" height="248" fill="#FFFFFF"/>
  <path d="M40 40h56v8h-56ZM104 40h24v16h-24ZM136 40h8v8h-8ZM152 40h56v8h-56ZM40 48h8v40h-8ZM88 48h8v40h-8ZM152 48h8v40h-8ZM200 48h8v40h-8ZM56 56h24v24h-24ZM104 56h8v8h-8ZM120 56h8v8h-8ZM136 56h8v8h-8ZM168 56h24v24h-24ZM104 64h24v8h-24ZM104 72h8v8h-8ZM136 72h8v24h-8ZM120 80h8v16h-8ZM40 88h56v8h-56ZM104 88h8v16h-8ZM152 88h56v8h-56ZM128 96h16v8h-16ZM48 104h16v8h-16ZM72 104h8v8h-8ZM88 104h16v8h-16ZM120 104h8v8h-8ZM152 104h8v8h-8ZM168 104h40v16h-40ZM40 112h8v8h-8ZM64 112h8v8h-8ZM80 112h8v8h-8ZM104 112h24v8h-24ZM144 112h16v8h-16ZM48 120h8v8h-8ZM72 120h24v8h-24ZM104 120h8v8h-8ZM120 120h16v8h-16ZM152 120h24v8h-24ZM184 120h24v8h-24ZM56 128h16v8h-16ZM80 128h8v8h-8ZM104 128h16v8h-16ZM136 128h8v8h-8ZM192 128h8v8h-8ZM48 136h16v8h-16ZM88 136h8v8h-8ZM120 136h32v8h-32ZM160 136h16v8h-16ZM192 136h16v8h-16ZM104 144h8v16h-8ZM120 144h24v8h-24ZM160 144h32v8h-32ZM40 152h56v8h-56ZM120 152h8v8h-8ZM136 152h8v8h-8ZM152 152h56v8h-56ZM40 160h8v40h-8ZM88 160h8v40h-8ZM112 160h24v8h-24ZM144 160h8v8h-8ZM160 160h8v8h-8ZM56 168h24v24h-24ZM104 168h40v8h-40ZM152 168h32v8h-32ZM112 176h16v8h-16ZM152 176h8v8h-8ZM176 176h8v8h-8ZM192 176h8v8h-8ZM104 184h8v8h-8ZM136 184h8v8h-8ZM160 184h24v8h-24ZM200 184h8v8h-8ZM104 192h24v8h-24ZM152 192h16v8h-16ZM176 192h8v8h-8ZM192 192h8v8h-8ZM40 200h56v8h-56ZM112 200h8v8h-8ZM136 200h8v8h-8ZM152 200h8v8h-8ZM168 200h8v8h-8ZM192 200h16v8h-16ZM0 0h248v8h-248ZM0 240h248v8h-248ZM0 8h8v232h-8ZM240 8h8v232h-8Z"/>
 </g>
</svg>
