<?xml version="1.0" standalone="no"?>
<!DOCTYPE svg PUBLIC "-//W3C//DTD SVG 1.1//EN"
   "http://www.w3.org/Graphics/SVG/1.1/DTD/svg11.dtd">
<svg width="202" height="202" version="1.1"
   xmlns="http://www.w3.org/2000/svg">
   <desc>Zint Generated Symbol
   </desc>

   <g id="barcode" fill="#000000">
      <rect x="0" y="0" width="202" height="202" fill="#FFFFFF" />
      <rect x="0.00" y="0.00" width="67.20" height="9.60" />
      <rect x="105.60" y="0.00" width="19.20" height="19.20" />
      <rect x="134.40" y="0.00" width="67.20" height="9.60" />
      <rect x="0.00" y="9.60" width="9.60" height="48.00" />
      <rect x="57.60" y="9.60" width="9.60" height="48.00" />
      <rect x="76.80" y="9.60" width="9.60" height="9.60" />
      <rect x="134.40" y="9.60" width="9.60" height="48.00" />
      <rect x="192.00" y="9.60" width="9.60" height="48.00" />
      <rect x="19.20" y="19.20" width="28.80" height="28.80" />
      <rect x="76.80" y="19.20" width="28.80" height="9.60" />
      <rect x="115.20" y="19.20" width="9.60" height="9.60" />
      <rect x="153.60" y="19.20" width="28.80" height="28.80" />
      <rect x="76.80" y="28.80" width="9.60" height="9.60" />
      <rect x="96.00" y="28.80" width="9.60" height="9.60" />
      <rect x="115.20" y="38.40" width="9.60" height="38.40" />
      <rect x="96.00" y="48.00" width="9.60" height="19.20" />
      <rect x="0.00" y="57.60" width="67.20" height="9.60" />
      <rect x="76.80" y="57.60" width="9.60" height="9.60" />
      <rect x="134.40" y="57.60" width="67.20" height="9.60" />
      <rect x="76.80" y="67.20" width="19.20" height="9.60" />
      <rect x="0.00" y="76.80" width="9.60" height="19.20" />
      <rect x="57.60" y="76.80" width="9.60" height="9.60" />
      <rect x="76.80" y="76.80" width="38.40" height="9.60" />
      <rect x="124.80" y="76.80" width="19.20" height="9.60" />
      <rect x="163.20" y="76.80" width="28.80" height="9.60" />
      <rect x="38.40" y="86.40" width="9.60" height="9.60" />
      <rect x="76.80" y="86.40" width="28.80" height="9.60" />
      <rect x="134.40" y="86.40" width="9.60" height="9.60" />
      <rect x="172.80" y="86.40" width="28.80" height="9.60" />
      <rect x="9.60" y="96.00" width="28.80" height="9.60" />
      <rect x="48.00" y="96.00" width="38.40" height="9.60" />
      <rect x="105.60" y="96.00" width="19.20" height="9.60" />
      <rect x="144.00" y="96.00" width="9.60" height="19.20" />
      <rect x="182.40" y="96.00" width="9.60" height="9.60" />
      <rect x="0.00" y="105.60" width="19.20" height="9.60" />
      <rect x="28.80" y="105.60" width="9.60" height="9.60" />
      <rect x="76.80" y="105.60" width="9.60" height="9.60" />
      <rect x="96.00" y="105.60" width="19.20" height="9.60" />
      <rect x="124.80" y="105.60" width="9.60" height="9.60" />
      <rect x="172.80" y="105.60" width="19.20" height="9.60" />
      <rect x="9.60" y="115.20" width="96.00" height="9.60" />
      <rect x="134.40" y="115.20" width="9.60" height="9.60" />
      <rect x="153.60" y="115.20" width="19.20" height="9.60" />
      <rect x="182.40" y="115.20" width="19.20" height="9.60" />
      <rect x="76.80" y="124.80" width="9.60" height="9.60" />
      <rect x="153.60" y="124.80" width="9.60" height="9.60" />
      <rect x="172.80" y="124.80" width="19.20" height="19.20" />
      <rect x="0.00" y="134.40" width="67.20" height="9.60" />
      <rect x="86.40" y="134.40" width="57.60" height="9.60" />
      <rect x="0.00" y="144.00" width="9.60" height="48.00" />
      <rect x="57.60" y="144.00" width="9.60" height="48.00" />
      <rect x="96.00" y="144.00" width="9.60" height="9.60" />
      <rect x="124.80" y="144.00" width="19.20" height="9.60" />
      <rect x="153.60" y="144.00" width="28.80" height="9.60" />
      <rect x="19.20" y="153.60" width="28.80" height="28.80" />
      <rect x="115.20" y="153.60" width="28.80" height="9.60" />
      <rect x="172.80" y="153.60" width="28.80" height="9.60" />
      <rect x="86.40" y="163.20" width="9.60" height="19.20" />
      <rect x="134.40" y="163.20" width="9.60" height="19.20" />
      <rect x="153.60" y="163.20" width="9.60" height="19.20" />
      <rect x="172.80" y="163.20" width="9.60" height="9.60" />
      <rect x="115.20" y="172.80" width="9.60" height="9.60" />
      <rect x="182.40" y="172.80" width="19.20" height="9.60" />
      <rect x="105.60" y="182.40" width="28.80" height="9.60" />
      <rect x="144.00" y="182.40" width="38.40" height="9.60" />
      <rect x="0.00" y="192.00" width="67.20" height="9.60" />
      <rect x="76.80" y="192.00" width="9.60" height="9.60" />
      <rect x="96.00" y="192.00" width="19.20" height="9.60" />
      <rect x="134.40" y="192.00" width="9.60" height="9.60" />
      <rect x="153.60" y="192.00" width="9.60" height="9.60" />
      <rect x="182.40" y="192.00" width="9.60" height="9.60" />
   </g>
</svg>
