<?xml version="1.0" standalone="no"?>
<!DOCTYPE svg PUBLIC "-//W3C//DTD SVG 1.1//EN" "http://www.w3.org/Graphics/SVG/1.1/DTD/svg11.dtd">
<svg width="600" height="68" version="1.1" xmlns="http://www.w3.org/2000/svg">
 <desc>Zint Generated Symbol</desc>
 <g id="barcode" fill="#000000">
  <rect x="0" y="0" width="600" height="68" fill="#FFFFFF"/>
  <path d="M0 0h8v42.63h-8ZM16 0h8v42.63h-8ZM32 0h8v67.95h-8ZM112 0h8v42.63h-8ZM128 0h8v67.95h-8ZM144 0h8v42.63h-8ZM192 0h8v67.95h-8ZM240 0h8v67.95h-8ZM256 0h8v67.95h-8ZM272 0h8v67.95h-8ZM304 0h8v42.63h-8ZM336 0h8v67.95h-8ZM368 0h8v42.63h-8ZM432 0h8v67.95h-8ZM448 0h8v67.95h-8ZM496 0h8v42.63h-8ZM512 0h8v67.95h-8ZM528 0h8v42.63h-8ZM544 0h8v67.95h-8ZM592 0h8v67.95h-8ZM48 25.31h8v42.63h-8ZM64 25.31h8v17.32h-8ZM80 25.31h8v17.32h-8ZM96 25.31h8v42.63h-8ZM160 25.31h8v42.63h-8ZM176 25.31h8v17.32h-8ZM208 25.31h8v17.32h-8ZM224 25.31h8v17.32h-8ZM288 25.31h8v42.63h-8ZM320 25.31h8v17.32h-8ZM352 25.31h8v17.32h-8ZM384 25.31h8v42.63h-8ZM400 25.31h8v17.32h-8ZM416 25.31h8v17.32h-8ZM464 25.31h8v17.32h-8ZM480 25.31h8v42.63h-8ZM560 25.31h8v42.63h-8ZM576 25.31h8v17.32h-8Z"/>
 </g>
</svg>
