<?xml version="1.0" standalone="no"?>
<!DOCTYPE svg PUBLIC "-//W3C//DTD SVG 1.1//EN" "http://www.w3.org/Graphics/SVG/1.1/DTD/svg11.dtd">
<svg width="461" height="193" version="1.1" xmlns="http://www.w3.org/2000/svg">
 <desc>Zint Generated Symbol</desc>
 <g id="barcode" fill="#000000">
  <rect x="0" y="0" width="461" height="193" fill="#FFFFFF"/>
  <path d="M0 0h4.8v153.6h-4.8ZM9.6 0h4.8v153.6h-4.8ZM19.2 0h4.8v153.6h-4.8ZM28.8 0h4.8v153.6h-4.8ZM38.4 0h4.8v153.6h-4.8ZM48 0h14.4v153.6h-14.4ZM76.8 0h4.8v153.6h-4.8ZM86.4 0h14.4v153.6h-14.4ZM105.6 0h4.8v153.6h-4.8ZM115.2 0h14.4v153.6h-14.4ZM134.4 0h4.8v153.6h-4.8ZM144 0h4.8v153.6h-4.8ZM153.6 0h4.8v153.6h-4.8ZM163.2 0h4.8v153.6h-4.8ZM172.8 0h4.8v153.6h-4.8ZM182.4 0h14.4v153.6h-14.4ZM211.2 0h14.4v153.6h-14.4ZM230.4 0h14.4v153.6h-14.4ZM249.6 0h4.8v153.6h-4.8ZM259.2 0h4.8v153.6h-4.8ZM268.8 0h4.8v153.6h-4.8ZM278.4 0h4.8v153.6h-4.8ZM288 0h14.4v153.6h-14.4ZM307.2 0h14.4v153.6h-14.4ZM336 0h14.4v153.6h-14.4ZM355.2 0h4.8v153.6h-4.8ZM364.8 0h4.8v153.6h-4.8ZM374.4 0h4.8v153.6h-4.8ZM384 0h14.4v153.6h-14.4ZM412.8 0h4.8v153.6h-4.8ZM422.4 0h4.8v153.6h-4.8ZM432 0h4.8v153.6h-4.8ZM441.6 0h4.8v153.6h-4.8ZM451.2 0h4.8v153.6h-4.8Z"/>
  <text x="230.4" y="185.63" text-anchor="middle" font-family="Arimo, Arial, sans-serif" font-size="33.6">
   466X33
  </text>
 </g>
</svg>
