<?xml version="1.0" standalone="no"?>
<!DOCTYPE svg PUBLIC "-//W3C//DTD SVG 1.1//EN"
   "http://www.w3.org/Graphics/SVG/1.1/DTD/svg11.dtd">
<svg width="461" height="199" version="1.1"
   xmlns="http://www.w3.org/2000/svg">
   <desc>Zint Generated Symbol
   </desc>

   <g id="barcode" fill="#000000">
      <rect x="0" y="0" width="461" height="199" fill="#FFFFFF" />
      <rect x="0.00" y="0.00" width="4.80" height="153.60" />
      <rect x="9.60" y="0.00" width="4.80" height="153.60" />
      <rect x="19.20" y="0.00" width="4.80" height="153.60" />
      <rect x="28.80" y="0.00" width="4.80" height="153.60" />
      <rect x="38.40" y="0.00" width="4.80" height="153.60" />
      <rect x="48.00" y="0.00" width="14.40" height="153.60" />
      <rect x="76.80" y="0.00" width="4.80" height="153.60" />
      <rect x="86.40" y="0.00" width="14.40" height="153.60" />
      <rect x="105.60" y="0.00" width="4.80" height="153.60" />
      <rect x="115.20" y="0.00" width="14.40" height="153.60" />
      <rect x="134.40" y="0.00" width="4.80" height="153.60" />
      <rect x="144.00" y="0.00" width="4.80" height="153.60" />
      <rect x="153.60" y="0.00" width="4.80" height="153.60" />
      <rect x="163.20" y="0.00" width="4.80" height="153.60" />
      <rect x="172.80" y="0.00" width="4.80" height="153.60" />
      <rect x="182.40" y="0.00" width="14.40" height="153.60" />
      <rect x="211.20" y="0.00" width="14.40" height="153.60" />
      <rect x="230.40" y="0.00" width="14.40" height="153.60" />
      <rect x="249.60" y="0.00" width="4.80" height="153.60" />
      <rect x="259.20" y="0.00" width="4.80" height="153.60" />
      <rect x="268.80" y="0.00" width="4.80" height="153.60" />
      <rect x="278.40" y="0.00" width="4.80" height="153.60" />
      <rect x="288.00" y="0.00" width="14.40" height="153.60" />
      <rect x="307.20" y="0.00" width="14.40" height="153.60" />
      <rect x="336.00" y="0.00" width="14.40" height="153.60" />
      <rect x="355.20" y="0.00" width="4.80" height="153.60" />
      <rect x="364.80" y="0.00" width="4.80" height="153.60" />
      <rect x="374.40" y="0.00" width="4.80" height="153.60" />
      <rect x="384.00" y="0.00" width="14.40" height="153.60" />
      <rect x="412.80" y="0.00" width="4.80" height="153.60" />
      <rect x="422.40" y="0.00" width="4.80" height="153.60" />
      <rect x="432.00" y="0.00" width="4.80" height="153.60" />
      <rect x="441.60" y="0.00" width="4.80" height="153.60" />
      <rect x="451.20" y="0.00" width="4.80" height="153.60" />
      <text x="230.40" y="187.20" text-anchor="middle"
         font-family="Helvetica, sans-serif" font-size="33.6" >
         466X33
      </text>
   </g>
</svg>
