<?xml version="1.0" standalone="no"?>
<!DOCTYPE svg PUBLIC "-//W3C//DTD SVG 1.1//EN"
   "http://www.w3.org/Graphics/SVG/1.1/DTD/svg11.dtd">
<svg width="368" height="304" version="1.1"
   xmlns="http://www.w3.org/2000/svg">
   <desc>Zint Generated Symbol
   </desc>

   <g id="barcode" fill="#000000">
      <rect x="0" y="0" width="368" height="304" fill="#FFFFFF" />
      <rect x="0.00" y="0.00" width="368.00" height="16.00" fill="#000000" />
      <rect x="0.00" y="16.00" width="16.00" height="16.00" fill="#000000" />
      <rect x="16.00" y="16.00" width="32.00" height="16.00" fill="#ffffff" />
      <rect x="48.00" y="16.00" width="16.00" height="272.00" fill="#000000" />
      <rect x="64.00" y="16.00" width="16.00" height="272.00" fill="#ffffff" />
      <rect x="80.00" y="16.00" width="16.00" height="16.00" fill="#00ff00" />
      <rect x="96.00" y="16.00" width="32.00" height="16.00" fill="#ff00ff" />
      <rect x="128.00" y="16.00" width="16.00" height="16.00" fill="#00ffff" />
      <rect x="144.00" y="16.00" width="16.00" height="16.00" fill="#ffff00" />
      <rect x="160.00" y="16.00" width="32.00" height="16.00" fill="#00ffff" />
      <rect x="192.00" y="16.00" width="16.00" height="16.00" fill="#ffff00" />
      <rect x="208.00" y="16.00" width="32.00" height="16.00" fill="#ff00ff" />
      <rect x="240.00" y="16.00" width="16.00" height="16.00" fill="#00ffff" />
      <rect x="256.00" y="16.00" width="32.00" height="16.00" fill="#ff00ff" />
      <rect x="288.00" y="16.00" width="16.00" height="16.00" fill="#ffff00" />
      <rect x="304.00" y="16.00" width="16.00" height="16.00" fill="#ffffff" />
      <rect x="320.00" y="16.00" width="16.00" height="16.00" fill="#00ffff" />
      <rect x="336.00" y="16.00" width="16.00" height="16.00" fill="#ff00ff" />
      <rect x="352.00" y="16.00" width="16.00" height="80.00" fill="#000000" />
      <rect x="0.00" y="32.00" width="32.00" height="16.00" fill="#000000" />
      <rect x="32.00" y="32.00" width="16.00" height="16.00" fill="#ffffff" />
      <rect x="80.00" y="32.00" width="16.00" height="16.00" fill="#ff00ff" />
      <rect x="96.00" y="32.00" width="16.00" height="16.00" fill="#00ffff" />
      <rect x="112.00" y="32.00" width="16.00" height="16.00" fill="#ffff00" />
      <rect x="128.00" y="32.00" width="80.00" height="16.00" fill="#00ff00" />
      <rect x="208.00" y="32.00" width="32.00" height="16.00" fill="#00ffff" />
      <rect x="240.00" y="32.00" width="16.00" height="16.00" fill="#00ff00" />
      <rect x="256.00" y="32.00" width="32.00" height="16.00" fill="#00ffff" />
      <rect x="288.00" y="32.00" width="16.00" height="16.00" fill="#00ff00" />
      <rect x="304.00" y="32.00" width="16.00" height="16.00" fill="#000000" />
      <rect x="320.00" y="32.00" width="16.00" height="16.00" fill="#00ff00" />
      <rect x="336.00" y="32.00" width="16.00" height="16.00" fill="#00ffff" />
      <rect x="0.00" y="48.00" width="16.00" height="16.00" fill="#000000" />
      <rect x="16.00" y="48.00" width="32.00" height="16.00" fill="#ffffff" />
      <rect x="80.00" y="48.00" width="32.00" height="16.00" fill="#00ff00" />
      <rect x="112.00" y="48.00" width="16.00" height="16.00" fill="#ff00ff" />
      <rect x="128.00" y="48.00" width="16.00" height="16.00" fill="#00ffff" />
      <rect x="144.00" y="48.00" width="64.00" height="16.00" fill="#ffff00" />
      <rect x="208.00" y="48.00" width="16.00" height="16.00" fill="#ff00ff" />
      <rect x="224.00" y="48.00" width="64.00" height="16.00" fill="#ffff00" />
      <rect x="288.00" y="48.00" width="16.00" height="16.00" fill="#ff00ff" />
      <rect x="304.00" y="48.00" width="16.00" height="16.00" fill="#ffffff" />
      <rect x="320.00" y="48.00" width="32.00" height="16.00" fill="#ffff00" />
      <rect x="0.00" y="64.00" width="32.00" height="16.00" fill="#000000" />
      <rect x="32.00" y="64.00" width="16.00" height="16.00" fill="#ffff00" />
      <rect x="80.00" y="64.00" width="16.00" height="16.00" fill="#ffff00" />
      <rect x="96.00" y="64.00" width="16.00" height="16.00" fill="#ff00ff" />
      <rect x="112.00" y="64.00" width="16.00" height="16.00" fill="#00ffff" />
      <rect x="128.00" y="64.00" width="16.00" height="16.00" fill="#ff00ff" />
      <rect x="144.00" y="64.00" width="32.00" height="16.00" fill="#00ff00" />
      <rect x="176.00" y="64.00" width="32.00" height="16.00" fill="#ff00ff" />
      <rect x="208.00" y="64.00" width="16.00" height="16.00" fill="#00ff00" />
      <rect x="224.00" y="64.00" width="16.00" height="16.00" fill="#00ffff" />
      <rect x="240.00" y="64.00" width="16.00" height="16.00" fill="#ff00ff" />
      <rect x="256.00" y="64.00" width="16.00" height="16.00" fill="#00ff00" />
      <rect x="272.00" y="64.00" width="16.00" height="16.00" fill="#00ffff" />
      <rect x="288.00" y="64.00" width="16.00" height="16.00" fill="#00ff00" />
      <rect x="304.00" y="64.00" width="16.00" height="16.00" fill="#000000" />
      <rect x="320.00" y="64.00" width="16.00" height="16.00" fill="#ff00ff" />
      <rect x="336.00" y="64.00" width="16.00" height="16.00" fill="#00ff00" />
      <rect x="0.00" y="80.00" width="16.00" height="16.00" fill="#000000" />
      <rect x="16.00" y="80.00" width="16.00" height="16.00" fill="#ffffff" />
      <rect x="32.00" y="80.00" width="16.00" height="16.00" fill="#ff00ff" />
      <rect x="80.00" y="80.00" width="16.00" height="16.00" fill="#00ffff" />
      <rect x="96.00" y="80.00" width="96.00" height="16.00" fill="#ffff00" />
      <rect x="192.00" y="80.00" width="16.00" height="16.00" fill="#00ffff" />
      <rect x="208.00" y="80.00" width="16.00" height="16.00" fill="#ffff00" />
      <rect x="224.00" y="80.00" width="16.00" height="16.00" fill="#00ff00" />
      <rect x="240.00" y="80.00" width="16.00" height="16.00" fill="#ffff00" />
      <rect x="256.00" y="80.00" width="32.00" height="16.00" fill="#ff00ff" />
      <rect x="288.00" y="80.00" width="16.00" height="16.00" fill="#ffff00" />
      <rect x="304.00" y="80.00" width="16.00" height="16.00" fill="#ffffff" />
      <rect x="320.00" y="80.00" width="16.00" height="16.00" fill="#ffff00" />
      <rect x="336.00" y="80.00" width="16.00" height="16.00" fill="#ff00ff" />
      <rect x="0.00" y="96.00" width="32.00" height="16.00" fill="#000000" />
      <rect x="32.00" y="96.00" width="16.00" height="16.00" fill="#00ffff" />
      <rect x="80.00" y="96.00" width="16.00" height="16.00" fill="#000000" />
      <rect x="96.00" y="96.00" width="16.00" height="16.00" fill="#ffffff" />
      <rect x="112.00" y="96.00" width="16.00" height="16.00" fill="#000000" />
      <rect x="128.00" y="96.00" width="16.00" height="16.00" fill="#ffffff" />
      <rect x="144.00" y="96.00" width="16.00" height="16.00" fill="#000000" />
      <rect x="160.00" y="96.00" width="16.00" height="16.00" fill="#ffffff" />
      <rect x="176.00" y="96.00" width="16.00" height="16.00" fill="#000000" />
      <rect x="192.00" y="96.00" width="16.00" height="16.00" fill="#ffffff" />
      <rect x="208.00" y="96.00" width="16.00" height="16.00" fill="#000000" />
      <rect x="224.00" y="96.00" width="16.00" height="16.00" fill="#ffffff" />
      <rect x="240.00" y="96.00" width="16.00" height="16.00" fill="#000000" />
      <rect x="256.00" y="96.00" width="16.00" height="16.00" fill="#ffffff" />
      <rect x="272.00" y="96.00" width="16.00" height="16.00" fill="#000000" />
      <rect x="288.00" y="96.00" width="16.00" height="16.00" fill="#ffffff" />
      <rect x="304.00" y="96.00" width="16.00" height="16.00" fill="#000000" />
      <rect x="320.00" y="96.00" width="16.00" height="16.00" fill="#ffffff" />
      <rect x="336.00" y="96.00" width="32.00" height="16.00" fill="#000000" />
      <rect x="0.00" y="112.00" width="16.00" height="16.00" fill="#000000" />
      <rect x="16.00" y="112.00" width="16.00" height="16.00" fill="#ffffff" />
      <rect x="32.00" y="112.00" width="16.00" height="16.00" fill="#00ff00" />
      <rect x="80.00" y="112.00" width="16.00" height="16.00" fill="#00ffff" />
      <rect x="96.00" y="112.00" width="16.00" height="16.00" fill="#ff00ff" />
      <rect x="112.00" y="112.00" width="32.00" height="16.00" fill="#ffff00" />
      <rect x="144.00" y="112.00" width="16.00" height="16.00" fill="#00ffff" />
      <rect x="160.00" y="112.00" width="32.00" height="16.00" fill="#ff00ff" />
      <rect x="192.00" y="112.00" width="48.00" height="16.00" fill="#00ffff" />
      <rect x="240.00" y="112.00" width="32.00" height="16.00" fill="#ff00ff" />
      <rect x="272.00" y="112.00" width="16.00" height="16.00" fill="#00ffff" />
      <rect x="288.00" y="112.00" width="16.00" height="16.00" fill="#ff00ff" />
      <rect x="304.00" y="112.00" width="16.00" height="16.00" fill="#ffffff" />
      <rect x="320.00" y="112.00" width="16.00" height="16.00" fill="#ff00ff" />
      <rect x="336.00" y="112.00" width="16.00" height="16.00" fill="#ffff00" />
      <rect x="352.00" y="112.00" width="16.00" height="80.00" fill="#000000" />
      <rect x="0.00" y="128.00" width="32.00" height="16.00" fill="#000000" />
      <rect x="32.00" y="128.00" width="16.00" height="16.00" fill="#ff00ff" />
      <rect x="80.00" y="128.00" width="16.00" height="16.00" fill="#ffff00" />
      <rect x="96.00" y="128.00" width="16.00" height="16.00" fill="#00ffff" />
      <rect x="112.00" y="128.00" width="48.00" height="16.00" fill="#ff00ff" />
      <rect x="160.00" y="128.00" width="32.00" height="16.00" fill="#00ffff" />
      <rect x="192.00" y="128.00" width="48.00" height="16.00" fill="#00ff00" />
      <rect x="240.00" y="128.00" width="32.00" height="16.00" fill="#00ffff" />
      <rect x="272.00" y="128.00" width="16.00" height="16.00" fill="#00ff00" />
      <rect x="288.00" y="128.00" width="16.00" height="16.00" fill="#00ffff" />
      <rect x="304.00" y="128.00" width="16.00" height="16.00" fill="#000000" />
      <rect x="320.00" y="128.00" width="32.00" height="16.00" fill="#00ffff" />
      <rect x="0.00" y="144.00" width="16.00" height="16.00" fill="#000000" />
      <rect x="16.00" y="144.00" width="32.00" height="16.00" fill="#ffffff" />
      <rect x="80.00" y="144.00" width="16.00" height="16.00" fill="#ff00ff" />
      <rect x="96.00" y="144.00" width="16.00" height="16.00" fill="#ffff00" />
      <rect x="112.00" y="144.00" width="32.00" height="16.00" fill="#00ffff" />
      <rect x="144.00" y="144.00" width="16.00" height="16.00" fill="#ffff00" />
      <rect x="160.00" y="144.00" width="16.00" height="16.00" fill="#ff00ff" />
      <rect x="176.00" y="144.00" width="64.00" height="16.00" fill="#ffff00" />
      <rect x="240.00" y="144.00" width="32.00" height="16.00" fill="#ff00ff" />
      <rect x="272.00" y="144.00" width="32.00" height="16.00" fill="#ffff00" />
      <rect x="304.00" y="144.00" width="16.00" height="16.00" fill="#ffffff" />
      <rect x="320.00" y="144.00" width="32.00" height="16.00" fill="#ffff00" />
      <rect x="0.00" y="160.00" width="32.00" height="16.00" fill="#000000" />
      <rect x="32.00" y="160.00" width="16.00" height="16.00" fill="#00ff00" />
      <rect x="80.00" y="160.00" width="16.00" height="16.00" fill="#00ff00" />
      <rect x="96.00" y="160.00" width="16.00" height="16.00" fill="#00ffff" />
      <rect x="112.00" y="160.00" width="16.00" height="16.00" fill="#ff00ff" />
      <rect x="128.00" y="160.00" width="16.00" height="16.00" fill="#00ff00" />
      <rect x="144.00" y="160.00" width="16.00" height="16.00" fill="#00ffff" />
      <rect x="160.00" y="160.00" width="16.00" height="16.00" fill="#ffff00" />
      <rect x="176.00" y="160.00" width="16.00" height="16.00" fill="#00ff00" />
      <rect x="192.00" y="160.00" width="16.00" height="16.00" fill="#ff00ff" />
      <rect x="208.00" y="160.00" width="16.00" height="16.00" fill="#00ff00" />
      <rect x="224.00" y="160.00" width="16.00" height="16.00" fill="#ff00ff" />
      <rect x="240.00" y="160.00" width="16.00" height="16.00" fill="#ffff00" />
      <rect x="256.00" y="160.00" width="16.00" height="16.00" fill="#00ff00" />
      <rect x="272.00" y="160.00" width="16.00" height="16.00" fill="#ff00ff" />
      <rect x="288.00" y="160.00" width="16.00" height="16.00" fill="#00ff00" />
      <rect x="304.00" y="160.00" width="16.00" height="16.00" fill="#000000" />
      <rect x="320.00" y="160.00" width="32.00" height="16.00" fill="#00ffff" />
      <rect x="0.00" y="176.00" width="16.00" height="16.00" fill="#000000" />
      <rect x="16.00" y="176.00" width="16.00" height="16.00" fill="#ffffff" />
      <rect x="32.00" y="176.00" width="16.00" height="16.00" fill="#00ffff" />
      <rect x="80.00" y="176.00" width="16.00" height="16.00" fill="#00ffff" />
      <rect x="96.00" y="176.00" width="16.00" height="16.00" fill="#ffff00" />
      <rect x="112.00" y="176.00" width="16.00" height="16.00" fill="#00ff00" />
      <rect x="128.00" y="176.00" width="32.00" height="16.00" fill="#ff00ff" />
      <rect x="160.00" y="176.00" width="16.00" height="16.00" fill="#00ff00" />
      <rect x="176.00" y="176.00" width="16.00" height="16.00" fill="#ff00ff" />
      <rect x="192.00" y="176.00" width="48.00" height="16.00" fill="#ffff00" />
      <rect x="240.00" y="176.00" width="16.00" height="16.00" fill="#00ffff" />
      <rect x="256.00" y="176.00" width="32.00" height="16.00" fill="#ffff00" />
      <rect x="288.00" y="176.00" width="16.00" height="16.00" fill="#ff00ff" />
      <rect x="304.00" y="176.00" width="16.00" height="16.00" fill="#ffffff" />
      <rect x="320.00" y="176.00" width="16.00" height="16.00" fill="#00ff00" />
      <rect x="336.00" y="176.00" width="16.00" height="16.00" fill="#ffff00" />
      <rect x="0.00" y="192.00" width="32.00" height="16.00" fill="#000000" />
      <rect x="32.00" y="192.00" width="16.00" height="16.00" fill="#00ff00" />
      <rect x="80.00" y="192.00" width="16.00" height="16.00" fill="#000000" />
      <rect x="96.00" y="192.00" width="16.00" height="16.00" fill="#ffffff" />
      <rect x="112.00" y="192.00" width="16.00" height="16.00" fill="#000000" />
      <rect x="128.00" y="192.00" width="16.00" height="16.00" fill="#ffffff" />
      <rect x="144.00" y="192.00" width="16.00" height="16.00" fill="#000000" />
      <rect x="160.00" y="192.00" width="16.00" height="16.00" fill="#ffffff" />
      <rect x="176.00" y="192.00" width="16.00" height="16.00" fill="#000000" />
      <rect x="192.00" y="192.00" width="16.00" height="16.00" fill="#ffffff" />
      <rect x="208.00" y="192.00" width="16.00" height="16.00" fill="#000000" />
      <rect x="224.00" y="192.00" width="16.00" height="16.00" fill="#ffffff" />
      <rect x="240.00" y="192.00" width="16.00" height="16.00" fill="#000000" />
      <rect x="256.00" y="192.00" width="16.00" height="16.00" fill="#ffffff" />
      <rect x="272.00" y="192.00" width="16.00" height="16.00" fill="#000000" />
      <rect x="288.00" y="192.00" width="16.00" height="16.00" fill="#ffffff" />
      <rect x="304.00" y="192.00" width="16.00" height="16.00" fill="#000000" />
      <rect x="320.00" y="192.00" width="16.00" height="16.00" fill="#ffffff" />
      <rect x="336.00" y="192.00" width="32.00" height="16.00" fill="#000000" />
      <rect x="0.00" y="208.00" width="16.00" height="16.00" fill="#000000" />
      <rect x="16.00" y="208.00" width="16.00" height="16.00" fill="#ffffff" />
      <rect x="32.00" y="208.00" width="16.00" height="16.00" fill="#ff00ff" />
      <rect x="80.00" y="208.00" width="16.00" height="16.00" fill="#00ff00" />
      <rect x="96.00" y="208.00" width="16.00" height="16.00" fill="#00ffff" />
      <rect x="112.00" y="208.00" width="16.00" height="16.00" fill="#ffff00" />
      <rect x="128.00" y="208.00" width="16.00" height="16.00" fill="#00ffff" />
      <rect x="144.00" y="208.00" width="32.00" height="16.00" fill="#ff00ff" />
      <rect x="176.00" y="208.00" width="16.00" height="16.00" fill="#ffff00" />
      <rect x="192.00" y="208.00" width="16.00" height="16.00" fill="#00ffff" />
      <rect x="208.00" y="208.00" width="32.00" height="16.00" fill="#ff00ff" />
      <rect x="240.00" y="208.00" width="32.00" height="16.00" fill="#ffff00" />
      <rect x="272.00" y="208.00" width="16.00" height="16.00" fill="#00ffff" />
      <rect x="288.00" y="208.00" width="16.00" height="16.00" fill="#ff00ff" />
      <rect x="304.00" y="208.00" width="16.00" height="16.00" fill="#ffffff" />
      <rect x="320.00" y="208.00" width="32.00" height="16.00" fill="#00ffff" />
      <rect x="352.00" y="208.00" width="16.00" height="80.00" fill="#000000" />
      <rect x="0.00" y="224.00" width="32.00" height="16.00" fill="#000000" />
      <rect x="32.00" y="224.00" width="16.00" height="16.00" fill="#00ffff" />
      <rect x="80.00" y="224.00" width="16.00" height="16.00" fill="#00ffff" />
      <rect x="96.00" y="224.00" width="16.00" height="16.00" fill="#ff00ff" />
      <rect x="112.00" y="224.00" width="16.00" height="16.00" fill="#00ff00" />
      <rect x="128.00" y="224.00" width="16.00" height="16.00" fill="#ffff00" />
      <rect x="144.00" y="224.00" width="32.00" height="16.00" fill="#00ffff" />
      <rect x="176.00" y="224.00" width="16.00" height="16.00" fill="#00ff00" />
      <rect x="192.00" y="224.00" width="16.00" height="16.00" fill="#ffff00" />
      <rect x="208.00" y="224.00" width="32.00" height="16.00" fill="#00ffff" />
      <rect x="240.00" y="224.00" width="32.00" height="16.00" fill="#00ff00" />
      <rect x="272.00" y="224.00" width="16.00" height="16.00" fill="#ffff00" />
      <rect x="288.00" y="224.00" width="16.00" height="16.00" fill="#00ffff" />
      <rect x="304.00" y="224.00" width="16.00" height="16.00" fill="#000000" />
      <rect x="320.00" y="224.00" width="16.00" height="16.00" fill="#00ff00" />
      <rect x="336.00" y="224.00" width="16.00" height="16.00" fill="#ff00ff" />
      <rect x="0.00" y="240.00" width="16.00" height="16.00" fill="#000000" />
      <rect x="16.00" y="240.00" width="32.00" height="16.00" fill="#ffffff" />
      <rect x="80.00" y="240.00" width="16.00" height="16.00" fill="#ff00ff" />
      <rect x="96.00" y="240.00" width="16.00" height="16.00" fill="#00ff00" />
      <rect x="112.00" y="240.00" width="16.00" height="16.00" fill="#ffff00" />
      <rect x="128.00" y="240.00" width="16.00" height="16.00" fill="#00ff00" />
      <rect x="144.00" y="240.00" width="16.00" height="16.00" fill="#ff00ff" />
      <rect x="160.00" y="240.00" width="16.00" height="16.00" fill="#ffff00" />
      <rect x="176.00" y="240.00" width="32.00" height="16.00" fill="#ff00ff" />
      <rect x="208.00" y="240.00" width="32.00" height="16.00" fill="#ffff00" />
      <rect x="240.00" y="240.00" width="16.00" height="16.00" fill="#00ffff" />
      <rect x="256.00" y="240.00" width="16.00" height="16.00" fill="#ffff00" />
      <rect x="272.00" y="240.00" width="16.00" height="16.00" fill="#ff00ff" />
      <rect x="288.00" y="240.00" width="16.00" height="16.00" fill="#ffff00" />
      <rect x="304.00" y="240.00" width="16.00" height="16.00" fill="#ffffff" />
      <rect x="320.00" y="240.00" width="32.00" height="16.00" fill="#ffff00" />
      <rect x="0.00" y="256.00" width="32.00" height="16.00" fill="#000000" />
      <rect x="32.00" y="256.00" width="16.00" height="16.00" fill="#ffffff" />
      <rect x="80.00" y="256.00" width="16.00" height="16.00" fill="#00ff00" />
      <rect x="96.00" y="256.00" width="16.00" height="16.00" fill="#00ffff" />
      <rect x="112.00" y="256.00" width="16.00" height="16.00" fill="#ff00ff" />
      <rect x="128.00" y="256.00" width="32.00" height="16.00" fill="#ffff00" />
      <rect x="160.00" y="256.00" width="16.00" height="16.00" fill="#00ffff" />
      <rect x="176.00" y="256.00" width="16.00" height="16.00" fill="#00ff00" />
      <rect x="192.00" y="256.00" width="16.00" height="16.00" fill="#ffff00" />
      <rect x="208.00" y="256.00" width="16.00" height="16.00" fill="#00ffff" />
      <rect x="224.00" y="256.00" width="16.00" height="16.00" fill="#00ff00" />
      <rect x="240.00" y="256.00" width="16.00" height="16.00" fill="#ffff00" />
      <rect x="256.00" y="256.00" width="16.00" height="16.00" fill="#00ff00" />
      <rect x="272.00" y="256.00" width="16.00" height="16.00" fill="#ffff00" />
      <rect x="288.00" y="256.00" width="16.00" height="16.00" fill="#00ffff" />
      <rect x="304.00" y="256.00" width="16.00" height="16.00" fill="#000000" />
      <rect x="320.00" y="256.00" width="16.00" height="16.00" fill="#00ff00" />
      <rect x="336.00" y="256.00" width="16.00" height="16.00" fill="#ff00ff" />
      <rect x="0.00" y="272.00" width="16.00" height="16.00" fill="#000000" />
      <rect x="16.00" y="272.00" width="32.00" height="16.00" fill="#ffffff" />
      <rect x="80.00" y="272.00" width="16.00" height="16.00" fill="#ff00ff" />
      <rect x="96.00" y="272.00" width="16.00" height="16.00" fill="#00ff00" />
      <rect x="112.00" y="272.00" width="48.00" height="16.00" fill="#00ffff" />
      <rect x="160.00" y="272.00" width="32.00" height="16.00" fill="#ffff00" />
      <rect x="192.00" y="272.00" width="16.00" height="16.00" fill="#00ffff" />
      <rect x="208.00" y="272.00" width="16.00" height="16.00" fill="#00ff00" />
      <rect x="224.00" y="272.00" width="16.00" height="16.00" fill="#00ffff" />
      <rect x="240.00" y="272.00" width="16.00" height="16.00" fill="#00ff00" />
      <rect x="256.00" y="272.00" width="16.00" height="16.00" fill="#ff00ff" />
      <rect x="272.00" y="272.00" width="16.00" height="16.00" fill="#00ffff" />
      <rect x="288.00" y="272.00" width="16.00" height="16.00" fill="#ff00ff" />
      <rect x="304.00" y="272.00" width="16.00" height="16.00" fill="#ffffff" />
      <rect x="320.00" y="272.00" width="16.00" height="16.00" fill="#ff00ff" />
      <rect x="336.00" y="272.00" width="16.00" height="16.00" fill="#00ffff" />
      <rect x="0.00" y="288.00" width="368.00" height="16.00" fill="#000000" />
   </g>
</svg>
