<?xml version="1.0" standalone="no"?>
<!DOCTYPE svg PUBLIC "-//W3C//DTD SVG 1.1//EN"
   "http://www.w3.org/Graphics/SVG/1.1/DTD/svg11.dtd">
<svg width="452" height="311" version="1.1"
   xmlns="http://www.w3.org/2000/svg">
   <desc>Zint Generated Symbol
   </desc>

   <g id="barcode" fill="#000000">
      <rect x="0" y="0" width="452" height="311" fill="#FFFFFF" />
      <rect x="36.00" y="0.00" width="4.00" height="296.97" />
      <rect x="44.00" y="0.00" width="4.00" height="296.97" />
      <rect x="52.00" y="0.00" width="12.00" height="296.97" />
      <rect x="68.00" y="0.00" width="8.00" height="296.97" />
      <rect x="84.00" y="0.00" width="4.00" height="276.97" />
      <rect x="96.00" y="0.00" width="8.00" height="276.97" />
      <rect x="108.00" y="0.00" width="8.00" height="276.97" />
      <rect x="128.00" y="0.00" width="4.00" height="276.97" />
      <rect x="140.00" y="0.00" width="4.00" height="276.97" />
      <rect x="152.00" y="0.00" width="8.00" height="276.97" />
      <rect x="164.00" y="0.00" width="12.00" height="276.97" />
      <rect x="180.00" y="0.00" width="8.00" height="276.97" />
      <rect x="196.00" y="0.00" width="4.00" height="276.97" />
      <rect x="208.00" y="0.00" width="8.00" height="276.97" />
      <rect x="220.00" y="0.00" width="4.00" height="296.97" />
      <rect x="228.00" y="0.00" width="4.00" height="296.97" />
      <rect x="236.00" y="0.00" width="4.00" height="276.97" />
      <rect x="252.00" y="0.00" width="4.00" height="276.97" />
      <rect x="264.00" y="0.00" width="12.00" height="276.97" />
      <rect x="284.00" y="0.00" width="4.00" height="276.97" />
      <rect x="292.00" y="0.00" width="8.00" height="276.97" />
      <rect x="304.00" y="0.00" width="8.00" height="276.97" />
      <rect x="320.00" y="0.00" width="4.00" height="276.97" />
      <rect x="336.00" y="0.00" width="4.00" height="276.97" />
      <rect x="348.00" y="0.00" width="12.00" height="276.97" />
      <rect x="368.00" y="0.00" width="4.00" height="276.97" />
      <rect x="376.00" y="0.00" width="4.00" height="296.97" />
      <rect x="396.00" y="0.00" width="4.00" height="296.97" />
      <rect x="404.00" y="0.00" width="4.00" height="296.97" />
      <rect x="412.00" y="0.00" width="4.00" height="296.97" />
      <text x="17.40" y="309.17" text-anchor="end"
         font-family="Helvetica, sans-serif" font-size="28.0" >
         7
      </text>
      <text x="148.00" y="309.17" text-anchor="middle"
         font-family="Helvetica, sans-serif" font-size="40.0" >
         25272
      </text>
      <text x="304.00" y="309.17" text-anchor="middle"
         font-family="Helvetica, sans-serif" font-size="40.0" >
         70270
      </text>
      <text x="434.60" y="309.17" text-anchor="start"
         font-family="Helvetica, sans-serif" font-size="28.0" >
         3
      </text>
   </g>
</svg>
