<?xml version="1.0" standalone="no"?>
<!DOCTYPE svg PUBLIC "-//W3C//DTD SVG 1.1//EN" "http://www.w3.org/Graphics/SVG/1.1/DTD/svg11.dtd">
<svg width="452" height="313" version="1.1" xmlns="http://www.w3.org/2000/svg">
 <desc>Zint Generated Symbol</desc>
 <g id="barcode" fill="#000000">
  <rect x="0" y="0" width="452" height="313" fill="#FFFFFF"/>
  <path d="M36 0h4v296.97h-4ZM44 0h4v296.97h-4ZM52 0h12v296.97h-12ZM68 0h8v296.97h-8ZM84 0h4v276.97h-4ZM96 0h8v276.97h-8ZM108 0h8v276.97h-8ZM128 0h4v276.97h-4ZM140 0h4v276.97h-4ZM152 0h8v276.97h-8ZM164 0h12v276.97h-12ZM180 0h8v276.97h-8ZM196 0h4v276.97h-4ZM208 0h8v276.97h-8ZM220 0h4v296.97h-4ZM228 0h4v296.97h-4ZM236 0h4v276.97h-4ZM252 0h4v276.97h-4ZM264 0h12v276.97h-12ZM284 0h4v276.97h-4ZM292 0h8v276.97h-8ZM304 0h8v276.97h-8ZM320 0h4v276.97h-4ZM336 0h4v276.97h-4ZM348 0h12v276.97h-12ZM368 0h4v276.97h-4ZM376 0h4v296.97h-4ZM396 0h4v296.97h-4ZM404 0h4v296.97h-4ZM412 0h4v296.97h-4Z"/>
  <text x="17.4" y="311.37" text-anchor="end" font-family="OCRB, monospace" font-size="28">
   7
  </text>
  <text x="148" y="311.37" text-anchor="middle" font-family="OCRB, monospace" font-size="40">
   25272
  </text>
  <text x="304" y="311.37" text-anchor="middle" font-family="OCRB, monospace" font-size="40">
   70270
  </text>
  <text x="430.6" y="311.37" text-anchor="start" font-family="OCRB, monospace" font-size="28">
   3
  </text>
 </g>
</svg>
