<?xml version="1.0" standalone="no"?>
<!DOCTYPE svg PUBLIC "-//W3C//DTD SVG 1.1//EN"
   "http://www.w3.org/Graphics/SVG/1.1/DTD/svg11.dtd">
<svg width="67" height="78" version="1.1"
   xmlns="http://www.w3.org/2000/svg">
   <desc>Zint Generated Symbol
   </desc>

   <g id="barcode" fill="#000000">
      <rect x="0" y="0" width="67" height="78" fill="#FFFFFF" />
      <rect x="9.00" y="0.00" width="1.00" height="74.24" />
      <rect x="11.00" y="0.00" width="1.00" height="74.24" />
      <rect x="14.00" y="0.00" width="2.00" height="69.24" />
      <rect x="18.00" y="0.00" width="1.00" height="69.24" />
      <rect x="21.00" y="0.00" width="1.00" height="69.24" />
      <rect x="24.00" y="0.00" width="2.00" height="69.24" />
      <rect x="27.00" y="0.00" width="1.00" height="69.24" />
      <rect x="32.00" y="0.00" width="1.00" height="69.24" />
      <rect x="35.00" y="0.00" width="3.00" height="69.24" />
      <rect x="39.00" y="0.00" width="1.00" height="69.24" />
      <rect x="41.00" y="0.00" width="2.00" height="69.24" />
      <rect x="46.00" y="0.00" width="1.00" height="69.24" />
      <rect x="51.00" y="0.00" width="1.00" height="69.24" />
      <rect x="53.00" y="0.00" width="1.00" height="69.24" />
      <rect x="55.00" y="0.00" width="1.00" height="74.24" />
      <rect x="57.00" y="0.00" width="1.00" height="74.24" />
      <rect x="59.00" y="0.00" width="1.00" height="74.24" />
      <text x="4.00" y="77.24" text-anchor="end"
         font-family="Helvetica, sans-serif" font-size="7.0" >
         1
      </text>
      <text x="33.00" y="77.24" text-anchor="middle"
         font-family="Helvetica, sans-serif" font-size="10.0" >
         123456
      </text>
      <text x="63.00" y="77.24" text-anchor="start"
         font-family="Helvetica, sans-serif" font-size="7.0" >
         2
      </text>
   </g>
</svg>
