<?xml version="1.0" standalone="no"?>
<!DOCTYPE svg PUBLIC "-//W3C//DTD SVG 1.1//EN" "http://www.w3.org/Graphics/SVG/1.1/DTD/svg11.dtd">
<svg width="268" height="313" version="1.1" xmlns="http://www.w3.org/2000/svg">
 <desc>Zint Generated Symbol</desc>
 <g id="barcode" fill="#000000">
  <rect x="0" y="0" width="268" height="313" fill="#FFFFFF"/>
  <path d="M36 0h4v296.97h-4ZM44 0h4v296.97h-4ZM52 0h8v276.97h-8ZM68 0h8v276.97h-8ZM84 0h4v276.97h-4ZM96 0h8v276.97h-8ZM108 0h16v276.97h-16ZM128 0h4v276.97h-4ZM140 0h12v276.97h-12ZM156 0h4v276.97h-4ZM164 0h12v276.97h-12ZM184 0h4v276.97h-4ZM192 0h4v276.97h-4ZM200 0h16v276.97h-16ZM220 0h4v296.97h-4ZM228 0h4v296.97h-4ZM236 0h4v296.97h-4Z"/>
  <text x="17.4" y="311.37" text-anchor="end" font-family="OCRB, monospace" font-size="28">
   0
  </text>
  <text x="134" y="311.37" text-anchor="middle" font-family="OCRB, monospace" font-size="40">
   123456
  </text>
  <text x="246.6" y="311.37" text-anchor="start" font-family="OCRB, monospace" font-size="28">
   5
  </text>
 </g>
</svg>
