<?xml version="1.0" standalone="no"?>
<!DOCTYPE svg PUBLIC "-//W3C//DTD SVG 1.1//EN" "http://www.w3.org/Graphics/SVG/1.1/DTD/svg11.dtd">
<svg width="749" height="280" version="1.1" xmlns="http://www.w3.org/2000/svg">
 <desc>Zint Generated Symbol</desc>
 <g id="barcode" fill="#000000">
  <rect x="0" y="0" width="749" height="280" fill="#FFFFFF"/>
  <path d="M0 0h9.6v240h-9.6ZM14.4 0h4.8v240h-4.8ZM28.8 0h4.8v240h-4.8ZM52.8 0h4.8v240h-4.8ZM72 0h9.6v240h-9.6ZM86.4 0h4.8v240h-4.8ZM105.6 0h4.8v240h-4.8ZM124.8 0h9.6v240h-9.6ZM139.2 0h4.8v240h-4.8ZM158.4 0h4.8v240h-4.8ZM168 0h14.4v240h-14.4ZM187.2 0h19.2v240h-19.2ZM211.2 0h19.2v240h-19.2ZM240 0h4.8v240h-4.8ZM249.6 0h4.8v240h-4.8ZM264 0h4.8v240h-4.8ZM278.4 0h4.8v240h-4.8ZM288 0h9.6v240h-9.6ZM316.8 0h4.8v240h-4.8ZM326.4 0h9.6v240h-9.6ZM350.4 0h14.4v240h-14.4ZM369.6 0h9.6v240h-9.6ZM384 0h14.4v240h-14.4ZM408 0h4.8v240h-4.8ZM422.4 0h4.8v240h-4.8ZM432 0h19.2v240h-19.2ZM456 0h14.4v240h-14.4ZM475.2 0h9.6v240h-9.6ZM494.4 0h14.4v240h-14.4ZM513.6 0h4.8v240h-4.8ZM528 0h4.8v240h-4.8ZM547.2 0h4.8v240h-4.8ZM566.4 0h9.6v240h-9.6ZM580.8 0h4.8v240h-4.8ZM590.4 0h4.8v240h-4.8ZM609.6 0h9.6v240h-9.6ZM633.6 0h4.8v240h-4.8ZM652.8 0h4.8v240h-4.8ZM667.2 0h9.6v240h-9.6ZM686.4 0h9.6v240h-9.6ZM710.4 0h14.4v240h-14.4ZM729.6 0h4.8v240h-4.8ZM739.2 0h9.6v240h-9.6Z"/>
  <text x="374.4" y="272.03" text-anchor="middle" font-family="Arimo, Arial, sans-serif" font-size="33.6">
   EE 876 543 216 CA
  </text>
 </g>
</svg>
