<?xml version="1.0" standalone="no"?>
<!DOCTYPE svg PUBLIC "-//W3C//DTD SVG 1.1//EN" "http://www.w3.org/Graphics/SVG/1.1/DTD/svg11.dtd">
<svg width="1032" height="50" version="1.1" xmlns="http://www.w3.org/2000/svg">
 <desc>Zint Generated Symbol</desc>
 <g id="barcode" fill="#000000">
  <rect x="0" y="0" width="1032" height="50" fill="#FFFFFF"/>
  <path d="M48 0h8v33.2h-8ZM64 0h8v49.88h-8ZM80 0h8v33.2h-8ZM160 0h8v49.88h-8ZM224 0h8v49.88h-8ZM256 0h8v49.88h-8ZM336 0h8v33.2h-8ZM368 0h8v33.2h-8ZM400 0h8v33.2h-8ZM416 0h8v49.88h-8ZM432 0h8v33.2h-8ZM464 0h8v49.88h-8ZM480 0h8v33.2h-8ZM544 0h8v49.88h-8ZM576 0h8v33.2h-8ZM592 0h8v33.2h-8ZM608 0h8v33.2h-8ZM624 0h8v49.88h-8ZM688 0h8v33.2h-8ZM720 0h8v49.88h-8ZM736 0h8v33.2h-8ZM752 0h8v33.2h-8ZM768 0h8v33.2h-8ZM816 0h8v49.88h-8ZM880 0h8v49.88h-8ZM896 0h8v33.2h-8ZM992 0h8v49.88h-8ZM1008 0h8v49.88h-8ZM0 16.68h8v33.2h-8ZM16 16.68h8v16.51h-8ZM32 16.68h8v16.51h-8ZM96 16.68h8v33.2h-8ZM112 16.68h8v33.2h-8ZM128 16.68h8v16.51h-8ZM144 16.68h8v16.51h-8ZM176 16.68h8v16.51h-8ZM192 16.68h8v33.2h-8ZM208 16.68h8v16.51h-8ZM240 16.68h8v16.51h-8ZM272 16.68h8v33.2h-8ZM288 16.68h8v16.51h-8ZM304 16.68h8v33.2h-8ZM320 16.68h8v33.2h-8ZM352 16.68h8v33.2h-8ZM384 16.68h8v33.2h-8ZM448 16.68h8v33.2h-8ZM496 16.68h8v16.51h-8ZM512 16.68h8v33.2h-8ZM528 16.68h8v33.2h-8ZM560 16.68h8v16.51h-8ZM640 16.68h8v33.2h-8ZM656 16.68h8v16.51h-8ZM672 16.68h8v16.51h-8ZM704 16.68h8v33.2h-8ZM784 16.68h8v16.51h-8ZM800 16.68h8v33.2h-8ZM832 16.68h8v33.2h-8ZM848 16.68h8v16.51h-8ZM864 16.68h8v33.2h-8ZM912 16.68h8v33.2h-8ZM928 16.68h8v33.2h-8ZM944 16.68h8v33.2h-8ZM960 16.68h8v16.51h-8ZM976 16.68h8v33.2h-8ZM1024 16.68h8v16.51h-8Z"/>
 </g>
</svg>
